<?xml version="1.0" encoding="UTF-8" standalone="no"?>
<!-- Created with Inkscape (http://www.inkscape.org/) -->

<svg
   xmlns:dc="http://purl.org/dc/elements/1.1/"
   xmlns:cc="http://creativecommons.org/ns#"
   xmlns:rdf="http://www.w3.org/1999/02/22-rdf-syntax-ns#"
   xmlns:svg="http://www.w3.org/2000/svg"
   xmlns="http://www.w3.org/2000/svg"
   xmlns:sodipodi="http://sodipodi.sourceforge.net/DTD/sodipodi-0.dtd"
   xmlns:inkscape="http://www.inkscape.org/namespaces/inkscape"
   width="210mm"
   height="297mm"
   viewBox="0 0 744.09448819 1052.3622047"
   id="svg2"
   version="1.1"
   inkscape:version="0.91 r13725"
   sodipodi:docname="amp_dim_V2.svg">
  <defs
     id="defs4" />
  <sodipodi:namedview
     id="base"
     pagecolor="#ffffff"
     bordercolor="#666666"
     borderopacity="1.0"
     inkscape:pageopacity="0.0"
     inkscape:pageshadow="2"
     inkscape:zoom="1.979899"
     inkscape:cx="-55.783299"
     inkscape:cy="22.022074"
     inkscape:document-units="px"
     inkscape:current-layer="layer2"
     showgrid="false"
     inkscape:window-width="1317"
     inkscape:window-height="744"
     inkscape:window-x="49"
     inkscape:window-y="24"
     inkscape:window-maximized="1" />
  <metadata
     id="metadata7">
    <rdf:RDF>
      <cc:Work
         rdf:about="">
        <dc:format>image/svg+xml</dc:format>
        <dc:type
           rdf:resource="http://purl.org/dc/dcmitype/StillImage" />
        <dc:title></dc:title>
      </cc:Work>
    </rdf:RDF>
  </metadata>
  <g
     inkscape:label="Capa 1"
     inkscape:groupmode="layer"
     id="layer1"
     style="display:inline">
    <path
       style="opacity:1;fill:none;fill-opacity:1;stroke:#000000;stroke-width:0.20636737;stroke-linecap:round;stroke-linejoin:round;stroke-miterlimit:4;stroke-dasharray:none;stroke-dashoffset:0;stroke-opacity:1"
       d="m -39.046353,919.62633 78.092705,0 c 12.663518,0 22.858338,9.58239 22.858338,21.48518 l 0,206.62639 c 0,11.9029 -10.19482,21.4852 -22.858338,21.4852 l -78.092705,0 c -12.663519,0 -22.858338,-9.5823 -22.858338,-21.4852 l 0,-206.62639 c 0,-11.90279 10.194819,-21.48518 22.858338,-21.48518 z"
       id="rect4136"
       inkscape:connector-curvature="0" />
    <path
       style="opacity:1;fill:none;fill-opacity:1;stroke:#000000;stroke-width:0.29717278;stroke-linecap:round;stroke-linejoin:round;stroke-miterlimit:4;stroke-dasharray:none;stroke-dashoffset:0;stroke-opacity:1"
       d="m -41.955844,935.69345 a 5.1663728,5.1663723 0 0 1 -5.138414,5.19398 5.1663728,5.1663723 0 0 1 -5.194181,-5.13821 5.1663728,5.1663723 0 0 1 5.138006,-5.19438 5.1663728,5.1663723 0 0 1 5.194584,5.1378"
       id="path4134"
       inkscape:connector-curvature="0" />
    <path
       style="opacity:1;fill:none;fill-opacity:1;stroke:#000000;stroke-width:0.29717278;stroke-linecap:round;stroke-linejoin:round;stroke-miterlimit:4;stroke-dasharray:none;stroke-dashoffset:0;stroke-opacity:1"
       d="m 52.288449,1153.7554 a 5.1663728,5.1663723 0 0 1 -5.138413,5.194 5.1663728,5.1663723 0 0 1 -5.194182,-5.1382 5.1663728,5.1663723 0 0 1 5.138006,-5.1944 5.1663728,5.1663723 0 0 1 5.194585,5.1378"
       id="path4139"
       inkscape:connector-curvature="0" />
    <path
       style="opacity:1;fill:none;fill-opacity:1;stroke:#000000;stroke-width:0.29717278;stroke-linecap:round;stroke-linejoin:round;stroke-miterlimit:4;stroke-dasharray:none;stroke-dashoffset:0;stroke-opacity:1"
       d="m 52.288449,935.69345 a 5.1663728,5.1663723 0 0 1 -5.138413,5.19398 5.1663728,5.1663723 0 0 1 -5.194182,-5.13821 5.1663728,5.1663723 0 0 1 5.138006,-5.19438 5.1663728,5.1663723 0 0 1 5.194585,5.1378"
       id="path4141"
       inkscape:connector-curvature="0" />
    <path
       style="opacity:1;fill:none;fill-opacity:1;stroke:#000000;stroke-width:0.29717278;stroke-linecap:round;stroke-linejoin:round;stroke-miterlimit:4;stroke-dasharray:none;stroke-dashoffset:0;stroke-opacity:1"
       d="m -41.955844,1153.7554 a 5.1663728,5.1663723 0 0 1 -5.138414,5.194 5.1663728,5.1663723 0 0 1 -5.194181,-5.1382 5.1663728,5.1663723 0 0 1 5.138006,-5.1944 5.1663728,5.1663723 0 0 1 5.194584,5.1378"
       id="path4143"
       inkscape:connector-curvature="0" />
  </g>
  <g
     inkscape:groupmode="layer"
     id="layer2"
     inkscape:label="aux"
     style="display:inline" />
</svg>
