G04 #@! TF.FileFunction,Legend,Top*
%FSLAX45Y45*%
G04 Gerber Fmt 4.5, Leading zero omitted, Abs format (unit mm)*
G04 Created by KiCad (PCBNEW 4.0.7-e2-6376~58~ubuntu16.04.1) date Wed Oct 11 09:48:03 2017*
%MOMM*%
%LPD*%
G01*
G04 APERTURE LIST*
%ADD10C,0.020000*%
%ADD11C,0.120000*%
%ADD12C,0.100000*%
%ADD13C,0.150000*%
G04 APERTURE END LIST*
D10*
D11*
X18975308Y-11721592D02*
X19064208Y-11721592D01*
X19065478Y-11721592D02*
X19021028Y-11662325D01*
X18975308Y-11662325D02*
X19064208Y-11662325D01*
X19018488Y-11662325D02*
X18974038Y-11721592D01*
X18329224Y-6719860D02*
X18329224Y-6599860D01*
X18264224Y-6659860D02*
X18394224Y-6659860D01*
D12*
X19486398Y-7952567D02*
X19386398Y-7952567D01*
X19386398Y-7914471D01*
X19391160Y-7904948D01*
X19395922Y-7900186D01*
X19405446Y-7895424D01*
X19419731Y-7895424D01*
X19429255Y-7900186D01*
X19434017Y-7904948D01*
X19438779Y-7914471D01*
X19438779Y-7952567D01*
X19386398Y-7833519D02*
X19386398Y-7814471D01*
X19391160Y-7804948D01*
X19400684Y-7795424D01*
X19419731Y-7790662D01*
X19453065Y-7790662D01*
X19472112Y-7795424D01*
X19481636Y-7804948D01*
X19486398Y-7814471D01*
X19486398Y-7833519D01*
X19481636Y-7843043D01*
X19472112Y-7852567D01*
X19453065Y-7857329D01*
X19419731Y-7857329D01*
X19400684Y-7852567D01*
X19391160Y-7843043D01*
X19386398Y-7833519D01*
X19386398Y-7762090D02*
X19386398Y-7704948D01*
X19486398Y-7733519D02*
X19386398Y-7733519D01*
D13*
X18767578Y-7943048D02*
X18767578Y-8000190D01*
X18767578Y-7971619D02*
X18667578Y-7971619D01*
X18681864Y-7981143D01*
X18691388Y-7990667D01*
X18696150Y-8000190D01*
X18667578Y-7881143D02*
X18667578Y-7871619D01*
X18672340Y-7862095D01*
X18677102Y-7857333D01*
X18686626Y-7852571D01*
X18705673Y-7847809D01*
X18729483Y-7847809D01*
X18748531Y-7852571D01*
X18758054Y-7857333D01*
X18762816Y-7862095D01*
X18767578Y-7871619D01*
X18767578Y-7881143D01*
X18762816Y-7890667D01*
X18758054Y-7895429D01*
X18748531Y-7900190D01*
X18729483Y-7904952D01*
X18705673Y-7904952D01*
X18686626Y-7900190D01*
X18677102Y-7895429D01*
X18672340Y-7890667D01*
X18667578Y-7881143D01*
X18767578Y-7747809D02*
X18719959Y-7781143D01*
X18767578Y-7804952D02*
X18667578Y-7804952D01*
X18667578Y-7766857D01*
X18672340Y-7757333D01*
X18677102Y-7752571D01*
X18686626Y-7747809D01*
X18700911Y-7747809D01*
X18710435Y-7752571D01*
X18715197Y-7757333D01*
X18719959Y-7766857D01*
X18719959Y-7804952D01*
D12*
X18719520Y-8655257D02*
X18714758Y-8650495D01*
X18709996Y-8640971D01*
X18709996Y-8617161D01*
X18714758Y-8607637D01*
X18719520Y-8602876D01*
X18729044Y-8598114D01*
X18738568Y-8598114D01*
X18752853Y-8602876D01*
X18809996Y-8660018D01*
X18809996Y-8598114D01*
X18719520Y-8560018D02*
X18714758Y-8555257D01*
X18709996Y-8545733D01*
X18709996Y-8521923D01*
X18714758Y-8512399D01*
X18719520Y-8507637D01*
X18729044Y-8502876D01*
X18738568Y-8502876D01*
X18752853Y-8507637D01*
X18809996Y-8564780D01*
X18809996Y-8502876D01*
X18809996Y-8460018D02*
X18709996Y-8460018D01*
X18809996Y-8402876D02*
X18752853Y-8445733D01*
X18709996Y-8402876D02*
X18767139Y-8460018D01*
X18427928Y-8652971D02*
X18423166Y-8648209D01*
X18418404Y-8638685D01*
X18418404Y-8614875D01*
X18423166Y-8605351D01*
X18427928Y-8600590D01*
X18437452Y-8595828D01*
X18446976Y-8595828D01*
X18461261Y-8600590D01*
X18518404Y-8657732D01*
X18518404Y-8595828D01*
X18427928Y-8557732D02*
X18423166Y-8552971D01*
X18418404Y-8543447D01*
X18418404Y-8519637D01*
X18423166Y-8510113D01*
X18427928Y-8505351D01*
X18437452Y-8500590D01*
X18446976Y-8500590D01*
X18461261Y-8505351D01*
X18518404Y-8562494D01*
X18518404Y-8500590D01*
X18518404Y-8457732D02*
X18418404Y-8457732D01*
X18518404Y-8400590D02*
X18461261Y-8443447D01*
X18418404Y-8400590D02*
X18475547Y-8457732D01*
X18135320Y-8660591D02*
X18130558Y-8655829D01*
X18125796Y-8646305D01*
X18125796Y-8622495D01*
X18130558Y-8612971D01*
X18135320Y-8608210D01*
X18144844Y-8603448D01*
X18154368Y-8603448D01*
X18168653Y-8608210D01*
X18225796Y-8665352D01*
X18225796Y-8603448D01*
X18135320Y-8565352D02*
X18130558Y-8560591D01*
X18125796Y-8551067D01*
X18125796Y-8527257D01*
X18130558Y-8517733D01*
X18135320Y-8512971D01*
X18144844Y-8508210D01*
X18154368Y-8508210D01*
X18168653Y-8512971D01*
X18225796Y-8570114D01*
X18225796Y-8508210D01*
X18225796Y-8465352D02*
X18125796Y-8465352D01*
X18225796Y-8408210D02*
X18168653Y-8451067D01*
X18125796Y-8408210D02*
X18182939Y-8465352D01*
X17920742Y-8601203D02*
X17920742Y-8658346D01*
X17920742Y-8629775D02*
X17820742Y-8629775D01*
X17835028Y-8639299D01*
X17844552Y-8648823D01*
X17849314Y-8658346D01*
X17920742Y-8558346D02*
X17820742Y-8558346D01*
X17892171Y-8525013D01*
X17820742Y-8491680D01*
X17920742Y-8491680D01*
X17992826Y-7644776D02*
X17988064Y-7640014D01*
X17983302Y-7630490D01*
X17983302Y-7606680D01*
X17988064Y-7597156D01*
X17992826Y-7592395D01*
X18002350Y-7587633D01*
X18011874Y-7587633D01*
X18026159Y-7592395D01*
X18083302Y-7649537D01*
X18083302Y-7587633D01*
X17983302Y-7497156D02*
X17983302Y-7544776D01*
X18030921Y-7549537D01*
X18026159Y-7544776D01*
X18021397Y-7535252D01*
X18021397Y-7511442D01*
X18026159Y-7501918D01*
X18030921Y-7497156D01*
X18040445Y-7492395D01*
X18064255Y-7492395D01*
X18073778Y-7497156D01*
X18078540Y-7501918D01*
X18083302Y-7511442D01*
X18083302Y-7535252D01*
X18078540Y-7544776D01*
X18073778Y-7549537D01*
X17983302Y-7430490D02*
X17983302Y-7420966D01*
X17988064Y-7411442D01*
X17992826Y-7406680D01*
X18002350Y-7401918D01*
X18021397Y-7397156D01*
X18045207Y-7397156D01*
X18064255Y-7401918D01*
X18073778Y-7406680D01*
X18078540Y-7411442D01*
X18083302Y-7420966D01*
X18083302Y-7430490D01*
X18078540Y-7440014D01*
X18073778Y-7444776D01*
X18064255Y-7449537D01*
X18045207Y-7454299D01*
X18021397Y-7454299D01*
X18002350Y-7449537D01*
X17992826Y-7444776D01*
X17988064Y-7440014D01*
X17983302Y-7430490D01*
X18016635Y-7311442D02*
X18083302Y-7311442D01*
X18016635Y-7354299D02*
X18069016Y-7354299D01*
X18078540Y-7349537D01*
X18083302Y-7340014D01*
X18083302Y-7325728D01*
X18078540Y-7316204D01*
X18073778Y-7311442D01*
X17628166Y-8580288D02*
X17628166Y-8637431D01*
X17628166Y-8608859D02*
X17528166Y-8608859D01*
X17542452Y-8618383D01*
X17551976Y-8627907D01*
X17556738Y-8637431D01*
X17528166Y-8518383D02*
X17528166Y-8508859D01*
X17532928Y-8499335D01*
X17537690Y-8494573D01*
X17547214Y-8489811D01*
X17566261Y-8485050D01*
X17590071Y-8485050D01*
X17609119Y-8489811D01*
X17618642Y-8494573D01*
X17623404Y-8499335D01*
X17628166Y-8508859D01*
X17628166Y-8518383D01*
X17623404Y-8527907D01*
X17618642Y-8532669D01*
X17609119Y-8537431D01*
X17590071Y-8542192D01*
X17566261Y-8542192D01*
X17547214Y-8537431D01*
X17537690Y-8532669D01*
X17532928Y-8527907D01*
X17528166Y-8518383D01*
X17628166Y-8442192D02*
X17528166Y-8442192D01*
X17628166Y-8385049D02*
X17571023Y-8427907D01*
X17528166Y-8385049D02*
X17585309Y-8442192D01*
D13*
X17907026Y-9289048D02*
X17907026Y-9346191D01*
X17907026Y-9317619D02*
X17807026Y-9317619D01*
X17821312Y-9327143D01*
X17830836Y-9336667D01*
X17835598Y-9346191D01*
X17807026Y-9227143D02*
X17807026Y-9208095D01*
X17811788Y-9198571D01*
X17821312Y-9189048D01*
X17840359Y-9184286D01*
X17873693Y-9184286D01*
X17892740Y-9189048D01*
X17902264Y-9198571D01*
X17907026Y-9208095D01*
X17907026Y-9227143D01*
X17902264Y-9236667D01*
X17892740Y-9246191D01*
X17873693Y-9250952D01*
X17840359Y-9250952D01*
X17821312Y-9246191D01*
X17811788Y-9236667D01*
X17807026Y-9227143D01*
X17840359Y-9098571D02*
X17907026Y-9098571D01*
X17840359Y-9141429D02*
X17892740Y-9141429D01*
X17902264Y-9136667D01*
X17907026Y-9127143D01*
X17907026Y-9112857D01*
X17902264Y-9103333D01*
X17897502Y-9098571D01*
D12*
X17548378Y-9284286D02*
X17548378Y-9341429D01*
X17548378Y-9312857D02*
X17448378Y-9312857D01*
X17462664Y-9322381D01*
X17472188Y-9331905D01*
X17476950Y-9341429D01*
X17448378Y-9222381D02*
X17448378Y-9212857D01*
X17453140Y-9203333D01*
X17457902Y-9198571D01*
X17467426Y-9193810D01*
X17486473Y-9189048D01*
X17510283Y-9189048D01*
X17529331Y-9193810D01*
X17538854Y-9198571D01*
X17543616Y-9203333D01*
X17548378Y-9212857D01*
X17548378Y-9222381D01*
X17543616Y-9231905D01*
X17538854Y-9236667D01*
X17529331Y-9241429D01*
X17510283Y-9246191D01*
X17486473Y-9246191D01*
X17467426Y-9241429D01*
X17457902Y-9236667D01*
X17453140Y-9231905D01*
X17448378Y-9222381D01*
X17481711Y-9103333D02*
X17548378Y-9103333D01*
X17481711Y-9146191D02*
X17534092Y-9146191D01*
X17543616Y-9141429D01*
X17548378Y-9131905D01*
X17548378Y-9117619D01*
X17543616Y-9108095D01*
X17538854Y-9103333D01*
X18224462Y-6461765D02*
X18224462Y-6518908D01*
X18224462Y-6490336D02*
X18124462Y-6490336D01*
X18138748Y-6499860D01*
X18148272Y-6509384D01*
X18153034Y-6518908D01*
X18124462Y-6399860D02*
X18124462Y-6390336D01*
X18129224Y-6380812D01*
X18133986Y-6376050D01*
X18143510Y-6371288D01*
X18162557Y-6366527D01*
X18186367Y-6366527D01*
X18205415Y-6371288D01*
X18214938Y-6376050D01*
X18219700Y-6380812D01*
X18224462Y-6390336D01*
X18224462Y-6399860D01*
X18219700Y-6409384D01*
X18214938Y-6414146D01*
X18205415Y-6418908D01*
X18186367Y-6423669D01*
X18162557Y-6423669D01*
X18143510Y-6418908D01*
X18133986Y-6414146D01*
X18129224Y-6409384D01*
X18124462Y-6399860D01*
X18124462Y-6304622D02*
X18124462Y-6295098D01*
X18129224Y-6285574D01*
X18133986Y-6280812D01*
X18143510Y-6276050D01*
X18162557Y-6271288D01*
X18186367Y-6271288D01*
X18205415Y-6276050D01*
X18214938Y-6280812D01*
X18219700Y-6285574D01*
X18224462Y-6295098D01*
X18224462Y-6304622D01*
X18219700Y-6314146D01*
X18214938Y-6318908D01*
X18205415Y-6323669D01*
X18186367Y-6328431D01*
X18162557Y-6328431D01*
X18143510Y-6323669D01*
X18133986Y-6318908D01*
X18129224Y-6314146D01*
X18124462Y-6304622D01*
X18157795Y-6185574D02*
X18224462Y-6185574D01*
X18157795Y-6228431D02*
X18210176Y-6228431D01*
X18219700Y-6223669D01*
X18224462Y-6214146D01*
X18224462Y-6199860D01*
X18219700Y-6190336D01*
X18214938Y-6185574D01*
X18165674Y-9341429D02*
X18165674Y-9331905D01*
X18170436Y-9322381D01*
X18175198Y-9317619D01*
X18184722Y-9312857D01*
X18203769Y-9308095D01*
X18227579Y-9308095D01*
X18246627Y-9312857D01*
X18256150Y-9317619D01*
X18260912Y-9322381D01*
X18265674Y-9331905D01*
X18265674Y-9341429D01*
X18260912Y-9350952D01*
X18256150Y-9355714D01*
X18246627Y-9360476D01*
X18227579Y-9365238D01*
X18203769Y-9365238D01*
X18184722Y-9360476D01*
X18175198Y-9355714D01*
X18170436Y-9350952D01*
X18165674Y-9341429D01*
X18256150Y-9265238D02*
X18260912Y-9260476D01*
X18265674Y-9265238D01*
X18260912Y-9270000D01*
X18256150Y-9265238D01*
X18265674Y-9265238D01*
X18265674Y-9165238D02*
X18265674Y-9222381D01*
X18265674Y-9193810D02*
X18165674Y-9193810D01*
X18179960Y-9203333D01*
X18189484Y-9212857D01*
X18194246Y-9222381D01*
X18199007Y-9079524D02*
X18265674Y-9079524D01*
X18199007Y-9122381D02*
X18251388Y-9122381D01*
X18260912Y-9117619D01*
X18265674Y-9108095D01*
X18265674Y-9093810D01*
X18260912Y-9084286D01*
X18256150Y-9079524D01*
X18624322Y-9289048D02*
X18624322Y-9346191D01*
X18624322Y-9317619D02*
X18524322Y-9317619D01*
X18538608Y-9327143D01*
X18548132Y-9336667D01*
X18552894Y-9346191D01*
X18524322Y-9227143D02*
X18524322Y-9208095D01*
X18529084Y-9198571D01*
X18538608Y-9189048D01*
X18557655Y-9184286D01*
X18590989Y-9184286D01*
X18610036Y-9189048D01*
X18619560Y-9198571D01*
X18624322Y-9208095D01*
X18624322Y-9227143D01*
X18619560Y-9236667D01*
X18610036Y-9246191D01*
X18590989Y-9250952D01*
X18557655Y-9250952D01*
X18538608Y-9246191D01*
X18529084Y-9236667D01*
X18524322Y-9227143D01*
X18557655Y-9098571D02*
X18624322Y-9098571D01*
X18557655Y-9141429D02*
X18610036Y-9141429D01*
X18619560Y-9136667D01*
X18624322Y-9127143D01*
X18624322Y-9112857D01*
X18619560Y-9103333D01*
X18614798Y-9098571D01*
X19256872Y-7185254D02*
X19266396Y-7185254D01*
X19275920Y-7190016D01*
X19280682Y-7194778D01*
X19285444Y-7204302D01*
X19290206Y-7223349D01*
X19290206Y-7247159D01*
X19285444Y-7266206D01*
X19280682Y-7275730D01*
X19275920Y-7280492D01*
X19266396Y-7285254D01*
X19256872Y-7285254D01*
X19247349Y-7280492D01*
X19242587Y-7275730D01*
X19237825Y-7266206D01*
X19233063Y-7247159D01*
X19233063Y-7223349D01*
X19237825Y-7204302D01*
X19242587Y-7194778D01*
X19247349Y-7190016D01*
X19256872Y-7185254D01*
X19333063Y-7275730D02*
X19337825Y-7280492D01*
X19333063Y-7285254D01*
X19328301Y-7280492D01*
X19333063Y-7275730D01*
X19333063Y-7285254D01*
X19375920Y-7194778D02*
X19380682Y-7190016D01*
X19390206Y-7185254D01*
X19414015Y-7185254D01*
X19423539Y-7190016D01*
X19428301Y-7194778D01*
X19433063Y-7204302D01*
X19433063Y-7213825D01*
X19428301Y-7228111D01*
X19371158Y-7285254D01*
X19433063Y-7285254D01*
X19471158Y-7194778D02*
X19475920Y-7190016D01*
X19485444Y-7185254D01*
X19509253Y-7185254D01*
X19518777Y-7190016D01*
X19523539Y-7194778D01*
X19528301Y-7204302D01*
X19528301Y-7213825D01*
X19523539Y-7228111D01*
X19466396Y-7285254D01*
X19528301Y-7285254D01*
X19614015Y-7218587D02*
X19614015Y-7285254D01*
X19571158Y-7218587D02*
X19571158Y-7270968D01*
X19575920Y-7280492D01*
X19585444Y-7285254D01*
X19599730Y-7285254D01*
X19609253Y-7280492D01*
X19614015Y-7275730D01*
M02*
