M48
;DRILL file {KiCad 4.0.7-e2-6376~58~ubuntu16.04.1} date Wed Oct 11 09:47:01 2017
;FORMAT={2:4/ absolute / inch / suppress trailing zeros}
FMAT,2
INCH,LZ
T1C0.016
T2C0.018
T3C0.020
T4C0.028
T5C0.031
T6C0.035
T7C0.039
T8C0.043
T9C0.059
T10C0.060
T11C0.079
T12C0.138
%
G90
G05
M72
T1
X07665Y-031098
T2
X0684Y-041566
X0684Y-042198
X0684Y-04283
X0684Y-043462
X0684Y-044093
X0684Y-044725
X0684Y-045357
X0684Y-045989
X0684Y-046621
X0684Y-047253
X0684Y-047885
X069019Y-041566
X069019Y-047885
X069638Y-041566
X069638Y-047885
X070257Y-041566
X070257Y-047885
X070876Y-041566
X070876Y-047885
X071496Y-041566
X071496Y-047885
X072115Y-041566
X072115Y-047885
X072734Y-041566
X072734Y-042198
X072734Y-04283
X072734Y-043462
X072734Y-044093
X072734Y-044725
X072734Y-045357
X072734Y-045989
X072734Y-046621
X072734Y-047253
X072734Y-047885
X072734Y-047885
T3
X074403Y-03272
X075147Y-031481
T4
X068732Y-033154
X068732Y-033903
X069876Y-033191
X069876Y-033939
X071034Y-033191
X071034Y-033939
X07218Y-033191
X07218Y-033939
X073326Y-033191
X073326Y-033939
T5
X06891Y-035315
X06891Y-037283
X070322Y-035315
X070322Y-037283
X071734Y-035315
X071734Y-037283
X072162Y-024606
X072162Y-02559
X073146Y-035315
X073146Y-037283
X07371Y-02727
X07371Y-03227
X074932Y-034694
X074932Y-035694
X074932Y-036694
X075076Y-033694
X075477Y-028066
X07549Y-03094
X07649Y-02994
X077446Y-028066
X07749Y-03094
T6
X08052Y-042342
X08052Y-043342
T7
X069197Y-03883
X069866Y-040326
X07042Y-028447
X07042Y-030416
X070535Y-03883
X071205Y-040326
X071874Y-03883
X078828Y-03168
X079828Y-03168
X080828Y-03168
T8
X074202Y-045698
X074202Y-046698
T9
X076456Y-033463
X077598Y-037105
X078149Y-036121
X079389Y-033247
X080689Y-035176
T10
X074797Y-025048
X074797Y-049608
X076797Y-025048
X076797Y-049608
X080078Y-027865
X080078Y-029865
T11
X073788Y-038544
X073788Y-040414
X073788Y-042284
X079064Y-03941
X079064Y-041418
T12
X070584Y-046173
T7
X076168Y-04616G85X076168Y-045373
G05
X077743Y-043916G85X076955Y-043916
G05
X07853Y-04616G85X07853Y-045373
G05
T0
M30
