G04 #@! TF.FileFunction,Copper,L2,Bot,Signal*
%FSLAX45Y45*%
G04 Gerber Fmt 4.5, Leading zero omitted, Abs format (unit mm)*
G04 Created by KiCad (PCBNEW 4.0.7-e2-6376~58~ubuntu16.04.1) date Wed Oct 11 09:48:03 2017*
%MOMM*%
%LPD*%
G01*
G04 APERTURE LIST*
%ADD10C,0.020000*%
%ADD11R,2.200000X2.200000*%
%ADD12O,2.200000X2.200000*%
%ADD13R,3.000000X3.000000*%
%ADD14C,3.000000*%
%ADD15R,1.800000X1.800000*%
%ADD16C,1.800000*%
%ADD17O,1.800000X1.800000*%
%ADD18C,0.800000*%
%ADD19C,3.500000*%
%ADD20C,1.440000*%
%ADD21C,1.600000*%
%ADD22O,1.600000X1.600000*%
%ADD23R,1.700000X1.700000*%
%ADD24O,1.700000X1.700000*%
%ADD25C,2.250000*%
%ADD26C,1.400000*%
%ADD27O,1.400000X1.400000*%
%ADD28C,2.000000*%
%ADD29R,2.000000X2.000000*%
%ADD30R,1.600000X1.600000*%
%ADD31R,3.500000X3.500000*%
%ADD32R,12.000000X17.000000*%
%ADD33C,0.600000*%
%ADD34C,0.813000*%
%ADD35C,0.610000*%
%ADD36C,0.150000*%
G04 APERTURE END LIST*
D10*
D11*
X18847308Y-11861292D03*
D12*
X18847308Y-11607292D03*
D13*
X20339812Y-7585710D03*
D14*
X20339812Y-7077710D03*
D15*
X20452080Y-11008944D03*
D16*
X20452080Y-10754944D03*
D15*
X18255996Y-9862820D03*
D17*
X18085996Y-10242820D03*
X17915996Y-9862820D03*
X17745996Y-10242820D03*
X17575996Y-9862820D03*
D18*
X19087338Y-7996174D03*
D19*
X20082152Y-10010156D03*
X20082152Y-10520156D03*
X18742152Y-9790156D03*
X18742152Y-10265156D03*
X18742152Y-10740156D03*
D20*
X19174460Y-7858760D03*
X19428460Y-7604760D03*
X19682460Y-7858760D03*
D21*
X18722340Y-8196580D03*
D22*
X18722340Y-6926580D03*
D23*
X20530312Y-8046720D03*
D24*
X20276312Y-8046720D03*
X20022312Y-8046720D03*
D25*
X20494880Y-8934704D03*
X20164880Y-8444704D03*
X19419880Y-8499704D03*
X19849880Y-9174704D03*
X19709880Y-9424704D03*
D26*
X18624804Y-8430392D03*
D27*
X18624804Y-8620392D03*
D26*
X18333720Y-8430392D03*
D27*
X18333720Y-8620392D03*
D26*
X18042636Y-8430392D03*
D27*
X18042636Y-8620392D03*
D26*
X17748504Y-8430392D03*
D27*
X17748504Y-8620392D03*
D14*
X18998336Y-12600432D03*
D10*
G36*
X19356336Y-12750432D02*
X19356336Y-12450432D01*
X19656336Y-12450432D01*
X19656336Y-12750432D01*
X19356336Y-12750432D01*
X19356336Y-12750432D01*
G37*
D28*
X17886680Y-7725664D03*
D29*
X17886680Y-7225664D03*
D18*
X18898362Y-8310880D03*
D14*
X19506336Y-6362192D03*
D13*
X18998336Y-6362192D03*
D26*
X17457928Y-8611240D03*
D27*
X17457928Y-8421240D03*
D30*
X19069304Y-8558276D03*
D22*
X19032728Y-8812276D03*
X19032728Y-9066276D03*
X19032728Y-9320276D03*
D21*
X17861788Y-8970000D03*
X17861788Y-9470000D03*
X17503140Y-8970000D03*
X17503140Y-9470000D03*
X18329224Y-6499860D03*
D30*
X18329224Y-6249860D03*
D21*
X18220436Y-9470000D03*
X18220436Y-8970000D03*
X18579084Y-8970000D03*
X18579084Y-9470000D03*
X19671284Y-7128764D03*
X19171284Y-7128764D03*
D31*
X19346672Y-11624640D03*
X19946672Y-11624640D03*
X19646672Y-11154640D03*
D18*
X17373600Y-10557764D03*
X17530858Y-10557764D03*
X17688115Y-10557764D03*
X17845373Y-10557764D03*
X18002630Y-10557764D03*
X18159888Y-10557764D03*
X18317145Y-10557764D03*
X18474403Y-10557764D03*
X17373600Y-10718259D03*
X17373600Y-10878753D03*
X17373600Y-11039248D03*
X17373600Y-11199742D03*
X17373600Y-11360236D03*
X17373600Y-11520731D03*
X17373600Y-11681225D03*
X17373600Y-11841720D03*
X17373600Y-12002214D03*
X17373600Y-12162709D03*
X18474403Y-10718259D03*
X18474403Y-10878753D03*
X18474403Y-11039248D03*
X18474403Y-11199742D03*
X18474403Y-11360236D03*
X18474403Y-11520731D03*
X18474403Y-11681225D03*
X18474403Y-11841720D03*
X18474403Y-12002214D03*
X18474403Y-12162709D03*
X17530858Y-12162709D03*
X17688115Y-12162709D03*
X17845373Y-12162709D03*
X18002630Y-12162709D03*
X18159888Y-12162709D03*
X18317145Y-12162709D03*
X18474403Y-12162709D03*
D32*
X17929860Y-11365484D03*
D33*
X19469100Y-7898892D03*
D34*
X18624804Y-8620392D02*
X18624804Y-8924280D01*
X18624804Y-8924280D02*
X18579084Y-8970000D01*
X18417540Y-9480296D02*
X18417540Y-9281160D01*
X18579084Y-9119616D02*
X18579084Y-8970000D01*
X18417540Y-9281160D02*
X18579084Y-9119616D01*
X18255996Y-9862820D02*
X18255996Y-9656064D01*
D35*
X18417540Y-9494520D02*
X18417540Y-9480296D01*
D34*
X18255996Y-9656064D02*
X18417540Y-9494520D01*
X20014912Y-8444704D02*
X19469100Y-7898892D01*
X20014912Y-8444704D02*
X20164880Y-8444704D01*
X19032728Y-9066276D02*
X19543308Y-9066276D01*
X19543308Y-9066276D02*
X20164880Y-8444704D01*
X18579084Y-9470000D02*
X18579084Y-9352280D01*
X18865088Y-9066276D02*
X19032728Y-9066276D01*
X18579084Y-9352280D02*
X18865088Y-9066276D01*
X17886680Y-7725664D02*
X19253708Y-7725664D01*
X19087084Y-8196580D02*
X18722340Y-8196580D01*
X19323304Y-7960360D02*
X19087084Y-8196580D01*
X19323304Y-7795260D02*
X19323304Y-7960360D01*
X19253708Y-7725664D02*
X19323304Y-7795260D01*
X20339812Y-7077710D02*
X20251420Y-7077710D01*
X20251420Y-7077710D02*
X19994118Y-7335012D01*
X19994118Y-7335012D02*
X17996028Y-7335012D01*
X17996028Y-7335012D02*
X17886680Y-7225664D01*
X18482564Y-8239252D02*
X18482564Y-8197596D01*
X18821400Y-7858760D02*
X18863056Y-7858760D01*
X18482564Y-8197596D02*
X18821400Y-7858760D01*
X19174460Y-7858760D02*
X18863056Y-7858760D01*
X18482564Y-8239252D02*
X18482564Y-8845804D01*
D35*
X17947776Y-9470000D02*
X17861788Y-9470000D01*
D34*
X18375376Y-9042400D02*
X17947776Y-9470000D01*
X18375376Y-8952992D02*
X18375376Y-9042400D01*
X18482564Y-8845804D02*
X18375376Y-8952992D01*
X18085996Y-10242820D02*
X18019284Y-10242820D01*
X18019284Y-10242820D02*
X17845024Y-10068560D01*
X17362424Y-8706744D02*
X17457928Y-8611240D01*
X17362424Y-9925304D02*
X17362424Y-8706744D01*
X17505680Y-10068560D02*
X17362424Y-9925304D01*
X17845024Y-10068560D02*
X17505680Y-10068560D01*
X17457928Y-8611240D02*
X17739352Y-8611240D01*
D35*
X17739352Y-8611240D02*
X17748504Y-8620392D01*
X18085996Y-10242820D02*
X18035540Y-10242820D01*
D34*
X17503140Y-9470000D02*
X17645516Y-9470000D01*
X18068544Y-8885568D02*
X18333720Y-8620392D01*
X18068544Y-9046972D02*
X18068544Y-8885568D01*
X17645516Y-9470000D02*
X18068544Y-9046972D01*
X19682460Y-7858760D02*
X20342352Y-7858760D01*
X20342352Y-7858760D02*
X20530312Y-8046720D01*
X19428460Y-7604760D02*
X19682460Y-7858760D01*
X17457928Y-8421240D02*
X17457928Y-7836916D01*
X17457928Y-7836916D02*
X17827244Y-7467600D01*
X17827244Y-7467600D02*
X19291300Y-7467600D01*
X19291300Y-7467600D02*
X19428460Y-7604760D01*
D36*
G36*
X20119540Y-5984205D02*
X20140902Y-5987328D01*
X20162054Y-5990523D01*
X20183038Y-5993850D01*
X20203816Y-5997352D01*
X20224394Y-6001081D01*
X20244739Y-6005081D01*
X20264854Y-6009402D01*
X20284712Y-6014087D01*
X20304312Y-6019185D01*
X20323642Y-6024741D01*
X20342681Y-6030797D01*
X20361433Y-6037403D01*
X20379883Y-6044600D01*
X20398026Y-6052435D01*
X20415875Y-6060962D01*
X20433439Y-6070214D01*
X20450713Y-6080181D01*
X20467650Y-6090831D01*
X20484223Y-6102141D01*
X20500388Y-6114080D01*
X20516108Y-6126618D01*
X20531344Y-6139723D01*
X20546062Y-6153367D01*
X20560223Y-6167519D01*
X20573793Y-6182148D01*
X20586734Y-6197222D01*
X20599012Y-6212711D01*
X20610592Y-6228582D01*
X20621440Y-6244804D01*
X20631523Y-6261343D01*
X20640829Y-6278200D01*
X20649399Y-6295395D01*
X20657292Y-6312937D01*
X20664554Y-6330810D01*
X20671234Y-6349004D01*
X20677379Y-6367498D01*
X20683034Y-6386274D01*
X20688249Y-6405320D01*
X20693072Y-6424617D01*
X20697548Y-6444132D01*
X20701730Y-6463862D01*
X20705666Y-6483774D01*
X20709408Y-6503854D01*
X20713006Y-6524078D01*
X20716504Y-6544381D01*
X20719588Y-6562572D01*
X20719588Y-12389400D01*
X20716512Y-12407544D01*
X20713003Y-12427910D01*
X20709408Y-12448119D01*
X20705666Y-12468199D01*
X20701730Y-12488112D01*
X20697549Y-12507837D01*
X20693071Y-12527358D01*
X20688249Y-12546652D01*
X20683035Y-12565696D01*
X20677379Y-12584476D01*
X20671234Y-12602971D01*
X20664555Y-12621162D01*
X20657292Y-12639036D01*
X20649400Y-12656575D01*
X20640829Y-12673773D01*
X20631523Y-12690630D01*
X20621441Y-12707170D01*
X20610592Y-12723392D01*
X20599012Y-12739262D01*
X20586735Y-12754749D01*
X20573793Y-12769825D01*
X20560224Y-12784453D01*
X20546063Y-12798605D01*
X20531345Y-12812250D01*
X20516108Y-12825356D01*
X20500387Y-12837894D01*
X20484224Y-12849832D01*
X20467651Y-12861142D01*
X20450712Y-12871793D01*
X20433440Y-12881759D01*
X20415874Y-12891011D01*
X20398026Y-12899538D01*
X20379884Y-12907373D01*
X20361435Y-12914570D01*
X20342681Y-12921176D01*
X20323639Y-12927233D01*
X20304313Y-12932788D01*
X20284712Y-12937886D01*
X20264854Y-12942571D01*
X20244738Y-12946892D01*
X20224395Y-12950892D01*
X20203816Y-12954621D01*
X20183034Y-12958124D01*
X20162059Y-12961449D01*
X20140896Y-12964646D01*
X20119546Y-12967766D01*
X20100009Y-12970574D01*
X17899991Y-12970574D01*
X17880454Y-12967766D01*
X17859104Y-12964646D01*
X17837945Y-12961449D01*
X17816966Y-12958124D01*
X17796184Y-12954621D01*
X17775604Y-12950891D01*
X17755263Y-12946892D01*
X17735146Y-12942571D01*
X17715287Y-12937885D01*
X17695687Y-12932788D01*
X17676361Y-12927233D01*
X17657318Y-12921175D01*
X17638566Y-12914570D01*
X17620118Y-12907374D01*
X17601974Y-12899538D01*
X17584126Y-12891011D01*
X17566558Y-12881758D01*
X17549288Y-12871793D01*
X17532349Y-12861142D01*
X17515776Y-12849832D01*
X17499613Y-12837894D01*
X17483894Y-12825358D01*
X17468658Y-12812253D01*
X17453940Y-12798608D01*
X17439777Y-12784454D01*
X17426208Y-12769826D01*
X17413266Y-12754751D01*
X17400988Y-12739262D01*
X17389407Y-12723391D01*
X17378559Y-12707170D01*
X17368476Y-12690629D01*
X17359170Y-12673772D01*
X17350600Y-12656576D01*
X17342708Y-12639036D01*
X17335446Y-12621164D01*
X17328765Y-12602969D01*
X17322621Y-12584475D01*
X17316966Y-12565698D01*
X17315246Y-12559417D01*
X17496767Y-12559417D01*
X17496809Y-12567115D01*
X17496961Y-12567855D01*
X17496858Y-12568603D01*
X17497316Y-12576288D01*
X17497505Y-12577010D01*
X17497443Y-12577754D01*
X17498312Y-12585405D01*
X17498537Y-12586109D01*
X17498515Y-12586847D01*
X17499788Y-12594443D01*
X17500048Y-12595128D01*
X17500064Y-12595861D01*
X17501735Y-12603381D01*
X17502029Y-12604048D01*
X17502083Y-12604775D01*
X17504145Y-12612198D01*
X17504473Y-12612848D01*
X17504565Y-12613571D01*
X17507010Y-12620875D01*
X17507372Y-12621508D01*
X17507502Y-12622225D01*
X17510325Y-12629390D01*
X17510721Y-12630006D01*
X17510890Y-12630719D01*
X17514084Y-12637724D01*
X17514515Y-12638323D01*
X17514722Y-12639031D01*
X17518281Y-12645855D01*
X17518747Y-12646435D01*
X17518994Y-12647138D01*
X17522911Y-12653759D01*
X17523407Y-12654313D01*
X17523691Y-12655002D01*
X17527954Y-12661403D01*
X17528474Y-12661925D01*
X17528791Y-12662591D01*
X17533386Y-12668758D01*
X17533930Y-12669248D01*
X17534278Y-12669892D01*
X17539190Y-12675808D01*
X17539756Y-12676268D01*
X17540136Y-12676890D01*
X17545351Y-12682543D01*
X17545939Y-12682971D01*
X17546350Y-12683571D01*
X17551852Y-12688944D01*
X17552462Y-12689341D01*
X17552905Y-12689920D01*
X17558680Y-12694999D01*
X17559312Y-12695365D01*
X17559785Y-12695921D01*
X17565819Y-12700692D01*
X17566474Y-12701026D01*
X17566979Y-12701560D01*
X17573257Y-12706008D01*
X17573933Y-12706310D01*
X17574470Y-12706820D01*
X17580977Y-12710929D01*
X17581675Y-12711197D01*
X17582244Y-12711682D01*
X17588965Y-12715439D01*
X17589674Y-12715668D01*
X17590265Y-12716120D01*
X17597181Y-12719515D01*
X17597893Y-12719704D01*
X17598501Y-12720120D01*
X17605590Y-12723146D01*
X17606305Y-12723296D01*
X17606929Y-12723676D01*
X17614168Y-12726328D01*
X17614887Y-12726440D01*
X17615527Y-12726786D01*
X17622895Y-12729056D01*
X17623617Y-12729130D01*
X17624274Y-12729442D01*
X17631747Y-12731325D01*
X17632475Y-12731362D01*
X17633148Y-12731639D01*
X17640706Y-12733129D01*
X17641439Y-12733128D01*
X17642130Y-12733371D01*
X17649749Y-12734461D01*
X17650488Y-12734421D01*
X17651197Y-12734629D01*
X17658856Y-12735313D01*
X17659601Y-12735233D01*
X17660330Y-12735405D01*
X17668006Y-12735676D01*
X17668755Y-12735555D01*
X17669501Y-12735688D01*
X17677173Y-12735542D01*
X17677912Y-12735381D01*
X17678662Y-12735474D01*
X17686311Y-12734913D01*
X17687031Y-12734714D01*
X17687776Y-12734765D01*
X17695384Y-12733795D01*
X17696085Y-12733561D01*
X17696824Y-12733573D01*
X17704374Y-12732201D01*
X17705054Y-12731932D01*
X17705786Y-12731906D01*
X17713260Y-12730138D01*
X17713921Y-12729836D01*
X17714645Y-12729772D01*
X17722027Y-12727615D01*
X17722667Y-12727281D01*
X17723381Y-12727180D01*
X17730654Y-12724640D01*
X17731273Y-12724276D01*
X17731978Y-12724139D01*
X17739124Y-12721223D01*
X17739721Y-12720828D01*
X17740417Y-12720656D01*
X17747419Y-12717369D01*
X17747995Y-12716944D01*
X17748680Y-12716737D01*
X17755520Y-12713087D01*
X17756074Y-12712633D01*
X17756748Y-12712391D01*
X17763408Y-12708384D01*
X17763939Y-12707902D01*
X17764601Y-12707625D01*
X17771056Y-12703275D01*
X17771565Y-12702762D01*
X17772216Y-12702449D01*
X17778436Y-12697772D01*
X17778925Y-12697225D01*
X17779568Y-12696873D01*
X17785523Y-12691884D01*
X17785993Y-12691299D01*
X17786630Y-12690905D01*
X17792291Y-12685619D01*
X17792741Y-12684994D01*
X17793372Y-12684553D01*
X17798711Y-12678985D01*
X17799140Y-12678314D01*
X17799765Y-12677821D01*
X17804752Y-12671988D01*
X17805157Y-12671267D01*
X17805775Y-12670718D01*
X17810381Y-12664634D01*
X17810757Y-12663859D01*
X17811365Y-12663247D01*
X17815561Y-12656928D01*
X17815904Y-12656095D01*
X17816497Y-12655415D01*
X17820253Y-12648877D01*
X17820550Y-12647998D01*
X17821112Y-12647261D01*
X17824410Y-12640519D01*
X17824631Y-12639681D01*
X17825112Y-12638962D01*
X17826512Y-12635584D01*
X18820805Y-12635584D01*
X18847771Y-12700846D01*
X18897659Y-12750821D01*
X18962874Y-12777901D01*
X19033488Y-12777963D01*
X19098750Y-12750997D01*
X19148725Y-12701109D01*
X19175805Y-12635894D01*
X19175820Y-12618332D01*
X19296894Y-12618332D01*
X19296894Y-12750432D01*
X19300959Y-12772037D01*
X19313727Y-12791879D01*
X19333210Y-12805191D01*
X19356336Y-12809874D01*
X19488436Y-12809874D01*
X19488436Y-12618332D01*
X19524236Y-12618332D01*
X19524236Y-12809874D01*
X19656336Y-12809874D01*
X19677941Y-12805809D01*
X19697783Y-12793041D01*
X19711095Y-12773558D01*
X19715778Y-12750432D01*
X19715778Y-12618332D01*
X19524236Y-12618332D01*
X19488436Y-12618332D01*
X19296894Y-12618332D01*
X19175820Y-12618332D01*
X19175867Y-12565280D01*
X19148901Y-12500018D01*
X19099402Y-12450432D01*
X19296894Y-12450432D01*
X19296894Y-12582532D01*
X19488436Y-12582532D01*
X19488436Y-12390990D01*
X19524236Y-12390990D01*
X19524236Y-12582532D01*
X19715778Y-12582532D01*
X19715778Y-12559417D01*
X20156551Y-12559417D01*
X20156592Y-12567115D01*
X20156744Y-12567855D01*
X20156641Y-12568603D01*
X20157100Y-12576288D01*
X20157289Y-12577010D01*
X20157227Y-12577754D01*
X20158096Y-12585405D01*
X20158321Y-12586109D01*
X20158298Y-12586847D01*
X20159572Y-12594443D01*
X20159832Y-12595128D01*
X20159848Y-12595861D01*
X20161518Y-12603381D01*
X20161812Y-12604048D01*
X20161867Y-12604775D01*
X20163928Y-12612198D01*
X20164256Y-12612848D01*
X20164348Y-12613571D01*
X20166794Y-12620875D01*
X20167156Y-12621508D01*
X20167285Y-12622225D01*
X20170109Y-12629390D01*
X20170505Y-12630006D01*
X20170673Y-12630719D01*
X20173867Y-12637724D01*
X20174299Y-12638323D01*
X20174506Y-12639031D01*
X20178064Y-12645855D01*
X20178531Y-12646435D01*
X20178778Y-12647138D01*
X20182694Y-12653759D01*
X20183191Y-12654313D01*
X20183474Y-12655002D01*
X20187737Y-12661403D01*
X20188258Y-12661925D01*
X20188575Y-12662591D01*
X20193169Y-12668758D01*
X20193713Y-12669248D01*
X20194062Y-12669892D01*
X20198973Y-12675808D01*
X20199539Y-12676268D01*
X20199920Y-12676890D01*
X20205134Y-12682543D01*
X20205722Y-12682971D01*
X20206133Y-12683571D01*
X20211636Y-12688944D01*
X20212246Y-12689341D01*
X20212688Y-12689920D01*
X20218464Y-12694999D01*
X20219095Y-12695365D01*
X20219569Y-12695921D01*
X20225603Y-12700692D01*
X20226257Y-12701026D01*
X20226762Y-12701560D01*
X20233040Y-12706008D01*
X20233716Y-12706310D01*
X20234254Y-12706820D01*
X20240761Y-12710929D01*
X20241459Y-12711197D01*
X20242028Y-12711682D01*
X20248749Y-12715439D01*
X20249457Y-12715668D01*
X20250049Y-12716120D01*
X20256965Y-12719515D01*
X20257677Y-12719704D01*
X20258285Y-12720120D01*
X20265373Y-12723146D01*
X20266088Y-12723296D01*
X20266712Y-12723676D01*
X20273951Y-12726328D01*
X20274670Y-12726440D01*
X20275311Y-12726786D01*
X20282678Y-12729056D01*
X20283401Y-12729130D01*
X20284057Y-12729442D01*
X20291531Y-12731325D01*
X20292258Y-12731362D01*
X20292932Y-12731639D01*
X20300489Y-12733129D01*
X20301222Y-12733128D01*
X20301914Y-12733371D01*
X20309533Y-12734461D01*
X20310271Y-12734421D01*
X20310981Y-12734629D01*
X20318639Y-12735313D01*
X20319384Y-12735233D01*
X20320113Y-12735405D01*
X20327789Y-12735676D01*
X20328538Y-12735555D01*
X20329285Y-12735688D01*
X20336956Y-12735542D01*
X20337695Y-12735381D01*
X20338446Y-12735474D01*
X20346094Y-12734913D01*
X20346814Y-12734714D01*
X20347560Y-12734765D01*
X20355167Y-12733795D01*
X20355868Y-12733561D01*
X20356607Y-12733573D01*
X20364157Y-12732201D01*
X20364838Y-12731932D01*
X20365569Y-12731906D01*
X20373044Y-12730138D01*
X20373704Y-12729836D01*
X20374428Y-12729772D01*
X20381810Y-12727615D01*
X20382450Y-12727281D01*
X20383165Y-12727180D01*
X20390438Y-12724640D01*
X20391056Y-12724276D01*
X20391761Y-12724139D01*
X20398907Y-12721223D01*
X20399505Y-12720828D01*
X20400200Y-12720656D01*
X20407202Y-12717369D01*
X20407778Y-12716944D01*
X20408464Y-12716737D01*
X20415304Y-12713087D01*
X20415858Y-12712633D01*
X20416531Y-12712391D01*
X20423192Y-12708384D01*
X20423722Y-12707902D01*
X20424385Y-12707625D01*
X20430839Y-12703275D01*
X20431348Y-12702762D01*
X20432000Y-12702449D01*
X20438219Y-12697772D01*
X20438708Y-12697225D01*
X20439351Y-12696873D01*
X20445306Y-12691884D01*
X20445776Y-12691299D01*
X20446413Y-12690905D01*
X20452075Y-12685619D01*
X20452524Y-12684994D01*
X20453155Y-12684553D01*
X20458494Y-12678985D01*
X20458923Y-12678314D01*
X20459549Y-12677821D01*
X20464536Y-12671988D01*
X20464940Y-12671267D01*
X20465558Y-12670718D01*
X20470164Y-12664634D01*
X20470541Y-12663859D01*
X20471148Y-12663247D01*
X20475344Y-12656928D01*
X20475687Y-12656095D01*
X20476280Y-12655415D01*
X20480037Y-12648877D01*
X20480333Y-12647998D01*
X20480895Y-12647261D01*
X20484193Y-12640519D01*
X20484415Y-12639681D01*
X20484896Y-12638962D01*
X20487767Y-12632033D01*
X20487917Y-12631278D01*
X20488308Y-12630616D01*
X20490800Y-12623519D01*
X20490894Y-12622857D01*
X20491207Y-12622265D01*
X20493367Y-12615018D01*
X20493420Y-12614453D01*
X20493665Y-12613941D01*
X20495542Y-12606562D01*
X20495566Y-12606095D01*
X20495754Y-12605667D01*
X20497395Y-12598174D01*
X20497402Y-12597804D01*
X20497541Y-12597463D01*
X20498994Y-12589874D01*
X20498992Y-12589600D01*
X20499090Y-12589344D01*
X20500404Y-12581678D01*
X20500399Y-12581497D01*
X20500461Y-12581328D01*
X20501682Y-12573602D01*
X20501679Y-12573512D01*
X20501709Y-12573428D01*
X20502886Y-12565661D01*
X20502689Y-12561384D01*
X20502839Y-12557104D01*
X20501578Y-12549350D01*
X20501547Y-12549266D01*
X20501549Y-12549176D01*
X20500244Y-12541464D01*
X20500180Y-12541295D01*
X20500183Y-12541115D01*
X20498786Y-12533463D01*
X20498686Y-12533208D01*
X20498685Y-12532935D01*
X20497149Y-12525362D01*
X20497006Y-12525022D01*
X20496995Y-12524653D01*
X20495272Y-12517178D01*
X20495081Y-12516752D01*
X20495051Y-12516285D01*
X20493094Y-12508927D01*
X20492844Y-12508418D01*
X20492785Y-12507853D01*
X20490546Y-12500630D01*
X20490227Y-12500042D01*
X20490125Y-12499380D01*
X20487556Y-12492311D01*
X20487157Y-12491653D01*
X20486999Y-12490900D01*
X20484053Y-12484003D01*
X20483564Y-12483289D01*
X20483334Y-12482454D01*
X20479963Y-12475748D01*
X20479392Y-12475016D01*
X20479086Y-12474141D01*
X20475259Y-12467644D01*
X20474659Y-12466971D01*
X20474307Y-12466141D01*
X20470043Y-12459869D01*
X20469428Y-12459264D01*
X20469043Y-12458492D01*
X20464371Y-12452459D01*
X20463747Y-12451917D01*
X20463335Y-12451200D01*
X20458285Y-12445421D01*
X20457654Y-12444935D01*
X20457218Y-12444269D01*
X20451819Y-12438760D01*
X20451183Y-12438326D01*
X20450726Y-12437705D01*
X20445008Y-12432481D01*
X20444366Y-12432094D01*
X20443891Y-12431515D01*
X20437882Y-12426591D01*
X20437235Y-12426245D01*
X20436740Y-12425704D01*
X20430470Y-12421095D01*
X20429815Y-12420789D01*
X20429300Y-12420281D01*
X20422799Y-12416002D01*
X20422134Y-12415732D01*
X20421598Y-12415255D01*
X20414894Y-12411322D01*
X20414218Y-12411087D01*
X20413659Y-12410639D01*
X20406780Y-12407064D01*
X20406092Y-12406864D01*
X20405511Y-12406445D01*
X20398474Y-12403235D01*
X20397777Y-12403071D01*
X20397175Y-12402682D01*
X20389998Y-12399844D01*
X20389291Y-12399715D01*
X20388669Y-12399357D01*
X20381369Y-12396896D01*
X20380653Y-12396803D01*
X20380010Y-12396477D01*
X20372604Y-12394400D01*
X20371880Y-12394344D01*
X20371217Y-12394049D01*
X20363723Y-12392362D01*
X20362991Y-12392344D01*
X20362308Y-12392083D01*
X20354743Y-12390793D01*
X20354005Y-12390813D01*
X20353301Y-12390586D01*
X20345683Y-12389699D01*
X20344938Y-12389759D01*
X20344216Y-12389567D01*
X20336562Y-12389089D01*
X20335813Y-12389190D01*
X20335073Y-12389037D01*
X20327400Y-12388974D01*
X20326654Y-12389116D01*
X20325904Y-12389003D01*
X20318231Y-12389358D01*
X20317504Y-12389538D01*
X20316759Y-12389466D01*
X20309108Y-12390233D01*
X20308401Y-12390449D01*
X20307662Y-12390417D01*
X20300055Y-12391589D01*
X20299367Y-12391840D01*
X20298634Y-12391847D01*
X20291093Y-12393418D01*
X20290422Y-12393703D01*
X20289696Y-12393748D01*
X20282243Y-12395712D01*
X20281590Y-12396031D01*
X20280868Y-12396113D01*
X20273525Y-12398464D01*
X20272889Y-12398816D01*
X20272172Y-12398936D01*
X20264962Y-12401666D01*
X20264342Y-12402053D01*
X20263628Y-12402211D01*
X20256573Y-12405314D01*
X20255970Y-12405736D01*
X20255260Y-12405933D01*
X20248381Y-12409403D01*
X20247794Y-12409862D01*
X20247088Y-12410099D01*
X20240408Y-12413928D01*
X20239845Y-12414419D01*
X20239150Y-12414695D01*
X20232688Y-12418875D01*
X20232156Y-12419391D01*
X20231483Y-12419700D01*
X20225254Y-12424216D01*
X20224755Y-12424755D01*
X20224104Y-12425096D01*
X20218122Y-12429933D01*
X20217655Y-12430494D01*
X20217027Y-12430867D01*
X20211307Y-12436009D01*
X20210871Y-12436592D01*
X20210266Y-12436996D01*
X20204822Y-12442429D01*
X20204418Y-12443033D01*
X20203834Y-12443467D01*
X20198681Y-12449177D01*
X20198308Y-12449803D01*
X20197747Y-12450268D01*
X20192900Y-12456238D01*
X20192558Y-12456885D01*
X20192020Y-12457382D01*
X20187492Y-12463598D01*
X20187183Y-12464267D01*
X20186668Y-12464795D01*
X20182475Y-12471242D01*
X20182199Y-12471933D01*
X20181708Y-12472493D01*
X20177864Y-12479157D01*
X20177625Y-12479862D01*
X20177165Y-12480448D01*
X20173680Y-12487309D01*
X20173481Y-12488020D01*
X20173057Y-12488623D01*
X20169939Y-12495662D01*
X20169778Y-12496377D01*
X20169389Y-12496997D01*
X20166643Y-12504193D01*
X20166522Y-12504912D01*
X20166167Y-12505548D01*
X20163801Y-12512879D01*
X20163716Y-12513602D01*
X20163395Y-12514256D01*
X20161415Y-12521701D01*
X20161369Y-12522429D01*
X20161082Y-12523099D01*
X20159493Y-12530637D01*
X20159485Y-12531369D01*
X20159232Y-12532058D01*
X20158042Y-12539667D01*
X20158072Y-12540405D01*
X20157855Y-12541110D01*
X20157069Y-12548770D01*
X20157139Y-12549514D01*
X20156958Y-12550238D01*
X20156583Y-12557927D01*
X20156694Y-12558675D01*
X20156551Y-12559417D01*
X19715778Y-12559417D01*
X19715778Y-12450432D01*
X19711713Y-12428827D01*
X19698945Y-12408985D01*
X19679462Y-12395673D01*
X19656336Y-12390990D01*
X19524236Y-12390990D01*
X19488436Y-12390990D01*
X19356336Y-12390990D01*
X19334731Y-12395055D01*
X19314889Y-12407823D01*
X19301577Y-12427306D01*
X19296894Y-12450432D01*
X19099402Y-12450432D01*
X19099013Y-12450043D01*
X19033798Y-12422963D01*
X18963184Y-12422901D01*
X18897922Y-12449867D01*
X18847947Y-12499755D01*
X18820867Y-12564970D01*
X18820805Y-12635584D01*
X17826512Y-12635584D01*
X17827983Y-12632033D01*
X17828134Y-12631278D01*
X17828525Y-12630616D01*
X17831017Y-12623519D01*
X17831111Y-12622857D01*
X17831424Y-12622265D01*
X17833584Y-12615018D01*
X17833637Y-12614453D01*
X17833882Y-12613941D01*
X17835758Y-12606562D01*
X17835783Y-12606095D01*
X17835970Y-12605667D01*
X17837611Y-12598174D01*
X17837619Y-12597804D01*
X17837757Y-12597463D01*
X17839211Y-12589874D01*
X17839209Y-12589600D01*
X17839307Y-12589344D01*
X17840620Y-12581678D01*
X17840615Y-12581497D01*
X17840678Y-12581328D01*
X17841899Y-12573602D01*
X17841895Y-12573512D01*
X17841926Y-12573428D01*
X17843103Y-12565661D01*
X17842906Y-12561384D01*
X17843056Y-12557104D01*
X17841795Y-12549350D01*
X17841763Y-12549266D01*
X17841766Y-12549176D01*
X17840461Y-12541464D01*
X17840397Y-12541295D01*
X17840400Y-12541115D01*
X17839003Y-12533463D01*
X17838902Y-12533208D01*
X17838901Y-12532935D01*
X17837365Y-12525362D01*
X17837223Y-12525022D01*
X17837212Y-12524653D01*
X17835489Y-12517178D01*
X17835297Y-12516752D01*
X17835268Y-12516285D01*
X17833311Y-12508927D01*
X17833060Y-12508418D01*
X17833001Y-12507853D01*
X17830762Y-12500630D01*
X17830443Y-12500041D01*
X17830342Y-12499380D01*
X17827773Y-12492311D01*
X17827374Y-12491653D01*
X17827216Y-12490900D01*
X17824270Y-12484003D01*
X17823781Y-12483289D01*
X17823550Y-12482454D01*
X17820179Y-12475748D01*
X17819609Y-12475017D01*
X17819303Y-12474141D01*
X17815476Y-12467644D01*
X17814875Y-12466971D01*
X17814524Y-12466141D01*
X17810259Y-12459869D01*
X17809645Y-12459264D01*
X17809260Y-12458492D01*
X17804588Y-12452459D01*
X17803964Y-12451917D01*
X17803551Y-12451200D01*
X17798501Y-12445421D01*
X17797870Y-12444935D01*
X17797435Y-12444269D01*
X17792035Y-12438760D01*
X17791399Y-12438326D01*
X17790943Y-12437705D01*
X17785224Y-12432482D01*
X17784583Y-12432094D01*
X17784107Y-12431515D01*
X17778098Y-12426591D01*
X17777451Y-12426245D01*
X17776956Y-12425704D01*
X17770686Y-12421095D01*
X17770032Y-12420789D01*
X17769517Y-12420281D01*
X17763016Y-12416002D01*
X17762351Y-12415732D01*
X17761814Y-12415255D01*
X17755111Y-12411322D01*
X17754434Y-12411087D01*
X17753876Y-12410639D01*
X17746996Y-12407064D01*
X17746309Y-12406864D01*
X17745728Y-12406446D01*
X17738691Y-12403235D01*
X17737994Y-12403071D01*
X17737392Y-12402682D01*
X17730214Y-12399843D01*
X17729508Y-12399715D01*
X17728886Y-12399357D01*
X17721586Y-12396896D01*
X17720870Y-12396803D01*
X17720227Y-12396477D01*
X17712821Y-12394400D01*
X17712097Y-12394344D01*
X17711433Y-12394049D01*
X17703940Y-12392362D01*
X17703208Y-12392344D01*
X17702524Y-12392083D01*
X17694960Y-12390793D01*
X17694221Y-12390813D01*
X17693518Y-12390586D01*
X17685900Y-12389699D01*
X17685155Y-12389759D01*
X17684433Y-12389567D01*
X17676779Y-12389089D01*
X17676030Y-12389190D01*
X17675289Y-12389037D01*
X17667616Y-12388974D01*
X17666871Y-12389116D01*
X17666121Y-12389003D01*
X17658448Y-12389358D01*
X17657721Y-12389538D01*
X17656976Y-12389466D01*
X17649325Y-12390233D01*
X17648617Y-12390449D01*
X17647878Y-12390417D01*
X17640271Y-12391589D01*
X17639583Y-12391840D01*
X17638850Y-12391847D01*
X17631310Y-12393418D01*
X17630639Y-12393703D01*
X17629912Y-12393748D01*
X17622460Y-12395712D01*
X17621807Y-12396031D01*
X17621084Y-12396113D01*
X17613742Y-12398464D01*
X17613106Y-12398816D01*
X17612388Y-12398936D01*
X17605178Y-12401666D01*
X17604558Y-12402053D01*
X17603845Y-12402211D01*
X17596790Y-12405314D01*
X17596186Y-12405736D01*
X17595476Y-12405933D01*
X17588598Y-12409403D01*
X17588011Y-12409862D01*
X17587305Y-12410099D01*
X17580625Y-12413928D01*
X17580061Y-12414419D01*
X17579366Y-12414695D01*
X17572904Y-12418875D01*
X17572373Y-12419391D01*
X17571700Y-12419700D01*
X17565471Y-12424216D01*
X17564971Y-12424755D01*
X17564321Y-12425096D01*
X17558339Y-12429933D01*
X17557872Y-12430494D01*
X17557244Y-12430867D01*
X17551524Y-12436009D01*
X17551088Y-12436592D01*
X17550482Y-12436996D01*
X17545039Y-12442429D01*
X17544634Y-12443033D01*
X17544051Y-12443467D01*
X17538898Y-12449177D01*
X17538524Y-12449803D01*
X17537964Y-12450268D01*
X17533116Y-12456238D01*
X17532775Y-12456885D01*
X17532236Y-12457382D01*
X17527709Y-12463598D01*
X17527400Y-12464267D01*
X17526885Y-12464795D01*
X17522692Y-12471242D01*
X17522416Y-12471933D01*
X17521925Y-12472493D01*
X17518081Y-12479157D01*
X17517842Y-12479862D01*
X17517381Y-12480448D01*
X17513897Y-12487309D01*
X17513698Y-12488020D01*
X17513273Y-12488623D01*
X17510155Y-12495662D01*
X17509995Y-12496377D01*
X17509605Y-12496997D01*
X17506860Y-12504193D01*
X17506738Y-12504912D01*
X17506383Y-12505548D01*
X17504017Y-12512879D01*
X17503933Y-12513602D01*
X17503612Y-12514256D01*
X17501632Y-12521701D01*
X17501585Y-12522429D01*
X17501299Y-12523099D01*
X17499710Y-12530637D01*
X17499701Y-12531369D01*
X17499449Y-12532058D01*
X17498258Y-12539667D01*
X17498289Y-12540405D01*
X17498072Y-12541110D01*
X17497286Y-12548770D01*
X17497356Y-12549514D01*
X17497175Y-12550238D01*
X17496799Y-12557927D01*
X17496911Y-12558675D01*
X17496767Y-12559417D01*
X17315246Y-12559417D01*
X17311751Y-12546652D01*
X17306929Y-12527358D01*
X17302452Y-12507838D01*
X17298270Y-12488114D01*
X17294333Y-12468197D01*
X17290591Y-12448116D01*
X17286998Y-12427916D01*
X17283488Y-12407544D01*
X17280412Y-12389400D01*
X17280412Y-10515484D01*
X17301821Y-10515484D01*
X17301821Y-12215484D01*
X17303739Y-12225675D01*
X17309762Y-12235035D01*
X17318951Y-12241314D01*
X17329860Y-12243523D01*
X18529860Y-12243523D01*
X18540051Y-12241605D01*
X18549411Y-12235582D01*
X18555690Y-12226393D01*
X18557899Y-12215484D01*
X18557899Y-11751292D01*
X18709269Y-11751292D01*
X18709269Y-11971292D01*
X18711187Y-11981483D01*
X18717210Y-11990843D01*
X18726399Y-11997122D01*
X18737308Y-11999331D01*
X18957308Y-11999331D01*
X18967499Y-11997413D01*
X18976859Y-11991390D01*
X18983138Y-11982201D01*
X18985347Y-11971292D01*
X18985347Y-11751292D01*
X18983429Y-11741101D01*
X18977406Y-11731741D01*
X18968217Y-11725462D01*
X18957308Y-11723253D01*
X18920529Y-11723253D01*
X18944535Y-11707213D01*
X18974341Y-11662605D01*
X18984808Y-11609986D01*
X18984808Y-11604598D01*
X18974341Y-11551979D01*
X18944535Y-11507371D01*
X18899927Y-11477565D01*
X18847308Y-11467098D01*
X18794689Y-11477565D01*
X18750081Y-11507371D01*
X18720275Y-11551979D01*
X18709808Y-11604598D01*
X18709808Y-11609986D01*
X18720275Y-11662605D01*
X18750081Y-11707213D01*
X18774087Y-11723253D01*
X18737308Y-11723253D01*
X18727117Y-11725171D01*
X18717757Y-11731194D01*
X18711478Y-11740383D01*
X18709269Y-11751292D01*
X18557899Y-11751292D01*
X18557899Y-11449640D01*
X19143633Y-11449640D01*
X19143633Y-11799640D01*
X19145551Y-11809831D01*
X19151574Y-11819191D01*
X19160763Y-11825470D01*
X19171672Y-11827679D01*
X19521672Y-11827679D01*
X19531863Y-11825761D01*
X19541223Y-11819738D01*
X19547502Y-11810549D01*
X19549711Y-11799640D01*
X19549711Y-11657115D01*
X19713372Y-11657115D01*
X19713372Y-11811237D01*
X19722248Y-11832664D01*
X19738648Y-11849064D01*
X19760075Y-11857940D01*
X19914197Y-11857940D01*
X19928772Y-11843365D01*
X19928772Y-11642540D01*
X19964572Y-11642540D01*
X19964572Y-11843365D01*
X19979147Y-11857940D01*
X20133269Y-11857940D01*
X20154696Y-11849064D01*
X20171096Y-11832664D01*
X20179972Y-11811237D01*
X20179972Y-11657115D01*
X20165397Y-11642540D01*
X19964572Y-11642540D01*
X19928772Y-11642540D01*
X19727947Y-11642540D01*
X19713372Y-11657115D01*
X19549711Y-11657115D01*
X19549711Y-11449640D01*
X19547793Y-11439449D01*
X19546889Y-11438043D01*
X19713372Y-11438043D01*
X19713372Y-11592165D01*
X19727947Y-11606740D01*
X19928772Y-11606740D01*
X19928772Y-11405915D01*
X19964572Y-11405915D01*
X19964572Y-11606740D01*
X20165397Y-11606740D01*
X20179972Y-11592165D01*
X20179972Y-11438043D01*
X20171096Y-11416616D01*
X20154696Y-11400216D01*
X20133269Y-11391340D01*
X19979147Y-11391340D01*
X19964572Y-11405915D01*
X19928772Y-11405915D01*
X19914197Y-11391340D01*
X19760075Y-11391340D01*
X19738648Y-11400216D01*
X19722248Y-11416616D01*
X19713372Y-11438043D01*
X19546889Y-11438043D01*
X19541770Y-11430089D01*
X19532581Y-11423810D01*
X19521672Y-11421601D01*
X19171672Y-11421601D01*
X19161481Y-11423519D01*
X19152121Y-11429542D01*
X19145842Y-11438731D01*
X19143633Y-11449640D01*
X18557899Y-11449640D01*
X18557899Y-11187115D01*
X19413372Y-11187115D01*
X19413372Y-11341237D01*
X19422248Y-11362664D01*
X19438648Y-11379064D01*
X19460075Y-11387940D01*
X19614197Y-11387940D01*
X19628772Y-11373365D01*
X19628772Y-11172540D01*
X19664572Y-11172540D01*
X19664572Y-11373365D01*
X19679147Y-11387940D01*
X19833269Y-11387940D01*
X19854696Y-11379064D01*
X19871096Y-11362664D01*
X19879972Y-11341237D01*
X19879972Y-11187115D01*
X19865397Y-11172540D01*
X19664572Y-11172540D01*
X19628772Y-11172540D01*
X19427947Y-11172540D01*
X19413372Y-11187115D01*
X18557899Y-11187115D01*
X18557899Y-10968043D01*
X19413372Y-10968043D01*
X19413372Y-11122165D01*
X19427947Y-11136740D01*
X19628772Y-11136740D01*
X19628772Y-10935915D01*
X19664572Y-10935915D01*
X19664572Y-11136740D01*
X19865397Y-11136740D01*
X19879972Y-11122165D01*
X19879972Y-11041419D01*
X20303780Y-11041419D01*
X20303780Y-11110541D01*
X20312656Y-11131968D01*
X20329056Y-11148368D01*
X20350483Y-11157244D01*
X20419605Y-11157244D01*
X20434180Y-11142669D01*
X20434180Y-11026844D01*
X20469980Y-11026844D01*
X20469980Y-11142669D01*
X20484555Y-11157244D01*
X20553677Y-11157244D01*
X20575104Y-11148368D01*
X20591504Y-11131968D01*
X20600380Y-11110541D01*
X20600380Y-11041419D01*
X20585805Y-11026844D01*
X20469980Y-11026844D01*
X20434180Y-11026844D01*
X20318355Y-11026844D01*
X20303780Y-11041419D01*
X19879972Y-11041419D01*
X19879972Y-10968043D01*
X19871096Y-10946616D01*
X19854696Y-10930216D01*
X19833269Y-10921340D01*
X19679147Y-10921340D01*
X19664572Y-10935915D01*
X19628772Y-10935915D01*
X19614197Y-10921340D01*
X19460075Y-10921340D01*
X19438648Y-10930216D01*
X19422248Y-10946616D01*
X19413372Y-10968043D01*
X18557899Y-10968043D01*
X18557899Y-10824504D01*
X18570381Y-10854713D01*
X18627295Y-10911727D01*
X18701696Y-10942621D01*
X18782255Y-10942691D01*
X18856709Y-10911927D01*
X18861297Y-10907347D01*
X20303780Y-10907347D01*
X20303780Y-10976469D01*
X20318355Y-10991044D01*
X20434180Y-10991044D01*
X20434180Y-10989044D01*
X20469980Y-10989044D01*
X20469980Y-10991044D01*
X20585805Y-10991044D01*
X20600380Y-10976469D01*
X20600380Y-10907347D01*
X20591504Y-10885920D01*
X20575104Y-10869520D01*
X20553677Y-10860644D01*
X20503957Y-10860644D01*
X20518552Y-10854614D01*
X20551634Y-10821589D01*
X20569560Y-10778419D01*
X20569600Y-10731674D01*
X20551750Y-10688473D01*
X20518725Y-10655390D01*
X20475555Y-10637464D01*
X20428810Y-10637424D01*
X20385609Y-10655274D01*
X20352526Y-10688299D01*
X20334600Y-10731469D01*
X20334560Y-10778214D01*
X20352410Y-10821416D01*
X20385435Y-10854498D01*
X20400237Y-10860644D01*
X20350483Y-10860644D01*
X20329056Y-10869520D01*
X20312656Y-10885920D01*
X20303780Y-10907347D01*
X18861297Y-10907347D01*
X18913723Y-10855013D01*
X18944617Y-10780613D01*
X18944687Y-10700053D01*
X18913923Y-10625599D01*
X18857009Y-10568585D01*
X18836958Y-10560259D01*
X19879617Y-10560259D01*
X19910381Y-10634713D01*
X19967295Y-10691727D01*
X20041696Y-10722621D01*
X20122255Y-10722691D01*
X20196709Y-10691927D01*
X20253723Y-10635013D01*
X20284617Y-10560613D01*
X20284687Y-10480053D01*
X20253923Y-10405599D01*
X20197009Y-10348585D01*
X20122609Y-10317691D01*
X20042049Y-10317621D01*
X19967595Y-10348385D01*
X19910581Y-10405299D01*
X19879687Y-10479700D01*
X19879617Y-10560259D01*
X18836958Y-10560259D01*
X18782609Y-10537691D01*
X18702049Y-10537621D01*
X18627595Y-10568385D01*
X18570581Y-10625299D01*
X18557899Y-10655842D01*
X18557899Y-10515484D01*
X18555981Y-10505293D01*
X18549958Y-10495933D01*
X18540769Y-10489654D01*
X18529860Y-10487445D01*
X17329860Y-10487445D01*
X17319669Y-10489363D01*
X17310309Y-10495386D01*
X17304030Y-10504575D01*
X17301821Y-10515484D01*
X17280412Y-10515484D01*
X17280412Y-8706744D01*
X17294274Y-8706744D01*
X17294274Y-9925304D01*
X17299462Y-9951384D01*
X17314235Y-9973493D01*
X17457491Y-10116749D01*
X17479600Y-10131522D01*
X17505680Y-10136710D01*
X17695068Y-10136710D01*
X17660609Y-10159735D01*
X17635138Y-10197855D01*
X17626194Y-10242820D01*
X17635138Y-10287785D01*
X17660609Y-10325905D01*
X17698729Y-10351376D01*
X17743694Y-10360320D01*
X17748298Y-10360320D01*
X17793263Y-10351376D01*
X17831383Y-10325905D01*
X17856854Y-10287785D01*
X17865798Y-10242820D01*
X17856854Y-10197855D01*
X17831383Y-10159735D01*
X17796924Y-10136710D01*
X17816795Y-10136710D01*
X17971095Y-10291009D01*
X17982291Y-10298491D01*
X18000609Y-10325905D01*
X18038729Y-10351376D01*
X18083694Y-10360320D01*
X18088298Y-10360320D01*
X18133263Y-10351376D01*
X18171383Y-10325905D01*
X18185178Y-10305259D01*
X18539617Y-10305259D01*
X18570381Y-10379713D01*
X18627295Y-10436727D01*
X18701696Y-10467621D01*
X18782255Y-10467691D01*
X18856709Y-10436927D01*
X18913723Y-10380013D01*
X18944617Y-10305613D01*
X18944687Y-10225053D01*
X18913923Y-10150599D01*
X18857009Y-10093585D01*
X18782609Y-10062691D01*
X18702049Y-10062621D01*
X18627595Y-10093385D01*
X18570581Y-10150299D01*
X18539687Y-10224700D01*
X18539617Y-10305259D01*
X18185178Y-10305259D01*
X18196854Y-10287785D01*
X18205798Y-10242820D01*
X18196854Y-10197855D01*
X18171383Y-10159735D01*
X18133263Y-10134264D01*
X18088298Y-10125320D01*
X18083694Y-10125320D01*
X18038729Y-10134264D01*
X18019773Y-10146930D01*
X17923102Y-10050259D01*
X19879617Y-10050259D01*
X19910381Y-10124713D01*
X19967295Y-10181727D01*
X20041696Y-10212621D01*
X20122255Y-10212691D01*
X20196709Y-10181927D01*
X20253723Y-10125013D01*
X20284617Y-10050613D01*
X20284687Y-9970053D01*
X20253923Y-9895599D01*
X20197009Y-9838585D01*
X20122609Y-9807691D01*
X20042049Y-9807621D01*
X19967595Y-9838385D01*
X19910581Y-9895299D01*
X19879687Y-9969700D01*
X19879617Y-10050259D01*
X17923102Y-10050259D01*
X17893213Y-10020371D01*
X17871104Y-10005598D01*
X17845024Y-10000410D01*
X17533909Y-10000410D01*
X17430574Y-9897075D01*
X17430574Y-9862820D01*
X17456194Y-9862820D01*
X17465138Y-9907785D01*
X17490609Y-9945905D01*
X17528729Y-9971376D01*
X17573694Y-9980320D01*
X17578298Y-9980320D01*
X17623263Y-9971376D01*
X17661383Y-9945905D01*
X17686854Y-9907785D01*
X17687700Y-9903529D01*
X17773393Y-9903529D01*
X17786374Y-9934871D01*
X17823813Y-9978991D01*
X17875287Y-10005424D01*
X17898096Y-9995462D01*
X17898096Y-9880720D01*
X17933896Y-9880720D01*
X17933896Y-9995462D01*
X17956705Y-10005424D01*
X18008179Y-9978991D01*
X18045618Y-9934871D01*
X18058599Y-9903529D01*
X18048518Y-9880720D01*
X17933896Y-9880720D01*
X17898096Y-9880720D01*
X17783474Y-9880720D01*
X17773393Y-9903529D01*
X17687700Y-9903529D01*
X17695798Y-9862820D01*
X17687700Y-9822111D01*
X17773393Y-9822111D01*
X17783474Y-9844920D01*
X17898096Y-9844920D01*
X17898096Y-9730178D01*
X17933896Y-9730178D01*
X17933896Y-9844920D01*
X18048518Y-9844920D01*
X18058599Y-9822111D01*
X18045618Y-9790769D01*
X18008179Y-9746650D01*
X17956705Y-9720216D01*
X17933896Y-9730178D01*
X17898096Y-9730178D01*
X17875287Y-9720216D01*
X17823813Y-9746650D01*
X17786374Y-9790769D01*
X17773393Y-9822111D01*
X17687700Y-9822111D01*
X17686854Y-9817855D01*
X17661383Y-9779735D01*
X17623263Y-9754264D01*
X17578298Y-9745320D01*
X17573694Y-9745320D01*
X17528729Y-9754264D01*
X17490609Y-9779735D01*
X17465138Y-9817855D01*
X17456194Y-9862820D01*
X17430574Y-9862820D01*
X17430574Y-9549468D01*
X17442167Y-9561081D01*
X17481663Y-9577481D01*
X17524429Y-9577519D01*
X17563954Y-9561187D01*
X17587032Y-9538150D01*
X17645516Y-9538150D01*
X17671596Y-9532962D01*
X17693705Y-9518189D01*
X17754299Y-9457596D01*
X17754269Y-9491289D01*
X17770601Y-9530814D01*
X17800815Y-9561081D01*
X17840311Y-9577481D01*
X17883077Y-9577519D01*
X17922602Y-9561187D01*
X17946028Y-9537802D01*
X17947776Y-9538150D01*
X17973856Y-9532962D01*
X17995965Y-9518189D01*
X18423565Y-9090589D01*
X18438338Y-9068480D01*
X18440128Y-9059483D01*
X18443526Y-9042400D01*
X18443526Y-8981221D01*
X18471599Y-8953148D01*
X18471565Y-8991289D01*
X18487897Y-9030814D01*
X18510934Y-9053892D01*
X18510934Y-9091387D01*
X18369351Y-9232971D01*
X18354578Y-9255080D01*
X18349390Y-9281160D01*
X18349390Y-9466291D01*
X18327921Y-9487761D01*
X18327955Y-9448711D01*
X18311623Y-9409186D01*
X18281409Y-9378919D01*
X18241913Y-9362519D01*
X18199147Y-9362481D01*
X18159622Y-9378813D01*
X18129355Y-9409027D01*
X18112955Y-9448523D01*
X18112917Y-9491289D01*
X18129249Y-9530814D01*
X18159463Y-9561081D01*
X18198959Y-9577481D01*
X18238166Y-9577516D01*
X18207807Y-9607875D01*
X18193034Y-9629984D01*
X18187846Y-9656064D01*
X18187846Y-9744781D01*
X18165996Y-9744781D01*
X18155805Y-9746699D01*
X18146445Y-9752722D01*
X18140166Y-9761911D01*
X18137957Y-9772820D01*
X18137957Y-9952820D01*
X18139875Y-9963011D01*
X18145898Y-9972371D01*
X18155087Y-9978650D01*
X18165996Y-9980859D01*
X18345996Y-9980859D01*
X18356187Y-9978941D01*
X18365547Y-9972918D01*
X18371826Y-9963729D01*
X18374035Y-9952820D01*
X18374035Y-9830259D01*
X18539617Y-9830259D01*
X18570381Y-9904713D01*
X18627295Y-9961727D01*
X18701696Y-9992621D01*
X18782255Y-9992691D01*
X18856709Y-9961927D01*
X18913723Y-9905013D01*
X18944617Y-9830613D01*
X18944687Y-9750053D01*
X18913923Y-9675599D01*
X18857009Y-9618585D01*
X18782609Y-9587691D01*
X18702049Y-9587621D01*
X18627595Y-9618385D01*
X18570581Y-9675299D01*
X18539687Y-9749700D01*
X18539617Y-9830259D01*
X18374035Y-9830259D01*
X18374035Y-9772820D01*
X18372117Y-9762629D01*
X18366094Y-9753269D01*
X18356905Y-9746990D01*
X18345996Y-9744781D01*
X18324146Y-9744781D01*
X18324146Y-9684293D01*
X18465729Y-9542709D01*
X18480502Y-9520600D01*
X18481534Y-9515415D01*
X18487897Y-9530814D01*
X18518111Y-9561081D01*
X18557607Y-9577481D01*
X18600373Y-9577519D01*
X18639898Y-9561187D01*
X18670165Y-9530973D01*
X18686565Y-9491477D01*
X18686603Y-9448711D01*
X18670271Y-9409186D01*
X18647234Y-9386108D01*
X18647234Y-9380509D01*
X18668334Y-9359409D01*
X18900078Y-9359409D01*
X18925151Y-9407193D01*
X18966602Y-9441745D01*
X18993596Y-9452924D01*
X19014828Y-9442699D01*
X19014828Y-9338176D01*
X19050628Y-9338176D01*
X19050628Y-9442699D01*
X19071861Y-9452924D01*
X19073055Y-9452430D01*
X19569856Y-9452430D01*
X19591125Y-9503904D01*
X19630473Y-9543321D01*
X19681910Y-9564680D01*
X19737606Y-9564728D01*
X19789080Y-9543460D01*
X19828497Y-9504111D01*
X19849856Y-9452674D01*
X19849904Y-9396978D01*
X19828636Y-9345504D01*
X19789287Y-9306087D01*
X19737850Y-9284728D01*
X19682154Y-9284680D01*
X19630680Y-9305949D01*
X19591263Y-9345297D01*
X19569904Y-9396734D01*
X19569856Y-9452430D01*
X19073055Y-9452430D01*
X19098854Y-9441745D01*
X19140305Y-9407193D01*
X19165378Y-9359409D01*
X19155291Y-9338176D01*
X19050628Y-9338176D01*
X19014828Y-9338176D01*
X18910165Y-9338176D01*
X18900078Y-9359409D01*
X18668334Y-9359409D01*
X18746599Y-9281143D01*
X18900078Y-9281143D01*
X18910165Y-9302376D01*
X19014828Y-9302376D01*
X19014828Y-9197853D01*
X19050628Y-9197853D01*
X19050628Y-9302376D01*
X19155291Y-9302376D01*
X19165378Y-9281143D01*
X19140305Y-9233359D01*
X19103200Y-9202430D01*
X19709856Y-9202430D01*
X19731125Y-9253904D01*
X19770473Y-9293321D01*
X19821910Y-9314680D01*
X19877606Y-9314728D01*
X19929080Y-9293460D01*
X19968497Y-9254111D01*
X19989856Y-9202674D01*
X19989904Y-9146978D01*
X19968636Y-9095504D01*
X19932677Y-9059483D01*
X20395416Y-9059483D01*
X20407543Y-9085366D01*
X20471847Y-9107320D01*
X20539658Y-9102995D01*
X20582217Y-9085366D01*
X20594345Y-9059483D01*
X20494880Y-8960018D01*
X20395416Y-9059483D01*
X19932677Y-9059483D01*
X19929287Y-9056087D01*
X19877850Y-9034728D01*
X19822154Y-9034680D01*
X19770680Y-9055949D01*
X19731263Y-9095297D01*
X19709904Y-9146734D01*
X19709856Y-9202430D01*
X19103200Y-9202430D01*
X19098854Y-9198808D01*
X19071861Y-9187628D01*
X19050628Y-9197853D01*
X19014828Y-9197853D01*
X18993596Y-9187628D01*
X18966602Y-9198808D01*
X18925151Y-9233359D01*
X18900078Y-9281143D01*
X18746599Y-9281143D01*
X18893317Y-9134426D01*
X18950052Y-9134426D01*
X18956714Y-9144396D01*
X18991590Y-9167699D01*
X19032728Y-9175882D01*
X19073867Y-9167699D01*
X19108742Y-9144396D01*
X19115404Y-9134426D01*
X19543308Y-9134426D01*
X19569388Y-9129238D01*
X19591497Y-9114465D01*
X19794292Y-8911671D01*
X20322264Y-8911671D01*
X20326589Y-8979482D01*
X20344218Y-9022041D01*
X20370101Y-9034169D01*
X20469566Y-8934704D01*
X20520194Y-8934704D01*
X20619659Y-9034169D01*
X20645542Y-9022041D01*
X20667496Y-8957737D01*
X20663171Y-8889926D01*
X20645542Y-8847367D01*
X20619659Y-8835240D01*
X20520194Y-8934704D01*
X20469566Y-8934704D01*
X20370101Y-8835240D01*
X20344218Y-8847367D01*
X20322264Y-8911671D01*
X19794292Y-8911671D01*
X19896038Y-8809925D01*
X20395416Y-8809925D01*
X20494880Y-8909390D01*
X20594345Y-8809925D01*
X20582217Y-8784042D01*
X20517913Y-8762088D01*
X20450102Y-8766413D01*
X20407543Y-8784042D01*
X20395416Y-8809925D01*
X19896038Y-8809925D01*
X20125868Y-8580095D01*
X20136910Y-8584680D01*
X20192606Y-8584728D01*
X20244080Y-8563460D01*
X20283497Y-8524111D01*
X20304856Y-8472674D01*
X20304904Y-8416978D01*
X20283636Y-8365504D01*
X20244287Y-8326087D01*
X20192850Y-8304728D01*
X20137154Y-8304680D01*
X20085680Y-8325948D01*
X20046263Y-8365297D01*
X20042044Y-8375457D01*
X19711103Y-8044516D01*
X19909812Y-8044516D01*
X19909812Y-8048924D01*
X19918376Y-8091976D01*
X19942763Y-8128473D01*
X19979260Y-8152860D01*
X20022312Y-8161424D01*
X20065364Y-8152860D01*
X20101862Y-8128473D01*
X20126248Y-8091976D01*
X20134812Y-8048924D01*
X20134812Y-8044516D01*
X20126248Y-8001464D01*
X20101862Y-7964966D01*
X20065364Y-7940580D01*
X20022312Y-7932016D01*
X19979260Y-7940580D01*
X19942763Y-7964966D01*
X19918376Y-8001464D01*
X19909812Y-8044516D01*
X19711103Y-8044516D01*
X19517289Y-7850703D01*
X19495180Y-7835930D01*
X19469100Y-7830742D01*
X19443020Y-7835930D01*
X19420911Y-7850703D01*
X19406138Y-7872812D01*
X19400950Y-7898892D01*
X19406138Y-7924972D01*
X19420911Y-7947081D01*
X19966723Y-8492893D01*
X19987966Y-8507088D01*
X19988832Y-8507666D01*
X20002767Y-8510438D01*
X19515079Y-8998126D01*
X19115404Y-8998126D01*
X19108742Y-8988156D01*
X19073867Y-8964853D01*
X19032728Y-8956670D01*
X18991590Y-8964853D01*
X18956714Y-8988156D01*
X18950052Y-8998126D01*
X18865088Y-8998126D01*
X18839008Y-9003314D01*
X18816899Y-9018087D01*
X18530895Y-9304091D01*
X18516122Y-9326200D01*
X18510934Y-9352280D01*
X18510934Y-9386136D01*
X18488003Y-9409027D01*
X18485690Y-9414597D01*
X18485690Y-9309389D01*
X18627273Y-9167805D01*
X18642046Y-9145696D01*
X18647234Y-9119616D01*
X18647234Y-9053864D01*
X18670165Y-9030973D01*
X18686565Y-8991477D01*
X18686600Y-8952106D01*
X18687766Y-8950360D01*
X18688895Y-8944686D01*
X18692954Y-8924280D01*
X18692954Y-8810170D01*
X18925228Y-8810170D01*
X18925228Y-8814382D01*
X18933411Y-8855521D01*
X18956714Y-8890396D01*
X18991590Y-8913699D01*
X19032728Y-8921882D01*
X19073867Y-8913699D01*
X19108742Y-8890396D01*
X19132045Y-8855521D01*
X19140228Y-8814382D01*
X19140228Y-8810170D01*
X19132045Y-8769032D01*
X19108742Y-8734156D01*
X19073867Y-8710853D01*
X19032728Y-8702670D01*
X18991590Y-8710853D01*
X18956714Y-8734156D01*
X18933411Y-8769032D01*
X18925228Y-8810170D01*
X18692954Y-8810170D01*
X18692954Y-8691775D01*
X18693747Y-8691245D01*
X18714882Y-8659614D01*
X18722304Y-8622302D01*
X18722304Y-8618482D01*
X18714882Y-8581170D01*
X18693747Y-8549539D01*
X18662116Y-8528404D01*
X18649155Y-8525826D01*
X18679961Y-8513097D01*
X18707412Y-8485693D01*
X18710492Y-8478276D01*
X18961265Y-8478276D01*
X18961265Y-8638276D01*
X18963183Y-8648467D01*
X18969206Y-8657827D01*
X18978395Y-8664106D01*
X18989304Y-8666315D01*
X19149304Y-8666315D01*
X19159495Y-8664397D01*
X19168855Y-8658374D01*
X19175134Y-8649185D01*
X19177343Y-8638276D01*
X19177343Y-8527430D01*
X19279856Y-8527430D01*
X19301125Y-8578904D01*
X19340473Y-8618321D01*
X19391910Y-8639680D01*
X19447606Y-8639728D01*
X19499080Y-8618460D01*
X19538497Y-8579111D01*
X19559856Y-8527674D01*
X19559904Y-8471978D01*
X19538636Y-8420504D01*
X19499287Y-8381087D01*
X19447850Y-8359728D01*
X19392154Y-8359680D01*
X19340680Y-8380948D01*
X19301263Y-8420297D01*
X19279904Y-8471734D01*
X19279856Y-8527430D01*
X19177343Y-8527430D01*
X19177343Y-8478276D01*
X19175425Y-8468085D01*
X19169402Y-8458725D01*
X19160213Y-8452446D01*
X19149304Y-8450237D01*
X18989304Y-8450237D01*
X18979113Y-8452155D01*
X18969753Y-8458178D01*
X18963474Y-8467367D01*
X18961265Y-8478276D01*
X18710492Y-8478276D01*
X18722287Y-8449871D01*
X18722321Y-8411083D01*
X18710620Y-8382764D01*
X18851792Y-8382764D01*
X18854879Y-8401182D01*
X18892746Y-8410948D01*
X18931468Y-8405480D01*
X18941845Y-8401182D01*
X18944932Y-8382764D01*
X18898362Y-8336194D01*
X18851792Y-8382764D01*
X18710620Y-8382764D01*
X18707509Y-8375235D01*
X18680105Y-8347784D01*
X18644283Y-8332909D01*
X18605495Y-8332875D01*
X18569647Y-8347687D01*
X18550714Y-8366587D01*
X18550714Y-8225825D01*
X18624391Y-8152148D01*
X18614859Y-8175103D01*
X18614821Y-8217869D01*
X18631153Y-8257394D01*
X18661367Y-8287661D01*
X18700863Y-8304061D01*
X18743629Y-8304099D01*
X18783154Y-8287767D01*
X18806232Y-8264730D01*
X18823974Y-8264730D01*
X18808060Y-8267397D01*
X18798294Y-8305264D01*
X18803762Y-8343986D01*
X18808060Y-8354363D01*
X18826478Y-8357450D01*
X18873048Y-8310880D01*
X18871633Y-8309466D01*
X18896948Y-8284151D01*
X18898362Y-8285566D01*
X18899776Y-8284151D01*
X18925091Y-8309466D01*
X18923676Y-8310880D01*
X18970246Y-8357450D01*
X18988664Y-8354363D01*
X18998430Y-8316496D01*
X18992962Y-8277774D01*
X18988664Y-8267397D01*
X18972750Y-8264730D01*
X19087084Y-8264730D01*
X19113164Y-8259542D01*
X19135273Y-8244769D01*
X19371493Y-8008549D01*
X19386266Y-7986440D01*
X19391454Y-7960360D01*
X19391454Y-7795260D01*
X19386266Y-7769180D01*
X19371493Y-7747071D01*
X19301897Y-7677475D01*
X19279788Y-7662702D01*
X19253708Y-7657514D01*
X17996476Y-7657514D01*
X17994832Y-7653535D01*
X17958997Y-7617638D01*
X17912153Y-7598186D01*
X17861430Y-7598142D01*
X17814551Y-7617512D01*
X17778654Y-7653347D01*
X17759202Y-7700191D01*
X17759158Y-7750914D01*
X17778528Y-7797793D01*
X17814363Y-7833690D01*
X17861207Y-7853142D01*
X17911930Y-7853186D01*
X17958809Y-7833816D01*
X17994706Y-7797981D01*
X17996437Y-7793814D01*
X18805292Y-7793814D01*
X18795320Y-7795798D01*
X18792052Y-7797981D01*
X18773211Y-7810571D01*
X18434375Y-8149407D01*
X18419602Y-8171516D01*
X18414414Y-8197596D01*
X18414414Y-8373221D01*
X18389021Y-8347784D01*
X18353199Y-8332909D01*
X18314411Y-8332875D01*
X18278563Y-8347687D01*
X18251112Y-8375091D01*
X18236237Y-8410913D01*
X18236203Y-8449701D01*
X18251015Y-8485549D01*
X18278419Y-8513000D01*
X18309326Y-8525834D01*
X18296408Y-8528404D01*
X18264777Y-8549539D01*
X18243642Y-8581170D01*
X18236220Y-8618482D01*
X18236220Y-8621513D01*
X18020355Y-8837379D01*
X18005582Y-8859488D01*
X18000394Y-8885568D01*
X18000394Y-8967377D01*
X17997135Y-8930440D01*
X17985466Y-8902269D01*
X17962947Y-8894155D01*
X17887102Y-8970000D01*
X17888517Y-8971414D01*
X17863202Y-8996729D01*
X17861788Y-8995314D01*
X17785943Y-9071159D01*
X17794057Y-9093678D01*
X17846542Y-9110183D01*
X17901348Y-9105347D01*
X17922589Y-9096548D01*
X17617287Y-9401850D01*
X17587004Y-9401850D01*
X17564113Y-9378919D01*
X17524617Y-9362519D01*
X17481851Y-9362481D01*
X17442326Y-9378813D01*
X17430574Y-9390544D01*
X17430574Y-9080260D01*
X17435409Y-9093678D01*
X17487894Y-9110183D01*
X17542700Y-9105347D01*
X17570871Y-9093678D01*
X17578985Y-9071159D01*
X17503140Y-8995314D01*
X17501726Y-8996729D01*
X17476411Y-8971414D01*
X17477826Y-8970000D01*
X17528454Y-8970000D01*
X17604299Y-9045845D01*
X17626818Y-9037731D01*
X17643323Y-8985246D01*
X17640632Y-8954754D01*
X17721605Y-8954754D01*
X17726441Y-9009560D01*
X17738110Y-9037731D01*
X17760629Y-9045845D01*
X17836474Y-8970000D01*
X17760629Y-8894155D01*
X17738110Y-8902269D01*
X17721605Y-8954754D01*
X17640632Y-8954754D01*
X17638487Y-8930440D01*
X17626818Y-8902269D01*
X17604299Y-8894155D01*
X17528454Y-8970000D01*
X17477826Y-8970000D01*
X17476411Y-8968586D01*
X17501726Y-8943271D01*
X17503140Y-8944686D01*
X17578985Y-8868841D01*
X17785943Y-8868841D01*
X17861788Y-8944686D01*
X17937633Y-8868841D01*
X17929519Y-8846322D01*
X17877034Y-8829817D01*
X17822228Y-8834653D01*
X17794057Y-8846322D01*
X17785943Y-8868841D01*
X17578985Y-8868841D01*
X17570871Y-8846322D01*
X17518386Y-8829817D01*
X17463580Y-8834653D01*
X17435409Y-8846322D01*
X17430574Y-8859740D01*
X17430574Y-8734973D01*
X17456808Y-8708739D01*
X17477237Y-8708757D01*
X17513085Y-8693945D01*
X17527665Y-8679390D01*
X17671640Y-8679390D01*
X17679561Y-8691245D01*
X17711192Y-8712380D01*
X17748504Y-8719802D01*
X17785816Y-8712380D01*
X17817447Y-8691245D01*
X17838582Y-8659614D01*
X17838914Y-8657946D01*
X17919954Y-8657946D01*
X17943664Y-8702036D01*
X17982441Y-8733696D01*
X18005082Y-8743073D01*
X18024736Y-8732700D01*
X18024736Y-8638292D01*
X18060536Y-8638292D01*
X18060536Y-8732700D01*
X18080190Y-8743073D01*
X18102831Y-8733696D01*
X18141609Y-8702036D01*
X18165319Y-8657946D01*
X18155108Y-8638292D01*
X18060536Y-8638292D01*
X18024736Y-8638292D01*
X17930164Y-8638292D01*
X17919954Y-8657946D01*
X17838914Y-8657946D01*
X17846004Y-8622302D01*
X17846004Y-8618482D01*
X17838914Y-8582838D01*
X17919954Y-8582838D01*
X17930164Y-8602492D01*
X18024736Y-8602492D01*
X18024736Y-8600492D01*
X18060536Y-8600492D01*
X18060536Y-8602492D01*
X18155108Y-8602492D01*
X18165319Y-8582838D01*
X18141609Y-8538748D01*
X18103371Y-8507529D01*
X18125244Y-8485693D01*
X18140119Y-8449871D01*
X18140153Y-8411083D01*
X18125341Y-8375235D01*
X18097937Y-8347784D01*
X18062115Y-8332909D01*
X18023327Y-8332875D01*
X17987479Y-8347687D01*
X17960028Y-8375091D01*
X17945153Y-8410913D01*
X17945119Y-8449701D01*
X17959931Y-8485549D01*
X17981885Y-8507541D01*
X17943664Y-8538748D01*
X17919954Y-8582838D01*
X17838914Y-8582838D01*
X17838582Y-8581170D01*
X17817447Y-8549539D01*
X17785816Y-8528404D01*
X17772855Y-8525826D01*
X17803661Y-8513097D01*
X17831112Y-8485693D01*
X17845987Y-8449871D01*
X17846021Y-8411083D01*
X17831209Y-8375235D01*
X17803805Y-8347784D01*
X17767983Y-8332909D01*
X17729195Y-8332875D01*
X17693347Y-8347687D01*
X17665896Y-8375091D01*
X17651021Y-8410913D01*
X17650987Y-8449701D01*
X17665799Y-8485549D01*
X17693203Y-8513000D01*
X17724110Y-8525834D01*
X17711192Y-8528404D01*
X17689213Y-8543090D01*
X17527662Y-8543090D01*
X17513229Y-8528632D01*
X17482322Y-8515798D01*
X17495240Y-8513228D01*
X17526871Y-8492093D01*
X17548006Y-8460462D01*
X17555428Y-8423150D01*
X17555428Y-8419330D01*
X17548006Y-8382018D01*
X17526871Y-8350387D01*
X17526078Y-8349857D01*
X17526078Y-7865145D01*
X17855473Y-7535750D01*
X19263071Y-7535750D01*
X19328963Y-7601641D01*
X19328943Y-7624465D01*
X19344059Y-7661049D01*
X19372024Y-7689063D01*
X19408581Y-7704243D01*
X19431584Y-7704263D01*
X19582963Y-7855641D01*
X19582943Y-7878465D01*
X19598059Y-7915049D01*
X19626024Y-7943063D01*
X19662581Y-7958243D01*
X19702165Y-7958277D01*
X19738749Y-7943161D01*
X19755028Y-7926910D01*
X20314123Y-7926910D01*
X20344766Y-7957553D01*
X20319364Y-7940580D01*
X20276312Y-7932016D01*
X20233260Y-7940580D01*
X20196763Y-7964966D01*
X20172376Y-8001464D01*
X20163812Y-8044516D01*
X20163812Y-8048924D01*
X20172376Y-8091976D01*
X20196763Y-8128473D01*
X20233260Y-8152860D01*
X20276312Y-8161424D01*
X20319364Y-8152860D01*
X20355862Y-8128473D01*
X20380248Y-8091976D01*
X20388812Y-8048924D01*
X20388812Y-8044516D01*
X20380248Y-8001464D01*
X20363275Y-7976062D01*
X20417273Y-8030060D01*
X20417273Y-8131720D01*
X20419191Y-8141911D01*
X20425214Y-8151271D01*
X20434403Y-8157550D01*
X20445312Y-8159759D01*
X20615312Y-8159759D01*
X20625503Y-8157841D01*
X20634863Y-8151818D01*
X20641142Y-8142629D01*
X20643351Y-8131720D01*
X20643351Y-7961720D01*
X20641433Y-7951529D01*
X20635410Y-7942169D01*
X20626221Y-7935890D01*
X20615312Y-7933681D01*
X20513652Y-7933681D01*
X20390541Y-7810571D01*
X20368432Y-7795798D01*
X20357712Y-7793665D01*
X20357712Y-7779435D01*
X20372287Y-7794010D01*
X20501409Y-7794010D01*
X20522836Y-7785134D01*
X20539236Y-7768734D01*
X20548112Y-7747307D01*
X20548112Y-7618185D01*
X20533537Y-7603610D01*
X20357712Y-7603610D01*
X20357712Y-7605610D01*
X20321912Y-7605610D01*
X20321912Y-7603610D01*
X20146087Y-7603610D01*
X20131512Y-7618185D01*
X20131512Y-7747307D01*
X20140388Y-7768734D01*
X20156788Y-7785134D01*
X20170007Y-7790610D01*
X19755021Y-7790610D01*
X19738896Y-7774457D01*
X19702339Y-7759277D01*
X19679336Y-7759257D01*
X19527957Y-7607879D01*
X19527977Y-7585055D01*
X19512861Y-7548471D01*
X19484896Y-7520457D01*
X19448339Y-7505277D01*
X19425336Y-7505257D01*
X19344192Y-7424113D01*
X20131512Y-7424113D01*
X20131512Y-7553235D01*
X20146087Y-7567810D01*
X20321912Y-7567810D01*
X20321912Y-7391985D01*
X20357712Y-7391985D01*
X20357712Y-7567810D01*
X20533537Y-7567810D01*
X20548112Y-7553235D01*
X20548112Y-7424113D01*
X20539236Y-7402686D01*
X20522836Y-7386286D01*
X20501409Y-7377410D01*
X20372287Y-7377410D01*
X20357712Y-7391985D01*
X20321912Y-7391985D01*
X20307337Y-7377410D01*
X20178215Y-7377410D01*
X20156788Y-7386286D01*
X20140388Y-7402686D01*
X20131512Y-7424113D01*
X19344192Y-7424113D01*
X19339489Y-7419411D01*
X19317380Y-7404638D01*
X19309962Y-7403162D01*
X19994118Y-7403162D01*
X20020198Y-7397974D01*
X20042307Y-7383201D01*
X20218290Y-7207218D01*
X20239135Y-7228099D01*
X20304350Y-7255179D01*
X20374964Y-7255241D01*
X20440226Y-7228275D01*
X20490201Y-7178387D01*
X20517281Y-7113172D01*
X20517343Y-7042558D01*
X20490377Y-6977296D01*
X20440489Y-6927321D01*
X20375274Y-6900241D01*
X20304660Y-6900179D01*
X20239398Y-6927145D01*
X20189423Y-6977033D01*
X20162343Y-7042248D01*
X20162318Y-7070433D01*
X19965889Y-7266862D01*
X19679664Y-7266862D01*
X19710844Y-7264111D01*
X19739015Y-7252442D01*
X19747129Y-7229923D01*
X19671284Y-7154078D01*
X19595439Y-7229923D01*
X19603553Y-7252442D01*
X19649408Y-7266862D01*
X18024257Y-7266862D01*
X18014719Y-7257324D01*
X18014719Y-7150053D01*
X19063765Y-7150053D01*
X19080097Y-7189578D01*
X19110311Y-7219845D01*
X19149807Y-7236245D01*
X19192573Y-7236283D01*
X19232098Y-7219951D01*
X19262365Y-7189737D01*
X19278765Y-7150241D01*
X19278797Y-7113518D01*
X19531101Y-7113518D01*
X19535937Y-7168324D01*
X19547606Y-7196495D01*
X19570125Y-7204609D01*
X19645970Y-7128764D01*
X19696598Y-7128764D01*
X19772443Y-7204609D01*
X19794962Y-7196495D01*
X19811467Y-7144010D01*
X19806631Y-7089204D01*
X19794962Y-7061033D01*
X19772443Y-7052919D01*
X19696598Y-7128764D01*
X19645970Y-7128764D01*
X19570125Y-7052919D01*
X19547606Y-7061033D01*
X19531101Y-7113518D01*
X19278797Y-7113518D01*
X19278803Y-7107475D01*
X19262471Y-7067950D01*
X19232257Y-7037683D01*
X19207986Y-7027605D01*
X19595439Y-7027605D01*
X19671284Y-7103450D01*
X19747129Y-7027605D01*
X19739015Y-7005086D01*
X19686530Y-6988581D01*
X19631724Y-6993417D01*
X19603553Y-7005086D01*
X19595439Y-7027605D01*
X19207986Y-7027605D01*
X19192761Y-7021283D01*
X19149995Y-7021245D01*
X19110470Y-7037577D01*
X19080203Y-7067791D01*
X19063803Y-7107287D01*
X19063765Y-7150053D01*
X18014719Y-7150053D01*
X18014719Y-7125664D01*
X18012801Y-7115473D01*
X18006778Y-7106113D01*
X17997589Y-7099834D01*
X17986680Y-7097625D01*
X17786680Y-7097625D01*
X17776489Y-7099543D01*
X17767129Y-7105566D01*
X17760850Y-7114755D01*
X17758641Y-7125664D01*
X17758641Y-7325664D01*
X17760559Y-7335855D01*
X17766582Y-7345215D01*
X17775771Y-7351494D01*
X17786680Y-7353703D01*
X17918340Y-7353703D01*
X17947839Y-7383201D01*
X17969948Y-7397974D01*
X17977367Y-7399450D01*
X17827244Y-7399450D01*
X17801164Y-7404638D01*
X17779055Y-7419411D01*
X17409739Y-7788727D01*
X17394966Y-7810836D01*
X17389778Y-7836916D01*
X17389778Y-8349857D01*
X17388985Y-8350387D01*
X17367850Y-8382018D01*
X17360428Y-8419330D01*
X17360428Y-8423150D01*
X17367850Y-8460462D01*
X17388985Y-8492093D01*
X17420616Y-8513228D01*
X17433577Y-8515806D01*
X17402771Y-8528535D01*
X17375320Y-8555939D01*
X17360445Y-8591761D01*
X17360427Y-8612362D01*
X17314235Y-8658555D01*
X17299462Y-8680664D01*
X17294274Y-8706744D01*
X17280412Y-8706744D01*
X17280412Y-6924474D01*
X18614840Y-6924474D01*
X18614840Y-6928686D01*
X18623023Y-6969824D01*
X18646326Y-7004700D01*
X18681202Y-7028003D01*
X18722340Y-7036186D01*
X18763479Y-7028003D01*
X18798354Y-7004700D01*
X18821657Y-6969824D01*
X18829840Y-6928686D01*
X18829840Y-6924474D01*
X18821657Y-6883335D01*
X18798354Y-6848460D01*
X18763479Y-6825157D01*
X18722340Y-6816974D01*
X18681202Y-6825157D01*
X18646326Y-6848460D01*
X18623023Y-6883335D01*
X18614840Y-6924474D01*
X17280412Y-6924474D01*
X17280412Y-6562572D01*
X17283492Y-6544404D01*
X17286994Y-6524078D01*
X17290592Y-6503856D01*
X17294334Y-6483774D01*
X17298269Y-6463863D01*
X17302451Y-6444138D01*
X17306928Y-6424617D01*
X17311751Y-6405320D01*
X17311778Y-6405223D01*
X17496767Y-6405223D01*
X17496809Y-6412921D01*
X17496961Y-6413661D01*
X17496858Y-6414410D01*
X17497316Y-6422095D01*
X17497505Y-6422817D01*
X17497443Y-6423561D01*
X17498312Y-6431212D01*
X17498537Y-6431915D01*
X17498515Y-6432653D01*
X17499788Y-6440249D01*
X17500048Y-6440935D01*
X17500064Y-6441668D01*
X17501735Y-6449187D01*
X17502029Y-6449855D01*
X17502083Y-6450582D01*
X17504145Y-6458005D01*
X17504473Y-6458654D01*
X17504565Y-6459377D01*
X17507010Y-6466681D01*
X17507372Y-6467314D01*
X17507502Y-6468032D01*
X17510325Y-6475197D01*
X17510721Y-6475813D01*
X17510889Y-6476526D01*
X17514084Y-6483531D01*
X17514515Y-6484129D01*
X17514722Y-6484837D01*
X17518281Y-6491661D01*
X17518747Y-6492241D01*
X17518994Y-6492944D01*
X17522911Y-6499566D01*
X17523407Y-6500120D01*
X17523691Y-6500808D01*
X17527954Y-6507209D01*
X17528474Y-6507732D01*
X17528791Y-6508398D01*
X17533386Y-6514564D01*
X17533929Y-6515055D01*
X17534278Y-6515698D01*
X17539190Y-6521615D01*
X17539756Y-6522074D01*
X17540136Y-6522696D01*
X17545351Y-6528349D01*
X17545939Y-6528777D01*
X17546350Y-6529377D01*
X17551852Y-6534751D01*
X17552462Y-6535148D01*
X17552904Y-6535726D01*
X17558680Y-6540806D01*
X17559312Y-6541172D01*
X17559785Y-6541728D01*
X17565819Y-6546499D01*
X17566473Y-6546833D01*
X17566979Y-6547367D01*
X17573256Y-6551814D01*
X17573933Y-6552116D01*
X17574470Y-6552626D01*
X17580977Y-6556735D01*
X17581675Y-6557004D01*
X17582244Y-6557489D01*
X17588965Y-6561245D01*
X17589674Y-6561475D01*
X17590265Y-6561927D01*
X17597181Y-6565321D01*
X17597893Y-6565511D01*
X17598501Y-6565927D01*
X17605590Y-6568952D01*
X17606305Y-6569103D01*
X17606929Y-6569483D01*
X17614168Y-6572134D01*
X17614887Y-6572247D01*
X17615527Y-6572592D01*
X17622895Y-6574863D01*
X17623617Y-6574937D01*
X17624274Y-6575249D01*
X17631747Y-6577132D01*
X17632475Y-6577168D01*
X17633148Y-6577446D01*
X17640706Y-6578936D01*
X17641439Y-6578934D01*
X17642130Y-6579178D01*
X17649749Y-6580267D01*
X17650488Y-6580227D01*
X17651197Y-6580436D01*
X17658856Y-6581119D01*
X17659601Y-6581039D01*
X17660329Y-6581211D01*
X17668006Y-6581483D01*
X17668754Y-6581361D01*
X17669501Y-6581495D01*
X17677173Y-6581349D01*
X17677911Y-6581187D01*
X17678662Y-6581280D01*
X17686310Y-6580719D01*
X17687031Y-6580520D01*
X17687776Y-6580572D01*
X17695384Y-6579602D01*
X17696084Y-6579367D01*
X17696823Y-6579380D01*
X17704373Y-6578007D01*
X17705054Y-6577738D01*
X17705786Y-6577712D01*
X17713261Y-6575944D01*
X17713921Y-6575642D01*
X17714644Y-6575579D01*
X17722027Y-6573421D01*
X17722667Y-6573088D01*
X17723381Y-6572987D01*
X17730654Y-6570447D01*
X17731273Y-6570082D01*
X17731978Y-6569946D01*
X17739124Y-6567029D01*
X17739721Y-6566634D01*
X17740417Y-6566462D01*
X17747419Y-6563176D01*
X17747995Y-6562751D01*
X17748680Y-6562544D01*
X17755520Y-6558894D01*
X17756074Y-6558440D01*
X17756748Y-6558197D01*
X17763408Y-6554191D01*
X17763939Y-6553709D01*
X17764601Y-6553431D01*
X17771055Y-6549082D01*
X17771565Y-6548569D01*
X17772216Y-6548255D01*
X17778435Y-6543579D01*
X17778924Y-6543032D01*
X17779568Y-6542680D01*
X17785523Y-6537691D01*
X17785992Y-6537107D01*
X17786629Y-6536712D01*
X17792291Y-6531426D01*
X17792741Y-6530801D01*
X17793372Y-6530359D01*
X17798711Y-6524792D01*
X17799139Y-6524121D01*
X17799765Y-6523628D01*
X17801884Y-6521149D01*
X18221705Y-6521149D01*
X18238037Y-6560674D01*
X18268251Y-6590941D01*
X18307747Y-6607341D01*
X18350513Y-6607379D01*
X18390038Y-6591047D01*
X18420305Y-6560833D01*
X18436705Y-6521337D01*
X18436743Y-6478571D01*
X18420411Y-6439046D01*
X18390197Y-6408779D01*
X18356212Y-6394667D01*
X18790036Y-6394667D01*
X18790036Y-6523789D01*
X18798912Y-6545216D01*
X18815312Y-6561616D01*
X18836739Y-6570492D01*
X18965861Y-6570492D01*
X18980436Y-6555917D01*
X18980436Y-6380092D01*
X19016236Y-6380092D01*
X19016236Y-6555917D01*
X19030811Y-6570492D01*
X19159933Y-6570492D01*
X19181360Y-6561616D01*
X19197760Y-6545216D01*
X19206636Y-6523789D01*
X19206636Y-6397344D01*
X19328805Y-6397344D01*
X19355771Y-6462606D01*
X19405659Y-6512581D01*
X19470874Y-6539661D01*
X19541488Y-6539723D01*
X19606750Y-6512757D01*
X19656725Y-6462869D01*
X19680662Y-6405223D01*
X20156551Y-6405223D01*
X20156592Y-6412921D01*
X20156744Y-6413661D01*
X20156641Y-6414410D01*
X20157100Y-6422095D01*
X20157289Y-6422817D01*
X20157227Y-6423561D01*
X20158096Y-6431212D01*
X20158321Y-6431915D01*
X20158298Y-6432653D01*
X20159572Y-6440249D01*
X20159832Y-6440935D01*
X20159848Y-6441668D01*
X20161519Y-6449187D01*
X20161812Y-6449855D01*
X20161867Y-6450582D01*
X20163928Y-6458005D01*
X20164256Y-6458654D01*
X20164348Y-6459377D01*
X20166794Y-6466681D01*
X20167156Y-6467314D01*
X20167285Y-6468032D01*
X20170109Y-6475197D01*
X20170505Y-6475813D01*
X20170673Y-6476526D01*
X20173867Y-6483531D01*
X20174298Y-6484129D01*
X20174505Y-6484837D01*
X20178064Y-6491661D01*
X20178531Y-6492241D01*
X20178778Y-6492944D01*
X20182694Y-6499566D01*
X20183191Y-6500120D01*
X20183474Y-6500808D01*
X20187737Y-6507209D01*
X20188258Y-6507732D01*
X20188575Y-6508398D01*
X20193169Y-6514564D01*
X20193713Y-6515055D01*
X20194061Y-6515698D01*
X20198973Y-6521615D01*
X20199539Y-6522074D01*
X20199920Y-6522696D01*
X20205134Y-6528349D01*
X20205722Y-6528777D01*
X20206133Y-6529377D01*
X20211635Y-6534751D01*
X20212246Y-6535148D01*
X20212688Y-6535726D01*
X20218463Y-6540806D01*
X20219095Y-6541172D01*
X20219569Y-6541728D01*
X20225603Y-6546499D01*
X20226257Y-6546833D01*
X20226762Y-6547367D01*
X20233040Y-6551814D01*
X20233716Y-6552116D01*
X20234253Y-6552626D01*
X20240761Y-6556735D01*
X20241459Y-6557004D01*
X20242027Y-6557489D01*
X20248749Y-6561245D01*
X20249457Y-6561475D01*
X20250049Y-6561927D01*
X20256965Y-6565321D01*
X20257677Y-6565511D01*
X20258285Y-6565927D01*
X20265373Y-6568952D01*
X20266088Y-6569103D01*
X20266712Y-6569483D01*
X20273951Y-6572134D01*
X20274670Y-6572247D01*
X20275310Y-6572592D01*
X20282678Y-6574863D01*
X20283401Y-6574937D01*
X20284057Y-6575249D01*
X20291531Y-6577132D01*
X20292258Y-6577168D01*
X20292932Y-6577446D01*
X20300489Y-6578936D01*
X20301222Y-6578934D01*
X20301913Y-6579178D01*
X20309533Y-6580267D01*
X20310271Y-6580227D01*
X20310981Y-6580436D01*
X20318639Y-6581119D01*
X20319384Y-6581039D01*
X20320113Y-6581211D01*
X20327789Y-6581483D01*
X20328538Y-6581361D01*
X20329285Y-6581495D01*
X20336956Y-6581349D01*
X20337695Y-6581187D01*
X20338445Y-6581280D01*
X20346094Y-6580719D01*
X20346814Y-6580520D01*
X20347559Y-6580572D01*
X20355167Y-6579602D01*
X20355868Y-6579367D01*
X20356607Y-6579380D01*
X20364157Y-6578007D01*
X20364838Y-6577738D01*
X20365569Y-6577712D01*
X20373044Y-6575944D01*
X20373704Y-6575642D01*
X20374428Y-6575579D01*
X20381810Y-6573421D01*
X20382450Y-6573088D01*
X20383164Y-6572987D01*
X20390437Y-6570447D01*
X20391056Y-6570082D01*
X20391761Y-6569946D01*
X20398907Y-6567029D01*
X20399505Y-6566634D01*
X20400200Y-6566462D01*
X20407202Y-6563176D01*
X20407778Y-6562751D01*
X20408463Y-6562544D01*
X20415303Y-6558894D01*
X20415857Y-6558440D01*
X20416531Y-6558197D01*
X20423192Y-6554191D01*
X20423723Y-6553708D01*
X20424385Y-6553431D01*
X20430839Y-6549082D01*
X20431348Y-6548569D01*
X20431999Y-6548256D01*
X20438219Y-6543579D01*
X20438708Y-6543032D01*
X20439351Y-6542680D01*
X20445306Y-6537691D01*
X20445776Y-6537106D01*
X20446413Y-6536712D01*
X20452074Y-6531426D01*
X20452524Y-6530801D01*
X20453155Y-6530359D01*
X20458494Y-6524792D01*
X20458923Y-6524121D01*
X20459548Y-6523628D01*
X20464535Y-6517795D01*
X20464940Y-6517074D01*
X20465558Y-6516525D01*
X20470164Y-6510441D01*
X20470540Y-6509665D01*
X20471148Y-6509054D01*
X20475344Y-6502735D01*
X20475687Y-6501902D01*
X20476280Y-6501222D01*
X20480037Y-6494684D01*
X20480333Y-6493805D01*
X20480895Y-6493068D01*
X20484193Y-6486325D01*
X20484414Y-6485488D01*
X20484895Y-6484769D01*
X20487767Y-6477840D01*
X20487917Y-6477085D01*
X20488308Y-6476423D01*
X20490800Y-6469326D01*
X20490894Y-6468664D01*
X20491207Y-6468072D01*
X20493367Y-6460825D01*
X20493420Y-6460260D01*
X20493665Y-6459748D01*
X20495542Y-6452369D01*
X20495566Y-6451902D01*
X20495754Y-6451474D01*
X20497395Y-6443981D01*
X20497402Y-6443611D01*
X20497541Y-6443270D01*
X20498994Y-6435681D01*
X20498992Y-6435407D01*
X20499090Y-6435151D01*
X20500403Y-6427485D01*
X20500399Y-6427305D01*
X20500461Y-6427135D01*
X20501682Y-6419409D01*
X20501679Y-6419319D01*
X20501709Y-6419235D01*
X20502886Y-6411468D01*
X20502689Y-6407191D01*
X20502839Y-6402911D01*
X20501578Y-6395157D01*
X20501547Y-6395073D01*
X20501549Y-6394983D01*
X20500244Y-6387271D01*
X20500180Y-6387102D01*
X20500183Y-6386922D01*
X20498786Y-6379270D01*
X20498686Y-6379015D01*
X20498685Y-6378742D01*
X20497149Y-6371169D01*
X20497006Y-6370828D01*
X20496995Y-6370459D01*
X20495272Y-6362985D01*
X20495081Y-6362559D01*
X20495051Y-6362092D01*
X20493094Y-6354734D01*
X20492844Y-6354224D01*
X20492785Y-6353660D01*
X20490546Y-6346437D01*
X20490227Y-6345848D01*
X20490125Y-6345187D01*
X20487556Y-6338117D01*
X20487157Y-6337460D01*
X20486999Y-6336707D01*
X20484053Y-6329810D01*
X20483564Y-6329096D01*
X20483334Y-6328261D01*
X20479963Y-6321555D01*
X20479392Y-6320824D01*
X20479087Y-6319948D01*
X20475259Y-6313451D01*
X20474658Y-6312778D01*
X20474307Y-6311948D01*
X20470042Y-6305675D01*
X20469428Y-6305071D01*
X20469043Y-6304299D01*
X20464371Y-6298266D01*
X20463747Y-6297724D01*
X20463335Y-6297007D01*
X20458285Y-6291228D01*
X20457654Y-6290742D01*
X20457218Y-6290076D01*
X20451819Y-6284567D01*
X20451183Y-6284133D01*
X20450726Y-6283512D01*
X20445008Y-6278288D01*
X20444367Y-6277901D01*
X20443891Y-6277322D01*
X20437882Y-6272398D01*
X20437235Y-6272053D01*
X20436740Y-6271511D01*
X20430470Y-6266902D01*
X20429815Y-6266596D01*
X20429300Y-6266088D01*
X20422799Y-6261809D01*
X20422134Y-6261539D01*
X20421598Y-6261062D01*
X20414894Y-6257129D01*
X20414218Y-6256894D01*
X20413659Y-6256446D01*
X20406779Y-6252871D01*
X20406092Y-6252671D01*
X20405512Y-6252252D01*
X20398475Y-6249042D01*
X20397777Y-6248878D01*
X20397175Y-6248489D01*
X20389998Y-6245650D01*
X20389292Y-6245522D01*
X20388669Y-6245164D01*
X20381369Y-6242703D01*
X20380653Y-6242610D01*
X20380010Y-6242283D01*
X20372605Y-6240206D01*
X20371880Y-6240151D01*
X20371217Y-6239856D01*
X20363723Y-6238169D01*
X20362991Y-6238151D01*
X20362308Y-6237890D01*
X20354743Y-6236599D01*
X20354005Y-6236620D01*
X20353301Y-6236393D01*
X20345683Y-6235505D01*
X20344938Y-6235565D01*
X20344216Y-6235374D01*
X20336562Y-6234896D01*
X20335813Y-6234997D01*
X20335073Y-6234844D01*
X20327400Y-6234781D01*
X20326654Y-6234923D01*
X20325904Y-6234810D01*
X20318231Y-6235165D01*
X20317504Y-6235345D01*
X20316759Y-6235273D01*
X20309108Y-6236040D01*
X20308401Y-6236256D01*
X20307662Y-6236223D01*
X20300055Y-6237396D01*
X20299367Y-6237647D01*
X20298634Y-6237654D01*
X20291093Y-6239225D01*
X20290423Y-6239510D01*
X20289696Y-6239555D01*
X20282243Y-6241519D01*
X20281590Y-6241838D01*
X20280868Y-6241920D01*
X20273525Y-6244270D01*
X20272889Y-6244623D01*
X20272172Y-6244743D01*
X20264962Y-6247473D01*
X20264342Y-6247860D01*
X20263628Y-6248018D01*
X20256573Y-6251121D01*
X20255970Y-6251543D01*
X20255260Y-6251740D01*
X20248381Y-6255210D01*
X20247795Y-6255668D01*
X20247089Y-6255905D01*
X20240409Y-6259735D01*
X20239845Y-6260226D01*
X20239150Y-6260502D01*
X20232688Y-6264682D01*
X20232156Y-6265198D01*
X20231483Y-6265507D01*
X20225254Y-6270023D01*
X20224755Y-6270561D01*
X20224105Y-6270903D01*
X20218123Y-6275739D01*
X20217655Y-6276300D01*
X20217027Y-6276673D01*
X20211307Y-6281816D01*
X20210871Y-6282398D01*
X20210266Y-6282802D01*
X20204822Y-6288235D01*
X20204418Y-6288839D01*
X20203834Y-6289274D01*
X20198682Y-6294983D01*
X20198308Y-6295609D01*
X20197747Y-6296074D01*
X20192900Y-6302044D01*
X20192558Y-6302692D01*
X20192020Y-6303188D01*
X20187493Y-6309404D01*
X20187183Y-6310074D01*
X20186668Y-6310602D01*
X20182475Y-6317049D01*
X20182199Y-6317740D01*
X20181709Y-6318300D01*
X20177864Y-6324963D01*
X20177625Y-6325668D01*
X20177165Y-6326254D01*
X20173681Y-6333116D01*
X20173481Y-6333826D01*
X20173056Y-6334430D01*
X20169939Y-6341469D01*
X20169778Y-6342184D01*
X20169389Y-6342804D01*
X20166644Y-6349999D01*
X20166522Y-6350718D01*
X20166167Y-6351355D01*
X20163801Y-6358685D01*
X20163716Y-6359409D01*
X20163396Y-6360063D01*
X20161415Y-6367507D01*
X20161369Y-6368235D01*
X20161082Y-6368905D01*
X20159493Y-6376443D01*
X20159485Y-6377176D01*
X20159233Y-6377864D01*
X20158042Y-6385473D01*
X20158072Y-6386211D01*
X20157855Y-6386917D01*
X20157069Y-6394577D01*
X20157139Y-6395320D01*
X20156958Y-6396044D01*
X20156583Y-6403733D01*
X20156694Y-6404481D01*
X20156551Y-6405223D01*
X19680662Y-6405223D01*
X19683805Y-6397654D01*
X19683867Y-6327040D01*
X19656901Y-6261778D01*
X19607013Y-6211803D01*
X19541798Y-6184723D01*
X19471184Y-6184661D01*
X19405922Y-6211627D01*
X19355947Y-6261515D01*
X19328867Y-6326730D01*
X19328805Y-6397344D01*
X19206636Y-6397344D01*
X19206636Y-6394667D01*
X19192061Y-6380092D01*
X19016236Y-6380092D01*
X18980436Y-6380092D01*
X18804611Y-6380092D01*
X18790036Y-6394667D01*
X18356212Y-6394667D01*
X18350701Y-6392379D01*
X18307935Y-6392341D01*
X18268410Y-6408673D01*
X18238143Y-6438887D01*
X18221743Y-6478383D01*
X18221705Y-6521149D01*
X17801884Y-6521149D01*
X17804752Y-6517795D01*
X17805156Y-6517074D01*
X17805775Y-6516525D01*
X17810381Y-6510441D01*
X17810757Y-6509665D01*
X17811365Y-6509054D01*
X17815561Y-6502735D01*
X17815903Y-6501902D01*
X17816496Y-6501223D01*
X17820253Y-6494684D01*
X17820549Y-6493805D01*
X17821112Y-6493068D01*
X17824410Y-6486326D01*
X17824631Y-6485489D01*
X17825112Y-6484769D01*
X17827983Y-6477840D01*
X17828133Y-6477085D01*
X17828525Y-6476423D01*
X17831017Y-6469326D01*
X17831111Y-6468664D01*
X17831423Y-6468073D01*
X17833584Y-6460826D01*
X17833637Y-6460260D01*
X17833882Y-6459748D01*
X17835758Y-6452369D01*
X17835783Y-6451902D01*
X17835970Y-6451474D01*
X17837611Y-6443981D01*
X17837619Y-6443611D01*
X17837757Y-6443269D01*
X17839211Y-6435680D01*
X17839209Y-6435407D01*
X17839307Y-6435152D01*
X17840620Y-6427485D01*
X17840615Y-6427304D01*
X17840678Y-6427135D01*
X17841899Y-6419409D01*
X17841895Y-6419319D01*
X17841926Y-6419235D01*
X17843103Y-6411468D01*
X17842906Y-6407191D01*
X17843056Y-6402911D01*
X17841795Y-6395157D01*
X17841763Y-6395073D01*
X17841766Y-6394983D01*
X17840461Y-6387271D01*
X17840397Y-6387102D01*
X17840400Y-6386922D01*
X17839003Y-6379270D01*
X17838902Y-6379015D01*
X17838901Y-6378742D01*
X17837365Y-6371169D01*
X17837223Y-6370828D01*
X17837212Y-6370459D01*
X17835489Y-6362985D01*
X17835297Y-6362559D01*
X17835268Y-6362092D01*
X17833311Y-6354734D01*
X17833060Y-6354224D01*
X17833001Y-6353660D01*
X17830762Y-6346437D01*
X17830443Y-6345848D01*
X17830342Y-6345187D01*
X17827773Y-6338117D01*
X17827374Y-6337460D01*
X17827216Y-6336707D01*
X17824270Y-6329810D01*
X17823781Y-6329096D01*
X17823550Y-6328261D01*
X17820179Y-6321555D01*
X17819609Y-6320824D01*
X17819303Y-6319948D01*
X17815476Y-6313451D01*
X17814875Y-6312778D01*
X17814524Y-6311948D01*
X17810259Y-6305676D01*
X17809645Y-6305071D01*
X17809260Y-6304299D01*
X17804588Y-6298266D01*
X17803964Y-6297723D01*
X17803551Y-6297006D01*
X17798501Y-6291228D01*
X17797870Y-6290742D01*
X17797435Y-6290076D01*
X17792035Y-6284567D01*
X17791399Y-6284133D01*
X17790943Y-6283512D01*
X17789654Y-6282335D01*
X18190924Y-6282335D01*
X18190924Y-6341457D01*
X18199800Y-6362884D01*
X18216200Y-6379284D01*
X18237627Y-6388160D01*
X18296749Y-6388160D01*
X18311324Y-6373585D01*
X18311324Y-6267760D01*
X18347124Y-6267760D01*
X18347124Y-6373585D01*
X18361699Y-6388160D01*
X18420821Y-6388160D01*
X18442248Y-6379284D01*
X18458648Y-6362884D01*
X18467524Y-6341457D01*
X18467524Y-6282335D01*
X18452949Y-6267760D01*
X18347124Y-6267760D01*
X18311324Y-6267760D01*
X18205499Y-6267760D01*
X18190924Y-6282335D01*
X17789654Y-6282335D01*
X17785224Y-6278288D01*
X17784583Y-6277901D01*
X17784107Y-6277322D01*
X17778098Y-6272398D01*
X17777451Y-6272052D01*
X17776956Y-6271511D01*
X17770686Y-6266902D01*
X17770032Y-6266596D01*
X17769517Y-6266088D01*
X17763016Y-6261809D01*
X17762351Y-6261539D01*
X17761814Y-6261062D01*
X17755111Y-6257129D01*
X17754434Y-6256894D01*
X17753876Y-6256446D01*
X17746996Y-6252871D01*
X17746309Y-6252671D01*
X17745728Y-6252252D01*
X17738691Y-6249042D01*
X17737994Y-6248878D01*
X17737392Y-6248489D01*
X17730214Y-6245650D01*
X17729508Y-6245522D01*
X17728886Y-6245164D01*
X17721586Y-6242703D01*
X17720870Y-6242610D01*
X17720227Y-6242283D01*
X17712821Y-6240206D01*
X17712097Y-6240151D01*
X17711433Y-6239856D01*
X17703940Y-6238169D01*
X17703208Y-6238151D01*
X17702524Y-6237890D01*
X17694960Y-6236599D01*
X17694221Y-6236620D01*
X17693518Y-6236393D01*
X17685900Y-6235505D01*
X17685155Y-6235565D01*
X17684433Y-6235374D01*
X17676779Y-6234896D01*
X17676030Y-6234997D01*
X17675289Y-6234844D01*
X17667616Y-6234781D01*
X17666871Y-6234923D01*
X17666121Y-6234810D01*
X17658448Y-6235165D01*
X17657721Y-6235345D01*
X17656976Y-6235273D01*
X17649325Y-6236040D01*
X17648618Y-6236256D01*
X17647879Y-6236223D01*
X17640272Y-6237396D01*
X17639583Y-6237647D01*
X17638850Y-6237654D01*
X17631310Y-6239225D01*
X17630639Y-6239510D01*
X17629912Y-6239555D01*
X17622460Y-6241519D01*
X17621807Y-6241838D01*
X17621084Y-6241920D01*
X17613742Y-6244270D01*
X17613106Y-6244623D01*
X17612388Y-6244743D01*
X17605179Y-6247473D01*
X17604559Y-6247860D01*
X17603845Y-6248018D01*
X17596790Y-6251121D01*
X17596186Y-6251543D01*
X17595477Y-6251740D01*
X17588598Y-6255210D01*
X17588011Y-6255668D01*
X17587305Y-6255905D01*
X17580625Y-6259735D01*
X17580062Y-6260226D01*
X17579367Y-6260502D01*
X17572905Y-6264682D01*
X17572373Y-6265198D01*
X17571700Y-6265507D01*
X17565471Y-6270023D01*
X17564972Y-6270561D01*
X17564321Y-6270903D01*
X17558340Y-6275739D01*
X17557872Y-6276300D01*
X17557244Y-6276673D01*
X17551524Y-6281816D01*
X17551088Y-6282398D01*
X17550483Y-6282802D01*
X17545039Y-6288235D01*
X17544634Y-6288839D01*
X17544051Y-6289274D01*
X17538898Y-6294983D01*
X17538525Y-6295609D01*
X17537964Y-6296074D01*
X17533117Y-6302044D01*
X17532775Y-6302692D01*
X17532237Y-6303188D01*
X17527709Y-6309404D01*
X17527400Y-6310074D01*
X17526885Y-6310602D01*
X17522692Y-6317049D01*
X17522416Y-6317740D01*
X17521925Y-6318300D01*
X17518081Y-6324963D01*
X17517842Y-6325668D01*
X17517381Y-6326254D01*
X17513897Y-6333116D01*
X17513698Y-6333826D01*
X17513273Y-6334430D01*
X17510155Y-6341469D01*
X17509995Y-6342184D01*
X17509606Y-6342804D01*
X17506860Y-6349999D01*
X17506738Y-6350718D01*
X17506383Y-6351355D01*
X17504017Y-6358685D01*
X17503933Y-6359409D01*
X17503612Y-6360063D01*
X17501632Y-6367507D01*
X17501585Y-6368235D01*
X17501299Y-6368905D01*
X17499710Y-6376443D01*
X17499701Y-6377176D01*
X17499449Y-6377864D01*
X17498259Y-6385473D01*
X17498289Y-6386211D01*
X17498072Y-6386917D01*
X17497286Y-6394577D01*
X17497356Y-6395320D01*
X17497175Y-6396044D01*
X17496799Y-6403733D01*
X17496911Y-6404481D01*
X17496767Y-6405223D01*
X17311778Y-6405223D01*
X17316966Y-6386274D01*
X17322621Y-6367498D01*
X17328766Y-6349004D01*
X17335446Y-6330810D01*
X17342708Y-6312938D01*
X17350600Y-6295397D01*
X17359172Y-6278200D01*
X17368477Y-6261343D01*
X17378560Y-6244804D01*
X17389407Y-6228584D01*
X17400988Y-6212711D01*
X17413265Y-6197224D01*
X17426208Y-6182148D01*
X17439776Y-6167520D01*
X17449039Y-6158263D01*
X18190924Y-6158263D01*
X18190924Y-6217385D01*
X18205499Y-6231960D01*
X18311324Y-6231960D01*
X18311324Y-6126135D01*
X18347124Y-6126135D01*
X18347124Y-6231960D01*
X18452949Y-6231960D01*
X18467524Y-6217385D01*
X18467524Y-6200595D01*
X18790036Y-6200595D01*
X18790036Y-6329717D01*
X18804611Y-6344292D01*
X18980436Y-6344292D01*
X18980436Y-6168467D01*
X19016236Y-6168467D01*
X19016236Y-6344292D01*
X19192061Y-6344292D01*
X19206636Y-6329717D01*
X19206636Y-6200595D01*
X19197760Y-6179168D01*
X19181360Y-6162768D01*
X19159933Y-6153892D01*
X19030811Y-6153892D01*
X19016236Y-6168467D01*
X18980436Y-6168467D01*
X18965861Y-6153892D01*
X18836739Y-6153892D01*
X18815312Y-6162768D01*
X18798912Y-6179168D01*
X18790036Y-6200595D01*
X18467524Y-6200595D01*
X18467524Y-6158263D01*
X18458648Y-6136836D01*
X18442248Y-6120436D01*
X18420821Y-6111560D01*
X18361699Y-6111560D01*
X18347124Y-6126135D01*
X18311324Y-6126135D01*
X18296749Y-6111560D01*
X18237627Y-6111560D01*
X18216200Y-6120436D01*
X18199800Y-6136836D01*
X18190924Y-6158263D01*
X17449039Y-6158263D01*
X17453940Y-6153366D01*
X17468658Y-6139721D01*
X17483893Y-6126616D01*
X17499612Y-6114080D01*
X17515777Y-6102142D01*
X17532350Y-6090831D01*
X17549288Y-6080181D01*
X17566558Y-6070215D01*
X17584126Y-6060962D01*
X17601974Y-6052435D01*
X17620119Y-6044600D01*
X17638568Y-6037402D01*
X17657319Y-6030798D01*
X17676361Y-6024741D01*
X17695685Y-6019186D01*
X17715287Y-6014088D01*
X17735146Y-6009402D01*
X17755261Y-6005081D01*
X17775606Y-6001081D01*
X17796184Y-5997352D01*
X17816964Y-5993850D01*
X17837948Y-5990523D01*
X17859101Y-5987327D01*
X17880460Y-5984205D01*
X17899991Y-5981399D01*
X20100009Y-5981399D01*
X20119540Y-5984205D01*
X20119540Y-5984205D01*
G37*
X20119540Y-5984205D02*
X20140902Y-5987328D01*
X20162054Y-5990523D01*
X20183038Y-5993850D01*
X20203816Y-5997352D01*
X20224394Y-6001081D01*
X20244739Y-6005081D01*
X20264854Y-6009402D01*
X20284712Y-6014087D01*
X20304312Y-6019185D01*
X20323642Y-6024741D01*
X20342681Y-6030797D01*
X20361433Y-6037403D01*
X20379883Y-6044600D01*
X20398026Y-6052435D01*
X20415875Y-6060962D01*
X20433439Y-6070214D01*
X20450713Y-6080181D01*
X20467650Y-6090831D01*
X20484223Y-6102141D01*
X20500388Y-6114080D01*
X20516108Y-6126618D01*
X20531344Y-6139723D01*
X20546062Y-6153367D01*
X20560223Y-6167519D01*
X20573793Y-6182148D01*
X20586734Y-6197222D01*
X20599012Y-6212711D01*
X20610592Y-6228582D01*
X20621440Y-6244804D01*
X20631523Y-6261343D01*
X20640829Y-6278200D01*
X20649399Y-6295395D01*
X20657292Y-6312937D01*
X20664554Y-6330810D01*
X20671234Y-6349004D01*
X20677379Y-6367498D01*
X20683034Y-6386274D01*
X20688249Y-6405320D01*
X20693072Y-6424617D01*
X20697548Y-6444132D01*
X20701730Y-6463862D01*
X20705666Y-6483774D01*
X20709408Y-6503854D01*
X20713006Y-6524078D01*
X20716504Y-6544381D01*
X20719588Y-6562572D01*
X20719588Y-12389400D01*
X20716512Y-12407544D01*
X20713003Y-12427910D01*
X20709408Y-12448119D01*
X20705666Y-12468199D01*
X20701730Y-12488112D01*
X20697549Y-12507837D01*
X20693071Y-12527358D01*
X20688249Y-12546652D01*
X20683035Y-12565696D01*
X20677379Y-12584476D01*
X20671234Y-12602971D01*
X20664555Y-12621162D01*
X20657292Y-12639036D01*
X20649400Y-12656575D01*
X20640829Y-12673773D01*
X20631523Y-12690630D01*
X20621441Y-12707170D01*
X20610592Y-12723392D01*
X20599012Y-12739262D01*
X20586735Y-12754749D01*
X20573793Y-12769825D01*
X20560224Y-12784453D01*
X20546063Y-12798605D01*
X20531345Y-12812250D01*
X20516108Y-12825356D01*
X20500387Y-12837894D01*
X20484224Y-12849832D01*
X20467651Y-12861142D01*
X20450712Y-12871793D01*
X20433440Y-12881759D01*
X20415874Y-12891011D01*
X20398026Y-12899538D01*
X20379884Y-12907373D01*
X20361435Y-12914570D01*
X20342681Y-12921176D01*
X20323639Y-12927233D01*
X20304313Y-12932788D01*
X20284712Y-12937886D01*
X20264854Y-12942571D01*
X20244738Y-12946892D01*
X20224395Y-12950892D01*
X20203816Y-12954621D01*
X20183034Y-12958124D01*
X20162059Y-12961449D01*
X20140896Y-12964646D01*
X20119546Y-12967766D01*
X20100009Y-12970574D01*
X17899991Y-12970574D01*
X17880454Y-12967766D01*
X17859104Y-12964646D01*
X17837945Y-12961449D01*
X17816966Y-12958124D01*
X17796184Y-12954621D01*
X17775604Y-12950891D01*
X17755263Y-12946892D01*
X17735146Y-12942571D01*
X17715287Y-12937885D01*
X17695687Y-12932788D01*
X17676361Y-12927233D01*
X17657318Y-12921175D01*
X17638566Y-12914570D01*
X17620118Y-12907374D01*
X17601974Y-12899538D01*
X17584126Y-12891011D01*
X17566558Y-12881758D01*
X17549288Y-12871793D01*
X17532349Y-12861142D01*
X17515776Y-12849832D01*
X17499613Y-12837894D01*
X17483894Y-12825358D01*
X17468658Y-12812253D01*
X17453940Y-12798608D01*
X17439777Y-12784454D01*
X17426208Y-12769826D01*
X17413266Y-12754751D01*
X17400988Y-12739262D01*
X17389407Y-12723391D01*
X17378559Y-12707170D01*
X17368476Y-12690629D01*
X17359170Y-12673772D01*
X17350600Y-12656576D01*
X17342708Y-12639036D01*
X17335446Y-12621164D01*
X17328765Y-12602969D01*
X17322621Y-12584475D01*
X17316966Y-12565698D01*
X17315246Y-12559417D01*
X17496767Y-12559417D01*
X17496809Y-12567115D01*
X17496961Y-12567855D01*
X17496858Y-12568603D01*
X17497316Y-12576288D01*
X17497505Y-12577010D01*
X17497443Y-12577754D01*
X17498312Y-12585405D01*
X17498537Y-12586109D01*
X17498515Y-12586847D01*
X17499788Y-12594443D01*
X17500048Y-12595128D01*
X17500064Y-12595861D01*
X17501735Y-12603381D01*
X17502029Y-12604048D01*
X17502083Y-12604775D01*
X17504145Y-12612198D01*
X17504473Y-12612848D01*
X17504565Y-12613571D01*
X17507010Y-12620875D01*
X17507372Y-12621508D01*
X17507502Y-12622225D01*
X17510325Y-12629390D01*
X17510721Y-12630006D01*
X17510890Y-12630719D01*
X17514084Y-12637724D01*
X17514515Y-12638323D01*
X17514722Y-12639031D01*
X17518281Y-12645855D01*
X17518747Y-12646435D01*
X17518994Y-12647138D01*
X17522911Y-12653759D01*
X17523407Y-12654313D01*
X17523691Y-12655002D01*
X17527954Y-12661403D01*
X17528474Y-12661925D01*
X17528791Y-12662591D01*
X17533386Y-12668758D01*
X17533930Y-12669248D01*
X17534278Y-12669892D01*
X17539190Y-12675808D01*
X17539756Y-12676268D01*
X17540136Y-12676890D01*
X17545351Y-12682543D01*
X17545939Y-12682971D01*
X17546350Y-12683571D01*
X17551852Y-12688944D01*
X17552462Y-12689341D01*
X17552905Y-12689920D01*
X17558680Y-12694999D01*
X17559312Y-12695365D01*
X17559785Y-12695921D01*
X17565819Y-12700692D01*
X17566474Y-12701026D01*
X17566979Y-12701560D01*
X17573257Y-12706008D01*
X17573933Y-12706310D01*
X17574470Y-12706820D01*
X17580977Y-12710929D01*
X17581675Y-12711197D01*
X17582244Y-12711682D01*
X17588965Y-12715439D01*
X17589674Y-12715668D01*
X17590265Y-12716120D01*
X17597181Y-12719515D01*
X17597893Y-12719704D01*
X17598501Y-12720120D01*
X17605590Y-12723146D01*
X17606305Y-12723296D01*
X17606929Y-12723676D01*
X17614168Y-12726328D01*
X17614887Y-12726440D01*
X17615527Y-12726786D01*
X17622895Y-12729056D01*
X17623617Y-12729130D01*
X17624274Y-12729442D01*
X17631747Y-12731325D01*
X17632475Y-12731362D01*
X17633148Y-12731639D01*
X17640706Y-12733129D01*
X17641439Y-12733128D01*
X17642130Y-12733371D01*
X17649749Y-12734461D01*
X17650488Y-12734421D01*
X17651197Y-12734629D01*
X17658856Y-12735313D01*
X17659601Y-12735233D01*
X17660330Y-12735405D01*
X17668006Y-12735676D01*
X17668755Y-12735555D01*
X17669501Y-12735688D01*
X17677173Y-12735542D01*
X17677912Y-12735381D01*
X17678662Y-12735474D01*
X17686311Y-12734913D01*
X17687031Y-12734714D01*
X17687776Y-12734765D01*
X17695384Y-12733795D01*
X17696085Y-12733561D01*
X17696824Y-12733573D01*
X17704374Y-12732201D01*
X17705054Y-12731932D01*
X17705786Y-12731906D01*
X17713260Y-12730138D01*
X17713921Y-12729836D01*
X17714645Y-12729772D01*
X17722027Y-12727615D01*
X17722667Y-12727281D01*
X17723381Y-12727180D01*
X17730654Y-12724640D01*
X17731273Y-12724276D01*
X17731978Y-12724139D01*
X17739124Y-12721223D01*
X17739721Y-12720828D01*
X17740417Y-12720656D01*
X17747419Y-12717369D01*
X17747995Y-12716944D01*
X17748680Y-12716737D01*
X17755520Y-12713087D01*
X17756074Y-12712633D01*
X17756748Y-12712391D01*
X17763408Y-12708384D01*
X17763939Y-12707902D01*
X17764601Y-12707625D01*
X17771056Y-12703275D01*
X17771565Y-12702762D01*
X17772216Y-12702449D01*
X17778436Y-12697772D01*
X17778925Y-12697225D01*
X17779568Y-12696873D01*
X17785523Y-12691884D01*
X17785993Y-12691299D01*
X17786630Y-12690905D01*
X17792291Y-12685619D01*
X17792741Y-12684994D01*
X17793372Y-12684553D01*
X17798711Y-12678985D01*
X17799140Y-12678314D01*
X17799765Y-12677821D01*
X17804752Y-12671988D01*
X17805157Y-12671267D01*
X17805775Y-12670718D01*
X17810381Y-12664634D01*
X17810757Y-12663859D01*
X17811365Y-12663247D01*
X17815561Y-12656928D01*
X17815904Y-12656095D01*
X17816497Y-12655415D01*
X17820253Y-12648877D01*
X17820550Y-12647998D01*
X17821112Y-12647261D01*
X17824410Y-12640519D01*
X17824631Y-12639681D01*
X17825112Y-12638962D01*
X17826512Y-12635584D01*
X18820805Y-12635584D01*
X18847771Y-12700846D01*
X18897659Y-12750821D01*
X18962874Y-12777901D01*
X19033488Y-12777963D01*
X19098750Y-12750997D01*
X19148725Y-12701109D01*
X19175805Y-12635894D01*
X19175820Y-12618332D01*
X19296894Y-12618332D01*
X19296894Y-12750432D01*
X19300959Y-12772037D01*
X19313727Y-12791879D01*
X19333210Y-12805191D01*
X19356336Y-12809874D01*
X19488436Y-12809874D01*
X19488436Y-12618332D01*
X19524236Y-12618332D01*
X19524236Y-12809874D01*
X19656336Y-12809874D01*
X19677941Y-12805809D01*
X19697783Y-12793041D01*
X19711095Y-12773558D01*
X19715778Y-12750432D01*
X19715778Y-12618332D01*
X19524236Y-12618332D01*
X19488436Y-12618332D01*
X19296894Y-12618332D01*
X19175820Y-12618332D01*
X19175867Y-12565280D01*
X19148901Y-12500018D01*
X19099402Y-12450432D01*
X19296894Y-12450432D01*
X19296894Y-12582532D01*
X19488436Y-12582532D01*
X19488436Y-12390990D01*
X19524236Y-12390990D01*
X19524236Y-12582532D01*
X19715778Y-12582532D01*
X19715778Y-12559417D01*
X20156551Y-12559417D01*
X20156592Y-12567115D01*
X20156744Y-12567855D01*
X20156641Y-12568603D01*
X20157100Y-12576288D01*
X20157289Y-12577010D01*
X20157227Y-12577754D01*
X20158096Y-12585405D01*
X20158321Y-12586109D01*
X20158298Y-12586847D01*
X20159572Y-12594443D01*
X20159832Y-12595128D01*
X20159848Y-12595861D01*
X20161518Y-12603381D01*
X20161812Y-12604048D01*
X20161867Y-12604775D01*
X20163928Y-12612198D01*
X20164256Y-12612848D01*
X20164348Y-12613571D01*
X20166794Y-12620875D01*
X20167156Y-12621508D01*
X20167285Y-12622225D01*
X20170109Y-12629390D01*
X20170505Y-12630006D01*
X20170673Y-12630719D01*
X20173867Y-12637724D01*
X20174299Y-12638323D01*
X20174506Y-12639031D01*
X20178064Y-12645855D01*
X20178531Y-12646435D01*
X20178778Y-12647138D01*
X20182694Y-12653759D01*
X20183191Y-12654313D01*
X20183474Y-12655002D01*
X20187737Y-12661403D01*
X20188258Y-12661925D01*
X20188575Y-12662591D01*
X20193169Y-12668758D01*
X20193713Y-12669248D01*
X20194062Y-12669892D01*
X20198973Y-12675808D01*
X20199539Y-12676268D01*
X20199920Y-12676890D01*
X20205134Y-12682543D01*
X20205722Y-12682971D01*
X20206133Y-12683571D01*
X20211636Y-12688944D01*
X20212246Y-12689341D01*
X20212688Y-12689920D01*
X20218464Y-12694999D01*
X20219095Y-12695365D01*
X20219569Y-12695921D01*
X20225603Y-12700692D01*
X20226257Y-12701026D01*
X20226762Y-12701560D01*
X20233040Y-12706008D01*
X20233716Y-12706310D01*
X20234254Y-12706820D01*
X20240761Y-12710929D01*
X20241459Y-12711197D01*
X20242028Y-12711682D01*
X20248749Y-12715439D01*
X20249457Y-12715668D01*
X20250049Y-12716120D01*
X20256965Y-12719515D01*
X20257677Y-12719704D01*
X20258285Y-12720120D01*
X20265373Y-12723146D01*
X20266088Y-12723296D01*
X20266712Y-12723676D01*
X20273951Y-12726328D01*
X20274670Y-12726440D01*
X20275311Y-12726786D01*
X20282678Y-12729056D01*
X20283401Y-12729130D01*
X20284057Y-12729442D01*
X20291531Y-12731325D01*
X20292258Y-12731362D01*
X20292932Y-12731639D01*
X20300489Y-12733129D01*
X20301222Y-12733128D01*
X20301914Y-12733371D01*
X20309533Y-12734461D01*
X20310271Y-12734421D01*
X20310981Y-12734629D01*
X20318639Y-12735313D01*
X20319384Y-12735233D01*
X20320113Y-12735405D01*
X20327789Y-12735676D01*
X20328538Y-12735555D01*
X20329285Y-12735688D01*
X20336956Y-12735542D01*
X20337695Y-12735381D01*
X20338446Y-12735474D01*
X20346094Y-12734913D01*
X20346814Y-12734714D01*
X20347560Y-12734765D01*
X20355167Y-12733795D01*
X20355868Y-12733561D01*
X20356607Y-12733573D01*
X20364157Y-12732201D01*
X20364838Y-12731932D01*
X20365569Y-12731906D01*
X20373044Y-12730138D01*
X20373704Y-12729836D01*
X20374428Y-12729772D01*
X20381810Y-12727615D01*
X20382450Y-12727281D01*
X20383165Y-12727180D01*
X20390438Y-12724640D01*
X20391056Y-12724276D01*
X20391761Y-12724139D01*
X20398907Y-12721223D01*
X20399505Y-12720828D01*
X20400200Y-12720656D01*
X20407202Y-12717369D01*
X20407778Y-12716944D01*
X20408464Y-12716737D01*
X20415304Y-12713087D01*
X20415858Y-12712633D01*
X20416531Y-12712391D01*
X20423192Y-12708384D01*
X20423722Y-12707902D01*
X20424385Y-12707625D01*
X20430839Y-12703275D01*
X20431348Y-12702762D01*
X20432000Y-12702449D01*
X20438219Y-12697772D01*
X20438708Y-12697225D01*
X20439351Y-12696873D01*
X20445306Y-12691884D01*
X20445776Y-12691299D01*
X20446413Y-12690905D01*
X20452075Y-12685619D01*
X20452524Y-12684994D01*
X20453155Y-12684553D01*
X20458494Y-12678985D01*
X20458923Y-12678314D01*
X20459549Y-12677821D01*
X20464536Y-12671988D01*
X20464940Y-12671267D01*
X20465558Y-12670718D01*
X20470164Y-12664634D01*
X20470541Y-12663859D01*
X20471148Y-12663247D01*
X20475344Y-12656928D01*
X20475687Y-12656095D01*
X20476280Y-12655415D01*
X20480037Y-12648877D01*
X20480333Y-12647998D01*
X20480895Y-12647261D01*
X20484193Y-12640519D01*
X20484415Y-12639681D01*
X20484896Y-12638962D01*
X20487767Y-12632033D01*
X20487917Y-12631278D01*
X20488308Y-12630616D01*
X20490800Y-12623519D01*
X20490894Y-12622857D01*
X20491207Y-12622265D01*
X20493367Y-12615018D01*
X20493420Y-12614453D01*
X20493665Y-12613941D01*
X20495542Y-12606562D01*
X20495566Y-12606095D01*
X20495754Y-12605667D01*
X20497395Y-12598174D01*
X20497402Y-12597804D01*
X20497541Y-12597463D01*
X20498994Y-12589874D01*
X20498992Y-12589600D01*
X20499090Y-12589344D01*
X20500404Y-12581678D01*
X20500399Y-12581497D01*
X20500461Y-12581328D01*
X20501682Y-12573602D01*
X20501679Y-12573512D01*
X20501709Y-12573428D01*
X20502886Y-12565661D01*
X20502689Y-12561384D01*
X20502839Y-12557104D01*
X20501578Y-12549350D01*
X20501547Y-12549266D01*
X20501549Y-12549176D01*
X20500244Y-12541464D01*
X20500180Y-12541295D01*
X20500183Y-12541115D01*
X20498786Y-12533463D01*
X20498686Y-12533208D01*
X20498685Y-12532935D01*
X20497149Y-12525362D01*
X20497006Y-12525022D01*
X20496995Y-12524653D01*
X20495272Y-12517178D01*
X20495081Y-12516752D01*
X20495051Y-12516285D01*
X20493094Y-12508927D01*
X20492844Y-12508418D01*
X20492785Y-12507853D01*
X20490546Y-12500630D01*
X20490227Y-12500042D01*
X20490125Y-12499380D01*
X20487556Y-12492311D01*
X20487157Y-12491653D01*
X20486999Y-12490900D01*
X20484053Y-12484003D01*
X20483564Y-12483289D01*
X20483334Y-12482454D01*
X20479963Y-12475748D01*
X20479392Y-12475016D01*
X20479086Y-12474141D01*
X20475259Y-12467644D01*
X20474659Y-12466971D01*
X20474307Y-12466141D01*
X20470043Y-12459869D01*
X20469428Y-12459264D01*
X20469043Y-12458492D01*
X20464371Y-12452459D01*
X20463747Y-12451917D01*
X20463335Y-12451200D01*
X20458285Y-12445421D01*
X20457654Y-12444935D01*
X20457218Y-12444269D01*
X20451819Y-12438760D01*
X20451183Y-12438326D01*
X20450726Y-12437705D01*
X20445008Y-12432481D01*
X20444366Y-12432094D01*
X20443891Y-12431515D01*
X20437882Y-12426591D01*
X20437235Y-12426245D01*
X20436740Y-12425704D01*
X20430470Y-12421095D01*
X20429815Y-12420789D01*
X20429300Y-12420281D01*
X20422799Y-12416002D01*
X20422134Y-12415732D01*
X20421598Y-12415255D01*
X20414894Y-12411322D01*
X20414218Y-12411087D01*
X20413659Y-12410639D01*
X20406780Y-12407064D01*
X20406092Y-12406864D01*
X20405511Y-12406445D01*
X20398474Y-12403235D01*
X20397777Y-12403071D01*
X20397175Y-12402682D01*
X20389998Y-12399844D01*
X20389291Y-12399715D01*
X20388669Y-12399357D01*
X20381369Y-12396896D01*
X20380653Y-12396803D01*
X20380010Y-12396477D01*
X20372604Y-12394400D01*
X20371880Y-12394344D01*
X20371217Y-12394049D01*
X20363723Y-12392362D01*
X20362991Y-12392344D01*
X20362308Y-12392083D01*
X20354743Y-12390793D01*
X20354005Y-12390813D01*
X20353301Y-12390586D01*
X20345683Y-12389699D01*
X20344938Y-12389759D01*
X20344216Y-12389567D01*
X20336562Y-12389089D01*
X20335813Y-12389190D01*
X20335073Y-12389037D01*
X20327400Y-12388974D01*
X20326654Y-12389116D01*
X20325904Y-12389003D01*
X20318231Y-12389358D01*
X20317504Y-12389538D01*
X20316759Y-12389466D01*
X20309108Y-12390233D01*
X20308401Y-12390449D01*
X20307662Y-12390417D01*
X20300055Y-12391589D01*
X20299367Y-12391840D01*
X20298634Y-12391847D01*
X20291093Y-12393418D01*
X20290422Y-12393703D01*
X20289696Y-12393748D01*
X20282243Y-12395712D01*
X20281590Y-12396031D01*
X20280868Y-12396113D01*
X20273525Y-12398464D01*
X20272889Y-12398816D01*
X20272172Y-12398936D01*
X20264962Y-12401666D01*
X20264342Y-12402053D01*
X20263628Y-12402211D01*
X20256573Y-12405314D01*
X20255970Y-12405736D01*
X20255260Y-12405933D01*
X20248381Y-12409403D01*
X20247794Y-12409862D01*
X20247088Y-12410099D01*
X20240408Y-12413928D01*
X20239845Y-12414419D01*
X20239150Y-12414695D01*
X20232688Y-12418875D01*
X20232156Y-12419391D01*
X20231483Y-12419700D01*
X20225254Y-12424216D01*
X20224755Y-12424755D01*
X20224104Y-12425096D01*
X20218122Y-12429933D01*
X20217655Y-12430494D01*
X20217027Y-12430867D01*
X20211307Y-12436009D01*
X20210871Y-12436592D01*
X20210266Y-12436996D01*
X20204822Y-12442429D01*
X20204418Y-12443033D01*
X20203834Y-12443467D01*
X20198681Y-12449177D01*
X20198308Y-12449803D01*
X20197747Y-12450268D01*
X20192900Y-12456238D01*
X20192558Y-12456885D01*
X20192020Y-12457382D01*
X20187492Y-12463598D01*
X20187183Y-12464267D01*
X20186668Y-12464795D01*
X20182475Y-12471242D01*
X20182199Y-12471933D01*
X20181708Y-12472493D01*
X20177864Y-12479157D01*
X20177625Y-12479862D01*
X20177165Y-12480448D01*
X20173680Y-12487309D01*
X20173481Y-12488020D01*
X20173057Y-12488623D01*
X20169939Y-12495662D01*
X20169778Y-12496377D01*
X20169389Y-12496997D01*
X20166643Y-12504193D01*
X20166522Y-12504912D01*
X20166167Y-12505548D01*
X20163801Y-12512879D01*
X20163716Y-12513602D01*
X20163395Y-12514256D01*
X20161415Y-12521701D01*
X20161369Y-12522429D01*
X20161082Y-12523099D01*
X20159493Y-12530637D01*
X20159485Y-12531369D01*
X20159232Y-12532058D01*
X20158042Y-12539667D01*
X20158072Y-12540405D01*
X20157855Y-12541110D01*
X20157069Y-12548770D01*
X20157139Y-12549514D01*
X20156958Y-12550238D01*
X20156583Y-12557927D01*
X20156694Y-12558675D01*
X20156551Y-12559417D01*
X19715778Y-12559417D01*
X19715778Y-12450432D01*
X19711713Y-12428827D01*
X19698945Y-12408985D01*
X19679462Y-12395673D01*
X19656336Y-12390990D01*
X19524236Y-12390990D01*
X19488436Y-12390990D01*
X19356336Y-12390990D01*
X19334731Y-12395055D01*
X19314889Y-12407823D01*
X19301577Y-12427306D01*
X19296894Y-12450432D01*
X19099402Y-12450432D01*
X19099013Y-12450043D01*
X19033798Y-12422963D01*
X18963184Y-12422901D01*
X18897922Y-12449867D01*
X18847947Y-12499755D01*
X18820867Y-12564970D01*
X18820805Y-12635584D01*
X17826512Y-12635584D01*
X17827983Y-12632033D01*
X17828134Y-12631278D01*
X17828525Y-12630616D01*
X17831017Y-12623519D01*
X17831111Y-12622857D01*
X17831424Y-12622265D01*
X17833584Y-12615018D01*
X17833637Y-12614453D01*
X17833882Y-12613941D01*
X17835758Y-12606562D01*
X17835783Y-12606095D01*
X17835970Y-12605667D01*
X17837611Y-12598174D01*
X17837619Y-12597804D01*
X17837757Y-12597463D01*
X17839211Y-12589874D01*
X17839209Y-12589600D01*
X17839307Y-12589344D01*
X17840620Y-12581678D01*
X17840615Y-12581497D01*
X17840678Y-12581328D01*
X17841899Y-12573602D01*
X17841895Y-12573512D01*
X17841926Y-12573428D01*
X17843103Y-12565661D01*
X17842906Y-12561384D01*
X17843056Y-12557104D01*
X17841795Y-12549350D01*
X17841763Y-12549266D01*
X17841766Y-12549176D01*
X17840461Y-12541464D01*
X17840397Y-12541295D01*
X17840400Y-12541115D01*
X17839003Y-12533463D01*
X17838902Y-12533208D01*
X17838901Y-12532935D01*
X17837365Y-12525362D01*
X17837223Y-12525022D01*
X17837212Y-12524653D01*
X17835489Y-12517178D01*
X17835297Y-12516752D01*
X17835268Y-12516285D01*
X17833311Y-12508927D01*
X17833060Y-12508418D01*
X17833001Y-12507853D01*
X17830762Y-12500630D01*
X17830443Y-12500041D01*
X17830342Y-12499380D01*
X17827773Y-12492311D01*
X17827374Y-12491653D01*
X17827216Y-12490900D01*
X17824270Y-12484003D01*
X17823781Y-12483289D01*
X17823550Y-12482454D01*
X17820179Y-12475748D01*
X17819609Y-12475017D01*
X17819303Y-12474141D01*
X17815476Y-12467644D01*
X17814875Y-12466971D01*
X17814524Y-12466141D01*
X17810259Y-12459869D01*
X17809645Y-12459264D01*
X17809260Y-12458492D01*
X17804588Y-12452459D01*
X17803964Y-12451917D01*
X17803551Y-12451200D01*
X17798501Y-12445421D01*
X17797870Y-12444935D01*
X17797435Y-12444269D01*
X17792035Y-12438760D01*
X17791399Y-12438326D01*
X17790943Y-12437705D01*
X17785224Y-12432482D01*
X17784583Y-12432094D01*
X17784107Y-12431515D01*
X17778098Y-12426591D01*
X17777451Y-12426245D01*
X17776956Y-12425704D01*
X17770686Y-12421095D01*
X17770032Y-12420789D01*
X17769517Y-12420281D01*
X17763016Y-12416002D01*
X17762351Y-12415732D01*
X17761814Y-12415255D01*
X17755111Y-12411322D01*
X17754434Y-12411087D01*
X17753876Y-12410639D01*
X17746996Y-12407064D01*
X17746309Y-12406864D01*
X17745728Y-12406446D01*
X17738691Y-12403235D01*
X17737994Y-12403071D01*
X17737392Y-12402682D01*
X17730214Y-12399843D01*
X17729508Y-12399715D01*
X17728886Y-12399357D01*
X17721586Y-12396896D01*
X17720870Y-12396803D01*
X17720227Y-12396477D01*
X17712821Y-12394400D01*
X17712097Y-12394344D01*
X17711433Y-12394049D01*
X17703940Y-12392362D01*
X17703208Y-12392344D01*
X17702524Y-12392083D01*
X17694960Y-12390793D01*
X17694221Y-12390813D01*
X17693518Y-12390586D01*
X17685900Y-12389699D01*
X17685155Y-12389759D01*
X17684433Y-12389567D01*
X17676779Y-12389089D01*
X17676030Y-12389190D01*
X17675289Y-12389037D01*
X17667616Y-12388974D01*
X17666871Y-12389116D01*
X17666121Y-12389003D01*
X17658448Y-12389358D01*
X17657721Y-12389538D01*
X17656976Y-12389466D01*
X17649325Y-12390233D01*
X17648617Y-12390449D01*
X17647878Y-12390417D01*
X17640271Y-12391589D01*
X17639583Y-12391840D01*
X17638850Y-12391847D01*
X17631310Y-12393418D01*
X17630639Y-12393703D01*
X17629912Y-12393748D01*
X17622460Y-12395712D01*
X17621807Y-12396031D01*
X17621084Y-12396113D01*
X17613742Y-12398464D01*
X17613106Y-12398816D01*
X17612388Y-12398936D01*
X17605178Y-12401666D01*
X17604558Y-12402053D01*
X17603845Y-12402211D01*
X17596790Y-12405314D01*
X17596186Y-12405736D01*
X17595476Y-12405933D01*
X17588598Y-12409403D01*
X17588011Y-12409862D01*
X17587305Y-12410099D01*
X17580625Y-12413928D01*
X17580061Y-12414419D01*
X17579366Y-12414695D01*
X17572904Y-12418875D01*
X17572373Y-12419391D01*
X17571700Y-12419700D01*
X17565471Y-12424216D01*
X17564971Y-12424755D01*
X17564321Y-12425096D01*
X17558339Y-12429933D01*
X17557872Y-12430494D01*
X17557244Y-12430867D01*
X17551524Y-12436009D01*
X17551088Y-12436592D01*
X17550482Y-12436996D01*
X17545039Y-12442429D01*
X17544634Y-12443033D01*
X17544051Y-12443467D01*
X17538898Y-12449177D01*
X17538524Y-12449803D01*
X17537964Y-12450268D01*
X17533116Y-12456238D01*
X17532775Y-12456885D01*
X17532236Y-12457382D01*
X17527709Y-12463598D01*
X17527400Y-12464267D01*
X17526885Y-12464795D01*
X17522692Y-12471242D01*
X17522416Y-12471933D01*
X17521925Y-12472493D01*
X17518081Y-12479157D01*
X17517842Y-12479862D01*
X17517381Y-12480448D01*
X17513897Y-12487309D01*
X17513698Y-12488020D01*
X17513273Y-12488623D01*
X17510155Y-12495662D01*
X17509995Y-12496377D01*
X17509605Y-12496997D01*
X17506860Y-12504193D01*
X17506738Y-12504912D01*
X17506383Y-12505548D01*
X17504017Y-12512879D01*
X17503933Y-12513602D01*
X17503612Y-12514256D01*
X17501632Y-12521701D01*
X17501585Y-12522429D01*
X17501299Y-12523099D01*
X17499710Y-12530637D01*
X17499701Y-12531369D01*
X17499449Y-12532058D01*
X17498258Y-12539667D01*
X17498289Y-12540405D01*
X17498072Y-12541110D01*
X17497286Y-12548770D01*
X17497356Y-12549514D01*
X17497175Y-12550238D01*
X17496799Y-12557927D01*
X17496911Y-12558675D01*
X17496767Y-12559417D01*
X17315246Y-12559417D01*
X17311751Y-12546652D01*
X17306929Y-12527358D01*
X17302452Y-12507838D01*
X17298270Y-12488114D01*
X17294333Y-12468197D01*
X17290591Y-12448116D01*
X17286998Y-12427916D01*
X17283488Y-12407544D01*
X17280412Y-12389400D01*
X17280412Y-10515484D01*
X17301821Y-10515484D01*
X17301821Y-12215484D01*
X17303739Y-12225675D01*
X17309762Y-12235035D01*
X17318951Y-12241314D01*
X17329860Y-12243523D01*
X18529860Y-12243523D01*
X18540051Y-12241605D01*
X18549411Y-12235582D01*
X18555690Y-12226393D01*
X18557899Y-12215484D01*
X18557899Y-11751292D01*
X18709269Y-11751292D01*
X18709269Y-11971292D01*
X18711187Y-11981483D01*
X18717210Y-11990843D01*
X18726399Y-11997122D01*
X18737308Y-11999331D01*
X18957308Y-11999331D01*
X18967499Y-11997413D01*
X18976859Y-11991390D01*
X18983138Y-11982201D01*
X18985347Y-11971292D01*
X18985347Y-11751292D01*
X18983429Y-11741101D01*
X18977406Y-11731741D01*
X18968217Y-11725462D01*
X18957308Y-11723253D01*
X18920529Y-11723253D01*
X18944535Y-11707213D01*
X18974341Y-11662605D01*
X18984808Y-11609986D01*
X18984808Y-11604598D01*
X18974341Y-11551979D01*
X18944535Y-11507371D01*
X18899927Y-11477565D01*
X18847308Y-11467098D01*
X18794689Y-11477565D01*
X18750081Y-11507371D01*
X18720275Y-11551979D01*
X18709808Y-11604598D01*
X18709808Y-11609986D01*
X18720275Y-11662605D01*
X18750081Y-11707213D01*
X18774087Y-11723253D01*
X18737308Y-11723253D01*
X18727117Y-11725171D01*
X18717757Y-11731194D01*
X18711478Y-11740383D01*
X18709269Y-11751292D01*
X18557899Y-11751292D01*
X18557899Y-11449640D01*
X19143633Y-11449640D01*
X19143633Y-11799640D01*
X19145551Y-11809831D01*
X19151574Y-11819191D01*
X19160763Y-11825470D01*
X19171672Y-11827679D01*
X19521672Y-11827679D01*
X19531863Y-11825761D01*
X19541223Y-11819738D01*
X19547502Y-11810549D01*
X19549711Y-11799640D01*
X19549711Y-11657115D01*
X19713372Y-11657115D01*
X19713372Y-11811237D01*
X19722248Y-11832664D01*
X19738648Y-11849064D01*
X19760075Y-11857940D01*
X19914197Y-11857940D01*
X19928772Y-11843365D01*
X19928772Y-11642540D01*
X19964572Y-11642540D01*
X19964572Y-11843365D01*
X19979147Y-11857940D01*
X20133269Y-11857940D01*
X20154696Y-11849064D01*
X20171096Y-11832664D01*
X20179972Y-11811237D01*
X20179972Y-11657115D01*
X20165397Y-11642540D01*
X19964572Y-11642540D01*
X19928772Y-11642540D01*
X19727947Y-11642540D01*
X19713372Y-11657115D01*
X19549711Y-11657115D01*
X19549711Y-11449640D01*
X19547793Y-11439449D01*
X19546889Y-11438043D01*
X19713372Y-11438043D01*
X19713372Y-11592165D01*
X19727947Y-11606740D01*
X19928772Y-11606740D01*
X19928772Y-11405915D01*
X19964572Y-11405915D01*
X19964572Y-11606740D01*
X20165397Y-11606740D01*
X20179972Y-11592165D01*
X20179972Y-11438043D01*
X20171096Y-11416616D01*
X20154696Y-11400216D01*
X20133269Y-11391340D01*
X19979147Y-11391340D01*
X19964572Y-11405915D01*
X19928772Y-11405915D01*
X19914197Y-11391340D01*
X19760075Y-11391340D01*
X19738648Y-11400216D01*
X19722248Y-11416616D01*
X19713372Y-11438043D01*
X19546889Y-11438043D01*
X19541770Y-11430089D01*
X19532581Y-11423810D01*
X19521672Y-11421601D01*
X19171672Y-11421601D01*
X19161481Y-11423519D01*
X19152121Y-11429542D01*
X19145842Y-11438731D01*
X19143633Y-11449640D01*
X18557899Y-11449640D01*
X18557899Y-11187115D01*
X19413372Y-11187115D01*
X19413372Y-11341237D01*
X19422248Y-11362664D01*
X19438648Y-11379064D01*
X19460075Y-11387940D01*
X19614197Y-11387940D01*
X19628772Y-11373365D01*
X19628772Y-11172540D01*
X19664572Y-11172540D01*
X19664572Y-11373365D01*
X19679147Y-11387940D01*
X19833269Y-11387940D01*
X19854696Y-11379064D01*
X19871096Y-11362664D01*
X19879972Y-11341237D01*
X19879972Y-11187115D01*
X19865397Y-11172540D01*
X19664572Y-11172540D01*
X19628772Y-11172540D01*
X19427947Y-11172540D01*
X19413372Y-11187115D01*
X18557899Y-11187115D01*
X18557899Y-10968043D01*
X19413372Y-10968043D01*
X19413372Y-11122165D01*
X19427947Y-11136740D01*
X19628772Y-11136740D01*
X19628772Y-10935915D01*
X19664572Y-10935915D01*
X19664572Y-11136740D01*
X19865397Y-11136740D01*
X19879972Y-11122165D01*
X19879972Y-11041419D01*
X20303780Y-11041419D01*
X20303780Y-11110541D01*
X20312656Y-11131968D01*
X20329056Y-11148368D01*
X20350483Y-11157244D01*
X20419605Y-11157244D01*
X20434180Y-11142669D01*
X20434180Y-11026844D01*
X20469980Y-11026844D01*
X20469980Y-11142669D01*
X20484555Y-11157244D01*
X20553677Y-11157244D01*
X20575104Y-11148368D01*
X20591504Y-11131968D01*
X20600380Y-11110541D01*
X20600380Y-11041419D01*
X20585805Y-11026844D01*
X20469980Y-11026844D01*
X20434180Y-11026844D01*
X20318355Y-11026844D01*
X20303780Y-11041419D01*
X19879972Y-11041419D01*
X19879972Y-10968043D01*
X19871096Y-10946616D01*
X19854696Y-10930216D01*
X19833269Y-10921340D01*
X19679147Y-10921340D01*
X19664572Y-10935915D01*
X19628772Y-10935915D01*
X19614197Y-10921340D01*
X19460075Y-10921340D01*
X19438648Y-10930216D01*
X19422248Y-10946616D01*
X19413372Y-10968043D01*
X18557899Y-10968043D01*
X18557899Y-10824504D01*
X18570381Y-10854713D01*
X18627295Y-10911727D01*
X18701696Y-10942621D01*
X18782255Y-10942691D01*
X18856709Y-10911927D01*
X18861297Y-10907347D01*
X20303780Y-10907347D01*
X20303780Y-10976469D01*
X20318355Y-10991044D01*
X20434180Y-10991044D01*
X20434180Y-10989044D01*
X20469980Y-10989044D01*
X20469980Y-10991044D01*
X20585805Y-10991044D01*
X20600380Y-10976469D01*
X20600380Y-10907347D01*
X20591504Y-10885920D01*
X20575104Y-10869520D01*
X20553677Y-10860644D01*
X20503957Y-10860644D01*
X20518552Y-10854614D01*
X20551634Y-10821589D01*
X20569560Y-10778419D01*
X20569600Y-10731674D01*
X20551750Y-10688473D01*
X20518725Y-10655390D01*
X20475555Y-10637464D01*
X20428810Y-10637424D01*
X20385609Y-10655274D01*
X20352526Y-10688299D01*
X20334600Y-10731469D01*
X20334560Y-10778214D01*
X20352410Y-10821416D01*
X20385435Y-10854498D01*
X20400237Y-10860644D01*
X20350483Y-10860644D01*
X20329056Y-10869520D01*
X20312656Y-10885920D01*
X20303780Y-10907347D01*
X18861297Y-10907347D01*
X18913723Y-10855013D01*
X18944617Y-10780613D01*
X18944687Y-10700053D01*
X18913923Y-10625599D01*
X18857009Y-10568585D01*
X18836958Y-10560259D01*
X19879617Y-10560259D01*
X19910381Y-10634713D01*
X19967295Y-10691727D01*
X20041696Y-10722621D01*
X20122255Y-10722691D01*
X20196709Y-10691927D01*
X20253723Y-10635013D01*
X20284617Y-10560613D01*
X20284687Y-10480053D01*
X20253923Y-10405599D01*
X20197009Y-10348585D01*
X20122609Y-10317691D01*
X20042049Y-10317621D01*
X19967595Y-10348385D01*
X19910581Y-10405299D01*
X19879687Y-10479700D01*
X19879617Y-10560259D01*
X18836958Y-10560259D01*
X18782609Y-10537691D01*
X18702049Y-10537621D01*
X18627595Y-10568385D01*
X18570581Y-10625299D01*
X18557899Y-10655842D01*
X18557899Y-10515484D01*
X18555981Y-10505293D01*
X18549958Y-10495933D01*
X18540769Y-10489654D01*
X18529860Y-10487445D01*
X17329860Y-10487445D01*
X17319669Y-10489363D01*
X17310309Y-10495386D01*
X17304030Y-10504575D01*
X17301821Y-10515484D01*
X17280412Y-10515484D01*
X17280412Y-8706744D01*
X17294274Y-8706744D01*
X17294274Y-9925304D01*
X17299462Y-9951384D01*
X17314235Y-9973493D01*
X17457491Y-10116749D01*
X17479600Y-10131522D01*
X17505680Y-10136710D01*
X17695068Y-10136710D01*
X17660609Y-10159735D01*
X17635138Y-10197855D01*
X17626194Y-10242820D01*
X17635138Y-10287785D01*
X17660609Y-10325905D01*
X17698729Y-10351376D01*
X17743694Y-10360320D01*
X17748298Y-10360320D01*
X17793263Y-10351376D01*
X17831383Y-10325905D01*
X17856854Y-10287785D01*
X17865798Y-10242820D01*
X17856854Y-10197855D01*
X17831383Y-10159735D01*
X17796924Y-10136710D01*
X17816795Y-10136710D01*
X17971095Y-10291009D01*
X17982291Y-10298491D01*
X18000609Y-10325905D01*
X18038729Y-10351376D01*
X18083694Y-10360320D01*
X18088298Y-10360320D01*
X18133263Y-10351376D01*
X18171383Y-10325905D01*
X18185178Y-10305259D01*
X18539617Y-10305259D01*
X18570381Y-10379713D01*
X18627295Y-10436727D01*
X18701696Y-10467621D01*
X18782255Y-10467691D01*
X18856709Y-10436927D01*
X18913723Y-10380013D01*
X18944617Y-10305613D01*
X18944687Y-10225053D01*
X18913923Y-10150599D01*
X18857009Y-10093585D01*
X18782609Y-10062691D01*
X18702049Y-10062621D01*
X18627595Y-10093385D01*
X18570581Y-10150299D01*
X18539687Y-10224700D01*
X18539617Y-10305259D01*
X18185178Y-10305259D01*
X18196854Y-10287785D01*
X18205798Y-10242820D01*
X18196854Y-10197855D01*
X18171383Y-10159735D01*
X18133263Y-10134264D01*
X18088298Y-10125320D01*
X18083694Y-10125320D01*
X18038729Y-10134264D01*
X18019773Y-10146930D01*
X17923102Y-10050259D01*
X19879617Y-10050259D01*
X19910381Y-10124713D01*
X19967295Y-10181727D01*
X20041696Y-10212621D01*
X20122255Y-10212691D01*
X20196709Y-10181927D01*
X20253723Y-10125013D01*
X20284617Y-10050613D01*
X20284687Y-9970053D01*
X20253923Y-9895599D01*
X20197009Y-9838585D01*
X20122609Y-9807691D01*
X20042049Y-9807621D01*
X19967595Y-9838385D01*
X19910581Y-9895299D01*
X19879687Y-9969700D01*
X19879617Y-10050259D01*
X17923102Y-10050259D01*
X17893213Y-10020371D01*
X17871104Y-10005598D01*
X17845024Y-10000410D01*
X17533909Y-10000410D01*
X17430574Y-9897075D01*
X17430574Y-9862820D01*
X17456194Y-9862820D01*
X17465138Y-9907785D01*
X17490609Y-9945905D01*
X17528729Y-9971376D01*
X17573694Y-9980320D01*
X17578298Y-9980320D01*
X17623263Y-9971376D01*
X17661383Y-9945905D01*
X17686854Y-9907785D01*
X17687700Y-9903529D01*
X17773393Y-9903529D01*
X17786374Y-9934871D01*
X17823813Y-9978991D01*
X17875287Y-10005424D01*
X17898096Y-9995462D01*
X17898096Y-9880720D01*
X17933896Y-9880720D01*
X17933896Y-9995462D01*
X17956705Y-10005424D01*
X18008179Y-9978991D01*
X18045618Y-9934871D01*
X18058599Y-9903529D01*
X18048518Y-9880720D01*
X17933896Y-9880720D01*
X17898096Y-9880720D01*
X17783474Y-9880720D01*
X17773393Y-9903529D01*
X17687700Y-9903529D01*
X17695798Y-9862820D01*
X17687700Y-9822111D01*
X17773393Y-9822111D01*
X17783474Y-9844920D01*
X17898096Y-9844920D01*
X17898096Y-9730178D01*
X17933896Y-9730178D01*
X17933896Y-9844920D01*
X18048518Y-9844920D01*
X18058599Y-9822111D01*
X18045618Y-9790769D01*
X18008179Y-9746650D01*
X17956705Y-9720216D01*
X17933896Y-9730178D01*
X17898096Y-9730178D01*
X17875287Y-9720216D01*
X17823813Y-9746650D01*
X17786374Y-9790769D01*
X17773393Y-9822111D01*
X17687700Y-9822111D01*
X17686854Y-9817855D01*
X17661383Y-9779735D01*
X17623263Y-9754264D01*
X17578298Y-9745320D01*
X17573694Y-9745320D01*
X17528729Y-9754264D01*
X17490609Y-9779735D01*
X17465138Y-9817855D01*
X17456194Y-9862820D01*
X17430574Y-9862820D01*
X17430574Y-9549468D01*
X17442167Y-9561081D01*
X17481663Y-9577481D01*
X17524429Y-9577519D01*
X17563954Y-9561187D01*
X17587032Y-9538150D01*
X17645516Y-9538150D01*
X17671596Y-9532962D01*
X17693705Y-9518189D01*
X17754299Y-9457596D01*
X17754269Y-9491289D01*
X17770601Y-9530814D01*
X17800815Y-9561081D01*
X17840311Y-9577481D01*
X17883077Y-9577519D01*
X17922602Y-9561187D01*
X17946028Y-9537802D01*
X17947776Y-9538150D01*
X17973856Y-9532962D01*
X17995965Y-9518189D01*
X18423565Y-9090589D01*
X18438338Y-9068480D01*
X18440128Y-9059483D01*
X18443526Y-9042400D01*
X18443526Y-8981221D01*
X18471599Y-8953148D01*
X18471565Y-8991289D01*
X18487897Y-9030814D01*
X18510934Y-9053892D01*
X18510934Y-9091387D01*
X18369351Y-9232971D01*
X18354578Y-9255080D01*
X18349390Y-9281160D01*
X18349390Y-9466291D01*
X18327921Y-9487761D01*
X18327955Y-9448711D01*
X18311623Y-9409186D01*
X18281409Y-9378919D01*
X18241913Y-9362519D01*
X18199147Y-9362481D01*
X18159622Y-9378813D01*
X18129355Y-9409027D01*
X18112955Y-9448523D01*
X18112917Y-9491289D01*
X18129249Y-9530814D01*
X18159463Y-9561081D01*
X18198959Y-9577481D01*
X18238166Y-9577516D01*
X18207807Y-9607875D01*
X18193034Y-9629984D01*
X18187846Y-9656064D01*
X18187846Y-9744781D01*
X18165996Y-9744781D01*
X18155805Y-9746699D01*
X18146445Y-9752722D01*
X18140166Y-9761911D01*
X18137957Y-9772820D01*
X18137957Y-9952820D01*
X18139875Y-9963011D01*
X18145898Y-9972371D01*
X18155087Y-9978650D01*
X18165996Y-9980859D01*
X18345996Y-9980859D01*
X18356187Y-9978941D01*
X18365547Y-9972918D01*
X18371826Y-9963729D01*
X18374035Y-9952820D01*
X18374035Y-9830259D01*
X18539617Y-9830259D01*
X18570381Y-9904713D01*
X18627295Y-9961727D01*
X18701696Y-9992621D01*
X18782255Y-9992691D01*
X18856709Y-9961927D01*
X18913723Y-9905013D01*
X18944617Y-9830613D01*
X18944687Y-9750053D01*
X18913923Y-9675599D01*
X18857009Y-9618585D01*
X18782609Y-9587691D01*
X18702049Y-9587621D01*
X18627595Y-9618385D01*
X18570581Y-9675299D01*
X18539687Y-9749700D01*
X18539617Y-9830259D01*
X18374035Y-9830259D01*
X18374035Y-9772820D01*
X18372117Y-9762629D01*
X18366094Y-9753269D01*
X18356905Y-9746990D01*
X18345996Y-9744781D01*
X18324146Y-9744781D01*
X18324146Y-9684293D01*
X18465729Y-9542709D01*
X18480502Y-9520600D01*
X18481534Y-9515415D01*
X18487897Y-9530814D01*
X18518111Y-9561081D01*
X18557607Y-9577481D01*
X18600373Y-9577519D01*
X18639898Y-9561187D01*
X18670165Y-9530973D01*
X18686565Y-9491477D01*
X18686603Y-9448711D01*
X18670271Y-9409186D01*
X18647234Y-9386108D01*
X18647234Y-9380509D01*
X18668334Y-9359409D01*
X18900078Y-9359409D01*
X18925151Y-9407193D01*
X18966602Y-9441745D01*
X18993596Y-9452924D01*
X19014828Y-9442699D01*
X19014828Y-9338176D01*
X19050628Y-9338176D01*
X19050628Y-9442699D01*
X19071861Y-9452924D01*
X19073055Y-9452430D01*
X19569856Y-9452430D01*
X19591125Y-9503904D01*
X19630473Y-9543321D01*
X19681910Y-9564680D01*
X19737606Y-9564728D01*
X19789080Y-9543460D01*
X19828497Y-9504111D01*
X19849856Y-9452674D01*
X19849904Y-9396978D01*
X19828636Y-9345504D01*
X19789287Y-9306087D01*
X19737850Y-9284728D01*
X19682154Y-9284680D01*
X19630680Y-9305949D01*
X19591263Y-9345297D01*
X19569904Y-9396734D01*
X19569856Y-9452430D01*
X19073055Y-9452430D01*
X19098854Y-9441745D01*
X19140305Y-9407193D01*
X19165378Y-9359409D01*
X19155291Y-9338176D01*
X19050628Y-9338176D01*
X19014828Y-9338176D01*
X18910165Y-9338176D01*
X18900078Y-9359409D01*
X18668334Y-9359409D01*
X18746599Y-9281143D01*
X18900078Y-9281143D01*
X18910165Y-9302376D01*
X19014828Y-9302376D01*
X19014828Y-9197853D01*
X19050628Y-9197853D01*
X19050628Y-9302376D01*
X19155291Y-9302376D01*
X19165378Y-9281143D01*
X19140305Y-9233359D01*
X19103200Y-9202430D01*
X19709856Y-9202430D01*
X19731125Y-9253904D01*
X19770473Y-9293321D01*
X19821910Y-9314680D01*
X19877606Y-9314728D01*
X19929080Y-9293460D01*
X19968497Y-9254111D01*
X19989856Y-9202674D01*
X19989904Y-9146978D01*
X19968636Y-9095504D01*
X19932677Y-9059483D01*
X20395416Y-9059483D01*
X20407543Y-9085366D01*
X20471847Y-9107320D01*
X20539658Y-9102995D01*
X20582217Y-9085366D01*
X20594345Y-9059483D01*
X20494880Y-8960018D01*
X20395416Y-9059483D01*
X19932677Y-9059483D01*
X19929287Y-9056087D01*
X19877850Y-9034728D01*
X19822154Y-9034680D01*
X19770680Y-9055949D01*
X19731263Y-9095297D01*
X19709904Y-9146734D01*
X19709856Y-9202430D01*
X19103200Y-9202430D01*
X19098854Y-9198808D01*
X19071861Y-9187628D01*
X19050628Y-9197853D01*
X19014828Y-9197853D01*
X18993596Y-9187628D01*
X18966602Y-9198808D01*
X18925151Y-9233359D01*
X18900078Y-9281143D01*
X18746599Y-9281143D01*
X18893317Y-9134426D01*
X18950052Y-9134426D01*
X18956714Y-9144396D01*
X18991590Y-9167699D01*
X19032728Y-9175882D01*
X19073867Y-9167699D01*
X19108742Y-9144396D01*
X19115404Y-9134426D01*
X19543308Y-9134426D01*
X19569388Y-9129238D01*
X19591497Y-9114465D01*
X19794292Y-8911671D01*
X20322264Y-8911671D01*
X20326589Y-8979482D01*
X20344218Y-9022041D01*
X20370101Y-9034169D01*
X20469566Y-8934704D01*
X20520194Y-8934704D01*
X20619659Y-9034169D01*
X20645542Y-9022041D01*
X20667496Y-8957737D01*
X20663171Y-8889926D01*
X20645542Y-8847367D01*
X20619659Y-8835240D01*
X20520194Y-8934704D01*
X20469566Y-8934704D01*
X20370101Y-8835240D01*
X20344218Y-8847367D01*
X20322264Y-8911671D01*
X19794292Y-8911671D01*
X19896038Y-8809925D01*
X20395416Y-8809925D01*
X20494880Y-8909390D01*
X20594345Y-8809925D01*
X20582217Y-8784042D01*
X20517913Y-8762088D01*
X20450102Y-8766413D01*
X20407543Y-8784042D01*
X20395416Y-8809925D01*
X19896038Y-8809925D01*
X20125868Y-8580095D01*
X20136910Y-8584680D01*
X20192606Y-8584728D01*
X20244080Y-8563460D01*
X20283497Y-8524111D01*
X20304856Y-8472674D01*
X20304904Y-8416978D01*
X20283636Y-8365504D01*
X20244287Y-8326087D01*
X20192850Y-8304728D01*
X20137154Y-8304680D01*
X20085680Y-8325948D01*
X20046263Y-8365297D01*
X20042044Y-8375457D01*
X19711103Y-8044516D01*
X19909812Y-8044516D01*
X19909812Y-8048924D01*
X19918376Y-8091976D01*
X19942763Y-8128473D01*
X19979260Y-8152860D01*
X20022312Y-8161424D01*
X20065364Y-8152860D01*
X20101862Y-8128473D01*
X20126248Y-8091976D01*
X20134812Y-8048924D01*
X20134812Y-8044516D01*
X20126248Y-8001464D01*
X20101862Y-7964966D01*
X20065364Y-7940580D01*
X20022312Y-7932016D01*
X19979260Y-7940580D01*
X19942763Y-7964966D01*
X19918376Y-8001464D01*
X19909812Y-8044516D01*
X19711103Y-8044516D01*
X19517289Y-7850703D01*
X19495180Y-7835930D01*
X19469100Y-7830742D01*
X19443020Y-7835930D01*
X19420911Y-7850703D01*
X19406138Y-7872812D01*
X19400950Y-7898892D01*
X19406138Y-7924972D01*
X19420911Y-7947081D01*
X19966723Y-8492893D01*
X19987966Y-8507088D01*
X19988832Y-8507666D01*
X20002767Y-8510438D01*
X19515079Y-8998126D01*
X19115404Y-8998126D01*
X19108742Y-8988156D01*
X19073867Y-8964853D01*
X19032728Y-8956670D01*
X18991590Y-8964853D01*
X18956714Y-8988156D01*
X18950052Y-8998126D01*
X18865088Y-8998126D01*
X18839008Y-9003314D01*
X18816899Y-9018087D01*
X18530895Y-9304091D01*
X18516122Y-9326200D01*
X18510934Y-9352280D01*
X18510934Y-9386136D01*
X18488003Y-9409027D01*
X18485690Y-9414597D01*
X18485690Y-9309389D01*
X18627273Y-9167805D01*
X18642046Y-9145696D01*
X18647234Y-9119616D01*
X18647234Y-9053864D01*
X18670165Y-9030973D01*
X18686565Y-8991477D01*
X18686600Y-8952106D01*
X18687766Y-8950360D01*
X18688895Y-8944686D01*
X18692954Y-8924280D01*
X18692954Y-8810170D01*
X18925228Y-8810170D01*
X18925228Y-8814382D01*
X18933411Y-8855521D01*
X18956714Y-8890396D01*
X18991590Y-8913699D01*
X19032728Y-8921882D01*
X19073867Y-8913699D01*
X19108742Y-8890396D01*
X19132045Y-8855521D01*
X19140228Y-8814382D01*
X19140228Y-8810170D01*
X19132045Y-8769032D01*
X19108742Y-8734156D01*
X19073867Y-8710853D01*
X19032728Y-8702670D01*
X18991590Y-8710853D01*
X18956714Y-8734156D01*
X18933411Y-8769032D01*
X18925228Y-8810170D01*
X18692954Y-8810170D01*
X18692954Y-8691775D01*
X18693747Y-8691245D01*
X18714882Y-8659614D01*
X18722304Y-8622302D01*
X18722304Y-8618482D01*
X18714882Y-8581170D01*
X18693747Y-8549539D01*
X18662116Y-8528404D01*
X18649155Y-8525826D01*
X18679961Y-8513097D01*
X18707412Y-8485693D01*
X18710492Y-8478276D01*
X18961265Y-8478276D01*
X18961265Y-8638276D01*
X18963183Y-8648467D01*
X18969206Y-8657827D01*
X18978395Y-8664106D01*
X18989304Y-8666315D01*
X19149304Y-8666315D01*
X19159495Y-8664397D01*
X19168855Y-8658374D01*
X19175134Y-8649185D01*
X19177343Y-8638276D01*
X19177343Y-8527430D01*
X19279856Y-8527430D01*
X19301125Y-8578904D01*
X19340473Y-8618321D01*
X19391910Y-8639680D01*
X19447606Y-8639728D01*
X19499080Y-8618460D01*
X19538497Y-8579111D01*
X19559856Y-8527674D01*
X19559904Y-8471978D01*
X19538636Y-8420504D01*
X19499287Y-8381087D01*
X19447850Y-8359728D01*
X19392154Y-8359680D01*
X19340680Y-8380948D01*
X19301263Y-8420297D01*
X19279904Y-8471734D01*
X19279856Y-8527430D01*
X19177343Y-8527430D01*
X19177343Y-8478276D01*
X19175425Y-8468085D01*
X19169402Y-8458725D01*
X19160213Y-8452446D01*
X19149304Y-8450237D01*
X18989304Y-8450237D01*
X18979113Y-8452155D01*
X18969753Y-8458178D01*
X18963474Y-8467367D01*
X18961265Y-8478276D01*
X18710492Y-8478276D01*
X18722287Y-8449871D01*
X18722321Y-8411083D01*
X18710620Y-8382764D01*
X18851792Y-8382764D01*
X18854879Y-8401182D01*
X18892746Y-8410948D01*
X18931468Y-8405480D01*
X18941845Y-8401182D01*
X18944932Y-8382764D01*
X18898362Y-8336194D01*
X18851792Y-8382764D01*
X18710620Y-8382764D01*
X18707509Y-8375235D01*
X18680105Y-8347784D01*
X18644283Y-8332909D01*
X18605495Y-8332875D01*
X18569647Y-8347687D01*
X18550714Y-8366587D01*
X18550714Y-8225825D01*
X18624391Y-8152148D01*
X18614859Y-8175103D01*
X18614821Y-8217869D01*
X18631153Y-8257394D01*
X18661367Y-8287661D01*
X18700863Y-8304061D01*
X18743629Y-8304099D01*
X18783154Y-8287767D01*
X18806232Y-8264730D01*
X18823974Y-8264730D01*
X18808060Y-8267397D01*
X18798294Y-8305264D01*
X18803762Y-8343986D01*
X18808060Y-8354363D01*
X18826478Y-8357450D01*
X18873048Y-8310880D01*
X18871633Y-8309466D01*
X18896948Y-8284151D01*
X18898362Y-8285566D01*
X18899776Y-8284151D01*
X18925091Y-8309466D01*
X18923676Y-8310880D01*
X18970246Y-8357450D01*
X18988664Y-8354363D01*
X18998430Y-8316496D01*
X18992962Y-8277774D01*
X18988664Y-8267397D01*
X18972750Y-8264730D01*
X19087084Y-8264730D01*
X19113164Y-8259542D01*
X19135273Y-8244769D01*
X19371493Y-8008549D01*
X19386266Y-7986440D01*
X19391454Y-7960360D01*
X19391454Y-7795260D01*
X19386266Y-7769180D01*
X19371493Y-7747071D01*
X19301897Y-7677475D01*
X19279788Y-7662702D01*
X19253708Y-7657514D01*
X17996476Y-7657514D01*
X17994832Y-7653535D01*
X17958997Y-7617638D01*
X17912153Y-7598186D01*
X17861430Y-7598142D01*
X17814551Y-7617512D01*
X17778654Y-7653347D01*
X17759202Y-7700191D01*
X17759158Y-7750914D01*
X17778528Y-7797793D01*
X17814363Y-7833690D01*
X17861207Y-7853142D01*
X17911930Y-7853186D01*
X17958809Y-7833816D01*
X17994706Y-7797981D01*
X17996437Y-7793814D01*
X18805292Y-7793814D01*
X18795320Y-7795798D01*
X18792052Y-7797981D01*
X18773211Y-7810571D01*
X18434375Y-8149407D01*
X18419602Y-8171516D01*
X18414414Y-8197596D01*
X18414414Y-8373221D01*
X18389021Y-8347784D01*
X18353199Y-8332909D01*
X18314411Y-8332875D01*
X18278563Y-8347687D01*
X18251112Y-8375091D01*
X18236237Y-8410913D01*
X18236203Y-8449701D01*
X18251015Y-8485549D01*
X18278419Y-8513000D01*
X18309326Y-8525834D01*
X18296408Y-8528404D01*
X18264777Y-8549539D01*
X18243642Y-8581170D01*
X18236220Y-8618482D01*
X18236220Y-8621513D01*
X18020355Y-8837379D01*
X18005582Y-8859488D01*
X18000394Y-8885568D01*
X18000394Y-8967377D01*
X17997135Y-8930440D01*
X17985466Y-8902269D01*
X17962947Y-8894155D01*
X17887102Y-8970000D01*
X17888517Y-8971414D01*
X17863202Y-8996729D01*
X17861788Y-8995314D01*
X17785943Y-9071159D01*
X17794057Y-9093678D01*
X17846542Y-9110183D01*
X17901348Y-9105347D01*
X17922589Y-9096548D01*
X17617287Y-9401850D01*
X17587004Y-9401850D01*
X17564113Y-9378919D01*
X17524617Y-9362519D01*
X17481851Y-9362481D01*
X17442326Y-9378813D01*
X17430574Y-9390544D01*
X17430574Y-9080260D01*
X17435409Y-9093678D01*
X17487894Y-9110183D01*
X17542700Y-9105347D01*
X17570871Y-9093678D01*
X17578985Y-9071159D01*
X17503140Y-8995314D01*
X17501726Y-8996729D01*
X17476411Y-8971414D01*
X17477826Y-8970000D01*
X17528454Y-8970000D01*
X17604299Y-9045845D01*
X17626818Y-9037731D01*
X17643323Y-8985246D01*
X17640632Y-8954754D01*
X17721605Y-8954754D01*
X17726441Y-9009560D01*
X17738110Y-9037731D01*
X17760629Y-9045845D01*
X17836474Y-8970000D01*
X17760629Y-8894155D01*
X17738110Y-8902269D01*
X17721605Y-8954754D01*
X17640632Y-8954754D01*
X17638487Y-8930440D01*
X17626818Y-8902269D01*
X17604299Y-8894155D01*
X17528454Y-8970000D01*
X17477826Y-8970000D01*
X17476411Y-8968586D01*
X17501726Y-8943271D01*
X17503140Y-8944686D01*
X17578985Y-8868841D01*
X17785943Y-8868841D01*
X17861788Y-8944686D01*
X17937633Y-8868841D01*
X17929519Y-8846322D01*
X17877034Y-8829817D01*
X17822228Y-8834653D01*
X17794057Y-8846322D01*
X17785943Y-8868841D01*
X17578985Y-8868841D01*
X17570871Y-8846322D01*
X17518386Y-8829817D01*
X17463580Y-8834653D01*
X17435409Y-8846322D01*
X17430574Y-8859740D01*
X17430574Y-8734973D01*
X17456808Y-8708739D01*
X17477237Y-8708757D01*
X17513085Y-8693945D01*
X17527665Y-8679390D01*
X17671640Y-8679390D01*
X17679561Y-8691245D01*
X17711192Y-8712380D01*
X17748504Y-8719802D01*
X17785816Y-8712380D01*
X17817447Y-8691245D01*
X17838582Y-8659614D01*
X17838914Y-8657946D01*
X17919954Y-8657946D01*
X17943664Y-8702036D01*
X17982441Y-8733696D01*
X18005082Y-8743073D01*
X18024736Y-8732700D01*
X18024736Y-8638292D01*
X18060536Y-8638292D01*
X18060536Y-8732700D01*
X18080190Y-8743073D01*
X18102831Y-8733696D01*
X18141609Y-8702036D01*
X18165319Y-8657946D01*
X18155108Y-8638292D01*
X18060536Y-8638292D01*
X18024736Y-8638292D01*
X17930164Y-8638292D01*
X17919954Y-8657946D01*
X17838914Y-8657946D01*
X17846004Y-8622302D01*
X17846004Y-8618482D01*
X17838914Y-8582838D01*
X17919954Y-8582838D01*
X17930164Y-8602492D01*
X18024736Y-8602492D01*
X18024736Y-8600492D01*
X18060536Y-8600492D01*
X18060536Y-8602492D01*
X18155108Y-8602492D01*
X18165319Y-8582838D01*
X18141609Y-8538748D01*
X18103371Y-8507529D01*
X18125244Y-8485693D01*
X18140119Y-8449871D01*
X18140153Y-8411083D01*
X18125341Y-8375235D01*
X18097937Y-8347784D01*
X18062115Y-8332909D01*
X18023327Y-8332875D01*
X17987479Y-8347687D01*
X17960028Y-8375091D01*
X17945153Y-8410913D01*
X17945119Y-8449701D01*
X17959931Y-8485549D01*
X17981885Y-8507541D01*
X17943664Y-8538748D01*
X17919954Y-8582838D01*
X17838914Y-8582838D01*
X17838582Y-8581170D01*
X17817447Y-8549539D01*
X17785816Y-8528404D01*
X17772855Y-8525826D01*
X17803661Y-8513097D01*
X17831112Y-8485693D01*
X17845987Y-8449871D01*
X17846021Y-8411083D01*
X17831209Y-8375235D01*
X17803805Y-8347784D01*
X17767983Y-8332909D01*
X17729195Y-8332875D01*
X17693347Y-8347687D01*
X17665896Y-8375091D01*
X17651021Y-8410913D01*
X17650987Y-8449701D01*
X17665799Y-8485549D01*
X17693203Y-8513000D01*
X17724110Y-8525834D01*
X17711192Y-8528404D01*
X17689213Y-8543090D01*
X17527662Y-8543090D01*
X17513229Y-8528632D01*
X17482322Y-8515798D01*
X17495240Y-8513228D01*
X17526871Y-8492093D01*
X17548006Y-8460462D01*
X17555428Y-8423150D01*
X17555428Y-8419330D01*
X17548006Y-8382018D01*
X17526871Y-8350387D01*
X17526078Y-8349857D01*
X17526078Y-7865145D01*
X17855473Y-7535750D01*
X19263071Y-7535750D01*
X19328963Y-7601641D01*
X19328943Y-7624465D01*
X19344059Y-7661049D01*
X19372024Y-7689063D01*
X19408581Y-7704243D01*
X19431584Y-7704263D01*
X19582963Y-7855641D01*
X19582943Y-7878465D01*
X19598059Y-7915049D01*
X19626024Y-7943063D01*
X19662581Y-7958243D01*
X19702165Y-7958277D01*
X19738749Y-7943161D01*
X19755028Y-7926910D01*
X20314123Y-7926910D01*
X20344766Y-7957553D01*
X20319364Y-7940580D01*
X20276312Y-7932016D01*
X20233260Y-7940580D01*
X20196763Y-7964966D01*
X20172376Y-8001464D01*
X20163812Y-8044516D01*
X20163812Y-8048924D01*
X20172376Y-8091976D01*
X20196763Y-8128473D01*
X20233260Y-8152860D01*
X20276312Y-8161424D01*
X20319364Y-8152860D01*
X20355862Y-8128473D01*
X20380248Y-8091976D01*
X20388812Y-8048924D01*
X20388812Y-8044516D01*
X20380248Y-8001464D01*
X20363275Y-7976062D01*
X20417273Y-8030060D01*
X20417273Y-8131720D01*
X20419191Y-8141911D01*
X20425214Y-8151271D01*
X20434403Y-8157550D01*
X20445312Y-8159759D01*
X20615312Y-8159759D01*
X20625503Y-8157841D01*
X20634863Y-8151818D01*
X20641142Y-8142629D01*
X20643351Y-8131720D01*
X20643351Y-7961720D01*
X20641433Y-7951529D01*
X20635410Y-7942169D01*
X20626221Y-7935890D01*
X20615312Y-7933681D01*
X20513652Y-7933681D01*
X20390541Y-7810571D01*
X20368432Y-7795798D01*
X20357712Y-7793665D01*
X20357712Y-7779435D01*
X20372287Y-7794010D01*
X20501409Y-7794010D01*
X20522836Y-7785134D01*
X20539236Y-7768734D01*
X20548112Y-7747307D01*
X20548112Y-7618185D01*
X20533537Y-7603610D01*
X20357712Y-7603610D01*
X20357712Y-7605610D01*
X20321912Y-7605610D01*
X20321912Y-7603610D01*
X20146087Y-7603610D01*
X20131512Y-7618185D01*
X20131512Y-7747307D01*
X20140388Y-7768734D01*
X20156788Y-7785134D01*
X20170007Y-7790610D01*
X19755021Y-7790610D01*
X19738896Y-7774457D01*
X19702339Y-7759277D01*
X19679336Y-7759257D01*
X19527957Y-7607879D01*
X19527977Y-7585055D01*
X19512861Y-7548471D01*
X19484896Y-7520457D01*
X19448339Y-7505277D01*
X19425336Y-7505257D01*
X19344192Y-7424113D01*
X20131512Y-7424113D01*
X20131512Y-7553235D01*
X20146087Y-7567810D01*
X20321912Y-7567810D01*
X20321912Y-7391985D01*
X20357712Y-7391985D01*
X20357712Y-7567810D01*
X20533537Y-7567810D01*
X20548112Y-7553235D01*
X20548112Y-7424113D01*
X20539236Y-7402686D01*
X20522836Y-7386286D01*
X20501409Y-7377410D01*
X20372287Y-7377410D01*
X20357712Y-7391985D01*
X20321912Y-7391985D01*
X20307337Y-7377410D01*
X20178215Y-7377410D01*
X20156788Y-7386286D01*
X20140388Y-7402686D01*
X20131512Y-7424113D01*
X19344192Y-7424113D01*
X19339489Y-7419411D01*
X19317380Y-7404638D01*
X19309962Y-7403162D01*
X19994118Y-7403162D01*
X20020198Y-7397974D01*
X20042307Y-7383201D01*
X20218290Y-7207218D01*
X20239135Y-7228099D01*
X20304350Y-7255179D01*
X20374964Y-7255241D01*
X20440226Y-7228275D01*
X20490201Y-7178387D01*
X20517281Y-7113172D01*
X20517343Y-7042558D01*
X20490377Y-6977296D01*
X20440489Y-6927321D01*
X20375274Y-6900241D01*
X20304660Y-6900179D01*
X20239398Y-6927145D01*
X20189423Y-6977033D01*
X20162343Y-7042248D01*
X20162318Y-7070433D01*
X19965889Y-7266862D01*
X19679664Y-7266862D01*
X19710844Y-7264111D01*
X19739015Y-7252442D01*
X19747129Y-7229923D01*
X19671284Y-7154078D01*
X19595439Y-7229923D01*
X19603553Y-7252442D01*
X19649408Y-7266862D01*
X18024257Y-7266862D01*
X18014719Y-7257324D01*
X18014719Y-7150053D01*
X19063765Y-7150053D01*
X19080097Y-7189578D01*
X19110311Y-7219845D01*
X19149807Y-7236245D01*
X19192573Y-7236283D01*
X19232098Y-7219951D01*
X19262365Y-7189737D01*
X19278765Y-7150241D01*
X19278797Y-7113518D01*
X19531101Y-7113518D01*
X19535937Y-7168324D01*
X19547606Y-7196495D01*
X19570125Y-7204609D01*
X19645970Y-7128764D01*
X19696598Y-7128764D01*
X19772443Y-7204609D01*
X19794962Y-7196495D01*
X19811467Y-7144010D01*
X19806631Y-7089204D01*
X19794962Y-7061033D01*
X19772443Y-7052919D01*
X19696598Y-7128764D01*
X19645970Y-7128764D01*
X19570125Y-7052919D01*
X19547606Y-7061033D01*
X19531101Y-7113518D01*
X19278797Y-7113518D01*
X19278803Y-7107475D01*
X19262471Y-7067950D01*
X19232257Y-7037683D01*
X19207986Y-7027605D01*
X19595439Y-7027605D01*
X19671284Y-7103450D01*
X19747129Y-7027605D01*
X19739015Y-7005086D01*
X19686530Y-6988581D01*
X19631724Y-6993417D01*
X19603553Y-7005086D01*
X19595439Y-7027605D01*
X19207986Y-7027605D01*
X19192761Y-7021283D01*
X19149995Y-7021245D01*
X19110470Y-7037577D01*
X19080203Y-7067791D01*
X19063803Y-7107287D01*
X19063765Y-7150053D01*
X18014719Y-7150053D01*
X18014719Y-7125664D01*
X18012801Y-7115473D01*
X18006778Y-7106113D01*
X17997589Y-7099834D01*
X17986680Y-7097625D01*
X17786680Y-7097625D01*
X17776489Y-7099543D01*
X17767129Y-7105566D01*
X17760850Y-7114755D01*
X17758641Y-7125664D01*
X17758641Y-7325664D01*
X17760559Y-7335855D01*
X17766582Y-7345215D01*
X17775771Y-7351494D01*
X17786680Y-7353703D01*
X17918340Y-7353703D01*
X17947839Y-7383201D01*
X17969948Y-7397974D01*
X17977367Y-7399450D01*
X17827244Y-7399450D01*
X17801164Y-7404638D01*
X17779055Y-7419411D01*
X17409739Y-7788727D01*
X17394966Y-7810836D01*
X17389778Y-7836916D01*
X17389778Y-8349857D01*
X17388985Y-8350387D01*
X17367850Y-8382018D01*
X17360428Y-8419330D01*
X17360428Y-8423150D01*
X17367850Y-8460462D01*
X17388985Y-8492093D01*
X17420616Y-8513228D01*
X17433577Y-8515806D01*
X17402771Y-8528535D01*
X17375320Y-8555939D01*
X17360445Y-8591761D01*
X17360427Y-8612362D01*
X17314235Y-8658555D01*
X17299462Y-8680664D01*
X17294274Y-8706744D01*
X17280412Y-8706744D01*
X17280412Y-6924474D01*
X18614840Y-6924474D01*
X18614840Y-6928686D01*
X18623023Y-6969824D01*
X18646326Y-7004700D01*
X18681202Y-7028003D01*
X18722340Y-7036186D01*
X18763479Y-7028003D01*
X18798354Y-7004700D01*
X18821657Y-6969824D01*
X18829840Y-6928686D01*
X18829840Y-6924474D01*
X18821657Y-6883335D01*
X18798354Y-6848460D01*
X18763479Y-6825157D01*
X18722340Y-6816974D01*
X18681202Y-6825157D01*
X18646326Y-6848460D01*
X18623023Y-6883335D01*
X18614840Y-6924474D01*
X17280412Y-6924474D01*
X17280412Y-6562572D01*
X17283492Y-6544404D01*
X17286994Y-6524078D01*
X17290592Y-6503856D01*
X17294334Y-6483774D01*
X17298269Y-6463863D01*
X17302451Y-6444138D01*
X17306928Y-6424617D01*
X17311751Y-6405320D01*
X17311778Y-6405223D01*
X17496767Y-6405223D01*
X17496809Y-6412921D01*
X17496961Y-6413661D01*
X17496858Y-6414410D01*
X17497316Y-6422095D01*
X17497505Y-6422817D01*
X17497443Y-6423561D01*
X17498312Y-6431212D01*
X17498537Y-6431915D01*
X17498515Y-6432653D01*
X17499788Y-6440249D01*
X17500048Y-6440935D01*
X17500064Y-6441668D01*
X17501735Y-6449187D01*
X17502029Y-6449855D01*
X17502083Y-6450582D01*
X17504145Y-6458005D01*
X17504473Y-6458654D01*
X17504565Y-6459377D01*
X17507010Y-6466681D01*
X17507372Y-6467314D01*
X17507502Y-6468032D01*
X17510325Y-6475197D01*
X17510721Y-6475813D01*
X17510889Y-6476526D01*
X17514084Y-6483531D01*
X17514515Y-6484129D01*
X17514722Y-6484837D01*
X17518281Y-6491661D01*
X17518747Y-6492241D01*
X17518994Y-6492944D01*
X17522911Y-6499566D01*
X17523407Y-6500120D01*
X17523691Y-6500808D01*
X17527954Y-6507209D01*
X17528474Y-6507732D01*
X17528791Y-6508398D01*
X17533386Y-6514564D01*
X17533929Y-6515055D01*
X17534278Y-6515698D01*
X17539190Y-6521615D01*
X17539756Y-6522074D01*
X17540136Y-6522696D01*
X17545351Y-6528349D01*
X17545939Y-6528777D01*
X17546350Y-6529377D01*
X17551852Y-6534751D01*
X17552462Y-6535148D01*
X17552904Y-6535726D01*
X17558680Y-6540806D01*
X17559312Y-6541172D01*
X17559785Y-6541728D01*
X17565819Y-6546499D01*
X17566473Y-6546833D01*
X17566979Y-6547367D01*
X17573256Y-6551814D01*
X17573933Y-6552116D01*
X17574470Y-6552626D01*
X17580977Y-6556735D01*
X17581675Y-6557004D01*
X17582244Y-6557489D01*
X17588965Y-6561245D01*
X17589674Y-6561475D01*
X17590265Y-6561927D01*
X17597181Y-6565321D01*
X17597893Y-6565511D01*
X17598501Y-6565927D01*
X17605590Y-6568952D01*
X17606305Y-6569103D01*
X17606929Y-6569483D01*
X17614168Y-6572134D01*
X17614887Y-6572247D01*
X17615527Y-6572592D01*
X17622895Y-6574863D01*
X17623617Y-6574937D01*
X17624274Y-6575249D01*
X17631747Y-6577132D01*
X17632475Y-6577168D01*
X17633148Y-6577446D01*
X17640706Y-6578936D01*
X17641439Y-6578934D01*
X17642130Y-6579178D01*
X17649749Y-6580267D01*
X17650488Y-6580227D01*
X17651197Y-6580436D01*
X17658856Y-6581119D01*
X17659601Y-6581039D01*
X17660329Y-6581211D01*
X17668006Y-6581483D01*
X17668754Y-6581361D01*
X17669501Y-6581495D01*
X17677173Y-6581349D01*
X17677911Y-6581187D01*
X17678662Y-6581280D01*
X17686310Y-6580719D01*
X17687031Y-6580520D01*
X17687776Y-6580572D01*
X17695384Y-6579602D01*
X17696084Y-6579367D01*
X17696823Y-6579380D01*
X17704373Y-6578007D01*
X17705054Y-6577738D01*
X17705786Y-6577712D01*
X17713261Y-6575944D01*
X17713921Y-6575642D01*
X17714644Y-6575579D01*
X17722027Y-6573421D01*
X17722667Y-6573088D01*
X17723381Y-6572987D01*
X17730654Y-6570447D01*
X17731273Y-6570082D01*
X17731978Y-6569946D01*
X17739124Y-6567029D01*
X17739721Y-6566634D01*
X17740417Y-6566462D01*
X17747419Y-6563176D01*
X17747995Y-6562751D01*
X17748680Y-6562544D01*
X17755520Y-6558894D01*
X17756074Y-6558440D01*
X17756748Y-6558197D01*
X17763408Y-6554191D01*
X17763939Y-6553709D01*
X17764601Y-6553431D01*
X17771055Y-6549082D01*
X17771565Y-6548569D01*
X17772216Y-6548255D01*
X17778435Y-6543579D01*
X17778924Y-6543032D01*
X17779568Y-6542680D01*
X17785523Y-6537691D01*
X17785992Y-6537107D01*
X17786629Y-6536712D01*
X17792291Y-6531426D01*
X17792741Y-6530801D01*
X17793372Y-6530359D01*
X17798711Y-6524792D01*
X17799139Y-6524121D01*
X17799765Y-6523628D01*
X17801884Y-6521149D01*
X18221705Y-6521149D01*
X18238037Y-6560674D01*
X18268251Y-6590941D01*
X18307747Y-6607341D01*
X18350513Y-6607379D01*
X18390038Y-6591047D01*
X18420305Y-6560833D01*
X18436705Y-6521337D01*
X18436743Y-6478571D01*
X18420411Y-6439046D01*
X18390197Y-6408779D01*
X18356212Y-6394667D01*
X18790036Y-6394667D01*
X18790036Y-6523789D01*
X18798912Y-6545216D01*
X18815312Y-6561616D01*
X18836739Y-6570492D01*
X18965861Y-6570492D01*
X18980436Y-6555917D01*
X18980436Y-6380092D01*
X19016236Y-6380092D01*
X19016236Y-6555917D01*
X19030811Y-6570492D01*
X19159933Y-6570492D01*
X19181360Y-6561616D01*
X19197760Y-6545216D01*
X19206636Y-6523789D01*
X19206636Y-6397344D01*
X19328805Y-6397344D01*
X19355771Y-6462606D01*
X19405659Y-6512581D01*
X19470874Y-6539661D01*
X19541488Y-6539723D01*
X19606750Y-6512757D01*
X19656725Y-6462869D01*
X19680662Y-6405223D01*
X20156551Y-6405223D01*
X20156592Y-6412921D01*
X20156744Y-6413661D01*
X20156641Y-6414410D01*
X20157100Y-6422095D01*
X20157289Y-6422817D01*
X20157227Y-6423561D01*
X20158096Y-6431212D01*
X20158321Y-6431915D01*
X20158298Y-6432653D01*
X20159572Y-6440249D01*
X20159832Y-6440935D01*
X20159848Y-6441668D01*
X20161519Y-6449187D01*
X20161812Y-6449855D01*
X20161867Y-6450582D01*
X20163928Y-6458005D01*
X20164256Y-6458654D01*
X20164348Y-6459377D01*
X20166794Y-6466681D01*
X20167156Y-6467314D01*
X20167285Y-6468032D01*
X20170109Y-6475197D01*
X20170505Y-6475813D01*
X20170673Y-6476526D01*
X20173867Y-6483531D01*
X20174298Y-6484129D01*
X20174505Y-6484837D01*
X20178064Y-6491661D01*
X20178531Y-6492241D01*
X20178778Y-6492944D01*
X20182694Y-6499566D01*
X20183191Y-6500120D01*
X20183474Y-6500808D01*
X20187737Y-6507209D01*
X20188258Y-6507732D01*
X20188575Y-6508398D01*
X20193169Y-6514564D01*
X20193713Y-6515055D01*
X20194061Y-6515698D01*
X20198973Y-6521615D01*
X20199539Y-6522074D01*
X20199920Y-6522696D01*
X20205134Y-6528349D01*
X20205722Y-6528777D01*
X20206133Y-6529377D01*
X20211635Y-6534751D01*
X20212246Y-6535148D01*
X20212688Y-6535726D01*
X20218463Y-6540806D01*
X20219095Y-6541172D01*
X20219569Y-6541728D01*
X20225603Y-6546499D01*
X20226257Y-6546833D01*
X20226762Y-6547367D01*
X20233040Y-6551814D01*
X20233716Y-6552116D01*
X20234253Y-6552626D01*
X20240761Y-6556735D01*
X20241459Y-6557004D01*
X20242027Y-6557489D01*
X20248749Y-6561245D01*
X20249457Y-6561475D01*
X20250049Y-6561927D01*
X20256965Y-6565321D01*
X20257677Y-6565511D01*
X20258285Y-6565927D01*
X20265373Y-6568952D01*
X20266088Y-6569103D01*
X20266712Y-6569483D01*
X20273951Y-6572134D01*
X20274670Y-6572247D01*
X20275310Y-6572592D01*
X20282678Y-6574863D01*
X20283401Y-6574937D01*
X20284057Y-6575249D01*
X20291531Y-6577132D01*
X20292258Y-6577168D01*
X20292932Y-6577446D01*
X20300489Y-6578936D01*
X20301222Y-6578934D01*
X20301913Y-6579178D01*
X20309533Y-6580267D01*
X20310271Y-6580227D01*
X20310981Y-6580436D01*
X20318639Y-6581119D01*
X20319384Y-6581039D01*
X20320113Y-6581211D01*
X20327789Y-6581483D01*
X20328538Y-6581361D01*
X20329285Y-6581495D01*
X20336956Y-6581349D01*
X20337695Y-6581187D01*
X20338445Y-6581280D01*
X20346094Y-6580719D01*
X20346814Y-6580520D01*
X20347559Y-6580572D01*
X20355167Y-6579602D01*
X20355868Y-6579367D01*
X20356607Y-6579380D01*
X20364157Y-6578007D01*
X20364838Y-6577738D01*
X20365569Y-6577712D01*
X20373044Y-6575944D01*
X20373704Y-6575642D01*
X20374428Y-6575579D01*
X20381810Y-6573421D01*
X20382450Y-6573088D01*
X20383164Y-6572987D01*
X20390437Y-6570447D01*
X20391056Y-6570082D01*
X20391761Y-6569946D01*
X20398907Y-6567029D01*
X20399505Y-6566634D01*
X20400200Y-6566462D01*
X20407202Y-6563176D01*
X20407778Y-6562751D01*
X20408463Y-6562544D01*
X20415303Y-6558894D01*
X20415857Y-6558440D01*
X20416531Y-6558197D01*
X20423192Y-6554191D01*
X20423723Y-6553708D01*
X20424385Y-6553431D01*
X20430839Y-6549082D01*
X20431348Y-6548569D01*
X20431999Y-6548256D01*
X20438219Y-6543579D01*
X20438708Y-6543032D01*
X20439351Y-6542680D01*
X20445306Y-6537691D01*
X20445776Y-6537106D01*
X20446413Y-6536712D01*
X20452074Y-6531426D01*
X20452524Y-6530801D01*
X20453155Y-6530359D01*
X20458494Y-6524792D01*
X20458923Y-6524121D01*
X20459548Y-6523628D01*
X20464535Y-6517795D01*
X20464940Y-6517074D01*
X20465558Y-6516525D01*
X20470164Y-6510441D01*
X20470540Y-6509665D01*
X20471148Y-6509054D01*
X20475344Y-6502735D01*
X20475687Y-6501902D01*
X20476280Y-6501222D01*
X20480037Y-6494684D01*
X20480333Y-6493805D01*
X20480895Y-6493068D01*
X20484193Y-6486325D01*
X20484414Y-6485488D01*
X20484895Y-6484769D01*
X20487767Y-6477840D01*
X20487917Y-6477085D01*
X20488308Y-6476423D01*
X20490800Y-6469326D01*
X20490894Y-6468664D01*
X20491207Y-6468072D01*
X20493367Y-6460825D01*
X20493420Y-6460260D01*
X20493665Y-6459748D01*
X20495542Y-6452369D01*
X20495566Y-6451902D01*
X20495754Y-6451474D01*
X20497395Y-6443981D01*
X20497402Y-6443611D01*
X20497541Y-6443270D01*
X20498994Y-6435681D01*
X20498992Y-6435407D01*
X20499090Y-6435151D01*
X20500403Y-6427485D01*
X20500399Y-6427305D01*
X20500461Y-6427135D01*
X20501682Y-6419409D01*
X20501679Y-6419319D01*
X20501709Y-6419235D01*
X20502886Y-6411468D01*
X20502689Y-6407191D01*
X20502839Y-6402911D01*
X20501578Y-6395157D01*
X20501547Y-6395073D01*
X20501549Y-6394983D01*
X20500244Y-6387271D01*
X20500180Y-6387102D01*
X20500183Y-6386922D01*
X20498786Y-6379270D01*
X20498686Y-6379015D01*
X20498685Y-6378742D01*
X20497149Y-6371169D01*
X20497006Y-6370828D01*
X20496995Y-6370459D01*
X20495272Y-6362985D01*
X20495081Y-6362559D01*
X20495051Y-6362092D01*
X20493094Y-6354734D01*
X20492844Y-6354224D01*
X20492785Y-6353660D01*
X20490546Y-6346437D01*
X20490227Y-6345848D01*
X20490125Y-6345187D01*
X20487556Y-6338117D01*
X20487157Y-6337460D01*
X20486999Y-6336707D01*
X20484053Y-6329810D01*
X20483564Y-6329096D01*
X20483334Y-6328261D01*
X20479963Y-6321555D01*
X20479392Y-6320824D01*
X20479087Y-6319948D01*
X20475259Y-6313451D01*
X20474658Y-6312778D01*
X20474307Y-6311948D01*
X20470042Y-6305675D01*
X20469428Y-6305071D01*
X20469043Y-6304299D01*
X20464371Y-6298266D01*
X20463747Y-6297724D01*
X20463335Y-6297007D01*
X20458285Y-6291228D01*
X20457654Y-6290742D01*
X20457218Y-6290076D01*
X20451819Y-6284567D01*
X20451183Y-6284133D01*
X20450726Y-6283512D01*
X20445008Y-6278288D01*
X20444367Y-6277901D01*
X20443891Y-6277322D01*
X20437882Y-6272398D01*
X20437235Y-6272053D01*
X20436740Y-6271511D01*
X20430470Y-6266902D01*
X20429815Y-6266596D01*
X20429300Y-6266088D01*
X20422799Y-6261809D01*
X20422134Y-6261539D01*
X20421598Y-6261062D01*
X20414894Y-6257129D01*
X20414218Y-6256894D01*
X20413659Y-6256446D01*
X20406779Y-6252871D01*
X20406092Y-6252671D01*
X20405512Y-6252252D01*
X20398475Y-6249042D01*
X20397777Y-6248878D01*
X20397175Y-6248489D01*
X20389998Y-6245650D01*
X20389292Y-6245522D01*
X20388669Y-6245164D01*
X20381369Y-6242703D01*
X20380653Y-6242610D01*
X20380010Y-6242283D01*
X20372605Y-6240206D01*
X20371880Y-6240151D01*
X20371217Y-6239856D01*
X20363723Y-6238169D01*
X20362991Y-6238151D01*
X20362308Y-6237890D01*
X20354743Y-6236599D01*
X20354005Y-6236620D01*
X20353301Y-6236393D01*
X20345683Y-6235505D01*
X20344938Y-6235565D01*
X20344216Y-6235374D01*
X20336562Y-6234896D01*
X20335813Y-6234997D01*
X20335073Y-6234844D01*
X20327400Y-6234781D01*
X20326654Y-6234923D01*
X20325904Y-6234810D01*
X20318231Y-6235165D01*
X20317504Y-6235345D01*
X20316759Y-6235273D01*
X20309108Y-6236040D01*
X20308401Y-6236256D01*
X20307662Y-6236223D01*
X20300055Y-6237396D01*
X20299367Y-6237647D01*
X20298634Y-6237654D01*
X20291093Y-6239225D01*
X20290423Y-6239510D01*
X20289696Y-6239555D01*
X20282243Y-6241519D01*
X20281590Y-6241838D01*
X20280868Y-6241920D01*
X20273525Y-6244270D01*
X20272889Y-6244623D01*
X20272172Y-6244743D01*
X20264962Y-6247473D01*
X20264342Y-6247860D01*
X20263628Y-6248018D01*
X20256573Y-6251121D01*
X20255970Y-6251543D01*
X20255260Y-6251740D01*
X20248381Y-6255210D01*
X20247795Y-6255668D01*
X20247089Y-6255905D01*
X20240409Y-6259735D01*
X20239845Y-6260226D01*
X20239150Y-6260502D01*
X20232688Y-6264682D01*
X20232156Y-6265198D01*
X20231483Y-6265507D01*
X20225254Y-6270023D01*
X20224755Y-6270561D01*
X20224105Y-6270903D01*
X20218123Y-6275739D01*
X20217655Y-6276300D01*
X20217027Y-6276673D01*
X20211307Y-6281816D01*
X20210871Y-6282398D01*
X20210266Y-6282802D01*
X20204822Y-6288235D01*
X20204418Y-6288839D01*
X20203834Y-6289274D01*
X20198682Y-6294983D01*
X20198308Y-6295609D01*
X20197747Y-6296074D01*
X20192900Y-6302044D01*
X20192558Y-6302692D01*
X20192020Y-6303188D01*
X20187493Y-6309404D01*
X20187183Y-6310074D01*
X20186668Y-6310602D01*
X20182475Y-6317049D01*
X20182199Y-6317740D01*
X20181709Y-6318300D01*
X20177864Y-6324963D01*
X20177625Y-6325668D01*
X20177165Y-6326254D01*
X20173681Y-6333116D01*
X20173481Y-6333826D01*
X20173056Y-6334430D01*
X20169939Y-6341469D01*
X20169778Y-6342184D01*
X20169389Y-6342804D01*
X20166644Y-6349999D01*
X20166522Y-6350718D01*
X20166167Y-6351355D01*
X20163801Y-6358685D01*
X20163716Y-6359409D01*
X20163396Y-6360063D01*
X20161415Y-6367507D01*
X20161369Y-6368235D01*
X20161082Y-6368905D01*
X20159493Y-6376443D01*
X20159485Y-6377176D01*
X20159233Y-6377864D01*
X20158042Y-6385473D01*
X20158072Y-6386211D01*
X20157855Y-6386917D01*
X20157069Y-6394577D01*
X20157139Y-6395320D01*
X20156958Y-6396044D01*
X20156583Y-6403733D01*
X20156694Y-6404481D01*
X20156551Y-6405223D01*
X19680662Y-6405223D01*
X19683805Y-6397654D01*
X19683867Y-6327040D01*
X19656901Y-6261778D01*
X19607013Y-6211803D01*
X19541798Y-6184723D01*
X19471184Y-6184661D01*
X19405922Y-6211627D01*
X19355947Y-6261515D01*
X19328867Y-6326730D01*
X19328805Y-6397344D01*
X19206636Y-6397344D01*
X19206636Y-6394667D01*
X19192061Y-6380092D01*
X19016236Y-6380092D01*
X18980436Y-6380092D01*
X18804611Y-6380092D01*
X18790036Y-6394667D01*
X18356212Y-6394667D01*
X18350701Y-6392379D01*
X18307935Y-6392341D01*
X18268410Y-6408673D01*
X18238143Y-6438887D01*
X18221743Y-6478383D01*
X18221705Y-6521149D01*
X17801884Y-6521149D01*
X17804752Y-6517795D01*
X17805156Y-6517074D01*
X17805775Y-6516525D01*
X17810381Y-6510441D01*
X17810757Y-6509665D01*
X17811365Y-6509054D01*
X17815561Y-6502735D01*
X17815903Y-6501902D01*
X17816496Y-6501223D01*
X17820253Y-6494684D01*
X17820549Y-6493805D01*
X17821112Y-6493068D01*
X17824410Y-6486326D01*
X17824631Y-6485489D01*
X17825112Y-6484769D01*
X17827983Y-6477840D01*
X17828133Y-6477085D01*
X17828525Y-6476423D01*
X17831017Y-6469326D01*
X17831111Y-6468664D01*
X17831423Y-6468073D01*
X17833584Y-6460826D01*
X17833637Y-6460260D01*
X17833882Y-6459748D01*
X17835758Y-6452369D01*
X17835783Y-6451902D01*
X17835970Y-6451474D01*
X17837611Y-6443981D01*
X17837619Y-6443611D01*
X17837757Y-6443269D01*
X17839211Y-6435680D01*
X17839209Y-6435407D01*
X17839307Y-6435152D01*
X17840620Y-6427485D01*
X17840615Y-6427304D01*
X17840678Y-6427135D01*
X17841899Y-6419409D01*
X17841895Y-6419319D01*
X17841926Y-6419235D01*
X17843103Y-6411468D01*
X17842906Y-6407191D01*
X17843056Y-6402911D01*
X17841795Y-6395157D01*
X17841763Y-6395073D01*
X17841766Y-6394983D01*
X17840461Y-6387271D01*
X17840397Y-6387102D01*
X17840400Y-6386922D01*
X17839003Y-6379270D01*
X17838902Y-6379015D01*
X17838901Y-6378742D01*
X17837365Y-6371169D01*
X17837223Y-6370828D01*
X17837212Y-6370459D01*
X17835489Y-6362985D01*
X17835297Y-6362559D01*
X17835268Y-6362092D01*
X17833311Y-6354734D01*
X17833060Y-6354224D01*
X17833001Y-6353660D01*
X17830762Y-6346437D01*
X17830443Y-6345848D01*
X17830342Y-6345187D01*
X17827773Y-6338117D01*
X17827374Y-6337460D01*
X17827216Y-6336707D01*
X17824270Y-6329810D01*
X17823781Y-6329096D01*
X17823550Y-6328261D01*
X17820179Y-6321555D01*
X17819609Y-6320824D01*
X17819303Y-6319948D01*
X17815476Y-6313451D01*
X17814875Y-6312778D01*
X17814524Y-6311948D01*
X17810259Y-6305676D01*
X17809645Y-6305071D01*
X17809260Y-6304299D01*
X17804588Y-6298266D01*
X17803964Y-6297723D01*
X17803551Y-6297006D01*
X17798501Y-6291228D01*
X17797870Y-6290742D01*
X17797435Y-6290076D01*
X17792035Y-6284567D01*
X17791399Y-6284133D01*
X17790943Y-6283512D01*
X17789654Y-6282335D01*
X18190924Y-6282335D01*
X18190924Y-6341457D01*
X18199800Y-6362884D01*
X18216200Y-6379284D01*
X18237627Y-6388160D01*
X18296749Y-6388160D01*
X18311324Y-6373585D01*
X18311324Y-6267760D01*
X18347124Y-6267760D01*
X18347124Y-6373585D01*
X18361699Y-6388160D01*
X18420821Y-6388160D01*
X18442248Y-6379284D01*
X18458648Y-6362884D01*
X18467524Y-6341457D01*
X18467524Y-6282335D01*
X18452949Y-6267760D01*
X18347124Y-6267760D01*
X18311324Y-6267760D01*
X18205499Y-6267760D01*
X18190924Y-6282335D01*
X17789654Y-6282335D01*
X17785224Y-6278288D01*
X17784583Y-6277901D01*
X17784107Y-6277322D01*
X17778098Y-6272398D01*
X17777451Y-6272052D01*
X17776956Y-6271511D01*
X17770686Y-6266902D01*
X17770032Y-6266596D01*
X17769517Y-6266088D01*
X17763016Y-6261809D01*
X17762351Y-6261539D01*
X17761814Y-6261062D01*
X17755111Y-6257129D01*
X17754434Y-6256894D01*
X17753876Y-6256446D01*
X17746996Y-6252871D01*
X17746309Y-6252671D01*
X17745728Y-6252252D01*
X17738691Y-6249042D01*
X17737994Y-6248878D01*
X17737392Y-6248489D01*
X17730214Y-6245650D01*
X17729508Y-6245522D01*
X17728886Y-6245164D01*
X17721586Y-6242703D01*
X17720870Y-6242610D01*
X17720227Y-6242283D01*
X17712821Y-6240206D01*
X17712097Y-6240151D01*
X17711433Y-6239856D01*
X17703940Y-6238169D01*
X17703208Y-6238151D01*
X17702524Y-6237890D01*
X17694960Y-6236599D01*
X17694221Y-6236620D01*
X17693518Y-6236393D01*
X17685900Y-6235505D01*
X17685155Y-6235565D01*
X17684433Y-6235374D01*
X17676779Y-6234896D01*
X17676030Y-6234997D01*
X17675289Y-6234844D01*
X17667616Y-6234781D01*
X17666871Y-6234923D01*
X17666121Y-6234810D01*
X17658448Y-6235165D01*
X17657721Y-6235345D01*
X17656976Y-6235273D01*
X17649325Y-6236040D01*
X17648618Y-6236256D01*
X17647879Y-6236223D01*
X17640272Y-6237396D01*
X17639583Y-6237647D01*
X17638850Y-6237654D01*
X17631310Y-6239225D01*
X17630639Y-6239510D01*
X17629912Y-6239555D01*
X17622460Y-6241519D01*
X17621807Y-6241838D01*
X17621084Y-6241920D01*
X17613742Y-6244270D01*
X17613106Y-6244623D01*
X17612388Y-6244743D01*
X17605179Y-6247473D01*
X17604559Y-6247860D01*
X17603845Y-6248018D01*
X17596790Y-6251121D01*
X17596186Y-6251543D01*
X17595477Y-6251740D01*
X17588598Y-6255210D01*
X17588011Y-6255668D01*
X17587305Y-6255905D01*
X17580625Y-6259735D01*
X17580062Y-6260226D01*
X17579367Y-6260502D01*
X17572905Y-6264682D01*
X17572373Y-6265198D01*
X17571700Y-6265507D01*
X17565471Y-6270023D01*
X17564972Y-6270561D01*
X17564321Y-6270903D01*
X17558340Y-6275739D01*
X17557872Y-6276300D01*
X17557244Y-6276673D01*
X17551524Y-6281816D01*
X17551088Y-6282398D01*
X17550483Y-6282802D01*
X17545039Y-6288235D01*
X17544634Y-6288839D01*
X17544051Y-6289274D01*
X17538898Y-6294983D01*
X17538525Y-6295609D01*
X17537964Y-6296074D01*
X17533117Y-6302044D01*
X17532775Y-6302692D01*
X17532237Y-6303188D01*
X17527709Y-6309404D01*
X17527400Y-6310074D01*
X17526885Y-6310602D01*
X17522692Y-6317049D01*
X17522416Y-6317740D01*
X17521925Y-6318300D01*
X17518081Y-6324963D01*
X17517842Y-6325668D01*
X17517381Y-6326254D01*
X17513897Y-6333116D01*
X17513698Y-6333826D01*
X17513273Y-6334430D01*
X17510155Y-6341469D01*
X17509995Y-6342184D01*
X17509606Y-6342804D01*
X17506860Y-6349999D01*
X17506738Y-6350718D01*
X17506383Y-6351355D01*
X17504017Y-6358685D01*
X17503933Y-6359409D01*
X17503612Y-6360063D01*
X17501632Y-6367507D01*
X17501585Y-6368235D01*
X17501299Y-6368905D01*
X17499710Y-6376443D01*
X17499701Y-6377176D01*
X17499449Y-6377864D01*
X17498259Y-6385473D01*
X17498289Y-6386211D01*
X17498072Y-6386917D01*
X17497286Y-6394577D01*
X17497356Y-6395320D01*
X17497175Y-6396044D01*
X17496799Y-6403733D01*
X17496911Y-6404481D01*
X17496767Y-6405223D01*
X17311778Y-6405223D01*
X17316966Y-6386274D01*
X17322621Y-6367498D01*
X17328766Y-6349004D01*
X17335446Y-6330810D01*
X17342708Y-6312938D01*
X17350600Y-6295397D01*
X17359172Y-6278200D01*
X17368477Y-6261343D01*
X17378560Y-6244804D01*
X17389407Y-6228584D01*
X17400988Y-6212711D01*
X17413265Y-6197224D01*
X17426208Y-6182148D01*
X17439776Y-6167520D01*
X17449039Y-6158263D01*
X18190924Y-6158263D01*
X18190924Y-6217385D01*
X18205499Y-6231960D01*
X18311324Y-6231960D01*
X18311324Y-6126135D01*
X18347124Y-6126135D01*
X18347124Y-6231960D01*
X18452949Y-6231960D01*
X18467524Y-6217385D01*
X18467524Y-6200595D01*
X18790036Y-6200595D01*
X18790036Y-6329717D01*
X18804611Y-6344292D01*
X18980436Y-6344292D01*
X18980436Y-6168467D01*
X19016236Y-6168467D01*
X19016236Y-6344292D01*
X19192061Y-6344292D01*
X19206636Y-6329717D01*
X19206636Y-6200595D01*
X19197760Y-6179168D01*
X19181360Y-6162768D01*
X19159933Y-6153892D01*
X19030811Y-6153892D01*
X19016236Y-6168467D01*
X18980436Y-6168467D01*
X18965861Y-6153892D01*
X18836739Y-6153892D01*
X18815312Y-6162768D01*
X18798912Y-6179168D01*
X18790036Y-6200595D01*
X18467524Y-6200595D01*
X18467524Y-6158263D01*
X18458648Y-6136836D01*
X18442248Y-6120436D01*
X18420821Y-6111560D01*
X18361699Y-6111560D01*
X18347124Y-6126135D01*
X18311324Y-6126135D01*
X18296749Y-6111560D01*
X18237627Y-6111560D01*
X18216200Y-6120436D01*
X18199800Y-6136836D01*
X18190924Y-6158263D01*
X17449039Y-6158263D01*
X17453940Y-6153366D01*
X17468658Y-6139721D01*
X17483893Y-6126616D01*
X17499612Y-6114080D01*
X17515777Y-6102142D01*
X17532350Y-6090831D01*
X17549288Y-6080181D01*
X17566558Y-6070215D01*
X17584126Y-6060962D01*
X17601974Y-6052435D01*
X17620119Y-6044600D01*
X17638568Y-6037402D01*
X17657319Y-6030798D01*
X17676361Y-6024741D01*
X17695685Y-6019186D01*
X17715287Y-6014088D01*
X17735146Y-6009402D01*
X17755261Y-6005081D01*
X17775606Y-6001081D01*
X17796184Y-5997352D01*
X17816964Y-5993850D01*
X17837948Y-5990523D01*
X17859101Y-5987327D01*
X17880460Y-5984205D01*
X17899991Y-5981399D01*
X20100009Y-5981399D01*
X20119540Y-5984205D01*
G36*
X18414414Y-8817575D02*
X18333533Y-8898456D01*
X18321595Y-8894155D01*
X18245750Y-8970000D01*
X18247165Y-8971414D01*
X18221850Y-8996729D01*
X18220436Y-8995314D01*
X18219022Y-8996729D01*
X18193707Y-8971414D01*
X18195122Y-8970000D01*
X18193707Y-8968586D01*
X18219022Y-8943271D01*
X18220436Y-8944686D01*
X18296281Y-8868841D01*
X18288167Y-8846322D01*
X18235682Y-8829817D01*
X18219221Y-8831270D01*
X18331192Y-8719299D01*
X18333720Y-8719802D01*
X18371032Y-8712380D01*
X18402663Y-8691245D01*
X18414414Y-8673658D01*
X18414414Y-8817575D01*
X18414414Y-8817575D01*
G37*
X18414414Y-8817575D02*
X18333533Y-8898456D01*
X18321595Y-8894155D01*
X18245750Y-8970000D01*
X18247165Y-8971414D01*
X18221850Y-8996729D01*
X18220436Y-8995314D01*
X18219022Y-8996729D01*
X18193707Y-8971414D01*
X18195122Y-8970000D01*
X18193707Y-8968586D01*
X18219022Y-8943271D01*
X18220436Y-8944686D01*
X18296281Y-8868841D01*
X18288167Y-8846322D01*
X18235682Y-8829817D01*
X18219221Y-8831270D01*
X18331192Y-8719299D01*
X18333720Y-8719802D01*
X18371032Y-8712380D01*
X18402663Y-8691245D01*
X18414414Y-8673658D01*
X18414414Y-8817575D01*
G36*
X19003914Y-7938065D02*
X19015454Y-7949604D01*
X18997036Y-7952691D01*
X18987270Y-7990558D01*
X18992738Y-8029280D01*
X18997036Y-8039657D01*
X19015454Y-8042744D01*
X19062024Y-7996174D01*
X19060609Y-7994760D01*
X19085924Y-7969445D01*
X19087338Y-7970860D01*
X19088752Y-7969445D01*
X19114067Y-7994760D01*
X19112652Y-7996174D01*
X19114067Y-7997588D01*
X19088752Y-8022903D01*
X19087338Y-8021488D01*
X19040768Y-8068058D01*
X19043855Y-8086476D01*
X19081722Y-8096242D01*
X19092576Y-8094710D01*
X19058855Y-8128430D01*
X18806204Y-8128430D01*
X18783313Y-8105499D01*
X18743817Y-8089099D01*
X18701051Y-8089061D01*
X18677920Y-8098619D01*
X18849629Y-7926910D01*
X19015069Y-7926910D01*
X19003914Y-7938065D01*
X19003914Y-7938065D01*
G37*
X19003914Y-7938065D02*
X19015454Y-7949604D01*
X18997036Y-7952691D01*
X18987270Y-7990558D01*
X18992738Y-8029280D01*
X18997036Y-8039657D01*
X19015454Y-8042744D01*
X19062024Y-7996174D01*
X19060609Y-7994760D01*
X19085924Y-7969445D01*
X19087338Y-7970860D01*
X19088752Y-7969445D01*
X19114067Y-7994760D01*
X19112652Y-7996174D01*
X19114067Y-7997588D01*
X19088752Y-8022903D01*
X19087338Y-8021488D01*
X19040768Y-8068058D01*
X19043855Y-8086476D01*
X19081722Y-8096242D01*
X19092576Y-8094710D01*
X19058855Y-8128430D01*
X18806204Y-8128430D01*
X18783313Y-8105499D01*
X18743817Y-8089099D01*
X18701051Y-8089061D01*
X18677920Y-8098619D01*
X18849629Y-7926910D01*
X19015069Y-7926910D01*
X19003914Y-7938065D01*
M02*
