G04 #@! TF.FileFunction,Legend,Bot*
%FSLAX45Y45*%
G04 Gerber Fmt 4.5, Leading zero omitted, Abs format (unit mm)*
G04 Created by KiCad (PCBNEW 4.0.7-e2-6376~58~ubuntu16.04.1) date Wed Oct 11 09:48:03 2017*
%MOMM*%
%LPD*%
G01*
G04 APERTURE LIST*
%ADD10C,0.020000*%
%ADD11C,0.150000*%
%ADD12C,0.100000*%
G04 APERTURE END LIST*
D10*
D11*
X20539812Y-7085710D02*
X20514812Y-7085710D01*
X20539812Y-7085710D02*
X20614812Y-7085710D01*
X20564812Y-7110710D02*
X20564812Y-7135710D01*
X20564812Y-7110710D02*
X20564812Y-7035710D01*
X20564812Y-7635710D02*
X20564812Y-7535710D01*
D12*
X20130288Y-7034519D02*
X20135050Y-7048805D01*
X20135050Y-7072615D01*
X20130288Y-7082139D01*
X20125526Y-7086900D01*
X20116003Y-7091662D01*
X20106479Y-7091662D01*
X20096955Y-7086900D01*
X20092193Y-7082139D01*
X20087431Y-7072615D01*
X20082669Y-7053567D01*
X20077907Y-7044043D01*
X20073145Y-7039281D01*
X20063622Y-7034519D01*
X20054098Y-7034519D01*
X20044574Y-7039281D01*
X20039812Y-7044043D01*
X20035050Y-7053567D01*
X20035050Y-7077377D01*
X20039812Y-7091662D01*
X20068383Y-7134519D02*
X20168383Y-7134519D01*
X20073145Y-7134519D02*
X20068383Y-7144043D01*
X20068383Y-7163091D01*
X20073145Y-7172615D01*
X20077907Y-7177377D01*
X20087431Y-7182139D01*
X20116003Y-7182139D01*
X20125526Y-7177377D01*
X20130288Y-7172615D01*
X20135050Y-7163091D01*
X20135050Y-7144043D01*
X20130288Y-7134519D01*
X20130288Y-7263091D02*
X20135050Y-7253567D01*
X20135050Y-7234519D01*
X20130288Y-7224996D01*
X20120764Y-7220234D01*
X20082669Y-7220234D01*
X20073145Y-7224996D01*
X20068383Y-7234519D01*
X20068383Y-7253567D01*
X20073145Y-7263091D01*
X20082669Y-7267853D01*
X20092193Y-7267853D01*
X20101717Y-7220234D01*
X20135050Y-7353567D02*
X20082669Y-7353567D01*
X20073145Y-7348805D01*
X20068383Y-7339281D01*
X20068383Y-7320234D01*
X20073145Y-7310710D01*
X20130288Y-7353567D02*
X20135050Y-7344043D01*
X20135050Y-7320234D01*
X20130288Y-7310710D01*
X20120764Y-7305948D01*
X20111241Y-7305948D01*
X20101717Y-7310710D01*
X20096955Y-7320234D01*
X20096955Y-7344043D01*
X20092193Y-7353567D01*
X20135050Y-7401186D02*
X20035050Y-7401186D01*
X20096955Y-7410710D02*
X20135050Y-7439281D01*
X20068383Y-7439281D02*
X20106479Y-7401186D01*
X20130288Y-7520234D02*
X20135050Y-7510710D01*
X20135050Y-7491662D01*
X20130288Y-7482139D01*
X20120764Y-7477377D01*
X20082669Y-7477377D01*
X20073145Y-7482139D01*
X20068383Y-7491662D01*
X20068383Y-7510710D01*
X20073145Y-7520234D01*
X20082669Y-7524996D01*
X20092193Y-7524996D01*
X20101717Y-7477377D01*
X20135050Y-7567853D02*
X20068383Y-7567853D01*
X20087431Y-7567853D02*
X20077907Y-7572615D01*
X20073145Y-7577377D01*
X20068383Y-7586900D01*
X20068383Y-7596424D01*
D11*
X19563479Y-12839746D02*
X19449193Y-12839746D01*
X19055479Y-12834666D02*
X18941193Y-12834666D01*
X18998336Y-12891809D02*
X18998336Y-12777523D01*
X19304081Y-12414530D02*
X19285033Y-12414530D01*
X19275509Y-12409768D01*
X19270747Y-12405006D01*
X19261224Y-12390721D01*
X19256462Y-12371673D01*
X19256462Y-12333578D01*
X19261224Y-12324054D01*
X19265986Y-12319292D01*
X19275509Y-12314530D01*
X19294557Y-12314530D01*
X19304081Y-12319292D01*
X19308843Y-12324054D01*
X19313605Y-12333578D01*
X19313605Y-12357387D01*
X19308843Y-12366911D01*
X19304081Y-12371673D01*
X19294557Y-12376435D01*
X19275509Y-12376435D01*
X19265986Y-12371673D01*
X19261224Y-12366911D01*
X19256462Y-12357387D01*
X19227890Y-12314530D02*
X19194557Y-12414530D01*
X19161224Y-12314530D01*
X19058019Y-6144306D02*
X18943733Y-6144306D01*
X19563479Y-6144306D02*
X19449193Y-6144306D01*
X19506336Y-6201449D02*
X19506336Y-6087163D01*
X19549955Y-6589679D02*
X19502336Y-6589679D01*
X19559479Y-6618250D02*
X19526146Y-6518250D01*
X19492812Y-6618250D01*
X19416622Y-6551583D02*
X19416622Y-6618250D01*
X19459479Y-6551583D02*
X19459479Y-6603964D01*
X19454717Y-6613488D01*
X19445193Y-6618250D01*
X19430907Y-6618250D01*
X19421384Y-6613488D01*
X19416622Y-6608726D01*
X19326145Y-6618250D02*
X19326145Y-6518250D01*
X19326145Y-6613488D02*
X19335669Y-6618250D01*
X19354717Y-6618250D01*
X19364241Y-6613488D01*
X19369003Y-6608726D01*
X19373765Y-6599202D01*
X19373765Y-6570631D01*
X19369003Y-6561107D01*
X19364241Y-6556345D01*
X19354717Y-6551583D01*
X19335669Y-6551583D01*
X19326145Y-6556345D01*
X19278526Y-6618250D02*
X19278526Y-6551583D01*
X19278526Y-6518250D02*
X19283288Y-6523012D01*
X19278526Y-6527774D01*
X19273765Y-6523012D01*
X19278526Y-6518250D01*
X19278526Y-6527774D01*
X19216622Y-6618250D02*
X19226146Y-6613488D01*
X19230907Y-6608726D01*
X19235669Y-6599202D01*
X19235669Y-6570631D01*
X19230907Y-6561107D01*
X19226146Y-6556345D01*
X19216622Y-6551583D01*
X19202336Y-6551583D01*
X19192812Y-6556345D01*
X19188050Y-6561107D01*
X19183288Y-6570631D01*
X19183288Y-6599202D01*
X19188050Y-6608726D01*
X19192812Y-6613488D01*
X19202336Y-6618250D01*
X19216622Y-6618250D01*
X19164241Y-6627774D02*
X19088050Y-6627774D01*
X19064241Y-6618250D02*
X19064241Y-6518250D01*
X19016622Y-6618250D02*
X19016622Y-6518250D01*
X18959479Y-6618250D01*
X18959479Y-6518250D01*
M02*
