G04 #@! TF.FileFunction,Profile,NP*
%FSLAX45Y45*%
G04 Gerber Fmt 4.5, Leading zero omitted, Abs format (unit mm)*
G04 Created by KiCad (PCBNEW 4.0.7-e2-6376~58~ubuntu16.04.1) date Wed Oct 11 14:35:36 2017*
%MOMM*%
%LPD*%
G01*
G04 APERTURE LIST*
%ADD10C,0.020000*%
%ADD11C,0.100000*%
G04 APERTURE END LIST*
D10*
D11*
X17814652Y-12553765D02*
X17815913Y-12561519D01*
X17813346Y-12546052D02*
X17814652Y-12553765D01*
X17811950Y-12538401D02*
X17813346Y-12546052D01*
X17810414Y-12530828D02*
X17811950Y-12538401D01*
X17808691Y-12523354D02*
X17810414Y-12530828D01*
X17806734Y-12515995D02*
X17808691Y-12523354D01*
X17804495Y-12508772D02*
X17806734Y-12515995D01*
X17801926Y-12501703D02*
X17804495Y-12508772D01*
X17798980Y-12494806D02*
X17801926Y-12501703D01*
X17795609Y-12488100D02*
X17798980Y-12494806D01*
X17791781Y-12481602D02*
X17795609Y-12488100D01*
X17787517Y-12475330D02*
X17791781Y-12481602D01*
X17782845Y-12469296D02*
X17787517Y-12475330D01*
X17777795Y-12463518D02*
X17782845Y-12469296D01*
X17772396Y-12458009D02*
X17777795Y-12463518D01*
X17766677Y-12452785D02*
X17772396Y-12458009D01*
X17760668Y-12447861D02*
X17766677Y-12452785D01*
X17754398Y-12443252D02*
X17760668Y-12447861D01*
X17747897Y-12438974D02*
X17754398Y-12443252D01*
X17741194Y-12435040D02*
X17747897Y-12438974D01*
X17734314Y-12431465D02*
X17741194Y-12435040D01*
X17727277Y-12428255D02*
X17734314Y-12431465D01*
X17720100Y-12425416D02*
X17727277Y-12428255D01*
X17712800Y-12422955D02*
X17720100Y-12425416D01*
X17705395Y-12420878D02*
X17712800Y-12422955D01*
X17697901Y-12419191D02*
X17705395Y-12420878D01*
X17690337Y-12417901D02*
X17697901Y-12419191D01*
X17682719Y-12417014D02*
X17690337Y-12417901D01*
X17675065Y-12416536D02*
X17682719Y-12417014D01*
X17667392Y-12416473D02*
X17675065Y-12416536D01*
X17659719Y-12416828D02*
X17667392Y-12416473D01*
X17652068Y-12417596D02*
X17659719Y-12416828D01*
X17644461Y-12418768D02*
X17652068Y-12417596D01*
X17636921Y-12420340D02*
X17644461Y-12418768D01*
X17629468Y-12422304D02*
X17636921Y-12420340D01*
X17622126Y-12424654D02*
X17629468Y-12422304D01*
X17614916Y-12427384D02*
X17622126Y-12424654D01*
X17607860Y-12430487D02*
X17614916Y-12427384D01*
X17600982Y-12433957D02*
X17607860Y-12430487D01*
X17594302Y-12437786D02*
X17600982Y-12433957D01*
X17587840Y-12441966D02*
X17594302Y-12437786D01*
X17581611Y-12446481D02*
X17587840Y-12441966D01*
X17575629Y-12451317D02*
X17581611Y-12446481D01*
X17569909Y-12456460D02*
X17575629Y-12451317D01*
X17564465Y-12461893D02*
X17569909Y-12456460D01*
X17559313Y-12467602D02*
X17564465Y-12461893D01*
X17554466Y-12473572D02*
X17559313Y-12467602D01*
X17549938Y-12479788D02*
X17554466Y-12473572D01*
X17545745Y-12486235D02*
X17549938Y-12479788D01*
X17541901Y-12492899D02*
X17545745Y-12486235D01*
X17538417Y-12499760D02*
X17541901Y-12492899D01*
X17535299Y-12506800D02*
X17538417Y-12499760D01*
X17532554Y-12513995D02*
X17535299Y-12506800D01*
X17530188Y-12521326D02*
X17532554Y-12513995D01*
X17528207Y-12528771D02*
X17530188Y-12521326D01*
X17526618Y-12536308D02*
X17528207Y-12528771D01*
X17525428Y-12543918D02*
X17526618Y-12536308D01*
X17524642Y-12551578D02*
X17525428Y-12543918D01*
X17524267Y-12559267D02*
X17524642Y-12551578D01*
X17524309Y-12566965D02*
X17524267Y-12559267D01*
X17524767Y-12574650D02*
X17524309Y-12566965D01*
X17525637Y-12582301D02*
X17524767Y-12574650D01*
X17526910Y-12589897D02*
X17525637Y-12582301D01*
X17528581Y-12597417D02*
X17526910Y-12589897D01*
X17530642Y-12604840D02*
X17528581Y-12597417D01*
X17533088Y-12612144D02*
X17530642Y-12604840D01*
X17535911Y-12619309D02*
X17533088Y-12612144D01*
X17539105Y-12626314D02*
X17535911Y-12619309D01*
X17542664Y-12633138D02*
X17539105Y-12626314D01*
X17546580Y-12639759D02*
X17542664Y-12633138D01*
X17550843Y-12646160D02*
X17546580Y-12639759D01*
X17555438Y-12652327D02*
X17550843Y-12646160D01*
X17560349Y-12658244D02*
X17555438Y-12652327D01*
X17565564Y-12663896D02*
X17560349Y-12658244D01*
X17571066Y-12669270D02*
X17565564Y-12663896D01*
X17576842Y-12674349D02*
X17571066Y-12669270D01*
X17582876Y-12679120D02*
X17576842Y-12674349D01*
X17589154Y-12683568D02*
X17582876Y-12679120D01*
X17595661Y-12687677D02*
X17589154Y-12683568D01*
X17602382Y-12691434D02*
X17595661Y-12687677D01*
X17609298Y-12694828D02*
X17602382Y-12691434D01*
X17616386Y-12697854D02*
X17609298Y-12694828D01*
X17623626Y-12700505D02*
X17616386Y-12697854D01*
X17630993Y-12702775D02*
X17623626Y-12700505D01*
X17638467Y-12704659D02*
X17630993Y-12702775D01*
X17646024Y-12706148D02*
X17638467Y-12704659D01*
X17653643Y-12707238D02*
X17646024Y-12706148D01*
X17661302Y-12707922D02*
X17653643Y-12707238D01*
X17668978Y-12708193D02*
X17661302Y-12707922D01*
X17676650Y-12708047D02*
X17668978Y-12708193D01*
X17684298Y-12707486D02*
X17676650Y-12708047D01*
X17691906Y-12706516D02*
X17684298Y-12707486D01*
X17699456Y-12705144D02*
X17691906Y-12706516D01*
X17706931Y-12703376D02*
X17699456Y-12705144D01*
X17714313Y-12701219D02*
X17706931Y-12703376D01*
X17721586Y-12698678D02*
X17714313Y-12701219D01*
X17728732Y-12695762D02*
X17721586Y-12698678D01*
X17735734Y-12692475D02*
X17728732Y-12695762D01*
X17742574Y-12688825D02*
X17735734Y-12692475D01*
X17749234Y-12684819D02*
X17742574Y-12688825D01*
X17755688Y-12680470D02*
X17749234Y-12684819D01*
X17761908Y-12675793D02*
X17755688Y-12680470D01*
X17767863Y-12670804D02*
X17761908Y-12675793D01*
X17773524Y-12665518D02*
X17767863Y-12670804D01*
X17778863Y-12659951D02*
X17773524Y-12665518D01*
X17783850Y-12654118D02*
X17778863Y-12659951D01*
X17788456Y-12648034D02*
X17783850Y-12654118D01*
X17792652Y-12641716D02*
X17788456Y-12648034D01*
X17796409Y-12635177D02*
X17792652Y-12641716D01*
X17799707Y-12628435D02*
X17796409Y-12635177D01*
X17802578Y-12621506D02*
X17799707Y-12628435D01*
X17805070Y-12614409D02*
X17802578Y-12621506D01*
X17807230Y-12607162D02*
X17805070Y-12614409D01*
X17809107Y-12599783D02*
X17807230Y-12607162D01*
X17810748Y-12592290D02*
X17809107Y-12599783D01*
X17812202Y-12584701D02*
X17810748Y-12592290D01*
X17813515Y-12577035D02*
X17812202Y-12584701D01*
X17814736Y-12569309D02*
X17813515Y-12577035D01*
X17815913Y-12561541D02*
X17814736Y-12569309D01*
X20474435Y-6399572D02*
X20475696Y-6407326D01*
X20473130Y-6391859D02*
X20474435Y-6399572D01*
X20471733Y-6384208D02*
X20473130Y-6391859D01*
X20470197Y-6376635D02*
X20471733Y-6384208D01*
X20468475Y-6369160D02*
X20470197Y-6376635D01*
X20466518Y-6361802D02*
X20468475Y-6369160D01*
X20464279Y-6354579D02*
X20466518Y-6361802D01*
X20461710Y-6347510D02*
X20464279Y-6354579D01*
X20458764Y-6340613D02*
X20461710Y-6347510D01*
X20455392Y-6333906D02*
X20458764Y-6340613D01*
X20451565Y-6327409D02*
X20455392Y-6333906D01*
X20447300Y-6321137D02*
X20451565Y-6327409D01*
X20442628Y-6315103D02*
X20447300Y-6321137D01*
X20437578Y-6309325D02*
X20442628Y-6315103D01*
X20432179Y-6303816D02*
X20437578Y-6309325D01*
X20426460Y-6298592D02*
X20432179Y-6303816D01*
X20420452Y-6293668D02*
X20426460Y-6298592D01*
X20414182Y-6289059D02*
X20420452Y-6293668D01*
X20407681Y-6284781D02*
X20414182Y-6289059D01*
X20400977Y-6280847D02*
X20407681Y-6284781D01*
X20394098Y-6277272D02*
X20400977Y-6280847D01*
X20387061Y-6274062D02*
X20394098Y-6277272D01*
X20379884Y-6271223D02*
X20387061Y-6274062D01*
X20372584Y-6268762D02*
X20379884Y-6271223D01*
X20365178Y-6266685D02*
X20372584Y-6268762D01*
X20357684Y-6264998D02*
X20365178Y-6266685D01*
X20350120Y-6263708D02*
X20357684Y-6264998D01*
X20342502Y-6262821D02*
X20350120Y-6263708D01*
X20334848Y-6262343D02*
X20342502Y-6262821D01*
X20327175Y-6262280D02*
X20334848Y-6262343D01*
X20319503Y-6262635D02*
X20327175Y-6262280D01*
X20311852Y-6263402D02*
X20319503Y-6262635D01*
X20304245Y-6264575D02*
X20311852Y-6263402D01*
X20296704Y-6266147D02*
X20304245Y-6264575D01*
X20289252Y-6268111D02*
X20296704Y-6266147D01*
X20281909Y-6270461D02*
X20289252Y-6268111D01*
X20274699Y-6273191D02*
X20281909Y-6270461D01*
X20267644Y-6276294D02*
X20274699Y-6273191D01*
X20260765Y-6279763D02*
X20267644Y-6276294D01*
X20254085Y-6283593D02*
X20260765Y-6279763D01*
X20247623Y-6287772D02*
X20254085Y-6283593D01*
X20241394Y-6292288D02*
X20247623Y-6287772D01*
X20235412Y-6297124D02*
X20241394Y-6292288D01*
X20229693Y-6302266D02*
X20235412Y-6297124D01*
X20224249Y-6307699D02*
X20229693Y-6302266D01*
X20219096Y-6313408D02*
X20224249Y-6307699D01*
X20214249Y-6319378D02*
X20219096Y-6313408D01*
X20209722Y-6325594D02*
X20214249Y-6319378D01*
X20205529Y-6332042D02*
X20209722Y-6325594D01*
X20201685Y-6338705D02*
X20205529Y-6332042D01*
X20198200Y-6345567D02*
X20201685Y-6338705D01*
X20195083Y-6352606D02*
X20198200Y-6345567D01*
X20192337Y-6359802D02*
X20195083Y-6352606D01*
X20189971Y-6367132D02*
X20192337Y-6359802D01*
X20187991Y-6374577D02*
X20189971Y-6367132D01*
X20186402Y-6382115D02*
X20187991Y-6374577D01*
X20185211Y-6389724D02*
X20186402Y-6382115D01*
X20184425Y-6397384D02*
X20185211Y-6389724D01*
X20184050Y-6405074D02*
X20184425Y-6397384D01*
X20184092Y-6412771D02*
X20184050Y-6405074D01*
X20184551Y-6420456D02*
X20184092Y-6412771D01*
X20185420Y-6428107D02*
X20184551Y-6420456D01*
X20186693Y-6435703D02*
X20185420Y-6428107D01*
X20188364Y-6443223D02*
X20186693Y-6435703D01*
X20190425Y-6450646D02*
X20188364Y-6443223D01*
X20192871Y-6457951D02*
X20190425Y-6450646D01*
X20195694Y-6465116D02*
X20192871Y-6457951D01*
X20198888Y-6472121D02*
X20195694Y-6465116D01*
X20202447Y-6478944D02*
X20198888Y-6472121D01*
X20206363Y-6485565D02*
X20202447Y-6478944D01*
X20210626Y-6491967D02*
X20206363Y-6485565D01*
X20215221Y-6498133D02*
X20210626Y-6491967D01*
X20220133Y-6504050D02*
X20215221Y-6498133D01*
X20225347Y-6509703D02*
X20220133Y-6504050D01*
X20230849Y-6515076D02*
X20225347Y-6509703D01*
X20236625Y-6520156D02*
X20230849Y-6515076D01*
X20242659Y-6524927D02*
X20236625Y-6520156D01*
X20248937Y-6529374D02*
X20242659Y-6524927D01*
X20255444Y-6533484D02*
X20248937Y-6529374D01*
X20262165Y-6537240D02*
X20255444Y-6533484D01*
X20269081Y-6540635D02*
X20262165Y-6537240D01*
X20276170Y-6543660D02*
X20269081Y-6540635D01*
X20283409Y-6546312D02*
X20276170Y-6543660D01*
X20290776Y-6548582D02*
X20283409Y-6546312D01*
X20298250Y-6550465D02*
X20290776Y-6548582D01*
X20305807Y-6551955D02*
X20298250Y-6550465D01*
X20313426Y-6553045D02*
X20305807Y-6551955D01*
X20321085Y-6553728D02*
X20313426Y-6553045D01*
X20328761Y-6554000D02*
X20321085Y-6553728D01*
X20336433Y-6553854D02*
X20328761Y-6554000D01*
X20344081Y-6553293D02*
X20336433Y-6553854D01*
X20351689Y-6552323D02*
X20344081Y-6553293D01*
X20359239Y-6550951D02*
X20351689Y-6552323D01*
X20366714Y-6549183D02*
X20359239Y-6550951D01*
X20374096Y-6547025D02*
X20366714Y-6549183D01*
X20381369Y-6544485D02*
X20374096Y-6547025D01*
X20388515Y-6541568D02*
X20381369Y-6544485D01*
X20395517Y-6538282D02*
X20388515Y-6541568D01*
X20402357Y-6534632D02*
X20395517Y-6538282D01*
X20409017Y-6530626D02*
X20402357Y-6534632D01*
X20415472Y-6526276D02*
X20409017Y-6530626D01*
X20421691Y-6521600D02*
X20415472Y-6526276D01*
X20427646Y-6516611D02*
X20421691Y-6521600D01*
X20433307Y-6511325D02*
X20427646Y-6516611D01*
X20438646Y-6505758D02*
X20433307Y-6511325D01*
X20443633Y-6499925D02*
X20438646Y-6505758D01*
X20448239Y-6493841D02*
X20443633Y-6499925D01*
X20452435Y-6487522D02*
X20448239Y-6493841D01*
X20456192Y-6480984D02*
X20452435Y-6487522D01*
X20459490Y-6474242D02*
X20456192Y-6480984D01*
X20462361Y-6467313D02*
X20459490Y-6474242D01*
X20464853Y-6460216D02*
X20462361Y-6467313D01*
X20467013Y-6452969D02*
X20464853Y-6460216D01*
X20468890Y-6445590D02*
X20467013Y-6452969D01*
X20470532Y-6438097D02*
X20468890Y-6445590D01*
X20471985Y-6430508D02*
X20470532Y-6438097D01*
X20473298Y-6422842D02*
X20471985Y-6430508D01*
X20474519Y-6415116D02*
X20473298Y-6422842D01*
X20475696Y-6407348D02*
X20474519Y-6415116D01*
X20474435Y-12553765D02*
X20475696Y-12561519D01*
X20473130Y-12546052D02*
X20474435Y-12553765D01*
X20471733Y-12538401D02*
X20473130Y-12546052D01*
X20470197Y-12530828D02*
X20471733Y-12538401D01*
X20468475Y-12523354D02*
X20470197Y-12530828D01*
X20466518Y-12515995D02*
X20468475Y-12523354D01*
X20464279Y-12508772D02*
X20466518Y-12515995D01*
X20461710Y-12501703D02*
X20464279Y-12508772D01*
X20458764Y-12494806D02*
X20461710Y-12501703D01*
X20455392Y-12488099D02*
X20458764Y-12494806D01*
X20451565Y-12481602D02*
X20455392Y-12488099D01*
X20447300Y-12475330D02*
X20451565Y-12481602D01*
X20442628Y-12469296D02*
X20447300Y-12475330D01*
X20437578Y-12463518D02*
X20442628Y-12469296D01*
X20432179Y-12458009D02*
X20437578Y-12463518D01*
X20426460Y-12452785D02*
X20432179Y-12458009D01*
X20420452Y-12447861D02*
X20426460Y-12452785D01*
X20414182Y-12443252D02*
X20420452Y-12447861D01*
X20407681Y-12438974D02*
X20414182Y-12443252D01*
X20400977Y-12435040D02*
X20407681Y-12438974D01*
X20394098Y-12431465D02*
X20400977Y-12435040D01*
X20387061Y-12428255D02*
X20394098Y-12431465D01*
X20379884Y-12425416D02*
X20387061Y-12428255D01*
X20372584Y-12422955D02*
X20379884Y-12425416D01*
X20365178Y-12420878D02*
X20372584Y-12422955D01*
X20357684Y-12419191D02*
X20365178Y-12420878D01*
X20350120Y-12417901D02*
X20357684Y-12419191D01*
X20342502Y-12417014D02*
X20350120Y-12417901D01*
X20334848Y-12416536D02*
X20342502Y-12417014D01*
X20327175Y-12416473D02*
X20334848Y-12416536D01*
X20319503Y-12416828D02*
X20327175Y-12416473D01*
X20311852Y-12417596D02*
X20319503Y-12416828D01*
X20304245Y-12418768D02*
X20311852Y-12417596D01*
X20296704Y-12420340D02*
X20304245Y-12418768D01*
X20289251Y-12422304D02*
X20296704Y-12420340D01*
X20281909Y-12424654D02*
X20289251Y-12422304D01*
X20274699Y-12427384D02*
X20281909Y-12424654D01*
X20267644Y-12430487D02*
X20274699Y-12427384D01*
X20260765Y-12433957D02*
X20267644Y-12430487D01*
X20254085Y-12437786D02*
X20260765Y-12433957D01*
X20247623Y-12441966D02*
X20254085Y-12437786D01*
X20241394Y-12446481D02*
X20247623Y-12441966D01*
X20235412Y-12451317D02*
X20241394Y-12446481D01*
X20229692Y-12456460D02*
X20235412Y-12451317D01*
X20224249Y-12461893D02*
X20229692Y-12456460D01*
X20219096Y-12467602D02*
X20224249Y-12461893D01*
X20214249Y-12473572D02*
X20219096Y-12467602D01*
X20209722Y-12479788D02*
X20214249Y-12473572D01*
X20205529Y-12486235D02*
X20209722Y-12479788D01*
X20201685Y-12492899D02*
X20205529Y-12486235D01*
X20198200Y-12499760D02*
X20201685Y-12492899D01*
X20195082Y-12506800D02*
X20198200Y-12499760D01*
X20192337Y-12513995D02*
X20195082Y-12506800D01*
X20189971Y-12521326D02*
X20192337Y-12513995D01*
X20187991Y-12528771D02*
X20189971Y-12521326D01*
X20186402Y-12536308D02*
X20187991Y-12528771D01*
X20185211Y-12543918D02*
X20186402Y-12536308D01*
X20184425Y-12551578D02*
X20185211Y-12543918D01*
X20184050Y-12559267D02*
X20184425Y-12551578D01*
X20184092Y-12566965D02*
X20184050Y-12559267D01*
X20184551Y-12574650D02*
X20184092Y-12566965D01*
X20185420Y-12582301D02*
X20184551Y-12574650D01*
X20186693Y-12589897D02*
X20185420Y-12582301D01*
X20188364Y-12597417D02*
X20186693Y-12589897D01*
X20190425Y-12604840D02*
X20188364Y-12597417D01*
X20192871Y-12612144D02*
X20190425Y-12604840D01*
X20195694Y-12619309D02*
X20192871Y-12612144D01*
X20198889Y-12626314D02*
X20195694Y-12619309D01*
X20202447Y-12633138D02*
X20198889Y-12626314D01*
X20206364Y-12639759D02*
X20202447Y-12633138D01*
X20210626Y-12646160D02*
X20206364Y-12639759D01*
X20215221Y-12652327D02*
X20210626Y-12646160D01*
X20220133Y-12658244D02*
X20215221Y-12652327D01*
X20225347Y-12663896D02*
X20220133Y-12658244D01*
X20230850Y-12669270D02*
X20225347Y-12663896D01*
X20236625Y-12674349D02*
X20230850Y-12669270D01*
X20242659Y-12679120D02*
X20236625Y-12674349D01*
X20248937Y-12683568D02*
X20242659Y-12679120D01*
X20255444Y-12687677D02*
X20248937Y-12683568D01*
X20262165Y-12691434D02*
X20255444Y-12687677D01*
X20269081Y-12694828D02*
X20262165Y-12691434D01*
X20276170Y-12697854D02*
X20269081Y-12694828D01*
X20283409Y-12700505D02*
X20276170Y-12697854D01*
X20290776Y-12702775D02*
X20283409Y-12700505D01*
X20298250Y-12704659D02*
X20290776Y-12702775D01*
X20305807Y-12706148D02*
X20298250Y-12704659D01*
X20313427Y-12707238D02*
X20305807Y-12706148D01*
X20321085Y-12707922D02*
X20313427Y-12707238D01*
X20328761Y-12708193D02*
X20321085Y-12707922D01*
X20336433Y-12708047D02*
X20328761Y-12708193D01*
X20344082Y-12707486D02*
X20336433Y-12708047D01*
X20351689Y-12706516D02*
X20344082Y-12707486D01*
X20359239Y-12705144D02*
X20351689Y-12706516D01*
X20366714Y-12703376D02*
X20359239Y-12705144D01*
X20374097Y-12701219D02*
X20366714Y-12703376D01*
X20381369Y-12698678D02*
X20374097Y-12701219D01*
X20388515Y-12695762D02*
X20381369Y-12698678D01*
X20395517Y-12692475D02*
X20388515Y-12695762D01*
X20402357Y-12688825D02*
X20395517Y-12692475D01*
X20409017Y-12684819D02*
X20402357Y-12688825D01*
X20415472Y-12680470D02*
X20409017Y-12684819D01*
X20421691Y-12675793D02*
X20415472Y-12680470D01*
X20427646Y-12670804D02*
X20421691Y-12675793D01*
X20433307Y-12665518D02*
X20427646Y-12670804D01*
X20438646Y-12659951D02*
X20433307Y-12665518D01*
X20443633Y-12654118D02*
X20438646Y-12659951D01*
X20448240Y-12648034D02*
X20443633Y-12654118D01*
X20452436Y-12641716D02*
X20448240Y-12648034D01*
X20456192Y-12635177D02*
X20452436Y-12641716D01*
X20459490Y-12628435D02*
X20456192Y-12635177D01*
X20462361Y-12621506D02*
X20459490Y-12628435D01*
X20464853Y-12614409D02*
X20462361Y-12621506D01*
X20467014Y-12607162D02*
X20464853Y-12614409D01*
X20468890Y-12599783D02*
X20467014Y-12607162D01*
X20470532Y-12592290D02*
X20468890Y-12599783D01*
X20471985Y-12584701D02*
X20470532Y-12592290D01*
X20473298Y-12577035D02*
X20471985Y-12584701D01*
X20474519Y-12569309D02*
X20473298Y-12577035D01*
X20475696Y-12561541D02*
X20474519Y-12569309D01*
X17814652Y-6399572D02*
X17815913Y-6407326D01*
X17813346Y-6391859D02*
X17814652Y-6399572D01*
X17811950Y-6384208D02*
X17813346Y-6391859D01*
X17810414Y-6376635D02*
X17811950Y-6384208D01*
X17808691Y-6369160D02*
X17810414Y-6376635D01*
X17806734Y-6361802D02*
X17808691Y-6369160D01*
X17804495Y-6354579D02*
X17806734Y-6361802D01*
X17801926Y-6347510D02*
X17804495Y-6354579D01*
X17798980Y-6340613D02*
X17801926Y-6347510D01*
X17795609Y-6333906D02*
X17798980Y-6340613D01*
X17791781Y-6327409D02*
X17795609Y-6333906D01*
X17787517Y-6321137D02*
X17791781Y-6327409D01*
X17782845Y-6315103D02*
X17787517Y-6321137D01*
X17777795Y-6309325D02*
X17782845Y-6315103D01*
X17772396Y-6303816D02*
X17777795Y-6309325D01*
X17766677Y-6298592D02*
X17772396Y-6303816D01*
X17760668Y-6293668D02*
X17766677Y-6298592D01*
X17754398Y-6289059D02*
X17760668Y-6293668D01*
X17747897Y-6284781D02*
X17754398Y-6289059D01*
X17741194Y-6280847D02*
X17747897Y-6284781D01*
X17734314Y-6277272D02*
X17741194Y-6280847D01*
X17727277Y-6274062D02*
X17734314Y-6277272D01*
X17720100Y-6271223D02*
X17727277Y-6274062D01*
X17712800Y-6268762D02*
X17720100Y-6271223D01*
X17705395Y-6266685D02*
X17712800Y-6268762D01*
X17697901Y-6264998D02*
X17705395Y-6266685D01*
X17690337Y-6263708D02*
X17697901Y-6264998D01*
X17682719Y-6262821D02*
X17690337Y-6263708D01*
X17675065Y-6262343D02*
X17682719Y-6262821D01*
X17667392Y-6262280D02*
X17675065Y-6262343D01*
X17659719Y-6262635D02*
X17667392Y-6262280D01*
X17652068Y-6263402D02*
X17659719Y-6262635D01*
X17644462Y-6264575D02*
X17652068Y-6263402D01*
X17636921Y-6266147D02*
X17644462Y-6264575D01*
X17629468Y-6268111D02*
X17636921Y-6266147D01*
X17622126Y-6270461D02*
X17629468Y-6268111D01*
X17614916Y-6273191D02*
X17622126Y-6270461D01*
X17607861Y-6276294D02*
X17614916Y-6273191D01*
X17600982Y-6279763D02*
X17607861Y-6276294D01*
X17594302Y-6283593D02*
X17600982Y-6279763D01*
X17587840Y-6287772D02*
X17594302Y-6283593D01*
X17581611Y-6292288D02*
X17587840Y-6287772D01*
X17575629Y-6297124D02*
X17581611Y-6292288D01*
X17569909Y-6302266D02*
X17575629Y-6297124D01*
X17564466Y-6307699D02*
X17569909Y-6302266D01*
X17559313Y-6313408D02*
X17564466Y-6307699D01*
X17554466Y-6319378D02*
X17559313Y-6313408D01*
X17549938Y-6325594D02*
X17554466Y-6319378D01*
X17545745Y-6332042D02*
X17549938Y-6325594D01*
X17541901Y-6338705D02*
X17545745Y-6332042D01*
X17538417Y-6345567D02*
X17541901Y-6338705D01*
X17535299Y-6352606D02*
X17538417Y-6345567D01*
X17532554Y-6359802D02*
X17535299Y-6352606D01*
X17530188Y-6367132D02*
X17532554Y-6359802D01*
X17528207Y-6374577D02*
X17530188Y-6367132D01*
X17526619Y-6382115D02*
X17528207Y-6374577D01*
X17525428Y-6389724D02*
X17526619Y-6382115D01*
X17524642Y-6397384D02*
X17525428Y-6389724D01*
X17524267Y-6405074D02*
X17524642Y-6397384D01*
X17524309Y-6412771D02*
X17524267Y-6405074D01*
X17524767Y-6420456D02*
X17524309Y-6412771D01*
X17525637Y-6428107D02*
X17524767Y-6420456D01*
X17526910Y-6435703D02*
X17525637Y-6428107D01*
X17528581Y-6443223D02*
X17526910Y-6435703D01*
X17530642Y-6450646D02*
X17528581Y-6443223D01*
X17533088Y-6457951D02*
X17530642Y-6450646D01*
X17535911Y-6465116D02*
X17533088Y-6457951D01*
X17539105Y-6472121D02*
X17535911Y-6465116D01*
X17542664Y-6478944D02*
X17539105Y-6472121D01*
X17546580Y-6485565D02*
X17542664Y-6478944D01*
X17550843Y-6491967D02*
X17546580Y-6485565D01*
X17555438Y-6498133D02*
X17550843Y-6491967D01*
X17560349Y-6504050D02*
X17555438Y-6498133D01*
X17565564Y-6509703D02*
X17560349Y-6504050D01*
X17571066Y-6515076D02*
X17565564Y-6509703D01*
X17576842Y-6520156D02*
X17571066Y-6515076D01*
X17582876Y-6524927D02*
X17576842Y-6520156D01*
X17589153Y-6529374D02*
X17582876Y-6524927D01*
X17595661Y-6533484D02*
X17589153Y-6529374D01*
X17602382Y-6537240D02*
X17595661Y-6533484D01*
X17609298Y-6540635D02*
X17602382Y-6537240D01*
X17616386Y-6543660D02*
X17609298Y-6540635D01*
X17623625Y-6546312D02*
X17616386Y-6543660D01*
X17630993Y-6548582D02*
X17623625Y-6546312D01*
X17638466Y-6550465D02*
X17630993Y-6548582D01*
X17646024Y-6551955D02*
X17638466Y-6550465D01*
X17653643Y-6553045D02*
X17646024Y-6551955D01*
X17661302Y-6553728D02*
X17653643Y-6553045D01*
X17668978Y-6554000D02*
X17661302Y-6553728D01*
X17676650Y-6553854D02*
X17668978Y-6554000D01*
X17684298Y-6553293D02*
X17676650Y-6553854D01*
X17691906Y-6552323D02*
X17684298Y-6553293D01*
X17699456Y-6550951D02*
X17691906Y-6552323D01*
X17706931Y-6549183D02*
X17699456Y-6550951D01*
X17714313Y-6547025D02*
X17706931Y-6549183D01*
X17721586Y-6544485D02*
X17714313Y-6547025D01*
X17728732Y-6541568D02*
X17721586Y-6544485D01*
X17735733Y-6538282D02*
X17728732Y-6541568D01*
X17742574Y-6534632D02*
X17735733Y-6538282D01*
X17749234Y-6530626D02*
X17742574Y-6534632D01*
X17755688Y-6526277D02*
X17749234Y-6530626D01*
X17761907Y-6521600D02*
X17755688Y-6526277D01*
X17767862Y-6516611D02*
X17761907Y-6521600D01*
X17773524Y-6511325D02*
X17767862Y-6516611D01*
X17778863Y-6505758D02*
X17773524Y-6511325D01*
X17783850Y-6499925D02*
X17778863Y-6505758D01*
X17788456Y-6493841D02*
X17783850Y-6499925D01*
X17792652Y-6487522D02*
X17788456Y-6493841D01*
X17796409Y-6480984D02*
X17792652Y-6487522D01*
X17799707Y-6474242D02*
X17796409Y-6480984D01*
X17802578Y-6467313D02*
X17799707Y-6474242D01*
X17805070Y-6460216D02*
X17802578Y-6467313D01*
X17807230Y-6452969D02*
X17805070Y-6460216D01*
X17809107Y-6445590D02*
X17807230Y-6452969D01*
X17810748Y-6438097D02*
X17809107Y-6445590D01*
X17812202Y-6430508D02*
X17810748Y-6438097D01*
X17813515Y-6422842D02*
X17812202Y-6430508D01*
X17814736Y-6415116D02*
X17813515Y-6422842D01*
X17815913Y-6407348D02*
X17814736Y-6415116D01*
X17876501Y-5956992D02*
X17898025Y-5953899D01*
X17855067Y-5960125D02*
X17876501Y-5956992D01*
X17833738Y-5963347D02*
X17855067Y-5960125D01*
X17812525Y-5966710D02*
X17833738Y-5963347D01*
X17791443Y-5970263D02*
X17812525Y-5966710D01*
X17770503Y-5974058D02*
X17791443Y-5970263D01*
X17749718Y-5978144D02*
X17770503Y-5974058D01*
X17729102Y-5982573D02*
X17749718Y-5978144D01*
X17708667Y-5987394D02*
X17729102Y-5982573D01*
X17688427Y-5992659D02*
X17708667Y-5987394D01*
X17668393Y-5998417D02*
X17688427Y-5992659D01*
X17648580Y-6004720D02*
X17668393Y-5998417D01*
X17629000Y-6011617D02*
X17648580Y-6004720D01*
X17609666Y-6019159D02*
X17629000Y-6011617D01*
X17590590Y-6027397D02*
X17609666Y-6019159D01*
X17571786Y-6036380D02*
X17590590Y-6027397D01*
X17553276Y-6046130D02*
X17571786Y-6036380D01*
X17535093Y-6056621D02*
X17553276Y-6046130D01*
X17517273Y-6067826D02*
X17535093Y-6056621D01*
X17499852Y-6079716D02*
X17517273Y-6067826D01*
X17482865Y-6092261D02*
X17499852Y-6079716D01*
X17466348Y-6105435D02*
X17482865Y-6092261D01*
X17450336Y-6119207D02*
X17466348Y-6105435D01*
X17434864Y-6133550D02*
X17450336Y-6119207D01*
X17419969Y-6148436D02*
X17434864Y-6133550D01*
X17405686Y-6163834D02*
X17419969Y-6148436D01*
X17392050Y-6179718D02*
X17405686Y-6163834D01*
X17379096Y-6196059D02*
X17392050Y-6179718D01*
X17366861Y-6212827D02*
X17379096Y-6196059D01*
X17355380Y-6229995D02*
X17366861Y-6212827D01*
X17344688Y-6247534D02*
X17355380Y-6229995D01*
X17334817Y-6265416D02*
X17344688Y-6247534D01*
X17325746Y-6283617D02*
X17334817Y-6265416D01*
X17317422Y-6302116D02*
X17325746Y-6283617D01*
X17309793Y-6320892D02*
X17317422Y-6302116D01*
X17302804Y-6339926D02*
X17309793Y-6320892D01*
X17296402Y-6359194D02*
X17302804Y-6339926D01*
X17290534Y-6378678D02*
X17296402Y-6359194D01*
X17285146Y-6398355D02*
X17290534Y-6378678D01*
X17280185Y-6418206D02*
X17285146Y-6398355D01*
X17275597Y-6438209D02*
X17280185Y-6418206D01*
X17271328Y-6458344D02*
X17275597Y-6438209D01*
X17267327Y-6478589D02*
X17271328Y-6458344D01*
X17263537Y-6498923D02*
X17267327Y-6478589D01*
X17259908Y-6519327D02*
X17263537Y-6498923D01*
X17256384Y-6539779D02*
X17259908Y-6519327D01*
X17252912Y-6560258D02*
X17256384Y-6539779D01*
X17256384Y-12412193D02*
X17252912Y-12391714D01*
X17259908Y-12432645D02*
X17256384Y-12412193D01*
X17263537Y-12453049D02*
X17259908Y-12432645D01*
X17267326Y-12473384D02*
X17263537Y-12453049D01*
X17271328Y-12493629D02*
X17267326Y-12473384D01*
X17275597Y-12513764D02*
X17271328Y-12493629D01*
X17280184Y-12533767D02*
X17275597Y-12513764D01*
X17285146Y-12553617D02*
X17280184Y-12533767D01*
X17290534Y-12573295D02*
X17285146Y-12553617D01*
X17296402Y-12592779D02*
X17290534Y-12573295D01*
X17302803Y-12612047D02*
X17296402Y-12592779D01*
X17309792Y-12631081D02*
X17302803Y-12612047D01*
X17317422Y-12649857D02*
X17309792Y-12631081D01*
X17325745Y-12668356D02*
X17317422Y-12649857D01*
X17334816Y-12686557D02*
X17325745Y-12668356D01*
X17344688Y-12704439D02*
X17334816Y-12686557D01*
X17355380Y-12721978D02*
X17344688Y-12704439D01*
X17366861Y-12739146D02*
X17355380Y-12721978D01*
X17379096Y-12755915D02*
X17366861Y-12739146D01*
X17392049Y-12772255D02*
X17379096Y-12755915D01*
X17405686Y-12788139D02*
X17392049Y-12772255D01*
X17419969Y-12803538D02*
X17405686Y-12788139D01*
X17434864Y-12818423D02*
X17419969Y-12803538D01*
X17450335Y-12832766D02*
X17434864Y-12818423D01*
X17466348Y-12846539D02*
X17450335Y-12832766D01*
X17482865Y-12859712D02*
X17466348Y-12846539D01*
X17499852Y-12872258D02*
X17482865Y-12859712D01*
X17517273Y-12884147D02*
X17499852Y-12872258D01*
X17535093Y-12895352D02*
X17517273Y-12884147D01*
X17553276Y-12905843D02*
X17535093Y-12895352D01*
X17571786Y-12915593D02*
X17553276Y-12905843D01*
X17590590Y-12924577D02*
X17571786Y-12915593D01*
X17609666Y-12932814D02*
X17590590Y-12924577D01*
X17629000Y-12940356D02*
X17609666Y-12932814D01*
X17648580Y-12947254D02*
X17629000Y-12940356D01*
X17668393Y-12953556D02*
X17648580Y-12947254D01*
X17688427Y-12959314D02*
X17668393Y-12953556D01*
X17708667Y-12964579D02*
X17688427Y-12959314D01*
X17729102Y-12969400D02*
X17708667Y-12964579D01*
X17749718Y-12973829D02*
X17729102Y-12969400D01*
X17770503Y-12977915D02*
X17749718Y-12973829D01*
X17791443Y-12981710D02*
X17770503Y-12977915D01*
X17812526Y-12985263D02*
X17791443Y-12981710D01*
X17833738Y-12988626D02*
X17812526Y-12985263D01*
X17855067Y-12991848D02*
X17833738Y-12988626D01*
X17876501Y-12994981D02*
X17855067Y-12991848D01*
X17898025Y-12998074D02*
X17876501Y-12994981D01*
X20123499Y-12994981D02*
X20101975Y-12998074D01*
X20144933Y-12991848D02*
X20123499Y-12994981D01*
X20166262Y-12988626D02*
X20144933Y-12991848D01*
X20187475Y-12985263D02*
X20166262Y-12988626D01*
X20208557Y-12981710D02*
X20187475Y-12985263D01*
X20229497Y-12977915D02*
X20208557Y-12981710D01*
X20250282Y-12973829D02*
X20229497Y-12977915D01*
X20270898Y-12969400D02*
X20250282Y-12973829D01*
X20291333Y-12964579D02*
X20270898Y-12969400D01*
X20311573Y-12959314D02*
X20291333Y-12964579D01*
X20331607Y-12953556D02*
X20311573Y-12959314D01*
X20351420Y-12947254D02*
X20331607Y-12953556D01*
X20371000Y-12940356D02*
X20351420Y-12947254D01*
X20390334Y-12932814D02*
X20371000Y-12940356D01*
X20409410Y-12924577D02*
X20390334Y-12932814D01*
X20428214Y-12915593D02*
X20409410Y-12924577D01*
X20446724Y-12905843D02*
X20428214Y-12915593D01*
X20464907Y-12895352D02*
X20446724Y-12905843D01*
X20482727Y-12884147D02*
X20464907Y-12895352D01*
X20500148Y-12872258D02*
X20482727Y-12884147D01*
X20517135Y-12859712D02*
X20500148Y-12872258D01*
X20533653Y-12846539D02*
X20517135Y-12859712D01*
X20549665Y-12832766D02*
X20533653Y-12846539D01*
X20565136Y-12818423D02*
X20549665Y-12832766D01*
X20580031Y-12803538D02*
X20565136Y-12818423D01*
X20594314Y-12788139D02*
X20580031Y-12803538D01*
X20607951Y-12772255D02*
X20594314Y-12788139D01*
X20620904Y-12755915D02*
X20607951Y-12772255D01*
X20633139Y-12739146D02*
X20620904Y-12755915D01*
X20644620Y-12721978D02*
X20633139Y-12739146D01*
X20655312Y-12704439D02*
X20644620Y-12721978D01*
X20665184Y-12686557D02*
X20655312Y-12704439D01*
X20674255Y-12668356D02*
X20665184Y-12686557D01*
X20682578Y-12649857D02*
X20674255Y-12668356D01*
X20690208Y-12631081D02*
X20682578Y-12649857D01*
X20697197Y-12612047D02*
X20690208Y-12631081D01*
X20703598Y-12592779D02*
X20697197Y-12612047D01*
X20709466Y-12573295D02*
X20703598Y-12592779D01*
X20714854Y-12553617D02*
X20709466Y-12573295D01*
X20719816Y-12533767D02*
X20714854Y-12553617D01*
X20724404Y-12513764D02*
X20719816Y-12533767D01*
X20728672Y-12493629D02*
X20724404Y-12513764D01*
X20732674Y-12473384D02*
X20728672Y-12493629D01*
X20736463Y-12453049D02*
X20732674Y-12473384D01*
X20740093Y-12432645D02*
X20736463Y-12453049D01*
X20743616Y-12412193D02*
X20740093Y-12432645D01*
X20747088Y-12391714D02*
X20743616Y-12412193D01*
X20743616Y-6539779D02*
X20747088Y-6560258D01*
X20740092Y-6519327D02*
X20743616Y-6539779D01*
X20736463Y-6498923D02*
X20740092Y-6519327D01*
X20732674Y-6478589D02*
X20736463Y-6498923D01*
X20728672Y-6458344D02*
X20732674Y-6478589D01*
X20724403Y-6438209D02*
X20728672Y-6458344D01*
X20719815Y-6418206D02*
X20724403Y-6438209D01*
X20714854Y-6398355D02*
X20719815Y-6418206D01*
X20709466Y-6378678D02*
X20714854Y-6398355D01*
X20703598Y-6359194D02*
X20709466Y-6378678D01*
X20697196Y-6339926D02*
X20703598Y-6359194D01*
X20690208Y-6320892D02*
X20697196Y-6339926D01*
X20682578Y-6302116D02*
X20690208Y-6320892D01*
X20674255Y-6283617D02*
X20682578Y-6302116D01*
X20665184Y-6265416D02*
X20674255Y-6283617D01*
X20655312Y-6247534D02*
X20665184Y-6265416D01*
X20644620Y-6229995D02*
X20655312Y-6247534D01*
X20633139Y-6212827D02*
X20644620Y-6229995D01*
X20620904Y-6196059D02*
X20633139Y-6212827D01*
X20607950Y-6179718D02*
X20620904Y-6196059D01*
X20594314Y-6163834D02*
X20607950Y-6179718D01*
X20580031Y-6148436D02*
X20594314Y-6163834D01*
X20565136Y-6133550D02*
X20580031Y-6148436D01*
X20549664Y-6119207D02*
X20565136Y-6133550D01*
X20533652Y-6105435D02*
X20549664Y-6119207D01*
X20517135Y-6092261D02*
X20533652Y-6105435D01*
X20500148Y-6079716D02*
X20517135Y-6092261D01*
X20482727Y-6067826D02*
X20500148Y-6079716D01*
X20464907Y-6056621D02*
X20482727Y-6067826D01*
X20446724Y-6046130D02*
X20464907Y-6056621D01*
X20428214Y-6036380D02*
X20446724Y-6046130D01*
X20409410Y-6027397D02*
X20428214Y-6036380D01*
X20390334Y-6019159D02*
X20409410Y-6027397D01*
X20371000Y-6011617D02*
X20390334Y-6019159D01*
X20351420Y-6004720D02*
X20371000Y-6011617D01*
X20331607Y-5998417D02*
X20351420Y-6004720D01*
X20311573Y-5992659D02*
X20331607Y-5998417D01*
X20291333Y-5987394D02*
X20311573Y-5992659D01*
X20270898Y-5982573D02*
X20291333Y-5987394D01*
X20250282Y-5978144D02*
X20270898Y-5982573D01*
X20229497Y-5974058D02*
X20250282Y-5978144D01*
X20208557Y-5970263D02*
X20229497Y-5974058D01*
X20187475Y-5966710D02*
X20208557Y-5970263D01*
X20166262Y-5963347D02*
X20187475Y-5966710D01*
X20144933Y-5960125D02*
X20166262Y-5963347D01*
X20123499Y-5956992D02*
X20144933Y-5960125D01*
X20101975Y-5953899D02*
X20123499Y-5956992D01*
X17898025Y-5953899D02*
X17898025Y-5953899D01*
X17252912Y-12391714D02*
X17252912Y-6560258D01*
X20101975Y-12998074D02*
X17898025Y-12998074D01*
X20747088Y-6560258D02*
X20747088Y-12391714D01*
X17898025Y-5953899D02*
X20101975Y-5953899D01*
M02*
