G04 #@! TF.FileFunction,Soldermask,Top*
%FSLAX45Y45*%
G04 Gerber Fmt 4.5, Leading zero omitted, Abs format (unit mm)*
G04 Created by KiCad (PCBNEW 4.0.7-e2-6376~58~ubuntu16.04.1) date Wed Oct 11 14:35:36 2017*
%MOMM*%
%LPD*%
G01*
G04 APERTURE LIST*
%ADD10C,0.020000*%
%ADD11R,2.600000X2.600000*%
%ADD12O,2.600000X2.600000*%
%ADD13R,2.200000X2.200000*%
%ADD14C,2.200000*%
%ADD15O,3.900000X3.900000*%
%ADD16O,2.200000X2.200000*%
%ADD17C,1.200000*%
%ADD18R,3.400000X3.400000*%
%ADD19C,3.400000*%
%ADD20C,3.900000*%
%ADD21C,1.840000*%
%ADD22C,2.000000*%
%ADD23O,2.000000X2.000000*%
%ADD24R,2.100000X2.100000*%
%ADD25O,2.100000X2.100000*%
%ADD26C,2.650000*%
%ADD27C,1.800000*%
%ADD28O,1.800000X1.800000*%
%ADD29C,2.400000*%
%ADD30R,2.400000X2.400000*%
%ADD31R,2.000000X2.000000*%
%ADD32R,3.900000X3.900000*%
%ADD33R,12.400000X17.400000*%
G04 APERTURE END LIST*
D10*
D11*
X18847308Y-11861292D03*
D12*
X18847308Y-11607292D03*
D13*
X20452080Y-11008944D03*
D14*
X20452080Y-10754944D03*
D15*
X17928336Y-11727820D03*
D13*
X18255996Y-9862820D03*
D16*
X18085996Y-10242820D03*
X17915996Y-9862820D03*
X17745996Y-10242820D03*
X17575996Y-9862820D03*
D17*
X19087338Y-7996174D03*
D18*
X20339812Y-7585710D03*
D19*
X20339812Y-7077710D03*
D20*
X20082152Y-10010156D03*
X20082152Y-10520156D03*
X18742152Y-9790156D03*
X18742152Y-10265156D03*
X18742152Y-10740156D03*
D21*
X19174460Y-7858760D03*
X19428460Y-7604760D03*
X19682460Y-7858760D03*
D22*
X18722340Y-8196580D03*
D23*
X18722340Y-6926580D03*
D24*
X20530312Y-8046720D03*
D25*
X20276312Y-8046720D03*
X20022312Y-8046720D03*
D26*
X20494880Y-8934704D03*
X20164880Y-8444704D03*
X19419880Y-8499704D03*
X19849880Y-9174704D03*
X19709880Y-9424704D03*
D27*
X18624804Y-8430392D03*
D28*
X18624804Y-8620392D03*
D27*
X18333720Y-8430392D03*
D28*
X18333720Y-8620392D03*
D27*
X18042636Y-8430392D03*
D28*
X18042636Y-8620392D03*
D27*
X17748504Y-8430392D03*
D28*
X17748504Y-8620392D03*
D19*
X18998336Y-12600432D03*
D10*
G36*
X19336336Y-12770432D02*
X19336336Y-12430432D01*
X19676336Y-12430432D01*
X19676336Y-12770432D01*
X19336336Y-12770432D01*
X19336336Y-12770432D01*
G37*
D29*
X17886680Y-7725664D03*
D30*
X17886680Y-7225664D03*
D17*
X18898362Y-8310880D03*
D19*
X19506336Y-6362192D03*
D18*
X18998336Y-6362192D03*
D27*
X17457928Y-8611240D03*
D28*
X17457928Y-8421240D03*
D31*
X19069304Y-8558276D03*
D23*
X19032728Y-8812276D03*
X19032728Y-9066276D03*
X19032728Y-9320276D03*
D22*
X17861788Y-8970000D03*
X17861788Y-9470000D03*
X17503140Y-8970000D03*
X17503140Y-9470000D03*
X18329224Y-6499860D03*
D31*
X18329224Y-6249860D03*
D22*
X18220436Y-9470000D03*
X18220436Y-8970000D03*
X18579084Y-8970000D03*
X18579084Y-9470000D03*
X19671284Y-7128764D03*
X19171284Y-7128764D03*
D32*
X19346672Y-11624640D03*
X19946672Y-11624640D03*
X19646672Y-11154640D03*
D33*
X17929860Y-11365484D03*
D17*
X17373600Y-10557764D03*
X17530858Y-10557764D03*
X17688115Y-10557764D03*
X17845373Y-10557764D03*
X18002630Y-10557764D03*
X18159888Y-10557764D03*
X18317145Y-10557764D03*
X18474403Y-10557764D03*
X17373600Y-10718259D03*
X17373600Y-10878753D03*
X17373600Y-11039248D03*
X17373600Y-11199742D03*
X17373600Y-11360236D03*
X17373600Y-11520731D03*
X17373600Y-11681225D03*
X17373600Y-11841720D03*
X17373600Y-12002214D03*
X17373600Y-12162709D03*
X18474403Y-10718259D03*
X18474403Y-10878753D03*
X18474403Y-11039248D03*
X18474403Y-11199742D03*
X18474403Y-11360236D03*
X18474403Y-11520731D03*
X18474403Y-11681225D03*
X18474403Y-11841720D03*
X18474403Y-12002214D03*
X18474403Y-12162709D03*
X17530858Y-12162709D03*
X17688115Y-12162709D03*
X17845373Y-12162709D03*
X18002630Y-12162709D03*
X18159888Y-12162709D03*
X18317145Y-12162709D03*
X18474403Y-12162709D03*
M02*
