M48
;DRILL file {KiCad 4.0.7-e2-6376~58~ubuntu16.04.1} date Thu Oct 12 10:32:22 2017
;FORMAT={2:4/ absolute / inch / suppress trailing zeros}
FMAT,2
INCH,LZ
T1C0.020
T2C0.028
T3C0.031
T4C0.035
T5C0.039
T6C0.043
T7C0.059
T8C0.060
T9C0.079
T10C0.118
%
G90
G05
M72
T1
X059832Y-027894
T2
X0612Y-027546
X0612Y-028294
X061788Y-02922
X06215Y-027511
X06215Y-028259
X062536Y-02922
X063106Y-027546
X063106Y-028294
X068985Y-043622
X068985Y-04437
T3
X047186Y-042495
X048257Y-034461
X048257Y-03643
X049155Y-042495
X050156Y-029296
X050156Y-034296
X055737Y-027632
X055737Y-029601
X057016Y-027632
X057016Y-029601
X058058Y-028666
X059058Y-027666
X060058Y-028666
X064275Y-050445
X065275Y-050445
X066275Y-050445
X067275Y-050445
X069803Y-033866
X069803Y-03485
X07071Y-0429
X07071Y-044869
T4
X065365Y-052855
X066365Y-052855
T5
X051653Y-029895
X052322Y-028438
X052991Y-029895
X053661Y-028438
X05433Y-029895
X064746Y-029634
X066715Y-029634
T6
X047777Y-044028
X048777Y-044028
T7
X044231Y-03032
X045531Y-028391
X046771Y-031265
X047322Y-03225
X048464Y-028608
T8
X048257Y-038368
X048257Y-040368
X069803Y-028937
X069803Y-030937
X069803Y-03837
X069803Y-04037
T9
X046288Y-047396
X046288Y-049404
X051524Y-04653
X051524Y-0484
X051524Y-05027
T10
X046142Y-026457
X046142Y-052264
X071949Y-026457
X071949Y-052264
T5
X06921Y-048794G85X06921Y-048006
G05
X070785Y-05025G85X069997Y-05025
G05
X071572Y-048794G85X071572Y-048006
G05
T0
M30
