G04 #@! TF.FileFunction,Legend,Top*
%FSLAX45Y45*%
G04 Gerber Fmt 4.5, Leading zero omitted, Abs format (unit mm)*
G04 Created by KiCad (PCBNEW 4.0.7-e2-6376~58~ubuntu16.04.1) date Thu Oct 12 10:32:20 2017*
%MOMM*%
%LPD*%
G01*
G04 APERTURE LIST*
%ADD10C,0.020000*%
%ADD11C,0.150000*%
%ADD12C,0.100000*%
%ADD13C,0.050000*%
G04 APERTURE END LIST*
D10*
D11*
X17530000Y-9754000D02*
X17555000Y-9754000D01*
X17530000Y-9754000D02*
X17455000Y-9754000D01*
X17505000Y-9779000D02*
X17505000Y-9804000D01*
X17505000Y-9779000D02*
X17505000Y-9704000D01*
X17505000Y-10304000D02*
X17505000Y-10204000D01*
X12039392Y-9805155D02*
X12039392Y-9690869D01*
X12039392Y-10310615D02*
X12039392Y-10196329D01*
X12096535Y-10253472D02*
X11982249Y-10253472D01*
X12484765Y-10297091D02*
X12484765Y-10249472D01*
X12513336Y-10306615D02*
X12413336Y-10273282D01*
X12513336Y-10239948D01*
X12446669Y-10163758D02*
X12513336Y-10163758D01*
X12446669Y-10206615D02*
X12499050Y-10206615D01*
X12508574Y-10201853D01*
X12513336Y-10192329D01*
X12513336Y-10178043D01*
X12508574Y-10168520D01*
X12503812Y-10163758D01*
X12513336Y-10073281D02*
X12413336Y-10073281D01*
X12508574Y-10073281D02*
X12513336Y-10082805D01*
X12513336Y-10101853D01*
X12508574Y-10111377D01*
X12503812Y-10116139D01*
X12494288Y-10120901D01*
X12465717Y-10120901D01*
X12456193Y-10116139D01*
X12451431Y-10111377D01*
X12446669Y-10101853D01*
X12446669Y-10082805D01*
X12451431Y-10073281D01*
X12513336Y-10025662D02*
X12446669Y-10025662D01*
X12413336Y-10025662D02*
X12418098Y-10030424D01*
X12422860Y-10025662D01*
X12418098Y-10020901D01*
X12413336Y-10025662D01*
X12422860Y-10025662D01*
X12513336Y-9963758D02*
X12508574Y-9973282D01*
X12503812Y-9978043D01*
X12494288Y-9982805D01*
X12465717Y-9982805D01*
X12456193Y-9978043D01*
X12451431Y-9973282D01*
X12446669Y-9963758D01*
X12446669Y-9949472D01*
X12451431Y-9939948D01*
X12456193Y-9935186D01*
X12465717Y-9930424D01*
X12494288Y-9930424D01*
X12503812Y-9935186D01*
X12508574Y-9939948D01*
X12513336Y-9949472D01*
X12513336Y-9963758D01*
X12522860Y-9911377D02*
X12522860Y-9835186D01*
X12513336Y-9811377D02*
X12413336Y-9811377D01*
X12513336Y-9763758D02*
X12413336Y-9763758D01*
X12513336Y-9706615D01*
X12413336Y-9706615D01*
X17969314Y-7915143D02*
X17969314Y-7800857D01*
X18026457Y-7858000D02*
X17912171Y-7858000D01*
X17964234Y-7407143D02*
X17964234Y-7292857D01*
X17544098Y-7655745D02*
X17544098Y-7636697D01*
X17539336Y-7627173D01*
X17534574Y-7622411D01*
X17520289Y-7612888D01*
X17501241Y-7608126D01*
X17463146Y-7608126D01*
X17453622Y-7612888D01*
X17448860Y-7617649D01*
X17444098Y-7627173D01*
X17444098Y-7646221D01*
X17448860Y-7655745D01*
X17453622Y-7660507D01*
X17463146Y-7665269D01*
X17486955Y-7665269D01*
X17496479Y-7660507D01*
X17501241Y-7655745D01*
X17506003Y-7646221D01*
X17506003Y-7627173D01*
X17501241Y-7617649D01*
X17496479Y-7612888D01*
X17486955Y-7608126D01*
X17444098Y-7579554D02*
X17544098Y-7546221D01*
X17444098Y-7512888D01*
D12*
X18020476Y-10255191D02*
X18025238Y-10240905D01*
X18025238Y-10217095D01*
X18020476Y-10207571D01*
X18015714Y-10202810D01*
X18006191Y-10198048D01*
X17996667Y-10198048D01*
X17987143Y-10202810D01*
X17982381Y-10207571D01*
X17977619Y-10217095D01*
X17972857Y-10236143D01*
X17968095Y-10245667D01*
X17963333Y-10250429D01*
X17953810Y-10255191D01*
X17944286Y-10255191D01*
X17934762Y-10250429D01*
X17930000Y-10245667D01*
X17925238Y-10236143D01*
X17925238Y-10212333D01*
X17930000Y-10198048D01*
X17958571Y-10155191D02*
X18058571Y-10155191D01*
X17963333Y-10155191D02*
X17958571Y-10145667D01*
X17958571Y-10126619D01*
X17963333Y-10117095D01*
X17968095Y-10112333D01*
X17977619Y-10107571D01*
X18006191Y-10107571D01*
X18015714Y-10112333D01*
X18020476Y-10117095D01*
X18025238Y-10126619D01*
X18025238Y-10145667D01*
X18020476Y-10155191D01*
X18020476Y-10026619D02*
X18025238Y-10036143D01*
X18025238Y-10055191D01*
X18020476Y-10064714D01*
X18010952Y-10069476D01*
X17972857Y-10069476D01*
X17963333Y-10064714D01*
X17958571Y-10055191D01*
X17958571Y-10036143D01*
X17963333Y-10026619D01*
X17972857Y-10021857D01*
X17982381Y-10021857D01*
X17991905Y-10069476D01*
X18025238Y-9936143D02*
X17972857Y-9936143D01*
X17963333Y-9940905D01*
X17958571Y-9950429D01*
X17958571Y-9969476D01*
X17963333Y-9979000D01*
X18020476Y-9936143D02*
X18025238Y-9945667D01*
X18025238Y-9969476D01*
X18020476Y-9979000D01*
X18010952Y-9983762D01*
X18001429Y-9983762D01*
X17991905Y-9979000D01*
X17987143Y-9969476D01*
X17987143Y-9945667D01*
X17982381Y-9936143D01*
X18025238Y-9888524D02*
X17925238Y-9888524D01*
X17987143Y-9879000D02*
X18025238Y-9850429D01*
X17958571Y-9850429D02*
X17996667Y-9888524D01*
X18020476Y-9769476D02*
X18025238Y-9779000D01*
X18025238Y-9798048D01*
X18020476Y-9807571D01*
X18010952Y-9812333D01*
X17972857Y-9812333D01*
X17963333Y-9807571D01*
X17958571Y-9798048D01*
X17958571Y-9779000D01*
X17963333Y-9769476D01*
X17972857Y-9764714D01*
X17982381Y-9764714D01*
X17991905Y-9812333D01*
X18025238Y-9721857D02*
X17958571Y-9721857D01*
X17977619Y-9721857D02*
X17968095Y-9717095D01*
X17963333Y-9712333D01*
X17958571Y-9702810D01*
X17958571Y-9693286D01*
D13*
X11641747Y-13173959D02*
X11672699Y-13173959D01*
X11656032Y-13193007D01*
X11663175Y-13193007D01*
X11667937Y-13195388D01*
X11670318Y-13197769D01*
X11672699Y-13202530D01*
X11672699Y-13214435D01*
X11670318Y-13219197D01*
X11667937Y-13221578D01*
X11663175Y-13223959D01*
X11648889Y-13223959D01*
X11644128Y-13221578D01*
X11641747Y-13219197D01*
X11694128Y-13223959D02*
X11694128Y-13190626D01*
X11694128Y-13195388D02*
X11696508Y-13193007D01*
X11701270Y-13190626D01*
X11708413Y-13190626D01*
X11713175Y-13193007D01*
X11715556Y-13197769D01*
X11715556Y-13223959D01*
X11715556Y-13197769D02*
X11717937Y-13193007D01*
X11722699Y-13190626D01*
X11729842Y-13190626D01*
X11734604Y-13193007D01*
X11736985Y-13197769D01*
X11736985Y-13223959D01*
X11760794Y-13223959D02*
X11760794Y-13190626D01*
X11760794Y-13195388D02*
X11763175Y-13193007D01*
X11767937Y-13190626D01*
X11775080Y-13190626D01*
X11779842Y-13193007D01*
X11782223Y-13197769D01*
X11782223Y-13223959D01*
X11782223Y-13197769D02*
X11784604Y-13193007D01*
X11789366Y-13190626D01*
X11796508Y-13190626D01*
X11801270Y-13193007D01*
X11803651Y-13197769D01*
X11803651Y-13223959D01*
X18196747Y-13173959D02*
X18227699Y-13173959D01*
X18211032Y-13193007D01*
X18218175Y-13193007D01*
X18222937Y-13195388D01*
X18225318Y-13197769D01*
X18227699Y-13202530D01*
X18227699Y-13214435D01*
X18225318Y-13219197D01*
X18222937Y-13221578D01*
X18218175Y-13223959D01*
X18203890Y-13223959D01*
X18199128Y-13221578D01*
X18196747Y-13219197D01*
X18249128Y-13223959D02*
X18249128Y-13190626D01*
X18249128Y-13195388D02*
X18251509Y-13193007D01*
X18256270Y-13190626D01*
X18263413Y-13190626D01*
X18268175Y-13193007D01*
X18270556Y-13197769D01*
X18270556Y-13223959D01*
X18270556Y-13197769D02*
X18272937Y-13193007D01*
X18277699Y-13190626D01*
X18284842Y-13190626D01*
X18289604Y-13193007D01*
X18291985Y-13197769D01*
X18291985Y-13223959D01*
X18315794Y-13223959D02*
X18315794Y-13190626D01*
X18315794Y-13195388D02*
X18318175Y-13193007D01*
X18322937Y-13190626D01*
X18330080Y-13190626D01*
X18334842Y-13193007D01*
X18337223Y-13197769D01*
X18337223Y-13223959D01*
X18337223Y-13197769D02*
X18339604Y-13193007D01*
X18344366Y-13190626D01*
X18351509Y-13190626D01*
X18356271Y-13193007D01*
X18358651Y-13197769D01*
X18358651Y-13223959D01*
X18196747Y-6618959D02*
X18227699Y-6618959D01*
X18211032Y-6638007D01*
X18218175Y-6638007D01*
X18222937Y-6640388D01*
X18225318Y-6642769D01*
X18227699Y-6647530D01*
X18227699Y-6659435D01*
X18225318Y-6664197D01*
X18222937Y-6666578D01*
X18218175Y-6668959D01*
X18203890Y-6668959D01*
X18199128Y-6666578D01*
X18196747Y-6664197D01*
X18249128Y-6668959D02*
X18249128Y-6635626D01*
X18249128Y-6640388D02*
X18251509Y-6638007D01*
X18256270Y-6635626D01*
X18263413Y-6635626D01*
X18268175Y-6638007D01*
X18270556Y-6642769D01*
X18270556Y-6668959D01*
X18270556Y-6642769D02*
X18272937Y-6638007D01*
X18277699Y-6635626D01*
X18284842Y-6635626D01*
X18289604Y-6638007D01*
X18291985Y-6642769D01*
X18291985Y-6668959D01*
X18315794Y-6668959D02*
X18315794Y-6635626D01*
X18315794Y-6640388D02*
X18318175Y-6638007D01*
X18322937Y-6635626D01*
X18330080Y-6635626D01*
X18334842Y-6638007D01*
X18337223Y-6642769D01*
X18337223Y-6668959D01*
X18337223Y-6642769D02*
X18339604Y-6638007D01*
X18344366Y-6635626D01*
X18351509Y-6635626D01*
X18356271Y-6638007D01*
X18358651Y-6642769D01*
X18358651Y-6668959D01*
X11641747Y-6618959D02*
X11672699Y-6618959D01*
X11656032Y-6638007D01*
X11663175Y-6638007D01*
X11667937Y-6640388D01*
X11670318Y-6642769D01*
X11672699Y-6647530D01*
X11672699Y-6659435D01*
X11670318Y-6664197D01*
X11667937Y-6666578D01*
X11663175Y-6668959D01*
X11648889Y-6668959D01*
X11644128Y-6666578D01*
X11641747Y-6664197D01*
X11694128Y-6668959D02*
X11694128Y-6635626D01*
X11694128Y-6640388D02*
X11696508Y-6638007D01*
X11701270Y-6635626D01*
X11708413Y-6635626D01*
X11713175Y-6638007D01*
X11715556Y-6642769D01*
X11715556Y-6668959D01*
X11715556Y-6642769D02*
X11717937Y-6638007D01*
X11722699Y-6635626D01*
X11729842Y-6635626D01*
X11734604Y-6638007D01*
X11736985Y-6642769D01*
X11736985Y-6668959D01*
X11760794Y-6668959D02*
X11760794Y-6635626D01*
X11760794Y-6640388D02*
X11763175Y-6638007D01*
X11767937Y-6635626D01*
X11775080Y-6635626D01*
X11779842Y-6638007D01*
X11782223Y-6642769D01*
X11782223Y-6668959D01*
X11782223Y-6642769D02*
X11784604Y-6638007D01*
X11789366Y-6635626D01*
X11796508Y-6635626D01*
X11801270Y-6638007D01*
X11803651Y-6642769D01*
X11803651Y-6668959D01*
M02*
