G04 #@! TF.FileFunction,Legend,Bot*
%FSLAX45Y45*%
G04 Gerber Fmt 4.5, Leading zero omitted, Abs format (unit mm)*
G04 Created by KiCad (PCBNEW 4.0.7-e2-6376~58~ubuntu16.04.1) date Thu Oct 12 10:32:20 2017*
%MOMM*%
%LPD*%
G01*
G04 APERTURE LIST*
%ADD10C,0.020000*%
%ADD11C,0.120000*%
%ADD12C,0.150000*%
%ADD13C,0.100000*%
G04 APERTURE END LIST*
D10*
D11*
X12275058Y-11055112D02*
X12275058Y-10966212D01*
X12275058Y-10964942D02*
X12334325Y-11009392D01*
X12334325Y-11055112D02*
X12334325Y-10966212D01*
X12334325Y-11011932D02*
X12275058Y-11056382D01*
X17730000Y-9071900D02*
X17730000Y-8951900D01*
X17795000Y-9011900D02*
X17665000Y-9011900D01*
D12*
X15125019Y-7430542D02*
X15125019Y-7330542D01*
X15086923Y-7330542D01*
X15077400Y-7335304D01*
X15072638Y-7340066D01*
X15067876Y-7349590D01*
X15067876Y-7363875D01*
X15072638Y-7373399D01*
X15077400Y-7378161D01*
X15086923Y-7382923D01*
X15125019Y-7382923D01*
X15005971Y-7330542D02*
X14986923Y-7330542D01*
X14977400Y-7335304D01*
X14967876Y-7344828D01*
X14963114Y-7363875D01*
X14963114Y-7397209D01*
X14967876Y-7416256D01*
X14977400Y-7425780D01*
X14986923Y-7430542D01*
X15005971Y-7430542D01*
X15015495Y-7425780D01*
X15025019Y-7416256D01*
X15029781Y-7397209D01*
X15029781Y-7363875D01*
X15025019Y-7344828D01*
X15015495Y-7335304D01*
X15005971Y-7330542D01*
X14934542Y-7330542D02*
X14877400Y-7330542D01*
X14905971Y-7430542D02*
X14905971Y-7330542D01*
X16633185Y-13582173D02*
X16556995Y-13582173D01*
X16595090Y-13620268D02*
X16595090Y-13544078D01*
X16894805Y-13577093D02*
X16818615Y-13577093D01*
D13*
X15968498Y-7009678D02*
X15968498Y-6952535D01*
X15968498Y-6981107D02*
X15868498Y-6981107D01*
X15882784Y-6971583D01*
X15892308Y-6962059D01*
X15897069Y-6952535D01*
X15868498Y-7071583D02*
X15868498Y-7081107D01*
X15873260Y-7090631D01*
X15878022Y-7095393D01*
X15887546Y-7100155D01*
X15906593Y-7104916D01*
X15930403Y-7104916D01*
X15949450Y-7100155D01*
X15958974Y-7095393D01*
X15963736Y-7090631D01*
X15968498Y-7081107D01*
X15968498Y-7071583D01*
X15963736Y-7062059D01*
X15958974Y-7057297D01*
X15949450Y-7052535D01*
X15930403Y-7047774D01*
X15906593Y-7047774D01*
X15887546Y-7052535D01*
X15878022Y-7057297D01*
X15873260Y-7062059D01*
X15868498Y-7071583D01*
X15968498Y-7147774D02*
X15868498Y-7147774D01*
X15968498Y-7204916D02*
X15911355Y-7162059D01*
X15868498Y-7204916D02*
X15925641Y-7147774D01*
D12*
X12785878Y-8305332D02*
X12785878Y-8248189D01*
X12785878Y-8276761D02*
X12685878Y-8276761D01*
X12700164Y-8267237D01*
X12709688Y-8257713D01*
X12714449Y-8248189D01*
X12685878Y-8367237D02*
X12685878Y-8376761D01*
X12690640Y-8386285D01*
X12695402Y-8391047D01*
X12704926Y-8395809D01*
X12723973Y-8400571D01*
X12747783Y-8400571D01*
X12766830Y-8395809D01*
X12776354Y-8391047D01*
X12781116Y-8386285D01*
X12785878Y-8376761D01*
X12785878Y-8367237D01*
X12781116Y-8357713D01*
X12776354Y-8352951D01*
X12766830Y-8348189D01*
X12747783Y-8343428D01*
X12723973Y-8343428D01*
X12704926Y-8348189D01*
X12695402Y-8352951D01*
X12690640Y-8357713D01*
X12685878Y-8367237D01*
X12785878Y-8500571D02*
X12738259Y-8467237D01*
X12785878Y-8443428D02*
X12685878Y-8443428D01*
X12685878Y-8481523D01*
X12690640Y-8491047D01*
X12695402Y-8495809D01*
X12704926Y-8500571D01*
X12719211Y-8500571D01*
X12728735Y-8495809D01*
X12733497Y-8491047D01*
X12738259Y-8481523D01*
X12738259Y-8443428D01*
D13*
X15358084Y-6959393D02*
X15353322Y-6964155D01*
X15348560Y-6973679D01*
X15348560Y-6997489D01*
X15353322Y-7007013D01*
X15358084Y-7011774D01*
X15367608Y-7016536D01*
X15377131Y-7016536D01*
X15391417Y-7011774D01*
X15448560Y-6954632D01*
X15448560Y-7016536D01*
X15358084Y-7054632D02*
X15353322Y-7059393D01*
X15348560Y-7068917D01*
X15348560Y-7092727D01*
X15353322Y-7102251D01*
X15358084Y-7107013D01*
X15367608Y-7111774D01*
X15377131Y-7111774D01*
X15391417Y-7107013D01*
X15448560Y-7049870D01*
X15448560Y-7111774D01*
X15448560Y-7154632D02*
X15348560Y-7154632D01*
X15448560Y-7211774D02*
X15391417Y-7168917D01*
X15348560Y-7211774D02*
X15405703Y-7154632D01*
D12*
X17290952Y-11048790D02*
X17286190Y-11053551D01*
X17281428Y-11063075D01*
X17281428Y-11086885D01*
X17286190Y-11096409D01*
X17290952Y-11101171D01*
X17300476Y-11105932D01*
X17310000Y-11105932D01*
X17324285Y-11101171D01*
X17381428Y-11044028D01*
X17381428Y-11105932D01*
X17290952Y-11144028D02*
X17286190Y-11148790D01*
X17281428Y-11158313D01*
X17281428Y-11182123D01*
X17286190Y-11191647D01*
X17290952Y-11196409D01*
X17300476Y-11201170D01*
X17310000Y-11201170D01*
X17324285Y-11196409D01*
X17381428Y-11139266D01*
X17381428Y-11201170D01*
X17381428Y-11244028D02*
X17281428Y-11244028D01*
X17381428Y-11301170D02*
X17324285Y-11258313D01*
X17281428Y-11301170D02*
X17338571Y-11244028D01*
D13*
X16108686Y-6970493D02*
X16103924Y-6975255D01*
X16099162Y-6984779D01*
X16099162Y-7008589D01*
X16103924Y-7018113D01*
X16108686Y-7022874D01*
X16118210Y-7027636D01*
X16127733Y-7027636D01*
X16142019Y-7022874D01*
X16199162Y-6965732D01*
X16199162Y-7027636D01*
X16108686Y-7065732D02*
X16103924Y-7070493D01*
X16099162Y-7080017D01*
X16099162Y-7103827D01*
X16103924Y-7113351D01*
X16108686Y-7118113D01*
X16118210Y-7122874D01*
X16127733Y-7122874D01*
X16142019Y-7118113D01*
X16199162Y-7060970D01*
X16199162Y-7122874D01*
X16199162Y-7165732D02*
X16099162Y-7165732D01*
X16199162Y-7222874D02*
X16142019Y-7180017D01*
X16099162Y-7222874D02*
X16156305Y-7165732D01*
D12*
X15812715Y-7592118D02*
X15869858Y-7592118D01*
X15841287Y-7592118D02*
X15841287Y-7492118D01*
X15850811Y-7506404D01*
X15860334Y-7515928D01*
X15869858Y-7520689D01*
X15769858Y-7592118D02*
X15769858Y-7492118D01*
X15736525Y-7563547D01*
X15703192Y-7492118D01*
X15703192Y-7592118D01*
X16720658Y-12725680D02*
X16777801Y-12725680D01*
X16749230Y-12725680D02*
X16749230Y-12625680D01*
X16758754Y-12639966D01*
X16768278Y-12649490D01*
X16777801Y-12654251D01*
X16677801Y-12725680D02*
X16677801Y-12625680D01*
X16620658Y-12725680D02*
X16663516Y-12668537D01*
X16620658Y-12625680D02*
X16677801Y-12682823D01*
D13*
X16856848Y-7304252D02*
X16852086Y-7299490D01*
X16842562Y-7294728D01*
X16818752Y-7294728D01*
X16809229Y-7299490D01*
X16804467Y-7304252D01*
X16799705Y-7313776D01*
X16799705Y-7323299D01*
X16804467Y-7337585D01*
X16861610Y-7394728D01*
X16799705Y-7394728D01*
X16709228Y-7294728D02*
X16756848Y-7294728D01*
X16761609Y-7342347D01*
X16756848Y-7337585D01*
X16747324Y-7332823D01*
X16723514Y-7332823D01*
X16713990Y-7337585D01*
X16709228Y-7342347D01*
X16704467Y-7351871D01*
X16704467Y-7375680D01*
X16709228Y-7385204D01*
X16713990Y-7389966D01*
X16723514Y-7394728D01*
X16747324Y-7394728D01*
X16756848Y-7389966D01*
X16761609Y-7385204D01*
X16642562Y-7294728D02*
X16633038Y-7294728D01*
X16623514Y-7299490D01*
X16618752Y-7304252D01*
X16613990Y-7313776D01*
X16609228Y-7332823D01*
X16609228Y-7356633D01*
X16613990Y-7375680D01*
X16618752Y-7385204D01*
X16623514Y-7389966D01*
X16633038Y-7394728D01*
X16642562Y-7394728D01*
X16652086Y-7389966D01*
X16656848Y-7385204D01*
X16661609Y-7375680D01*
X16666371Y-7356633D01*
X16666371Y-7332823D01*
X16661609Y-7313776D01*
X16656848Y-7304252D01*
X16652086Y-7299490D01*
X16642562Y-7294728D01*
X16523514Y-7328061D02*
X16523514Y-7394728D01*
X16566371Y-7328061D02*
X16566371Y-7380442D01*
X16561609Y-7389966D01*
X16552086Y-7394728D01*
X16537800Y-7394728D01*
X16528276Y-7389966D01*
X16523514Y-7385204D01*
D12*
X14202436Y-7199480D02*
X14202436Y-7142337D01*
X14202436Y-7170909D02*
X14102436Y-7170909D01*
X14116722Y-7161385D01*
X14126246Y-7151861D01*
X14131007Y-7142337D01*
X14102436Y-7261385D02*
X14102436Y-7280433D01*
X14107198Y-7289957D01*
X14116722Y-7299480D01*
X14135769Y-7304242D01*
X14169103Y-7304242D01*
X14188150Y-7299480D01*
X14197674Y-7289957D01*
X14202436Y-7280433D01*
X14202436Y-7261385D01*
X14197674Y-7251861D01*
X14188150Y-7242337D01*
X14169103Y-7237576D01*
X14135769Y-7237576D01*
X14116722Y-7242337D01*
X14107198Y-7251861D01*
X14102436Y-7261385D01*
X14135769Y-7389957D02*
X14202436Y-7389957D01*
X14135769Y-7347099D02*
X14188150Y-7347099D01*
X14197674Y-7351861D01*
X14202436Y-7361385D01*
X14202436Y-7375671D01*
X14197674Y-7385195D01*
X14192912Y-7389957D01*
D13*
X18005578Y-11082314D02*
X18005578Y-11025171D01*
X18005578Y-11053743D02*
X17905578Y-11053743D01*
X17919864Y-11044219D01*
X17929388Y-11034695D01*
X17934150Y-11025171D01*
X17905578Y-11144219D02*
X17905578Y-11153743D01*
X17910340Y-11163267D01*
X17915102Y-11168029D01*
X17924626Y-11172791D01*
X17943673Y-11177552D01*
X17967483Y-11177552D01*
X17986531Y-11172791D01*
X17996054Y-11168029D01*
X18000816Y-11163267D01*
X18005578Y-11153743D01*
X18005578Y-11144219D01*
X18000816Y-11134695D01*
X17996054Y-11129933D01*
X17986531Y-11125171D01*
X17967483Y-11120410D01*
X17943673Y-11120410D01*
X17924626Y-11125171D01*
X17915102Y-11129933D01*
X17910340Y-11134695D01*
X17905578Y-11144219D01*
X17938911Y-11263267D02*
X18005578Y-11263267D01*
X17938911Y-11220409D02*
X17991292Y-11220409D01*
X18000816Y-11225171D01*
X18005578Y-11234695D01*
X18005578Y-11248981D01*
X18000816Y-11258505D01*
X17996054Y-11263267D01*
X17925238Y-8589995D02*
X17925238Y-8532852D01*
X17925238Y-8561424D02*
X17825238Y-8561424D01*
X17839524Y-8551900D01*
X17849048Y-8542376D01*
X17853810Y-8532852D01*
X17825238Y-8651900D02*
X17825238Y-8661424D01*
X17830000Y-8670948D01*
X17834762Y-8675710D01*
X17844286Y-8680472D01*
X17863333Y-8685233D01*
X17887143Y-8685233D01*
X17906191Y-8680472D01*
X17915714Y-8675710D01*
X17920476Y-8670948D01*
X17925238Y-8661424D01*
X17925238Y-8651900D01*
X17920476Y-8642376D01*
X17915714Y-8637614D01*
X17906191Y-8632852D01*
X17887143Y-8628091D01*
X17863333Y-8628091D01*
X17844286Y-8632852D01*
X17834762Y-8637614D01*
X17830000Y-8642376D01*
X17825238Y-8651900D01*
X17825238Y-8747138D02*
X17825238Y-8756662D01*
X17830000Y-8766186D01*
X17834762Y-8770948D01*
X17844286Y-8775710D01*
X17863333Y-8780472D01*
X17887143Y-8780472D01*
X17906191Y-8775710D01*
X17915714Y-8770948D01*
X17920476Y-8766186D01*
X17925238Y-8756662D01*
X17925238Y-8747138D01*
X17920476Y-8737614D01*
X17915714Y-8732852D01*
X17906191Y-8728091D01*
X17887143Y-8723329D01*
X17863333Y-8723329D01*
X17844286Y-8728091D01*
X17834762Y-8732852D01*
X17830000Y-8737614D01*
X17825238Y-8747138D01*
X17858571Y-8866186D02*
X17925238Y-8866186D01*
X17858571Y-8823329D02*
X17910952Y-8823329D01*
X17920476Y-8828091D01*
X17925238Y-8837614D01*
X17925238Y-8851900D01*
X17920476Y-8861424D01*
X17915714Y-8866186D01*
X14427302Y-7147099D02*
X14427302Y-7156623D01*
X14432064Y-7166147D01*
X14436826Y-7170909D01*
X14446350Y-7175671D01*
X14465397Y-7180433D01*
X14489207Y-7180433D01*
X14508254Y-7175671D01*
X14517778Y-7170909D01*
X14522540Y-7166147D01*
X14527302Y-7156623D01*
X14527302Y-7147099D01*
X14522540Y-7137576D01*
X14517778Y-7132814D01*
X14508254Y-7128052D01*
X14489207Y-7123290D01*
X14465397Y-7123290D01*
X14446350Y-7128052D01*
X14436826Y-7132814D01*
X14432064Y-7137576D01*
X14427302Y-7147099D01*
X14517778Y-7223290D02*
X14522540Y-7228052D01*
X14527302Y-7223290D01*
X14522540Y-7218528D01*
X14517778Y-7223290D01*
X14527302Y-7223290D01*
X14527302Y-7323290D02*
X14527302Y-7266147D01*
X14527302Y-7294718D02*
X14427302Y-7294718D01*
X14441588Y-7285195D01*
X14451112Y-7275671D01*
X14455873Y-7266147D01*
X14460635Y-7409004D02*
X14527302Y-7409004D01*
X14460635Y-7366147D02*
X14513016Y-7366147D01*
X14522540Y-7370909D01*
X14527302Y-7380433D01*
X14527302Y-7394718D01*
X14522540Y-7404242D01*
X14517778Y-7409004D01*
X12304418Y-10838968D02*
X12361560Y-10838968D01*
X12332989Y-10838968D02*
X12332989Y-10738968D01*
X12342513Y-10753254D01*
X12352037Y-10762778D01*
X12361560Y-10767540D01*
X12242513Y-10738968D02*
X12223465Y-10738968D01*
X12213941Y-10743730D01*
X12204418Y-10753254D01*
X12199656Y-10772301D01*
X12199656Y-10805635D01*
X12204418Y-10824682D01*
X12213941Y-10834206D01*
X12223465Y-10838968D01*
X12242513Y-10838968D01*
X12252037Y-10834206D01*
X12261560Y-10824682D01*
X12266322Y-10805635D01*
X12266322Y-10772301D01*
X12261560Y-10753254D01*
X12252037Y-10743730D01*
X12242513Y-10738968D01*
X12113941Y-10772301D02*
X12113941Y-10838968D01*
X12156799Y-10772301D02*
X12156799Y-10824682D01*
X12152037Y-10834206D01*
X12142513Y-10838968D01*
X12128227Y-10838968D01*
X12118703Y-10834206D01*
X12113941Y-10829444D01*
X12320118Y-8833220D02*
X12320118Y-8842744D01*
X12324880Y-8852268D01*
X12329642Y-8857030D01*
X12339166Y-8861792D01*
X12358213Y-8866554D01*
X12382023Y-8866554D01*
X12401070Y-8861792D01*
X12410594Y-8857030D01*
X12415356Y-8852268D01*
X12420118Y-8842744D01*
X12420118Y-8833220D01*
X12415356Y-8823697D01*
X12410594Y-8818935D01*
X12401070Y-8814173D01*
X12382023Y-8809411D01*
X12358213Y-8809411D01*
X12339166Y-8814173D01*
X12329642Y-8818935D01*
X12324880Y-8823697D01*
X12320118Y-8833220D01*
X12410594Y-8909411D02*
X12415356Y-8914173D01*
X12420118Y-8909411D01*
X12415356Y-8904649D01*
X12410594Y-8909411D01*
X12420118Y-8909411D01*
X12329642Y-8952268D02*
X12324880Y-8957030D01*
X12320118Y-8966554D01*
X12320118Y-8990363D01*
X12324880Y-8999887D01*
X12329642Y-9004649D01*
X12339166Y-9009411D01*
X12348689Y-9009411D01*
X12362975Y-9004649D01*
X12420118Y-8947506D01*
X12420118Y-9009411D01*
X12329642Y-9047506D02*
X12324880Y-9052268D01*
X12320118Y-9061792D01*
X12320118Y-9085601D01*
X12324880Y-9095125D01*
X12329642Y-9099887D01*
X12339166Y-9104649D01*
X12348689Y-9104649D01*
X12362975Y-9099887D01*
X12420118Y-9042744D01*
X12420118Y-9104649D01*
X12353451Y-9190363D02*
X12420118Y-9190363D01*
X12353451Y-9147506D02*
X12405832Y-9147506D01*
X12415356Y-9152268D01*
X12420118Y-9161792D01*
X12420118Y-9176078D01*
X12415356Y-9185601D01*
X12410594Y-9190363D01*
M02*
