G04 #@! TF.FileFunction,Soldermask,Top*
%FSLAX45Y45*%
G04 Gerber Fmt 4.5, Leading zero omitted, Abs format (unit mm)*
G04 Created by KiCad (PCBNEW 4.0.7-e2-6376~58~ubuntu16.04.1) date Thu Oct 12 10:32:20 2017*
%MOMM*%
%LPD*%
G01*
G04 APERTURE LIST*
%ADD10C,0.020000*%
%ADD11R,2.600000X2.600000*%
%ADD12O,2.600000X2.600000*%
%ADD13C,3.900000*%
%ADD14C,3.400000*%
%ADD15R,3.400000X3.400000*%
%ADD16C,1.840000*%
%ADD17R,2.200000X2.200000*%
%ADD18C,2.200000*%
%ADD19C,1.800000*%
%ADD20O,1.800000X1.800000*%
%ADD21C,2.000000*%
%ADD22O,2.000000X2.000000*%
%ADD23O,2.200000X2.200000*%
%ADD24R,2.000000X2.000000*%
%ADD25C,2.400000*%
%ADD26R,2.400000X2.400000*%
%ADD27R,3.900000X3.900000*%
%ADD28C,2.650000*%
%ADD29C,1.400000*%
G04 APERTURE END LIST*
D10*
D11*
X12135358Y-11183112D03*
D12*
X12389358Y-11183112D03*
D13*
X11757096Y-12548600D03*
X11757096Y-12038600D03*
X13087096Y-12768600D03*
X13087096Y-12293600D03*
X13087096Y-11818600D03*
D14*
X12257278Y-10253472D03*
D15*
X12257278Y-9745472D03*
D16*
X15254732Y-7281164D03*
X15000732Y-7027164D03*
X14746732Y-7281164D03*
D15*
X17730000Y-7350000D03*
D14*
X17730000Y-7858000D03*
D15*
X17730000Y-10254000D03*
D14*
X17730000Y-9746000D03*
D17*
X16856710Y-13425170D03*
D18*
X16602710Y-13425170D03*
D19*
X15786100Y-7177786D03*
D20*
X15786100Y-6987786D03*
D14*
X11720000Y-13275000D03*
X18275000Y-13275000D03*
X18275000Y-6720000D03*
X11720000Y-6720000D03*
D21*
X12739624Y-7441184D03*
D22*
X12739624Y-8711184D03*
D17*
X13799820Y-7593330D03*
D23*
X13629820Y-7223330D03*
X13459820Y-7593330D03*
X13289820Y-7223330D03*
X13119820Y-7593330D03*
D19*
X15544800Y-6996684D03*
D20*
X15544800Y-7186684D03*
D19*
X17522190Y-11269980D03*
D20*
X17522190Y-11079980D03*
D19*
X16028924Y-6996684D03*
D20*
X16028924Y-7186684D03*
D19*
X15884144Y-7421880D03*
D20*
X15694144Y-7421880D03*
D24*
X16325850Y-12813030D03*
D22*
X16579850Y-12813030D03*
X16833850Y-12813030D03*
X17087850Y-12813030D03*
D25*
X16445484Y-7527036D03*
D26*
X16945484Y-7527036D03*
D21*
X14157198Y-7018528D03*
X14157198Y-7518528D03*
X17960340Y-10896600D03*
X17960340Y-11396600D03*
X17730000Y-8851900D03*
D24*
X17730000Y-8601900D03*
D21*
X14482064Y-7518528D03*
X14482064Y-7018528D03*
X12485370Y-10793730D03*
X11985370Y-10793730D03*
X12257278Y-9253220D03*
X12257278Y-8753220D03*
D27*
X17579340Y-12293600D03*
X18179340Y-12293600D03*
X17879340Y-12763600D03*
D28*
X11234800Y-7701400D03*
X11564800Y-7211400D03*
X12309800Y-7266400D03*
X11879800Y-7941400D03*
X12019800Y-8191400D03*
D29*
X15197328Y-7085076D03*
M02*
