999
dxfrw 0.6.3
  0
SECTION
  2
HEADER
  9
$ACADVER
  1
AC1009
  9
$DWGCODEPAGE
  3
ANSI_1252
  9
$INSBASE
 10
0
 20
0
 30
0
  9
$EXTMIN
 10
-17.470879
 20
-32.980742
 30
0
  9
$EXTMAX
 10
17.470879
 20
37.461014
 30
0
  9
$LIMMIN
 10
0
 20
0
  9
$LIMMAX
 10
420
 20
297
  9
$ORTHOMODE
 70
    0
  9
$REGENMODE
 70
    1
  9
$FILLMODE
 70
    1
  9
$QTEXTMODE
 70
    0
  9
$MIRRTEXT
 70
    0
  9
$DRAGMODE
 70
    2
  9
$LTSCALE
 40
1
  9
$OSMODE
 70
    0
  9
$ATTMODE
 70
    0
  9
$TEXTSIZE
 40
2.5
  9
$TRACEWID
 40
15.68
  9
$TEXTSTYLE
  7
STANDARD
  9
$CLAYER
  8
0
  9
$CELTYPE
  6
BYLAYER
  9
$CECOLOR
 62
  256
  9
$DIMSCALE
 40
2.5
  9
$DIMASZ
 40
2.5
  9
$DIMEXO
 40
0.625
  9
$DIMDLI
 40
3.75
  9
$DIMRND
 40
0
  9
$DIMDLE
 40
0
  9
$DIMEXE
 40
1.25
  9
$DIMTP
 40
0
  9
$DIMTM
 40
0
  9
$DIMTXT
 40
2.5
  9
$DIMCEN
 40
2.5
  9
$DIMTSZ
 40
0
  9
$DIMTOL
 70
    0
  9
$DIMLIM
 70
    0
  9
$DIMTIH
 70
    0
  9
$DIMTOH
 70
    0
  9
$DIMSE1
 70
    0
  9
$DIMSE2
 70
    0
  9
$DIMTAD
 70
    1
  9
$DIMZIN
 70
    8
  9
$DIMBLK
  1

  9
$DIMASO
 70
    1
  9
$DIMSHO
 70
    1
  9
$DIMPOST
  1

  9
$DIMAPOST
  1

  9
$DIMALT
 70
    0
  9
$DIMALTD
 70
    3
  9
$DIMALTF
 40
0.03937
  9
$DIMLFAC
 40
1
  9
$DIMTOFL
 70
    1
  9
$DIMTVP
 40
0
  9
$DIMTIX
 70
    0
  9
$DIMSOXD
 70
    0
  9
$DIMSAH
 70
    0
  9
$DIMBLK1
  1

  9
$DIMBLK2
  1

  9
$DIMSTYLE
  2
STANDARD
  9
$DIMCLRD
 70
    0
  9
$DIMCLRE
 70
    0
  9
$DIMCLRT
 70
    0
  9
$DIMTFAC
 40
1
  9
$DIMGAP
 40
0.625
  9
$LUNITS
 70
    2
  9
$LUPREC
 70
    4
  9
$SKETCHINC
 40
1
  9
$FILLETRAD
 40
0
  9
$AUNITS
 70
    0
  9
$AUPREC
 70
    2
  9
$MENU
  1
.
  9
$ELEVATION
 40
0
  9
$PELEVATION
 40
0
  9
$THICKNESS
 40
0
  9
$LIMCHECK
 70
    0
  9
$BLIPMODE
 70
    0
  9
$CHAMFERA
 40
0
  9
$CHAMFERB
 40
0
  9
$SKPOLY
 70
    0
  9
$USRTIMER
 70
    1
  9
$ANGBASE
 50
0
  9
$ANGDIR
 70
    0
  9
$PDMODE
 70
   34
  9
$PDSIZE
 40
0
  9
$PLINEWID
 40
0
  9
$COORDS
 70
    2
  9
$SPLFRAME
 70
    0
  9
$SPLINETYPE
 70
    2
  9
$SPLINESEGS
 70
    8
  9
$ATTDIA
 70
    1
  9
$ATTREQ
 70
    1
  9
$HANDLING
 70
    1
  9
$HANDSEED
  5
20000
  9
$SURFTAB1
 70
    6
  9
$SURFTAB2
 70
    6
  9
$SURFTYPE
 70
    6
  9
$SURFU
 70
    6
  9
$SURFV
 70
    6
  9
$UCSNAME
  2

  9
$UCSORG
 10
0
 20
0
 30
0
  9
$UCSXDIR
 10
1
 20
0
 30
0
  9
$UCSYDIR
 10
0
 20
1
 30
0
  9
$PUCSNAME
  2

  9
$PUCSORG
 10
0
 20
0
 30
0
  9
$PUCSXDIR
 10
1
 20
0
 30
0
  9
$PUCSYDIR
 10
0
 20
1
 30
0
  9
$USERI1
 70
    0
  9
$USERI2
 70
    0
  9
$USERI3
 70
    0
  9
$USERI4
 70
    0
  9
$USERI5
 70
    0
  9
$USERR1
 40
0
  9
$USERR2
 40
0
  9
$USERR3
 40
0
  9
$USERR4
 40
0
  9
$USERR5
 40
0
  9
$WORLDVIEW
 70
    1
  9
$SHADEDGE
 70
    3
  9
$SHADEDIF
 70
   70
  9
$TILEMODE
 70
    1
  9
$MAXACTVP
 70
   64
  9
$PLIMCHECK
 70
    0
  9
$PEXTMIN
 10
0
 20
0
 30
0
  9
$PEXTMAX
 10
0
 20
0
 30
0
  9
$GRIDMODE
 70
    0
  9
$SNAPSTYLE
 70
    0
  9
$PLIMMIN
 10
0
 20
0
  9
$PLIMMAX
 10
210
 20
297
  9
$UNITMODE
 70
    0
  9
$VISRETAIN
 70
    1
  9
$PLINEGEN
 70
    0
  9
$PSLTSCALE
 70
    1
  0
ENDSEC
  0
SECTION
  2
TABLES
  0
TABLE
  2
VPORT
 70
    1
  0
VPORT
  2
*ACTIVE
 70
    0
 10
0
 20
0
 11
1
 21
1
 12
41.00666766986567
 22
23.59170211132439
 13
0
 23
0
 14
10
 24
10
 15
10
 25
10
 16
0
 26
0
 36
1
 17
0
 27
0
 37
0
 40
89.39110400000007
 41
2.113243761996161
 42
50
 43
0
 44
0
 50
0
 51
0
 71
    0
 72
  100
 73
    1
 74
    3
 75
    0
 76
    0
 77
    0
 78
    0
  0
ENDTAB
  0
TABLE
  2
LTYPE
 70
    4
  0
LTYPE
  2
BYBLOCK
 70
    0
  3

 72
   65
 73
    0
 40
0
  0
LTYPE
  2
BYLAYER
 70
    0
  3

 72
   65
 73
    0
 40
0
  0
LTYPE
  2
CONTINUOUS
 70
    0
  3
Solid line
 72
   65
 73
    0
 40
0
  0
LTYPE
  2
DOT
 70
    0
  3
Dot . . . . . . . . . . . . . . . . . . . . . .
 72
   65
 73
    2
 40
6.35
 49
0
 49
-6.35
  0
LTYPE
  2
DOTTINY
 70
    0
  3
Dot (.15x) .....................................
 72
   65
 73
    2
 40
0.9525
 49
0
 49
-0.9525
  0
LTYPE
  2
DOT2
 70
    0
  3
Dot (.5x) .....................................
 72
   65
 73
    2
 40
3.175
 49
0
 49
-3.175
  0
LTYPE
  2
DOTX2
 70
    0
  3
Dot (2x) .  .  .  .  .  .  .  .  .  .  .  .  .
 72
   65
 73
    2
 40
12.7
 49
0
 49
-12.7
  0
LTYPE
  2
DASHED
 70
    0
  3
Dashed _ _ _ _ _ _ _ _ _ _ _ _ _ _ _ _ _
 72
   65
 73
    2
 40
19.05
 49
12.7
 49
-6.35
  0
LTYPE
  2
DASHEDTINY
 70
    0
  3
Dashed (.15x) _ _ _ _ _ _ _ _ _ _ _ _ _ _ _ _ _
 72
   65
 73
    2
 40
2.8575
 49
1.905
 49
-0.9525
  0
LTYPE
  2
DASHED2
 70
    0
  3
Dashed (.5x) _ _ _ _ _ _ _ _ _ _ _ _ _ _ _ _ _
 72
   65
 73
    2
 40
9.524999999999999
 49
6.35
 49
-3.175
  0
LTYPE
  2
DASHEDX2
 70
    0
  3
Dashed (2x) ____  ____  ____  ____  ____  ___
 72
   65
 73
    2
 40
38.09999999999999
 49
25.4
 49
-12.7
  0
LTYPE
  2
DASHDOT
 70
    0
  3
Dash dot __ . __ . __ . __ . __ . __ . __ . __
 72
   65
 73
    4
 40
25.4
 49
12.7
 49
-6.35
 49
0
 49
-6.35
  0
LTYPE
  2
DASHDOTTINY
 70
    0
  3
Dash dot (.15x) _._._._._._._._._._._._._._._.
 72
   65
 73
    4
 40
3.81
 49
1.905
 49
-0.9525
 49
0
 49
-0.9525
  0
LTYPE
  2
DASHDOT2
 70
    0
  3
Dash dot (.5x) _._._._._._._._._._._._._._._.
 72
   65
 73
    4
 40
12.7
 49
6.35
 49
-3.175
 49
0
 49
-3.175
  0
LTYPE
  2
DASHDOTX2
 70
    0
  3
Dash dot (2x) ____  .  ____  .  ____  .  ___
 72
   65
 73
    4
 40
50.8
 49
25.4
 49
-12.7
 49
0
 49
-12.7
  0
LTYPE
  2
DIVIDE
 70
    0
  3
Divide ____ . . ____ . . ____ . . ____ . . ____
 72
   65
 73
    6
 40
31.75
 49
12.7
 49
-6.35
 49
0
 49
-6.35
 49
0
 49
-6.35
  0
LTYPE
  2
DIVIDETINY
 70
    0
  3
Divide (.15x) __..__..__..__..__..__..__..__.._
 72
   65
 73
    6
 40
4.7625
 49
1.905
 49
-0.9525
 49
0
 49
-0.9525
 49
0
 49
-0.9525
  0
LTYPE
  2
DIVIDE2
 70
    0
  3
Divide (.5x) __..__..__..__..__..__..__..__.._
 72
   65
 73
    6
 40
15.875
 49
6.35
 49
-3.175
 49
0
 49
-3.175
 49
0
 49
-3.175
  0
LTYPE
  2
DIVIDEX2
 70
    0
  3
Divide (2x) ________  .  .  ________  .  .  _
 72
   65
 73
    6
 40
63.5
 49
25.4
 49
-12.7
 49
0
 49
-12.7
 49
0
 49
-12.7
  0
LTYPE
  2
BORDER
 70
    0
  3
Border __ __ . __ __ . __ __ . __ __ . __ __ .
 72
   65
 73
    6
 40
44.45
 49
12.7
 49
-6.35
 49
12.7
 49
-6.35
 49
0
 49
-6.35
  0
LTYPE
  2
BORDERTINY
 70
    0
  3
Border (.15x) __.__.__.__.__.__.__.__.__.__.__.
 72
   65
 73
    6
 40
6.6675
 49
1.905
 49
-0.9525
 49
1.905
 49
-0.9525
 49
0
 49
-0.9525
  0
LTYPE
  2
BORDER2
 70
    0
  3
Border (.5x) __.__.__.__.__.__.__.__.__.__.__.
 72
   65
 73
    6
 40
22.225
 49
6.35
 49
-3.175
 49
6.35
 49
-3.175
 49
0
 49
-3.175
  0
LTYPE
  2
BORDERX2
 70
    0
  3
Border (2x) ____  ____  .  ____  ____  .  ___
 72
   65
 73
    6
 40
88.89999999999999
 49
25.4
 49
-12.7
 49
25.4
 49
-12.7
 49
0
 49
-12.7
  0
LTYPE
  2
CENTER
 70
    0
  3
Center ____ _ ____ _ ____ _ ____ _ ____ _ ____
 72
   65
 73
    4
 40
50.8
 49
31.75
 49
-6.35
 49
6.35
 49
-6.35
  0
LTYPE
  2
CENTERTINY
 70
    0
  3
Center (.15x) ___ _ ___ _ ___ _ ___ _ ___ _ ___
 72
   65
 73
    4
 40
7.619999999999999
 49
4.7625
 49
-0.9525
 49
0.9525
 49
-0.9525
  0
LTYPE
  2
CENTER2
 70
    0
  3
Center (.5x) ___ _ ___ _ ___ _ ___ _ ___ _ ___
 72
   65
 73
    4
 40
28.575
 49
19.05
 49
-3.175
 49
3.175
 49
-3.175
  0
LTYPE
  2
CENTERX2
 70
    0
  3
Center (2x) ________  __  ________  __  _____
 72
   65
 73
    4
 40
101.6
 49
63.5
 49
-12.7
 49
12.7
 49
-12.7
  0
ENDTAB
  0
TABLE
  2
LAYER
 70
    1
  0
LAYER
  2
0
 70
    0
 62
    7
  6
CONTINUOUS
  0
LAYER
  2
CAPA_1
 70
    0
 62
    7
  6
CONTINUOUS
  0
LAYER
  2
AUX
 70
    0
 62
    7
  6
CONTINUOUS
  0
ENDTAB
  0
TABLE
  2
STYLE
 70
    3
  0
STYLE
  2
STANDARD
 70
    0
 40
0
 41
1
 50
0
 71
    0
 42
1
  3
TXT
  4

  0
ENDTAB
  0
TABLE
  2
VIEW
 70
    0
  0
ENDTAB
  0
TABLE
  2
UCS
 70
    0
  0
ENDTAB
  0
TABLE
  2
APPID
 70
    1
  0
APPID
  2
ACAD
 70
    0
  0
APPID
  2
LIBRECAD
 70
    0
  0
ENDTAB
  0
TABLE
  2
DIMSTYLE
 70
    1
  0
DIMSTYLE
  2
STANDARD
 70
    0
  3

  4

  5

  6

  7

 40
1
 41
2.5
 42
0.625
 43
0.38
 44
1.25
 45
0
 46
0
 47
0
 48
0
 49
1
140
2.5
141
0.09
142
2.5
143
25.4
144
1
145
0
146
1
147
0.625
 71
    0
 72
    0
 73
    0
 74
    1
 75
    0
 76
    0
 77
    0
 78
    1
170
    0
171
    2
172
    0
173
    0
174
    0
175
    0
176
    0
177
    0
178
    0
  0
ENDTAB
  0
ENDSEC
  0
SECTION
  2
BLOCKS
  0
BLOCK
  8
0
  2
$MODEL_SPACE
 70
    0
 10
0
 20
0
 30
0
  3
$MODEL_SPACE
  1

  0
ENDBLK
  8
0
  0
BLOCK
  8
0
  2
$PAPER_SPACE
 70
    0
 10
0
 20
0
 30
0
  3
$PAPER_SPACE
  1

  0
ENDBLK
  8
0
  0
ENDSEC
  0
SECTION
  2
ENTITIES
  0
LINE
  5
31
  8
CAPA_1
  6
BYLAYER
 62
    7
 10
-11.019749
 20
37.461014
 11
11.019748
 21
37.461014
  0
LINE
  5
32
  8
CAPA_1
  6
BYLAYER
 62
    7
 10
17.470879
 20
31.397418
 11
17.470879
 21
-26.917141
  0
LINE
  5
33
  8
CAPA_1
  6
BYLAYER
 62
    7
 10
11.019748
 20
-32.980742
 11
-11.019749
 21
-32.980742
  0
LINE
  5
34
  8
CAPA_1
  6
BYLAYER
 62
    7
 10
-17.470879
 20
-26.917141
 11
-17.470879
 21
31.397418
  0
LINE
  5
35
  8
CAPA_1
  6
BYLAYER
 62
    7
 10
-11.019749
 20
37.461014
 11
-11.019749
 21
37.461014
  0
LINE
  5
36
  8
CAPA_1
  6
BYLAYER
 62
    7
 10
11.019748
 20
37.461014
 11
11.23499202500891
 21
37.43008004370179
  0
LINE
  5
37
  8
CAPA_1
  6
BYLAYER
 62
    7
 10
11.23499202500891
 20
37.43008004370179
 11
11.44932553370641
 21
37.39875320701578
  0
LINE
  5
38
  8
CAPA_1
  6
BYLAYER
 62
    7
 10
11.44932553370641
 20
37.39875320701578
 11
11.66261950638587
 21
37.36652861272309
  0
LINE
  5
39
  8
CAPA_1
  6
BYLAYER
 62
    7
 10
11.66261950638587
 20
37.36652861272309
 11
11.87474492334069
 21
37.33290138360479
  0
LINE
  5
3A
  8
CAPA_1
  6
BYLAYER
 62
    7
 10
11.87474492334069
 20
37.33290138360479
 11
12.08557276486424
 21
37.29736664244195
  0
LINE
  5
3B
  8
CAPA_1
  6
BYLAYER
 62
    7
 10
12.08557276486424
 20
37.29736664244195
 11
12.29497401124992
 21
37.25941951201564
  0
LINE
  5
3C
  8
CAPA_1
  6
BYLAYER
 62
    7
 10
12.29497401124992
 20
37.25941951201564
 11
12.5028196427911
 21
37.21855511510696
  0
LINE
  5
3D
  8
CAPA_1
  6
BYLAYER
 62
    7
 10
12.5028196427911
 20
37.21855511510696
 11
12.70898063978117
 21
37.17426857449698
  0
LINE
  5
3E
  8
CAPA_1
  6
BYLAYER
 62
    7
 10
12.70898063978117
 20
37.17426857449698
 11
12.91332798251351
 21
37.12605501296677
  0
LINE
  5
3F
  8
CAPA_1
  6
BYLAYER
 62
    7
 10
12.91332798251351
 20
37.12605501296677
 11
13.11573265128151
 21
37.07340955329745
  0
LINE
  5
40
  8
CAPA_1
  6
BYLAYER
 62
    7
 10
13.11573265128151
 20
37.07340955329745
 11
13.31606562637855
 21
37.01582731827004
  0
LINE
  5
41
  8
CAPA_1
  6
BYLAYER
 62
    7
 10
13.31606562637855
 20
37.01582731827004
 11
13.51419788809801
 21
36.95280343066565
  0
LINE
  5
42
  8
CAPA_1
  6
BYLAYER
 62
    7
 10
13.51419788809801
 20
36.95280343066565
 11
13.71000041673329
 21
36.88383301326536
  0
LINE
  5
43
  8
CAPA_1
  6
BYLAYER
 62
    7
 10
13.71000041673329
 20
36.88383301326536
 11
13.90334419257775
 21
36.80841118885024
  0
LINE
  5
44
  8
CAPA_1
  6
BYLAYER
 62
    7
 10
13.90334419257775
 20
36.80841118885024
 11
14.0941001959248
 21
36.7260330802014
  0
LINE
  5
45
  8
CAPA_1
  6
BYLAYER
 62
    7
 10
14.0941001959248
 20
36.7260330802014
 11
14.28213801128604
 21
36.63619868711894
  0
LINE
  5
46
  8
CAPA_1
  6
BYLAYER
 62
    7
 10
14.28213801128604
 20
36.63619868711894
 11
14.4672434762673
 21
36.5387006305467
  0
LINE
  5
47
  8
CAPA_1
  6
BYLAYER
 62
    7
 10
14.4672434762673
 20
36.5387006305467
 11
14.64907262077045
 21
36.43378509420118
  0
LINE
  5
48
  8
CAPA_1
  6
BYLAYER
 62
    7
 10
14.64907262077045
 20
36.43378509420118
 11
14.82727030844322
 21
36.32173727795141
  0
LINE
  5
49
  8
CAPA_1
  6
BYLAYER
 62
    7
 10
14.82727030844322
 20
36.32173727795141
 11
15.00148140293336
 21
36.20284238166639
  0
LINE
  5
4A
  8
CAPA_1
  6
BYLAYER
 62
    7
 10
15.00148140293336
 20
36.20284238166639
 11
15.17135076788862
 21
36.07738560521513
  0
LINE
  5
4B
  8
CAPA_1
  6
BYLAYER
 62
    7
 10
15.17135076788862
 20
36.07738560521513
 11
15.33652326695674
 21
35.94565214846662
  0
LINE
  5
4C
  8
CAPA_1
  6
BYLAYER
 62
    7
 10
15.33652326695674
 20
35.94565214846662
 11
15.49664376378548
 21
35.80792721128988
  0
LINE
  5
4D
  8
CAPA_1
  6
BYLAYER
 62
    7
 10
15.49664376378548
 20
35.80792721128988
 11
15.65135712202258
 21
35.66449599355393
  0
LINE
  5
4E
  8
CAPA_1
  6
BYLAYER
 62
    7
 10
15.65135712202258
 20
35.66449599355393
 11
15.80030820531578
 21
35.51564369512777
  0
LINE
  5
4F
  8
CAPA_1
  6
BYLAYER
 62
    7
 10
15.80030820531578
 20
35.51564369512777
 11
15.94314187731283
 21
35.36165551588039
  0
LINE
  5
50
  8
CAPA_1
  6
BYLAYER
 62
    7
 10
15.94314187731283
 20
35.36165551588039
 11
16.07950300166148
 21
35.20281665568083
  0
LINE
  5
51
  8
CAPA_1
  6
BYLAYER
 62
    7
 10
16.07950300166148
 20
35.20281665568083
 11
16.20903644200948
 21
35.03941231439806
  0
LINE
  5
52
  8
CAPA_1
  6
BYLAYER
 62
    7
 10
16.20903644200948
 20
35.03941231439806
 11
16.33138706200457
 21
34.87172769190112
  0
LINE
  5
53
  8
CAPA_1
  6
BYLAYER
 62
    7
 10
16.33138706200457
 20
34.87172769190112
 11
16.44619972529449
 21
34.700047988059
  0
LINE
  5
54
  8
CAPA_1
  6
BYLAYER
 62
    7
 10
16.44619972529449
 20
34.700047988059
 11
16.553119295527
 21
34.52465840274073
  0
LINE
  5
55
  8
CAPA_1
  6
BYLAYER
 62
    7
 10
16.553119295527
 20
34.52465840274073
 11
16.65183458025437
 21
34.34584034580729
  0
LINE
  5
56
  8
CAPA_1
  6
BYLAYER
 62
    7
 10
16.65183458025437
 20
34.34584034580729
 11
16.74254523491905
 21
34.16383116827679
  0
LINE
  5
57
  8
CAPA_1
  6
BYLAYER
 62
    7
 10
16.74254523491905
 20
34.16383116827679
 11
16.82578049424742
 21
33.97883979610732
  0
LINE
  5
58
  8
CAPA_1
  6
BYLAYER
 62
    7
 10
16.82578049424742
 20
33.97883979610732
 11
16.90207508595398
 21
33.79107468150603
  0
LINE
  5
59
  8
CAPA_1
  6
BYLAYER
 62
    7
 10
16.90207508595398
 20
33.79107468150603
 11
16.9719637377532
 21
33.60074427668003
  0
LINE
  5
5A
  8
CAPA_1
  6
BYLAYER
 62
    7
 10
16.9719637377532
 20
33.60074427668003
 11
17.03598117735955
 21
33.40805703383644
  0
LINE
  5
5B
  8
CAPA_1
  6
BYLAYER
 62
    7
 10
17.03598117735955
 20
33.40805703383644
 11
17.0946621324875
 21
33.21322140518238
  0
LINE
  5
5C
  8
CAPA_1
  6
BYLAYER
 62
    7
 10
17.0946621324875
 20
33.21322140518238
 11
17.14854133085155
 21
33.01644584292498
  0
LINE
  5
5D
  8
CAPA_1
  6
BYLAYER
 62
    7
 10
17.14854133085155
 20
33.01644584292498
 11
17.19815350016615
 21
32.81793879927137
  0
LINE
  5
5E
  8
CAPA_1
  6
BYLAYER
 62
    7
 10
17.19815350016615
 20
32.81793879927137
 11
17.24403336814579
 21
32.61790872642864
  0
LINE
  5
5F
  8
CAPA_1
  6
BYLAYER
 62
    7
 10
17.24403336814579
 20
32.61790872642864
 11
17.28671566250494
 21
32.41656407660393
  0
LINE
  5
60
  8
CAPA_1
  6
BYLAYER
 62
    7
 10
17.28671566250494
 20
32.41656407660393
 11
17.32673511095808
 21
32.21411330200438
  0
LINE
  5
61
  8
CAPA_1
  6
BYLAYER
 62
    7
 10
17.32673511095808
 20
32.21411330200438
 11
17.36462644121967
 21
32.01076485483708
  0
LINE
  5
62
  8
CAPA_1
  6
BYLAYER
 62
    7
 10
17.36462644121967
 20
32.01076485483708
 11
17.40092438100421
 21
31.80672718730917
  0
LINE
  5
63
  8
CAPA_1
  6
BYLAYER
 62
    7
 10
17.40092438100421
 20
31.80672718730917
 11
17.43616365802616
 21
31.60220875162777
  0
LINE
  5
64
  8
CAPA_1
  6
BYLAYER
 62
    7
 10
17.43616365802616
 20
31.60220875162777
 11
17.470879
 21
31.397418
  0
LINE
  5
65
  8
CAPA_1
  6
BYLAYER
 62
    7
 10
17.470879
 20
-26.917141
 11
17.43616386095808
 21
-27.12193268475916
  0
LINE
  5
66
  8
CAPA_1
  6
BYLAYER
 62
    7
 10
17.43616386095808
 20
-27.12193268475916
 11
17.40092480663244
 21
-27.32645200546122
  0
LINE
  5
67
  8
CAPA_1
  6
BYLAYER
 62
    7
 10
17.40092480663244
 20
-27.32645200546122
 11
17.36462710462759
 21
-27.53049051067923
  0
LINE
  5
68
  8
CAPA_1
  6
BYLAYER
 62
    7
 10
17.36462710462759
 20
-27.53049051067923
 11
17.32673602254799
 21
-27.73383974898626
  0
LINE
  5
69
  8
CAPA_1
  6
BYLAYER
 62
    7
 10
17.32673602254799
 20
-27.73383974898626
 11
17.28671682799813
 21
-27.93629126895534
  0
LINE
  5
6A
  8
CAPA_1
  6
BYLAYER
 62
    7
 10
17.28671682799813
 20
-27.93629126895534
 11
17.24403478858249
 21
-28.13763661915954
  0
LINE
  5
6B
  8
CAPA_1
  6
BYLAYER
 62
    7
 10
17.24403478858249
 20
-28.13763661915954
 11
17.19815517190555
 21
-28.33766734817189
  0
LINE
  5
6C
  8
CAPA_1
  6
BYLAYER
 62
    7
 10
17.19815517190555
 20
-28.33766734817189
 11
17.14854324557179
 21
-28.53617500456546
  0
LINE
  5
6D
  8
CAPA_1
  6
BYLAYER
 62
    7
 10
17.14854324557179
 20
-28.53617500456546
 11
17.09466427718569
 21
-28.73295113691331
  0
LINE
  5
6E
  8
CAPA_1
  6
BYLAYER
 62
    7
 10
17.09466427718569
 20
-28.73295113691331
 11
17.03598353435174
 21
-28.92778729378847
  0
LINE
  5
6F
  8
CAPA_1
  6
BYLAYER
 62
    7
 10
17.03598353435174
 20
-28.92778729378847
 11
16.9719662846744
 21
-29.12047502376401
  0
LINE
  5
70
  8
CAPA_1
  6
BYLAYER
 62
    7
 10
16.9719662846744
 20
-29.12047502376401
 11
16.90207779575817
 21
-29.31080587541297
  0
LINE
  5
71
  8
CAPA_1
  6
BYLAYER
 62
    7
 10
16.90207779575817
 20
-29.31080587541297
 11
16.82578333520752
 21
-29.4985713973084
  0
LINE
  5
72
  8
CAPA_1
  6
BYLAYER
 62
    7
 10
16.82578333520752
 20
-29.4985713973084
 11
16.74254817062693
 21
-29.68356313802336
  0
LINE
  5
73
  8
CAPA_1
  6
BYLAYER
 62
    7
 10
16.74254817062693
 20
-29.68356313802336
 11
16.65183756962089
 21
-29.86557264613091
  0
LINE
  5
74
  8
CAPA_1
  6
BYLAYER
 62
    7
 10
16.65183756962089
 20
-29.86557264613091
 11
16.55312229284214
 21
-30.0443909964531
  0
LINE
  5
75
  8
CAPA_1
  6
BYLAYER
 62
    7
 10
16.55312229284214
 20
-30.0443909964531
 11
16.44620268383932
 21
-30.21978083875201
  0
LINE
  5
76
  8
CAPA_1
  6
BYLAYER
 62
    7
 10
16.44620268383932
 20
-30.21978083875201
 11
16.33138993964969
 21
-30.39146076394681
  0
LINE
  5
77
  8
CAPA_1
  6
BYLAYER
 62
    7
 10
16.33138993964969
 20
-30.39146076394681
 11
16.20903920169664
 21
-30.55914557294867
  0
LINE
  5
78
  8
CAPA_1
  6
BYLAYER
 62
    7
 10
16.20903920169664
 20
-30.55914557294867
 11
16.07950561140354
 21
-30.72255006666875
  0
LINE
  5
79
  8
CAPA_1
  6
BYLAYER
 62
    7
 10
16.07950561140354
 20
-30.72255006666875
 11
15.94314431019379
 21
-30.88138904601822
  0
LINE
  5
7A
  8
CAPA_1
  6
BYLAYER
 62
    7
 10
15.94314431019379
 20
-30.88138904601822
 11
15.80031043949077
 21
-31.03537731190825
  0
LINE
  5
7B
  8
CAPA_1
  6
BYLAYER
 62
    7
 10
15.80031043949077
 20
-31.03537731190825
 11
15.65135914071786
 21
-31.18422966524999
  0
LINE
  5
7C
  8
CAPA_1
  6
BYLAYER
 62
    7
 10
15.65135914071786
 20
-31.18422966524999
 11
15.49664555529844
 21
-31.32766090695462
  0
LINE
  5
7D
  8
CAPA_1
  6
BYLAYER
 62
    7
 10
15.49664555529844
 20
-31.32766090695462
 11
15.33652482465591
 21
-31.4653858379333
  0
LINE
  5
7E
  8
CAPA_1
  6
BYLAYER
 62
    7
 10
15.33652482465591
 20
-31.4653858379333
 11
15.17135209021363
 21
-31.59711925909721
  0
LINE
  5
7F
  8
CAPA_1
  6
BYLAYER
 62
    7
 10
15.17135209021363
 20
-31.59711925909721
 11
15.00148249339501
 21
-31.7225759713575
  0
LINE
  5
80
  8
CAPA_1
  6
BYLAYER
 62
    7
 10
15.00148249339501
 20
-31.7225759713575
 11
14.82727117562342
 21
-31.84147077562534
  0
LINE
  5
81
  8
CAPA_1
  6
BYLAYER
 62
    7
 10
14.82727117562342
 20
-31.84147077562534
 11
14.64907327832224
 21
-31.9535184728119
  0
LINE
  5
82
  8
CAPA_1
  6
BYLAYER
 62
    7
 10
14.64907327832224
 20
-31.9535184728119
 11
14.46724394291487
 21
-32.05843386382834
  0
LINE
  5
83
  8
CAPA_1
  6
BYLAYER
 62
    7
 10
14.46724394291487
 20
-32.05843386382834
 11
14.28213831082467
 21
-32.15593174958583
  0
LINE
  5
84
  8
CAPA_1
  6
BYLAYER
 62
    7
 10
14.28213831082467
 20
-32.15593174958583
 11
14.09410035683567
 21
-32.24576594718656
  0
LINE
  5
85
  8
CAPA_1
  6
BYLAYER
 62
    7
 10
14.09410035683567
 20
-32.24576594718656
 11
13.90334424354912
 21
-32.32814383695327
  0
LINE
  5
86
  8
CAPA_1
  6
BYLAYER
 62
    7
 10
13.90334424354912
 20
-32.32814383695327
 11
13.71000038377094
 21
-32.40356542064138
  0
LINE
  5
87
  8
CAPA_1
  6
BYLAYER
 62
    7
 10
13.71000038377094
 20
-32.40356542064138
 11
13.51419779447714
 21
-32.47253557703014
  0
LINE
  5
88
  8
CAPA_1
  6
BYLAYER
 62
    7
 10
13.51419779447714
 20
-32.47253557703014
 11
13.31606549264373
 21
-32.53555918489882
  0
LINE
  5
89
  8
CAPA_1
  6
BYLAYER
 62
    7
 10
13.31606549264373
 20
-32.53555918489882
 11
13.11573249524672
 21
-32.59314112302669
  0
LINE
  5
8A
  8
CAPA_1
  6
BYLAYER
 62
    7
 10
13.11573249524672
 20
-32.59314112302669
 11
12.91332781926211
 21
-32.64578627019301
  0
LINE
  5
8B
  8
CAPA_1
  6
BYLAYER
 62
    7
 10
12.91332781926211
 20
-32.64578627019301
 11
12.70898048166591
 21
-32.69399950517708
  0
LINE
  5
8C
  8
CAPA_1
  6
BYLAYER
 62
    7
 10
12.70898048166591
 20
-32.69399950517708
 11
12.50281949943414
 21
-32.73828570675814
  0
LINE
  5
8D
  8
CAPA_1
  6
BYLAYER
 62
    7
 10
12.50281949943414
 20
-32.73828570675814
 11
12.29497388954278
 21
-32.77914975371546
  0
LINE
  5
8E
  8
CAPA_1
  6
BYLAYER
 62
    7
 10
12.29497388954278
 20
-32.77914975371546
 11
12.08557266896786
 21
-32.81709652482832
  0
LINE
  5
8F
  8
CAPA_1
  6
BYLAYER
 62
    7
 10
12.08557266896786
 20
-32.81709652482832
 11
11.87474485468538
 21
-32.85263089887598
  0
LINE
  5
90
  8
CAPA_1
  6
BYLAYER
 62
    7
 10
11.87474485468538
 20
-32.85263089887598
 11
11.66261946367135
 21
-32.8862577546377
  0
LINE
  5
91
  8
CAPA_1
  6
BYLAYER
 62
    7
 10
11.66261946367135
 20
-32.8862577546377
 11
11.44932551290177
 21
-32.91848197089277
  0
LINE
  5
92
  8
CAPA_1
  6
BYLAYER
 62
    7
 10
11.44932551290177
 20
-32.91848197089277
 11
11.23499201935265
 21
-32.94980842642045
  0
LINE
  5
93
  8
CAPA_1
  6
BYLAYER
 62
    7
 10
11.23499201935265
 20
-32.94980842642045
 11
11.019748
 21
-32.980742
  0
LINE
  5
94
  8
CAPA_1
  6
BYLAYER
 62
    7
 10
-11.019749
 20
-32.980742
 11
-11.23499283982595
 21
-32.94980842642045
  0
LINE
  5
95
  8
CAPA_1
  6
BYLAYER
 62
    7
 10
-11.23499283982595
 20
-32.94980842642045
 11
-11.44932617673348
 21
-32.91848197089277
  0
LINE
  5
96
  8
CAPA_1
  6
BYLAYER
 62
    7
 10
-11.44932617673348
 20
-32.91848197089277
 11
-11.66261999218622
 21
-32.8862577546377
  0
LINE
  5
97
  8
CAPA_1
  6
BYLAYER
 62
    7
 10
-11.66261999218622
 20
-32.8862577546377
 11
-11.87474526764782
 21
-32.85263089887597
  0
LINE
  5
98
  8
CAPA_1
  6
BYLAYER
 62
    7
 10
-11.87474526764782
 20
-32.85263089887597
 11
-12.08557298458193
 21
-32.81709652482831
  0
LINE
  5
99
  8
CAPA_1
  6
BYLAYER
 62
    7
 10
-12.08557298458193
 20
-32.81709652482831
 11
-12.29497412445219
 21
-32.77914975371547
  0
LINE
  5
9A
  8
CAPA_1
  6
BYLAYER
 62
    7
 10
-12.29497412445219
 20
-32.77914975371547
 11
-12.50281966872225
 21
-32.73828570675813
  0
LINE
  5
9B
  8
CAPA_1
  6
BYLAYER
 62
    7
 10
-12.50281966872225
 20
-32.73828570675813
 11
-12.70898059885575
 21
-32.69399950517708
  0
LINE
  5
9C
  8
CAPA_1
  6
BYLAYER
 62
    7
 10
-12.70898059885575
 20
-32.69399950517708
 11
-12.91332789631633
 21
-32.64578627019302
  0
LINE
  5
9D
  8
CAPA_1
  6
BYLAYER
 62
    7
 10
-12.91332789631633
 20
-32.64578627019302
 11
-13.11573254256764
 21
-32.59314112302669
  0
LINE
  5
9E
  8
CAPA_1
  6
BYLAYER
 62
    7
 10
-13.11573254256764
 20
-32.59314112302669
 11
-13.31606551907333
 21
-32.53555918489882
  0
LINE
  5
9F
  8
CAPA_1
  6
BYLAYER
 62
    7
 10
-13.31606551907333
 20
-32.53555918489882
 11
-13.51419780729704
 21
-32.47253557703014
  0
LINE
  5
A0
  8
CAPA_1
  6
BYLAYER
 62
    7
 10
-13.51419780729704
 20
-32.47253557703014
 11
-13.71000038870241
 21
-32.40356542064138
  0
LINE
  5
A1
  8
CAPA_1
  6
BYLAYER
 62
    7
 10
-13.71000038870241
 20
-32.40356542064138
 11
-13.90334424475309
 21
-32.32814383695327
  0
LINE
  5
A2
  8
CAPA_1
  6
BYLAYER
 62
    7
 10
-13.90334424475309
 20
-32.32814383695327
 11
-14.09410035691273
 21
-32.24576594718656
  0
LINE
  5
A3
  8
CAPA_1
  6
BYLAYER
 62
    7
 10
-14.09410035691273
 20
-32.24576594718656
 11
-14.28213831082708
 21
-32.15593174958583
  0
LINE
  5
A4
  8
CAPA_1
  6
BYLAYER
 62
    7
 10
-14.28213831082708
 20
-32.15593174958583
 11
-14.46724394306897
 21
-32.05843386382833
  0
LINE
  5
A5
  8
CAPA_1
  6
BYLAYER
 62
    7
 10
-14.46724394306897
 20
-32.05843386382833
 11
-14.64907327914817
 21
-31.9535184728119
  0
LINE
  5
A6
  8
CAPA_1
  6
BYLAYER
 62
    7
 10
-14.64907327914817
 20
-31.9535184728119
 11
-14.82727117803136
 21
-31.84147077562534
  0
LINE
  5
A7
  8
CAPA_1
  6
BYLAYER
 62
    7
 10
-14.82727117803136
 20
-31.84147077562534
 11
-15.00148249868526
 21
-31.7225759713575
  0
LINE
  5
A8
  8
CAPA_1
  6
BYLAYER
 62
    7
 10
-15.00148249868526
 20
-31.7225759713575
 11
-15.17135210007657
 21
-31.59711925909721
  0
LINE
  5
A9
  8
CAPA_1
  6
BYLAYER
 62
    7
 10
-15.17135210007657
 20
-31.59711925909721
 11
-15.33652484117199
 21
-31.46538583793331
  0
LINE
  5
AA
  8
CAPA_1
  6
BYLAYER
 62
    7
 10
-15.33652484117199
 20
-31.46538583793331
 11
-15.49664558093823
 21
-31.32766090695462
  0
LINE
  5
AB
  8
CAPA_1
  6
BYLAYER
 62
    7
 10
-15.49664558093823
 20
-31.32766090695462
 11
-15.65135917834198
 21
-31.18422966524999
  0
LINE
  5
AC
  8
CAPA_1
  6
BYLAYER
 62
    7
 10
-15.65135917834198
 20
-31.18422966524999
 11
-15.80031049234996
 21
-31.03537731190825
  0
LINE
  5
AD
  8
CAPA_1
  6
BYLAYER
 62
    7
 10
-15.80031049234996
 20
-31.03537731190825
 11
-15.94314438192886
 21
-30.88138904601822
  0
LINE
  5
AE
  8
CAPA_1
  6
BYLAYER
 62
    7
 10
-15.94314438192886
 20
-30.88138904601822
 11
-16.07950570604538
 21
-30.72255006666876
  0
LINE
  5
AF
  8
CAPA_1
  6
BYLAYER
 62
    7
 10
-16.07950570604538
 20
-30.72255006666876
 11
-16.20903932366624
 21
-30.55914557294867
  0
LINE
  5
B0
  8
CAPA_1
  6
BYLAYER
 62
    7
 10
-16.20903932366624
 20
-30.55914557294867
 11
-16.33139009375812
 21
-30.39146076394681
  0
LINE
  5
B1
  8
CAPA_1
  6
BYLAYER
 62
    7
 10
-16.33139009375812
 20
-30.39146076394681
 11
-16.44620287528775
 21
-30.21978083875201
  0
LINE
  5
B2
  8
CAPA_1
  6
BYLAYER
 62
    7
 10
-16.44620287528775
 20
-30.21978083875201
 11
-16.55312252722181
 21
-30.0443909964531
  0
LINE
  5
B3
  8
CAPA_1
  6
BYLAYER
 62
    7
 10
-16.55312252722181
 20
-30.0443909964531
 11
-16.65183785275902
 21
-29.86557264613091
  0
LINE
  5
B4
  8
CAPA_1
  6
BYLAYER
 62
    7
 10
-16.65183785275902
 20
-29.86557264613091
 11
-16.74254850679522
 21
-29.68356313802337
  0
LINE
  5
B5
  8
CAPA_1
  6
BYLAYER
 62
    7
 10
-16.74254850679522
 20
-29.68356313802337
 11
-16.82578372596631
 21
-29.4985713973084
  0
LINE
  5
B6
  8
CAPA_1
  6
BYLAYER
 62
    7
 10
-16.82578372596631
 20
-29.4985713973084
 11
-16.9020782399372
 21
-29.31080587541296
  0
LINE
  5
B7
  8
CAPA_1
  6
BYLAYER
 62
    7
 10
-16.9020782399372
 20
-29.31080587541296
 11
-16.97196677837281
 21
-29.120475023764
  0
LINE
  5
B8
  8
CAPA_1
  6
BYLAYER
 62
    7
 10
-16.97196677837281
 20
-29.120475023764
 11
-17.03598407093804
 21
-28.92778729378847
  0
LINE
  5
B9
  8
CAPA_1
  6
BYLAYER
 62
    7
 10
-17.03598407093804
 20
-28.92778729378847
 11
-17.0946648472978
 21
-28.7329511369133
  0
LINE
  5
BA
  8
CAPA_1
  6
BYLAYER
 62
    7
 10
-17.0946648472978
 20
-28.7329511369133
 11
-17.14854383711701
 21
-28.53617500456546
  0
LINE
  5
BB
  8
CAPA_1
  6
BYLAYER
 62
    7
 10
-17.14854383711701
 20
-28.53617500456546
 11
-17.19815577006058
 21
-28.33766734817189
  0
LINE
  5
BC
  8
CAPA_1
  6
BYLAYER
 62
    7
 10
-17.19815577006058
 20
-28.33766734817189
 11
-17.24403537579342
 21
-28.13763661915954
  0
LINE
  5
BD
  8
CAPA_1
  6
BYLAYER
 62
    7
 10
-17.24403537579342
 20
-28.13763661915954
 11
-17.28671738398043
 21
-27.93629126895534
  0
LINE
  5
BE
  8
CAPA_1
  6
BYLAYER
 62
    7
 10
-17.28671738398043
 20
-27.93629126895534
 11
-17.32673652428653
 21
-27.73383974898626
  0
LINE
  5
BF
  8
CAPA_1
  6
BYLAYER
 62
    7
 10
-17.32673652428653
 20
-27.73383974898626
 11
-17.36462752637662
 21
-27.53049051067924
  0
LINE
  5
C0
  8
CAPA_1
  6
BYLAYER
 62
    7
 10
-17.36462752637662
 20
-27.53049051067924
 11
-17.40092511991562
 21
-27.32645200546122
  0
LINE
  5
C1
  8
CAPA_1
  6
BYLAYER
 62
    7
 10
-17.40092511991562
 20
-27.32645200546122
 11
-17.43616403456845
 21
-27.12193268475916
  0
LINE
  5
C2
  8
CAPA_1
  6
BYLAYER
 62
    7
 10
-17.43616403456845
 20
-27.12193268475916
 11
-17.470879
 21
-26.917141
  0
LINE
  5
C3
  8
CAPA_1
  6
BYLAYER
 62
    7
 10
-17.470879
 20
31.397418
 11
-17.43616365802616
 21
31.60220875162777
  0
LINE
  5
C4
  8
CAPA_1
  6
BYLAYER
 62
    7
 10
-17.43616365802616
 20
31.60220875162777
 11
-17.40092438100421
 21
31.80672718730917
  0
LINE
  5
C5
  8
CAPA_1
  6
BYLAYER
 62
    7
 10
-17.40092438100421
 20
31.80672718730917
 11
-17.36462644121967
 21
32.01076485483708
  0
LINE
  5
C6
  8
CAPA_1
  6
BYLAYER
 62
    7
 10
-17.36462644121967
 20
32.01076485483708
 11
-17.32673511095808
 21
32.21411330200438
  0
LINE
  5
C7
  8
CAPA_1
  6
BYLAYER
 62
    7
 10
-17.32673511095808
 20
32.21411330200438
 11
-17.28671566250494
 21
32.41656407660393
  0
LINE
  5
C8
  8
CAPA_1
  6
BYLAYER
 62
    7
 10
-17.28671566250494
 20
32.41656407660393
 11
-17.24403336814579
 21
32.61790872642864
  0
LINE
  5
C9
  8
CAPA_1
  6
BYLAYER
 62
    7
 10
-17.24403336814579
 20
32.61790872642864
 11
-17.19815350016615
 21
32.81793879927136
  0
LINE
  5
CA
  8
CAPA_1
  6
BYLAYER
 62
    7
 10
-17.19815350016615
 20
32.81793879927136
 11
-17.14854133085155
 21
33.01644584292498
  0
LINE
  5
CB
  8
CAPA_1
  6
BYLAYER
 62
    7
 10
-17.14854133085155
 20
33.01644584292498
 11
-17.0946621324875
 21
33.21322140518237
  0
LINE
  5
CC
  8
CAPA_1
  6
BYLAYER
 62
    7
 10
-17.0946621324875
 20
33.21322140518237
 11
-17.03598117735955
 21
33.40805703383644
  0
LINE
  5
CD
  8
CAPA_1
  6
BYLAYER
 62
    7
 10
-17.03598117735955
 20
33.40805703383644
 11
-16.9719637377532
 21
33.60074427668003
  0
LINE
  5
CE
  8
CAPA_1
  6
BYLAYER
 62
    7
 10
-16.9719637377532
 20
33.60074427668003
 11
-16.90207508595398
 21
33.79107468150603
  0
LINE
  5
CF
  8
CAPA_1
  6
BYLAYER
 62
    7
 10
-16.90207508595398
 20
33.79107468150603
 11
-16.82578049424742
 21
33.97883979610732
  0
LINE
  5
D0
  8
CAPA_1
  6
BYLAYER
 62
    7
 10
-16.82578049424742
 20
33.97883979610732
 11
-16.74254523491905
 21
34.16383116827677
  0
LINE
  5
D1
  8
CAPA_1
  6
BYLAYER
 62
    7
 10
-16.74254523491905
 20
34.16383116827677
 11
-16.65183458025438
 21
34.34584034580729
  0
LINE
  5
D2
  8
CAPA_1
  6
BYLAYER
 62
    7
 10
-16.65183458025438
 20
34.34584034580729
 11
-16.55311929552941
 21
34.52465840274073
  0
LINE
  5
D3
  8
CAPA_1
  6
BYLAYER
 62
    7
 10
-16.55311929552941
 20
34.52465840274073
 11
-16.4461997254486
 21
34.700047988059
  0
LINE
  5
D4
  8
CAPA_1
  6
BYLAYER
 62
    7
 10
-16.4461997254486
 20
34.700047988059
 11
-16.33138706283049
 21
34.87172769190112
  0
LINE
  5
D5
  8
CAPA_1
  6
BYLAYER
 62
    7
 10
-16.33138706283049
 20
34.87172769190112
 11
-16.20903644441742
 21
35.03941231439806
  0
LINE
  5
D6
  8
CAPA_1
  6
BYLAYER
 62
    7
 10
-16.20903644441742
 20
35.03941231439806
 11
-16.07950300695174
 21
35.20281665568082
  0
LINE
  5
D7
  8
CAPA_1
  6
BYLAYER
 62
    7
 10
-16.07950300695174
 20
35.20281665568082
 11
-15.94314188717577
 21
35.36165551588039
  0
LINE
  5
D8
  8
CAPA_1
  6
BYLAYER
 62
    7
 10
-15.94314188717577
 20
35.36165551588039
 11
-15.80030822183187
 21
35.51564369512776
  0
LINE
  5
D9
  8
CAPA_1
  6
BYLAYER
 62
    7
 10
-15.80030822183187
 20
35.51564369512776
 11
-15.65135714766237
 21
35.66449599355393
  0
LINE
  5
DA
  8
CAPA_1
  6
BYLAYER
 62
    7
 10
-15.65135714766237
 20
35.66449599355393
 11
-15.49664380140961
 21
35.80792721128989
  0
LINE
  5
DB
  8
CAPA_1
  6
BYLAYER
 62
    7
 10
-15.49664380140961
 20
35.80792721128989
 11
-15.33652331981594
 21
35.94565214846662
  0
LINE
  5
DC
  8
CAPA_1
  6
BYLAYER
 62
    7
 10
-15.33652331981594
 20
35.94565214846662
 11
-15.17135083962369
 21
36.07738560521512
  0
LINE
  5
DD
  8
CAPA_1
  6
BYLAYER
 62
    7
 10
-15.17135083962369
 20
36.07738560521512
 11
-15.0014814975752
 21
36.2028423816664
  0
LINE
  5
DE
  8
CAPA_1
  6
BYLAYER
 62
    7
 10
-15.0014814975752
 20
36.2028423816664
 11
-14.82727043041282
 21
36.32173727795141
  0
LINE
  5
DF
  8
CAPA_1
  6
BYLAYER
 62
    7
 10
-14.82727043041282
 20
36.32173727795141
 11
-14.64907277487888
 21
36.43378509420119
  0
LINE
  5
E0
  8
CAPA_1
  6
BYLAYER
 62
    7
 10
-14.64907277487888
 20
36.43378509420119
 11
-14.46724366771573
 21
36.5387006305467
  0
LINE
  5
E1
  8
CAPA_1
  6
BYLAYER
 62
    7
 10
-14.46724366771573
 20
36.5387006305467
 11
-14.2821382456657
 21
36.63619868711894
  0
LINE
  5
E2
  8
CAPA_1
  6
BYLAYER
 62
    7
 10
-14.2821382456657
 20
36.63619868711894
 11
-14.09410047913998
 21
36.7260330802014
  0
LINE
  5
E3
  8
CAPA_1
  6
BYLAYER
 62
    7
 10
-14.09410047913998
 20
36.7260330802014
 11
-13.90334452995001
 21
36.80841118885025
  0
LINE
  5
E4
  8
CAPA_1
  6
BYLAYER
 62
    7
 10
-13.90334452995001
 20
36.80841118885025
 11
-13.71000081242355
 21
36.88383301326537
  0
LINE
  5
E5
  8
CAPA_1
  6
BYLAYER
 62
    7
 10
-13.71000081242355
 20
36.88383301326537
 11
-13.51419834509694
 21
36.95280343066565
  0
LINE
  5
E6
  8
CAPA_1
  6
BYLAYER
 62
    7
 10
-13.51419834509694
 20
36.95280343066565
 11
-13.31606614650655
 21
37.01582731827004
  0
LINE
  5
E7
  8
CAPA_1
  6
BYLAYER
 62
    7
 10
-13.31606614650655
 20
37.01582731827004
 11
-13.11573323518873
 21
37.07340955329743
  0
LINE
  5
E8
  8
CAPA_1
  6
BYLAYER
 62
    7
 10
-13.11573323518873
 20
37.07340955329743
 11
-12.91332862967984
 21
37.12605501296677
  0
LINE
  5
E9
  8
CAPA_1
  6
BYLAYER
 62
    7
 10
-12.91332862967984
 20
37.12605501296677
 11
-12.70898134851622
 21
37.17426857449698
  0
LINE
  5
EA
  8
CAPA_1
  6
BYLAYER
 62
    7
 10
-12.70898134851622
 20
37.17426857449698
 11
-12.50282041023425
 21
37.21855511510697
  0
LINE
  5
EB
  8
CAPA_1
  6
BYLAYER
 62
    7
 10
-12.50282041023425
 20
37.21855511510697
 11
-12.29497483337026
 21
37.25941951201564
  0
LINE
  5
EC
  8
CAPA_1
  6
BYLAYER
 62
    7
 10
-12.29497483337026
 20
37.25941951201564
 11
-12.08557363646061
 21
37.29736664244194
  0
LINE
  5
ED
  8
CAPA_1
  6
BYLAYER
 62
    7
 10
-12.08557363646061
 20
37.29736664244194
 11
-11.87474583804167
 21
37.33290138360479
  0
LINE
  5
EE
  8
CAPA_1
  6
BYLAYER
 62
    7
 10
-11.87474583804167
 20
37.33290138360479
 11
-11.66262045664978
 21
37.3665286127231
  0
LINE
  5
EF
  8
CAPA_1
  6
BYLAYER
 62
    7
 10
-11.66262045664978
 20
37.3665286127231
 11
-11.4493265108213
 21
37.39875320701579
  0
LINE
  5
F0
  8
CAPA_1
  6
BYLAYER
 62
    7
 10
-11.4493265108213
 20
37.39875320701579
 11
-11.23499301909259
 21
37.43008004370178
  0
LINE
  5
F1
  8
CAPA_1
  6
BYLAYER
 62
    7
 10
-11.23499301909259
 20
37.43008004370178
 11
-11.019749
 21
37.461014
  0
LINE
  5
F2
  8
CAPA_1
  6
BYLAYER
 62
    7
 10
-11.840872
 20
32.926515
 11
-11.85264000001899
 21
32.84884195931245
  0
LINE
  5
F3
  8
CAPA_1
  6
BYLAYER
 62
    7
 10
-11.85264000001899
 20
32.84884195931245
 11
-11.8648514332428
 21
32.77158284991089
  0
LINE
  5
F4
  8
CAPA_1
  6
BYLAYER
 62
    7
 10
-11.8648514332428
 20
32.77158284991089
 11
-11.87798469311917
 21
32.69491890087108
  0
LINE
  5
F5
  8
CAPA_1
  6
BYLAYER
 62
    7
 10
-11.87798469311917
 20
32.69491890087108
 11
-11.89251817309583
 21
32.61903134126869
  0
LINE
  5
F6
  8
CAPA_1
  6
BYLAYER
 62
    7
 10
-11.89251817309583
 20
32.61903134126869
 11
-11.90893026662054
 21
32.54410140017945
  0
LINE
  5
F7
  8
CAPA_1
  6
BYLAYER
 62
    7
 10
-11.90893026662054
 20
32.54410140017945
 11
-11.92769936714102
 21
32.47031030667907
  0
LINE
  5
F8
  8
CAPA_1
  6
BYLAYER
 62
    7
 10
-11.92769936714102
 20
32.47031030667907
 11
-11.94930386810503
 21
32.39783928984327
  0
LINE
  5
F9
  8
CAPA_1
  6
BYLAYER
 62
    7
 10
-11.94930386810503
 20
32.39783928984327
 11
-11.97422216296029
 21
32.32686957874776
  0
LINE
  5
FA
  8
CAPA_1
  6
BYLAYER
 62
    7
 10
-11.97422216296029
 20
32.32686957874776
 11
-12.00293264515455
 21
32.25758240246825
  0
LINE
  5
FB
  8
CAPA_1
  6
BYLAYER
 62
    7
 10
-12.00293264515455
 20
32.25758240246825
 11
-12.03591363385779
 21
32.19015898747241
  0
LINE
  5
FC
  8
CAPA_1
  6
BYLAYER
 62
    7
 10
-12.03591363385779
 20
32.19015898747241
 11
-12.07348055711548
 21
32.12477484074678
  0
LINE
  5
FD
  8
CAPA_1
  6
BYLAYER
 62
    7
 10
-12.07348055711548
 20
32.12477484074678
 11
-12.11544056027127
 21
32.06158762230627
  0
LINE
  5
FE
  8
CAPA_1
  6
BYLAYER
 62
    7
 10
-12.11544056027127
 20
32.06158762230627
 11
-12.16150192497216
 21
32.00075152083453
  0
LINE
  5
FF
  8
CAPA_1
  6
BYLAYER
 62
    7
 10
-12.16150192497216
 20
32.00075152083453
 11
-12.21137293286519
 21
31.94242072501527
  0
LINE
  5
100
  8
CAPA_1
  6
BYLAYER
 62
    7
 10
-12.21137293286519
 20
31.94242072501527
 11
-12.26476186559735
 21
31.88674942353214
  0
LINE
  5
101
  8
CAPA_1
  6
BYLAYER
 62
    7
 10
-12.26476186559735
 20
31.88674942353214
 11
-12.32137700481567
 21
31.83389180506884
  0
LINE
  5
102
  8
CAPA_1
  6
BYLAYER
 62
    7
 10
-12.32137700481567
 20
31.83389180506884
 11
-12.38092663216715
 21
31.78400205830904
  0
LINE
  5
103
  8
CAPA_1
  6
BYLAYER
 62
    7
 10
-12.38092663216715
 20
31.78400205830904
 11
-12.44311902929882
 21
31.73723437193642
  0
LINE
  5
104
  8
CAPA_1
  6
BYLAYER
 62
    7
 10
-12.44311902929882
 20
31.73723437193642
 11
-12.50766247785768
 21
31.69374293463466
  0
LINE
  5
105
  8
CAPA_1
  6
BYLAYER
 62
    7
 10
-12.50766247785768
 20
31.69374293463466
 11
-12.5742653513167
 21
31.65368186605893
  0
LINE
  5
106
  8
CAPA_1
  6
BYLAYER
 62
    7
 10
-12.5742653513167
 20
31.65368186605893
 11
-12.64266715214737
 21
31.61718188520253
  0
LINE
  5
107
  8
CAPA_1
  6
BYLAYER
 62
    7
 10
-12.64266715214737
 20
31.61718188520253
 11
-12.71268369018917
 21
31.58431634837425
  0
LINE
  5
108
  8
CAPA_1
  6
BYLAYER
 62
    7
 10
-12.71268369018917
 20
31.58431634837425
 11
-12.78414225352593
 21
31.55514998332027
  0
LINE
  5
109
  8
CAPA_1
  6
BYLAYER
 62
    7
 10
-12.78414225352593
 20
31.55514998332027
 11
-12.85687013024142
 21
31.52974751778675
  0
LINE
  5
10A
  8
CAPA_1
  6
BYLAYER
 62
    7
 10
-12.85687013024142
 20
31.52974751778675
 11
-12.93069460841944
 21
31.50817367951985
  0
LINE
  5
10B
  8
CAPA_1
  6
BYLAYER
 62
    7
 10
-12.93069460841944
 20
31.50817367951985
 11
-13.0054429761438
 21
31.49049319626576
  0
LINE
  5
10C
  8
CAPA_1
  6
BYLAYER
 62
    7
 10
-13.0054429761438
 20
31.49049319626576
 11
-13.08094252149827
 21
31.47677079577061
  0
LINE
  5
10D
  8
CAPA_1
  6
BYLAYER
 62
    7
 10
-13.08094252149827
 20
31.47677079577061
 11
-13.15702053256666
 21
31.46707120578058
  0
LINE
  5
10E
  8
CAPA_1
  6
BYLAYER
 62
    7
 10
-13.15702053256666
 20
31.46707120578058
 11
-13.23350429743277
 21
31.46145915404184
  0
LINE
  5
10F
  8
CAPA_1
  6
BYLAYER
 62
    7
 10
-13.23350429743277
 20
31.46145915404184
 11
-13.31022097628028
 21
31.45999903672858
  0
LINE
  5
110
  8
CAPA_1
  6
BYLAYER
 62
    7
 10
-13.31022097628028
 20
31.45999903672858
 11
-13.38698225338113
 21
31.46271512980585
  0
LINE
  5
111
  8
CAPA_1
  6
BYLAYER
 62
    7
 10
-13.38698225338113
 20
31.46271512980585
 11
-13.4635697564844
 21
31.46955378982429
  0
LINE
  5
112
  8
CAPA_1
  6
BYLAYER
 62
    7
 10
-13.4635697564844
 20
31.46955378982429
 11
-13.53976166003653
 21
31.48045242089114
  0
LINE
  5
113
  8
CAPA_1
  6
BYLAYER
 62
    7
 10
-13.53976166003653
 20
31.48045242089114
 11
-13.61533613848396
 21
31.4953484271137
  0
LINE
  5
114
  8
CAPA_1
  6
BYLAYER
 62
    7
 10
-13.61533613848396
 20
31.4953484271137
 11
-13.69007136627315
 21
31.51417921259922
  0
LINE
  5
115
  8
CAPA_1
  6
BYLAYER
 62
    7
 10
-13.69007136627315
 20
31.51417921259922
 11
-13.76374551785054
 21
31.53688218145498
  0
LINE
  5
116
  8
CAPA_1
  6
BYLAYER
 62
    7
 10
-13.76374551785054
 20
31.53688218145498
 11
-13.83613676766258
 21
31.56339473778825
  0
LINE
  5
117
  8
CAPA_1
  6
BYLAYER
 62
    7
 10
-13.83613676766258
 20
31.56339473778825
 11
-13.90702329015571
 21
31.59365428570628
  0
LINE
  5
118
  8
CAPA_1
  6
BYLAYER
 62
    7
 10
-13.90702329015571
 20
31.59365428570628
 11
-13.97618325977638
 21
31.62759822931635
  0
LINE
  5
119
  8
CAPA_1
  6
BYLAYER
 62
    7
 10
-13.97618325977638
 20
31.62759822931635
 11
-14.04339531464558
 21
31.665163446013
  0
LINE
  5
11A
  8
CAPA_1
  6
BYLAYER
 62
    7
 10
-14.04339531464558
 20
31.665163446013
 11
-14.10846591335704
 21
31.70625521042812
  0
LINE
  5
11B
  8
CAPA_1
  6
BYLAYER
 62
    7
 10
-14.10846591335704
 20
31.70625521042812
 11
-14.1712446362372
 21
31.75072981291133
  0
LINE
  5
11C
  8
CAPA_1
  6
BYLAYER
 62
    7
 10
-14.1712446362372
 20
31.75072981291133
 11
-14.23158477300886
 21
31.7984393301106
  0
LINE
  5
11D
  8
CAPA_1
  6
BYLAYER
 62
    7
 10
-14.23158477300886
 20
31.7984393301106
 11
-14.28933961339484
 21
31.84923583867388
  0
LINE
  5
11E
  8
CAPA_1
  6
BYLAYER
 62
    7
 10
-14.28933961339484
 20
31.84923583867388
 11
-14.34436244711795
 21
31.90297141524915
  0
LINE
  5
11F
  8
CAPA_1
  6
BYLAYER
 62
    7
 10
-14.34436244711795
 20
31.90297141524915
 11
-14.396506563901
 21
31.95949813648435
  0
LINE
  5
120
  8
CAPA_1
  6
BYLAYER
 62
    7
 10
-14.396506563901
 20
31.95949813648435
 11
-14.44562525346679
 21
32.01866807902746
  0
LINE
  5
121
  8
CAPA_1
  6
BYLAYER
 62
    7
 10
-14.44562525346679
 20
32.01866807902746
 11
-14.49157180553813
 21
32.08033331952643
  0
LINE
  5
122
  8
CAPA_1
  6
BYLAYER
 62
    7
 10
-14.49157180553813
 20
32.08033331952643
 11
-14.53419950983784
 21
32.14434593462921
  0
LINE
  5
123
  8
CAPA_1
  6
BYLAYER
 62
    7
 10
-14.53419950983784
 20
32.14434593462921
 11
-14.57336263072476
 21
32.21055724309289
  0
LINE
  5
124
  8
CAPA_1
  6
BYLAYER
 62
    7
 10
-14.57336263072476
 20
32.21055724309289
 11
-14.60894984110787
 21
32.27879180709427
  0
LINE
  5
125
  8
CAPA_1
  6
BYLAYER
 62
    7
 10
-14.60894984110787
 20
32.27879180709427
 11
-14.64089259651908
 21
32.34884092043134
  0
LINE
  5
126
  8
CAPA_1
  6
BYLAYER
 62
    7
 10
-14.64089259651908
 20
32.34884092043134
 11
-14.66912502689153
 21
32.4204937972495
  0
LINE
  5
127
  8
CAPA_1
  6
BYLAYER
 62
    7
 10
-14.66912502689153
 20
32.4204937972495
 11
-14.69358126215835
 21
32.49353965169409
  0
LINE
  5
128
  8
CAPA_1
  6
BYLAYER
 62
    7
 10
-14.69358126215835
 20
32.49353965169409
 11
-14.71419543225268
 21
32.5677676979105
  0
LINE
  5
129
  8
CAPA_1
  6
BYLAYER
 62
    7
 10
-14.71419543225268
 20
32.5677676979105
 11
-14.73090166710767
 21
32.6429671500441
  0
LINE
  5
12A
  8
CAPA_1
  6
BYLAYER
 62
    7
 10
-14.73090166710767
 20
32.6429671500441
 11
-14.74363409665646
 21
32.71892722224025
  0
LINE
  5
12B
  8
CAPA_1
  6
BYLAYER
 62
    7
 10
-14.74363409665646
 20
32.71892722224025
 11
-14.75232685083218
 21
32.79543712864434
  0
LINE
  5
12C
  8
CAPA_1
  6
BYLAYER
 62
    7
 10
-14.75232685083218
 20
32.79543712864434
 11
-14.75691405956797
 21
32.87228608340172
  0
LINE
  5
12D
  8
CAPA_1
  6
BYLAYER
 62
    7
 10
-14.75691405956797
 20
32.87228608340172
 11
-14.75733254955141
 21
32.94926328589597
  0
LINE
  5
12E
  8
CAPA_1
  6
BYLAYER
 62
    7
 10
-14.75733254955141
 20
32.94926328589597
 11
-14.75358117282197
 21
33.02615759598896
  0
LINE
  5
12F
  8
CAPA_1
  6
BYLAYER
 62
    7
 10
-14.75358117282197
 20
33.02615759598896
 11
-14.74572080677105
 21
33.10275753402093
  0
LINE
  5
130
  8
CAPA_1
  6
BYLAYER
 62
    7
 10
-14.74572080677105
 20
33.10275753402093
 11
-14.73381502554447
 21
33.17885160557025
  0
LINE
  5
131
  8
CAPA_1
  6
BYLAYER
 62
    7
 10
-14.73381502554447
 20
33.17885160557025
 11
-14.71792740328806
 21
33.25422831621535
  0
LINE
  5
132
  8
CAPA_1
  6
BYLAYER
 62
    7
 10
-14.71792740328806
 20
33.25422831621535
 11
-14.69812151414763
 21
33.32867617153465
  0
LINE
  5
133
  8
CAPA_1
  6
BYLAYER
 62
    7
 10
-14.69812151414763
 20
33.32867617153465
 11
-14.674460932269
 21
33.40198367710653
  0
LINE
  5
134
  8
CAPA_1
  6
BYLAYER
 62
    7
 10
-14.674460932269
 20
33.40198367710653
 11
-14.64700923179801
 21
33.4739393385094
  0
LINE
  5
135
  8
CAPA_1
  6
BYLAYER
 62
    7
 10
-14.64700923179801
 20
33.4739393385094
 11
-14.61582998688047
 21
33.54433166132166
  0
LINE
  5
136
  8
CAPA_1
  6
BYLAYER
 62
    7
 10
-14.61582998688047
 20
33.54433166132166
 11
-14.5809867716622
 21
33.61294915112174
  0
LINE
  5
137
  8
CAPA_1
  6
BYLAYER
 62
    7
 10
-14.5809867716622
 20
33.61294915112174
 11
-14.54254585718163
 21
33.67958236423772
  0
LINE
  5
138
  8
CAPA_1
  6
BYLAYER
 62
    7
 10
-14.54254585718163
 20
33.67958236423772
 11
-14.50061665689608
 21
33.74405466301428
  0
LINE
  5
139
  8
CAPA_1
  6
BYLAYER
 62
    7
 10
-14.50061665689608
 20
33.74405466301428
 11
-14.45534328218426
 21
33.80621579451464
  0
LINE
  5
13A
  8
CAPA_1
  6
BYLAYER
 62
    7
 10
-14.45534328218426
 20
33.80621579451464
 11
-14.40687082725745
 21
33.86591625315978
  0
LINE
  5
13B
  8
CAPA_1
  6
BYLAYER
 62
    7
 10
-14.40687082725745
 20
33.86591625315978
 11
-14.35534438632696
 21
33.92300653337074
  0
LINE
  5
13C
  8
CAPA_1
  6
BYLAYER
 62
    7
 10
-14.35534438632696
 20
33.92300653337074
 11
-14.30090905360405
 21
33.97733712956848
  0
LINE
  5
13D
  8
CAPA_1
  6
BYLAYER
 62
    7
 10
-14.30090905360405
 20
33.97733712956848
 11
-14.24370992330002
 21
34.02875853617402
  0
LINE
  5
13E
  8
CAPA_1
  6
BYLAYER
 62
    7
 10
-14.24370992330002
 20
34.02875853617402
 11
-14.18389208962617
 21
34.07712124760838
  0
LINE
  5
13F
  8
CAPA_1
  6
BYLAYER
 62
    7
 10
-14.18389208962617
 20
34.07712124760838
 11
-14.12160064679377
 21
34.12227575829253
  0
LINE
  5
140
  8
CAPA_1
  6
BYLAYER
 62
    7
 10
-14.12160064679377
 20
34.12227575829253
 11
-14.05698068901412
 21
34.1640725626475
  0
LINE
  5
141
  8
CAPA_1
  6
BYLAYER
 62
    7
 10
-14.05698068901412
 20
34.1640725626475
 11
-13.99018106536792
 21
34.20236632788033
  0
LINE
  5
142
  8
CAPA_1
  6
BYLAYER
 62
    7
 10
-13.99018106536792
 20
34.20236632788033
 11
-13.92139427529292
 21
34.23706022983617
  0
LINE
  5
143
  8
CAPA_1
  6
BYLAYER
 62
    7
 10
-13.92139427529292
 20
34.23706022983617
 11
-13.85084097974752
 21
34.26808874025566
  0
LINE
  5
144
  8
CAPA_1
  6
BYLAYER
 62
    7
 10
-13.85084097974752
 20
34.26808874025566
 11
-13.77874230904879
 21
34.29538685247772
  0
LINE
  5
145
  8
CAPA_1
  6
BYLAYER
 62
    7
 10
-13.77874230904879
 20
34.29538685247772
 11
-13.70531939351382
 21
34.31888955984125
  0
LINE
  5
146
  8
CAPA_1
  6
BYLAYER
 62
    7
 10
-13.70531939351382
 20
34.31888955984125
 11
-13.63079336345968
 21
34.33853185568513
  0
LINE
  5
147
  8
CAPA_1
  6
BYLAYER
 62
    7
 10
-13.63079336345968
 20
34.33853185568513
 11
-13.55538534920346
 21
34.3542487333483
  0
LINE
  5
148
  8
CAPA_1
  6
BYLAYER
 62
    7
 10
-13.55538534920346
 20
34.3542487333483
 11
-13.47931648106223
 21
34.36597518616968
  0
LINE
  5
149
  8
CAPA_1
  6
BYLAYER
 62
    7
 10
-13.47931648106223
 20
34.36597518616968
 11
-13.40280788935308
 21
34.37364620748814
  0
LINE
  5
14A
  8
CAPA_1
  6
BYLAYER
 62
    7
 10
-13.40280788935308
 20
34.37364620748814
 11
-13.32608070439309
 21
34.3771967906426
  0
LINE
  5
14B
  8
CAPA_1
  6
BYLAYER
 62
    7
 10
-13.32608070439309
 20
34.3771967906426
 11
-13.24935270096433
 21
34.37657091861896
  0
LINE
  5
14C
  8
CAPA_1
  6
BYLAYER
 62
    7
 10
-13.24935270096433
 20
34.37657091861896
 11
-13.17281244826651
 21
34.3717908176267
  0
LINE
  5
14D
  8
CAPA_1
  6
BYLAYER
 62
    7
 10
-13.17281244826651
 20
34.3717908176267
 11
-13.09663347773139
 21
34.36291900081179
  0
LINE
  5
14E
  8
CAPA_1
  6
BYLAYER
 62
    7
 10
-13.09663347773139
 20
34.36291900081179
 11
-13.02098919651164
 21
34.35001831427005
  0
LINE
  5
14F
  8
CAPA_1
  6
BYLAYER
 62
    7
 10
-13.02098919651164
 20
34.35001831427005
 11
-12.94605301175993
 21
34.3331516040973
  0
LINE
  5
150
  8
CAPA_1
  6
BYLAYER
 62
    7
 10
-12.94605301175993
 20
34.3331516040973
 11
-12.87199833062895
 21
34.31238171638937
  0
LINE
  5
151
  8
CAPA_1
  6
BYLAYER
 62
    7
 10
-12.87199833062895
 20
34.31238171638937
 11
-12.79899856027138
 21
34.2877714972421
  0
LINE
  5
152
  8
CAPA_1
  6
BYLAYER
 62
    7
 10
-12.79899856027138
 20
34.2877714972421
 11
-12.72722710783989
 21
34.25938379275131
  0
LINE
  5
153
  8
CAPA_1
  6
BYLAYER
 62
    7
 10
-12.72722710783989
 20
34.25938379275131
 11
-12.65685738048715
 21
34.22728144901283
  0
LINE
  5
154
  8
CAPA_1
  6
BYLAYER
 62
    7
 10
-12.65685738048715
 20
34.22728144901283
 11
-12.58806278536586
 21
34.19152731212248
  0
LINE
  5
155
  8
CAPA_1
  6
BYLAYER
 62
    7
 10
-12.58806278536586
 20
34.19152731212248
 11
-12.5210283005942
 21
34.15219273172582
  0
LINE
  5
156
  8
CAPA_1
  6
BYLAYER
 62
    7
 10
-12.5210283005942
 20
34.15219273172582
 11
-12.45601582806906
 21
34.10940558906687
  0
LINE
  5
157
  8
CAPA_1
  6
BYLAYER
 62
    7
 10
-12.45601582806906
 20
34.10940558906687
 11
-12.39331865014579
 21
34.06331682701653
  0
LINE
  5
158
  8
CAPA_1
  6
BYLAYER
 62
    7
 10
-12.39331865014579
 20
34.06331682701653
 11
-12.33323014174747
 21
34.01407745647406
  0
LINE
  5
159
  8
CAPA_1
  6
BYLAYER
 62
    7
 10
-12.33323014174747
 20
34.01407745647406
 11
-12.27604367779718
 21
33.9618384883387
  0
LINE
  5
15A
  8
CAPA_1
  6
BYLAYER
 62
    7
 10
-12.27604367779718
 20
33.9618384883387
 11
-12.222052633218
 21
33.90675093350975
  0
LINE
  5
15B
  8
CAPA_1
  6
BYLAYER
 62
    7
 10
-12.222052633218
 20
33.90675093350975
 11
-12.17155038293302
 21
33.84896580288647
  0
LINE
  5
15C
  8
CAPA_1
  6
BYLAYER
 62
    7
 10
-12.17155038293302
 20
33.84896580288647
 11
-12.12483030186529
 21
33.78863410736813
  0
LINE
  5
15D
  8
CAPA_1
  6
BYLAYER
 62
    7
 10
-12.12483030186529
 20
33.78863410736813
 11
-12.08218576493792
 21
33.72590685785399
  0
LINE
  5
15E
  8
CAPA_1
  6
BYLAYER
 62
    7
 10
-12.08218576493792
 20
33.72590685785399
 11
-12.04391014707396
 21
33.66093506524332
  0
LINE
  5
15F
  8
CAPA_1
  6
BYLAYER
 62
    7
 10
-12.04391014707396
 20
33.66093506524332
 11
-12.01019800359907
 21
33.5938742854176
  0
LINE
  5
160
  8
CAPA_1
  6
BYLAYER
 62
    7
 10
-12.01019800359907
 20
33.5938742854176
 11
-11.98073583386198
 21
33.52490344113524
  0
LINE
  5
161
  8
CAPA_1
  6
BYLAYER
 62
    7
 10
-11.98073583386198
 20
33.52490344113524
 11
-11.95504731874619
 21
33.45420894361899
  0
LINE
  5
162
  8
CAPA_1
  6
BYLAYER
 62
    7
 10
-11.95504731874619
 20
33.45420894361899
 11
-11.93265606489062
 21
33.38197720750625
  0
LINE
  5
163
  8
CAPA_1
  6
BYLAYER
 62
    7
 10
-11.93265606489062
 20
33.38197720750625
 11
-11.91308567893416
 21
33.30839464743447
  0
LINE
  5
164
  8
CAPA_1
  6
BYLAYER
 62
    7
 10
-11.91308567893416
 20
33.30839464743447
 11
-11.89585976751571
 21
33.23364767804109
  0
LINE
  5
165
  8
CAPA_1
  6
BYLAYER
 62
    7
 10
-11.89585976751571
 20
33.23364767804109
 11
-11.88050193727417
 21
33.15792271396352
  0
LINE
  5
166
  8
CAPA_1
  6
BYLAYER
 62
    7
 10
-11.88050193727417
 20
33.15792271396352
 11
-11.86653579484844
 21
33.08140616983918
  0
LINE
  5
167
  8
CAPA_1
  6
BYLAYER
 62
    7
 10
-11.86653579484844
 20
33.08140616983918
 11
-11.85348494687742
 21
33.00428446030555
  0
LINE
  5
168
  8
CAPA_1
  6
BYLAYER
 62
    7
 10
-11.85348494687742
 20
33.00428446030555
 11
-11.840873
 21
32.926744
  0
LINE
  5
169
  8
CAPA_1
  6
BYLAYER
 62
    7
 10
14.756962
 20
-28.615413
 11
14.7451940289492
 21
-28.69308632872448
  0
LINE
  5
16A
  8
CAPA_1
  6
BYLAYER
 62
    7
 10
14.7451940289492
 20
-28.69308632872448
 11
14.73298267647741
 21
-28.77034570027101
  0
LINE
  5
16B
  8
CAPA_1
  6
BYLAYER
 62
    7
 10
14.73298267647741
 20
-28.77034570027101
 11
14.7198495399081
 21
-28.84700989017832
  0
LINE
  5
16C
  8
CAPA_1
  6
BYLAYER
 62
    7
 10
14.7198495399081
 20
-28.84700989017832
 11
14.70531621656473
 21
-28.92289767398507
  0
LINE
  5
16D
  8
CAPA_1
  6
BYLAYER
 62
    7
 10
14.70531621656473
 20
-28.92289767398507
 11
14.68890430377074
 21
-28.99782782722995
  0
LINE
  5
16E
  8
CAPA_1
  6
BYLAYER
 62
    7
 10
14.68890430377074
 20
-28.99782782722995
 11
14.67013539884961
 21
-29.07161912545167
  0
LINE
  5
16F
  8
CAPA_1
  6
BYLAYER
 62
    7
 10
14.67013539884961
 20
-29.07161912545167
 11
14.64853109912477
 21
-29.14409034418889
  0
LINE
  5
170
  8
CAPA_1
  6
BYLAYER
 62
    7
 10
14.64853109912477
 20
-29.14409034418889
 11
14.6236130019197
 21
-29.21506025898032
  0
LINE
  5
171
  8
CAPA_1
  6
BYLAYER
 62
    7
 10
14.6236130019197
 20
-29.21506025898032
 11
14.59490270455785
 21
-29.28434764536462
  0
LINE
  5
172
  8
CAPA_1
  6
BYLAYER
 62
    7
 10
14.59490270455785
 20
-29.28434764536462
 11
14.56192187864152
 21
-29.35177128148779
  0
LINE
  5
173
  8
CAPA_1
  6
BYLAYER
 62
    7
 10
14.56192187864152
 20
-29.35177128148779
 11
14.52435508928337
 21
-29.41715566324167
  0
LINE
  5
174
  8
CAPA_1
  6
BYLAYER
 62
    7
 10
14.52435508928337
 20
-29.41715566324167
 11
14.48239519174254
 21
-29.48034312807555
  0
LINE
  5
175
  8
CAPA_1
  6
BYLAYER
 62
    7
 10
14.48239519174254
 20
-29.48034312807555
 11
14.43633390642288
 21
-29.54117948371677
  0
LINE
  5
176
  8
CAPA_1
  6
BYLAYER
 62
    7
 10
14.43633390642288
 20
-29.54117948371677
 11
14.38646295372821
 21
-29.59951053789267
  0
LINE
  5
177
  8
CAPA_1
  6
BYLAYER
 62
    7
 10
14.38646295372821
 20
-29.59951053789267
 11
14.33307405406236
 21
-29.65518209833058
  0
LINE
  5
178
  8
CAPA_1
  6
BYLAYER
 62
    7
 10
14.33307405406236
 20
-29.65518209833058
 11
14.27645892782917
 21
-29.70803997275787
  0
LINE
  5
179
  8
CAPA_1
  6
BYLAYER
 62
    7
 10
14.27645892782917
 20
-29.70803997275787
 11
14.21690929543246
 21
-29.75792996890185
  0
LINE
  5
17A
  8
CAPA_1
  6
BYLAYER
 62
    7
 10
14.21690929543246
 20
-29.75792996890185
 11
14.15471687727607
 21
-29.80469789448988
  0
LINE
  5
17B
  8
CAPA_1
  6
BYLAYER
 62
    7
 10
14.15471687727607
 20
-29.80469789448988
 11
14.09017339376383
 21
-29.8481895572493
  0
LINE
  5
17C
  8
CAPA_1
  6
BYLAYER
 62
    7
 10
14.09017339376383
 20
-29.8481895572493
 11
14.02357047347362
 21
-29.88825083393951
  0
LINE
  5
17D
  8
CAPA_1
  6
BYLAYER
 62
    7
 10
14.02357047347362
 20
-29.88825083393951
 11
13.9551686159848
 21
-29.92475100318882
  0
LINE
  5
17E
  8
CAPA_1
  6
BYLAYER
 62
    7
 10
13.9551686159848
 20
-29.92475100318882
 11
13.88515201350871
 21
-29.95761670926878
  0
LINE
  5
17F
  8
CAPA_1
  6
BYLAYER
 62
    7
 10
13.88515201350871
 20
-29.95761670926878
 11
13.81369338001241
 21
-29.98678322545865
  0
LINE
  5
180
  8
CAPA_1
  6
BYLAYER
 62
    7
 10
13.81369338001241
 20
-29.98678322545865
 11
13.74096542946294
 21
-30.01218582503768
  0
LINE
  5
181
  8
CAPA_1
  6
BYLAYER
 62
    7
 10
13.74096542946294
 20
-30.01218582503768
 11
13.66714087582734
 21
-30.03375978128512
  0
LINE
  5
182
  8
CAPA_1
  6
BYLAYER
 62
    7
 10
13.66714087582734
 20
-30.03375978128512
 11
13.59239243307269
 21
-30.05144036748026
  0
LINE
  5
183
  8
CAPA_1
  6
BYLAYER
 62
    7
 10
13.59239243307269
 20
-30.05144036748026
 11
13.51689281516601
 21
-30.06516285690233
  0
LINE
  5
184
  8
CAPA_1
  6
BYLAYER
 62
    7
 10
13.51689281516601
 20
-30.06516285690233
 11
13.44081473607436
 21
-30.07486252283058
  0
LINE
  5
185
  8
CAPA_1
  6
BYLAYER
 62
    7
 10
13.44081473607436
 20
-30.07486252283058
 11
13.3643309097648
 21
-30.0804746385443
  0
LINE
  5
186
  8
CAPA_1
  6
BYLAYER
 62
    7
 10
13.3643309097648
 20
-30.0804746385443
 11
13.28761417809645
 21
-30.08193480890003
  0
LINE
  5
187
  8
CAPA_1
  6
BYLAYER
 62
    7
 10
13.28761417809645
 20
-30.08193480890003
 11
13.21085285787088
 21
-30.07921875960973
  0
LINE
  5
188
  8
CAPA_1
  6
BYLAYER
 62
    7
 10
13.21085285787088
 20
-30.07921875960973
 11
13.13426532052989
 21
-30.07238013705482
  0
LINE
  5
189
  8
CAPA_1
  6
BYLAYER
 62
    7
 10
13.13426532052989
 20
-30.07238013705482
 11
13.05807339060162
 21
-30.06148154020432
  0
LINE
  5
18A
  8
CAPA_1
  6
BYLAYER
 62
    7
 10
13.05807339060162
 20
-30.06148154020432
 11
12.98249889261418
 21
-30.04658556802721
  0
LINE
  5
18B
  8
CAPA_1
  6
BYLAYER
 62
    7
 10
12.98249889261418
 20
-30.04658556802721
 11
12.90776365109573
 21
-30.0277548194925
  0
LINE
  5
18C
  8
CAPA_1
  6
BYLAYER
 62
    7
 10
12.90776365109573
 20
-30.0277548194925
 11
12.83408949057438
 21
-30.00505189356918
  0
LINE
  5
18D
  8
CAPA_1
  6
BYLAYER
 62
    7
 10
12.83408949057438
 20
-30.00505189356918
 11
12.76169823557827
 21
-29.97853938922628
  0
LINE
  5
18E
  8
CAPA_1
  6
BYLAYER
 62
    7
 10
12.76169823557827
 20
-29.97853938922628
 11
12.69081171063552
 21
-29.94827990543276
  0
LINE
  5
18F
  8
CAPA_1
  6
BYLAYER
 62
    7
 10
12.69081171063552
 20
-29.94827990543276
 11
12.62165174027426
 21
-29.91433604115764
  0
LINE
  5
190
  8
CAPA_1
  6
BYLAYER
 62
    7
 10
12.62165174027426
 20
-29.91433604115764
 11
12.55443968534809
 21
-29.87677092203831
  0
LINE
  5
191
  8
CAPA_1
  6
BYLAYER
 62
    7
 10
12.55443968534809
 20
-29.87677092203831
 11
12.48936908623785
 21
-29.8356792738164
  0
LINE
  5
192
  8
CAPA_1
  6
BYLAYER
 62
    7
 10
12.48936908623785
 20
-29.8356792738164
 11
12.4265903615917
 21
-29.791204802395
  0
LINE
  5
193
  8
CAPA_1
  6
BYLAYER
 62
    7
 10
12.4265903615917
 20
-29.791204802395
 11
12.36625022066137
 21
-29.74349542702449
  0
LINE
  5
194
  8
CAPA_1
  6
BYLAYER
 62
    7
 10
12.36625022066137
 20
-29.74349542702449
 11
12.30849537269866
 21
-29.6926990669552
  0
LINE
  5
195
  8
CAPA_1
  6
BYLAYER
 62
    7
 10
12.30849537269866
 20
-29.6926990669552
 11
12.25347252695532
 21
-29.6389636414375
  0
LINE
  5
196
  8
CAPA_1
  6
BYLAYER
 62
    7
 10
12.25347252695532
 20
-29.6389636414375
 11
12.20132839268313
 21
-29.58243706972171
  0
LINE
  5
197
  8
CAPA_1
  6
BYLAYER
 62
    7
 10
12.20132839268313
 20
-29.58243706972171
 11
12.15220967913384
 21
-29.5232672710582
  0
LINE
  5
198
  8
CAPA_1
  6
BYLAYER
 62
    7
 10
12.15220967913384
 20
-29.5232672710582
 11
12.10626309555923
 21
-29.46160216469731
  0
LINE
  5
199
  8
CAPA_1
  6
BYLAYER
 62
    7
 10
12.10626309555923
 20
-29.46160216469731
 11
12.06363535121107
 21
-29.39758966988941
  0
LINE
  5
19A
  8
CAPA_1
  6
BYLAYER
 62
    7
 10
12.06363535121107
 20
-29.39758966988941
 11
12.02447218071747
 21
-29.33137846383753
  0
LINE
  5
19B
  8
CAPA_1
  6
BYLAYER
 62
    7
 10
12.02447218071747
 20
-29.33137846383753
 11
11.98888491059281
 21
-29.26314398250729
  0
LINE
  5
19C
  8
CAPA_1
  6
BYLAYER
 62
    7
 10
11.98888491059281
 20
-29.26314398250729
 11
11.95694208527128
 21
-29.19309493295647
  0
LINE
  5
19D
  8
CAPA_1
  6
BYLAYER
 62
    7
 10
11.95694208527128
 20
-29.19309493295647
 11
11.92870957481975
 21
-29.12144210206515
  0
LINE
  5
19E
  8
CAPA_1
  6
BYLAYER
 62
    7
 10
11.92870957481975
 20
-29.12144210206515
 11
11.90425324930506
 21
-29.04839627671336
  0
LINE
  5
19F
  8
CAPA_1
  6
BYLAYER
 62
    7
 10
11.90425324930506
 20
-29.04839627671336
 11
11.88363897879409
 21
-28.97416824378115
  0
LINE
  5
1A0
  8
CAPA_1
  6
BYLAYER
 62
    7
 10
11.88363897879409
 20
-28.97416824378115
 11
11.86693263335369
 21
-28.89896879014858
  0
LINE
  5
1A1
  8
CAPA_1
  6
BYLAYER
 62
    7
 10
11.86693263335369
 20
-28.89896879014858
 11
11.85420008305072
 21
-28.82300870269571
  0
LINE
  5
1A2
  8
CAPA_1
  6
BYLAYER
 62
    7
 10
11.85420008305072
 20
-28.82300870269571
 11
11.84550719795205
 21
-28.74649876830258
  0
LINE
  5
1A3
  8
CAPA_1
  6
BYLAYER
 62
    7
 10
11.84550719795205
 20
-28.74649876830258
 11
11.84091984812452
 21
-28.66964977384923
  0
LINE
  5
1A4
  8
CAPA_1
  6
BYLAYER
 62
    7
 10
11.84091984812452
 20
-28.66964977384923
 11
11.84050120694467
 21
-28.59267252093482
  0
LINE
  5
1A5
  8
CAPA_1
  6
BYLAYER
 62
    7
 10
11.84050120694467
 20
-28.59267252093482
 11
11.84425242391114
 21
-28.51577814969745
  0
LINE
  5
1A6
  8
CAPA_1
  6
BYLAYER
 62
    7
 10
11.84425242391114
 20
-28.51577814969745
 11
11.85211262464472
 21
-28.43917813881421
  0
LINE
  5
1A7
  8
CAPA_1
  6
BYLAYER
 62
    7
 10
11.85211262464472
 20
-28.43917813881421
 11
11.86401823807585
 21
-28.36308398168126
  0
LINE
  5
1A8
  8
CAPA_1
  6
BYLAYER
 62
    7
 10
11.86401823807585
 20
-28.36308398168126
 11
11.87990569313499
 21
-28.28770717169478
  0
LINE
  5
1A9
  8
CAPA_1
  6
BYLAYER
 62
    7
 10
11.87990569313499
 20
-28.28770717169478
 11
11.89971141875257
 21
-28.21325920225095
  0
LINE
  5
1AA
  8
CAPA_1
  6
BYLAYER
 62
    7
 10
11.89971141875257
 20
-28.21325920225095
 11
11.92337184385904
 21
-28.13995156674593
  0
LINE
  5
1AB
  8
CAPA_1
  6
BYLAYER
 62
    7
 10
11.92337184385904
 20
-28.13995156674593
 11
11.95082339738486
 21
-28.0679957585759
  0
LINE
  5
1AC
  8
CAPA_1
  6
BYLAYER
 62
    7
 10
11.95082339738486
 20
-28.0679957585759
 11
11.98200250826044
 21
-27.99760327113703
  0
LINE
  5
1AD
  8
CAPA_1
  6
BYLAYER
 62
    7
 10
11.98200250826044
 20
-27.99760327113703
 11
12.01684560541626
 21
-27.9289855978255
  0
LINE
  5
1AE
  8
CAPA_1
  6
BYLAYER
 62
    7
 10
12.01684560541626
 20
-27.9289855978255
 11
12.05528642078838
 21
-27.86235218145736
  0
LINE
  5
1AF
  8
CAPA_1
  6
BYLAYER
 62
    7
 10
12.05528642078838
 20
-27.86235218145736
 11
12.09721554226594
 21
-27.79787966154559
  0
LINE
  5
1B0
  8
CAPA_1
  6
BYLAYER
 62
    7
 10
12.09721554226594
 20
-27.79787966154559
 11
12.14248885850731
 21
-27.73571829506682
  0
LINE
  5
1B1
  8
CAPA_1
  6
BYLAYER
 62
    7
 10
12.14248885850731
 20
-27.73571829506682
 11
12.19096127530122
 21
-27.67601759170174
  0
LINE
  5
1B2
  8
CAPA_1
  6
BYLAYER
 62
    7
 10
12.19096127530122
 20
-27.67601759170174
 11
12.24248769843637
 21
-27.61892706113104
  0
LINE
  5
1B3
  8
CAPA_1
  6
BYLAYER
 62
    7
 10
12.24248769843637
 20
-27.61892706113104
 11
12.29692303370146
 21
-27.56459621303539
  0
LINE
  5
1B4
  8
CAPA_1
  6
BYLAYER
 62
    7
 10
12.29692303370146
 20
-27.56459621303539
 11
12.35412218688523
 21
-27.51317455709551
  0
LINE
  5
1B5
  8
CAPA_1
  6
BYLAYER
 62
    7
 10
12.35412218688523
 20
-27.51317455709551
 11
12.41394006377637
 21
-27.46481160299207
  0
LINE
  5
1B6
  8
CAPA_1
  6
BYLAYER
 62
    7
 10
12.41394006377637
 20
-27.46481160299207
 11
12.4762315701636
 21
-27.41965686040575
  0
LINE
  5
1B7
  8
CAPA_1
  6
BYLAYER
 62
    7
 10
12.4762315701636
 20
-27.41965686040575
 11
12.54085161183563
 21
-27.37785983901728
  0
LINE
  5
1B8
  8
CAPA_1
  6
BYLAYER
 62
    7
 10
12.54085161183563
 20
-27.37785983901728
 11
12.60765133945856
 21
-27.33956587546804
  0
LINE
  5
1B9
  8
CAPA_1
  6
BYLAYER
 62
    7
 10
12.60765133945856
 20
-27.33956587546804
 11
12.67643825039813
 21
-27.30487179481808
  0
LINE
  5
1BA
  8
CAPA_1
  6
BYLAYER
 62
    7
 10
12.67643825039813
 20
-27.30487179481808
 11
12.74699167860045
 21
-27.27384312433298
  0
LINE
  5
1BB
  8
CAPA_1
  6
BYLAYER
 62
    7
 10
12.74699167860045
 20
-27.27384312433298
 11
12.81909048862134
 21
-27.24654486964841
  0
LINE
  5
1BC
  8
CAPA_1
  6
BYLAYER
 62
    7
 10
12.81909048862134
 20
-27.24654486964841
 11
12.89251354501662
 21
-27.22304203640003
  0
LINE
  5
1BD
  8
CAPA_1
  6
BYLAYER
 62
    7
 10
12.89251354501662
 20
-27.22304203640003
 11
12.96703971234207
 21
-27.20339963022352
  0
LINE
  5
1BE
  8
CAPA_1
  6
BYLAYER
 62
    7
 10
12.96703971234207
 20
-27.20339963022352
 11
13.04244785515352
 21
-27.18768265675455
  0
LINE
  5
1BF
  8
CAPA_1
  6
BYLAYER
 62
    7
 10
13.04244785515352
 20
-27.18768265675455
 11
13.11851683800677
 21
-27.17595612162878
  0
LINE
  5
1C0
  8
CAPA_1
  6
BYLAYER
 62
    7
 10
13.11851683800677
 20
-27.17595612162878
 11
13.19502552545763
 21
-27.16828503048189
  0
LINE
  5
1C1
  8
CAPA_1
  6
BYLAYER
 62
    7
 10
13.19502552545763
 20
-27.16828503048189
 11
13.2717527820619
 21
-27.16473438894955
  0
LINE
  5
1C2
  8
CAPA_1
  6
BYLAYER
 62
    7
 10
13.2717527820619
 20
-27.16473438894955
 11
13.34848082863139
 21
-27.16536021294835
  0
LINE
  5
1C3
  8
CAPA_1
  6
BYLAYER
 62
    7
 10
13.34848082863139
 20
-27.16536021294835
 11
13.42502109783566
 21
-27.17014027454373
  0
LINE
  5
1C4
  8
CAPA_1
  6
BYLAYER
 62
    7
 10
13.42502109783566
 20
-27.17014027454373
 11
13.50120006334337
 21
-27.17901205854156
  0
LINE
  5
1C5
  8
CAPA_1
  6
BYLAYER
 62
    7
 10
13.50120006334337
 20
-27.17901205854156
 11
13.57684432312894
 21
-27.19191271679517
  0
LINE
  5
1C6
  8
CAPA_1
  6
BYLAYER
 62
    7
 10
13.57684432312894
 20
-27.19191271679517
 11
13.65178047516682
 21
-27.20877940115789
  0
LINE
  5
1C7
  8
CAPA_1
  6
BYLAYER
 62
    7
 10
13.65178047516682
 20
-27.20877940115789
 11
13.72583511743144
 21
-27.22954926348304
  0
LINE
  5
1C8
  8
CAPA_1
  6
BYLAYER
 62
    7
 10
13.72583511743144
 20
-27.22954926348304
 11
13.79883484789723
 21
-27.25415945562397
  0
LINE
  5
1C9
  8
CAPA_1
  6
BYLAYER
 62
    7
 10
13.79883484789723
 20
-27.25415945562397
 11
13.87060626453863
 21
-27.28254712943398
  0
LINE
  5
1CA
  8
CAPA_1
  6
BYLAYER
 62
    7
 10
13.87060626453863
 20
-27.28254712943398
 11
13.94097596533006
 21
-27.31464943676639
  0
LINE
  5
1CB
  8
CAPA_1
  6
BYLAYER
 62
    7
 10
13.94097596533006
 20
-27.31464943676639
 11
14.00977054824598
 21
-27.35040352947456
  0
LINE
  5
1CC
  8
CAPA_1
  6
BYLAYER
 62
    7
 10
14.00977054824598
 20
-27.35040352947456
 11
14.07680503950407
 21
-27.38973805640605
  0
LINE
  5
1CD
  8
CAPA_1
  6
BYLAYER
 62
    7
 10
14.07680503950407
 20
-27.38973805640605
 11
14.14181753628331
 21
-27.4325251384262
  0
LINE
  5
1CE
  8
CAPA_1
  6
BYLAYER
 62
    7
 10
14.14181753628331
 20
-27.4325251384262
 11
14.2045147531584
 21
-27.47861383624878
  0
LINE
  5
1CF
  8
CAPA_1
  6
BYLAYER
 62
    7
 10
14.2045147531584
 20
-27.47861383624878
 11
14.26460331212998
 21
-27.5278531425635
  0
LINE
  5
1D0
  8
CAPA_1
  6
BYLAYER
 62
    7
 10
14.26460331212998
 20
-27.5278531425635
 11
14.32178983519873
 21
-27.58009205006006
  0
LINE
  5
1D1
  8
CAPA_1
  6
BYLAYER
 62
    7
 10
14.32178983519873
 20
-27.58009205006006
 11
14.37578094436528
 21
-27.63517955142817
  0
LINE
  5
1D2
  8
CAPA_1
  6
BYLAYER
 62
    7
 10
14.37578094436528
 20
-27.63517955142817
 11
14.4262832616303
 21
-27.69296463935756
  0
LINE
  5
1D3
  8
CAPA_1
  6
BYLAYER
 62
    7
 10
14.4262832616303
 20
-27.69296463935756
 11
14.47300340899443
 21
-27.75329630653792
  0
LINE
  5
1D4
  8
CAPA_1
  6
BYLAYER
 62
    7
 10
14.47300340899443
 20
-27.75329630653792
 11
14.51564800845834
 21
-27.81602354565898
  0
LINE
  5
1D5
  8
CAPA_1
  6
BYLAYER
 62
    7
 10
14.51564800845834
 20
-27.81602354565898
 11
14.55392368202268
 21
-27.88099534941044
  0
LINE
  5
1D6
  8
CAPA_1
  6
BYLAYER
 62
    7
 10
14.55392368202268
 20
-27.88099534941044
 11
14.58763587181209
 21
-27.94805616431504
  0
LINE
  5
1D7
  8
CAPA_1
  6
BYLAYER
 62
    7
 10
14.58763587181209
 20
-27.94805616431504
 11
14.6170980786353
 21
-28.01702706392749
  0
LINE
  5
1D8
  8
CAPA_1
  6
BYLAYER
 62
    7
 10
14.6170980786353
 20
-28.01702706392749
 11
14.64278662263382
 21
-28.0877216313861
  0
LINE
  5
1D9
  8
CAPA_1
  6
BYLAYER
 62
    7
 10
14.64278662263382
 20
-28.0877216313861
 11
14.66517789819417
 21
-28.15995344641365
  0
LINE
  5
1DA
  8
CAPA_1
  6
BYLAYER
 62
    7
 10
14.66517789819417
 20
-28.15995344641365
 11
14.68474829970287
 21
-28.23353608873285
  0
LINE
  5
1DB
  8
CAPA_1
  6
BYLAYER
 62
    7
 10
14.68474829970287
 20
-28.23353608873285
 11
14.70197422154645
 21
-28.30828313806648
  0
LINE
  5
1DC
  8
CAPA_1
  6
BYLAYER
 62
    7
 10
14.70197422154645
 20
-28.30828313806648
 11
14.71733205811143
 21
-28.38400817413726
  0
LINE
  5
1DD
  8
CAPA_1
  6
BYLAYER
 62
    7
 10
14.71733205811143
 20
-28.38400817413726
 11
14.73129820378433
 21
-28.46052477666794
  0
LINE
  5
1DE
  8
CAPA_1
  6
BYLAYER
 62
    7
 10
14.73129820378433
 20
-28.46052477666794
 11
14.74434905295168
 21
-28.53764652538127
  0
LINE
  5
1DF
  8
CAPA_1
  6
BYLAYER
 62
    7
 10
14.74434905295168
 20
-28.53764652538127
 11
14.756961
 21
-28.615187
  0
LINE
  5
1E0
  8
CAPA_1
  6
BYLAYER
 62
    7
 10
14.756962
 20
32.926515
 11
14.74519374142499
 21
32.84884197362564
  0
LINE
  5
1E1
  8
CAPA_1
  6
BYLAYER
 62
    7
 10
14.74519374142499
 20
32.84884197362564
 11
14.73298213039719
 21
32.77158290340377
  0
LINE
  5
1E2
  8
CAPA_1
  6
BYLAYER
 62
    7
 10
14.73298213039719
 20
32.77158290340377
 11
14.71984876270192
 21
32.69491901277031
  0
LINE
  5
1E3
  8
CAPA_1
  6
BYLAYER
 62
    7
 10
14.71984876270192
 20
32.69491901277031
 11
14.7053152341245
 21
32.61903152516113
  0
LINE
  5
1E4
  8
CAPA_1
  6
BYLAYER
 62
    7
 10
14.7053152341245
 20
32.61903152516113
 11
14.68890314045025
 21
32.54410166401212
  0
LINE
  5
1E5
  8
CAPA_1
  6
BYLAYER
 62
    7
 10
14.68890314045025
 20
32.54410166401212
 11
14.6701340774645
 21
32.47031065275917
  0
LINE
  5
1E6
  8
CAPA_1
  6
BYLAYER
 62
    7
 10
14.6701340774645
 20
32.47031065275917
 11
14.64852964095257
 21
32.39783971483818
  0
LINE
  5
1E7
  8
CAPA_1
  6
BYLAYER
 62
    7
 10
14.64852964095257
 20
32.39783971483818
 11
14.6236114266998
 21
32.32687007368504
  0
LINE
  5
1E8
  8
CAPA_1
  6
BYLAYER
 62
    7
 10
14.6236114266998
 20
32.32687007368504
 11
14.59490103049148
 21
32.25758295273562
  0
LINE
  5
1E9
  8
CAPA_1
  6
BYLAYER
 62
    7
 10
14.59490103049148
 20
32.25758295273562
 11
14.56192012239191
 21
32.19015957281865
  0
LINE
  5
1EA
  8
CAPA_1
  6
BYLAYER
 62
    7
 10
14.56192012239191
 20
32.19015957281865
 11
14.52435326619259
 21
32.12477543723382
  0
LINE
  5
1EB
  8
CAPA_1
  6
BYLAYER
 62
    7
 10
14.52435326619259
 20
32.12477543723382
 11
14.48239331650831
 21
32.06158820840022
  0
LINE
  5
1EC
  8
CAPA_1
  6
BYLAYER
 62
    7
 10
14.48239331650831
 20
32.06158820840022
 11
14.43633199323021
 21
32.00075207859051
  0
LINE
  5
1ED
  8
CAPA_1
  6
BYLAYER
 62
    7
 10
14.43633199323021
 20
32.00075207859051
 11
14.3864610162494
 21
31.94242124007735
  0
LINE
  5
1EE
  8
CAPA_1
  6
BYLAYER
 62
    7
 10
14.3864610162494
 20
31.94242124007735
 11
14.33307210545701
 21
31.88674988513339
  0
LINE
  5
1EF
  8
CAPA_1
  6
BYLAYER
 62
    7
 10
14.33307210545701
 20
31.88674988513339
 11
14.27645698074415
 21
31.8338922060313
  0
LINE
  5
1F0
  8
CAPA_1
  6
BYLAYER
 62
    7
 10
14.27645698074415
 20
31.8338922060313
 11
14.21690736200194
 21
31.78400239504374
  0
LINE
  5
1F1
  8
CAPA_1
  6
BYLAYER
 62
    7
 10
14.21690736200194
 20
31.78400239504374
 11
14.15471496912151
 21
31.73723464444335
  0
LINE
  5
1F2
  8
CAPA_1
  6
BYLAYER
 62
    7
 10
14.15471496912151
 20
31.73723464444335
 11
14.09017152199397
 21
31.6937431465028
  0
LINE
  5
1F3
  8
CAPA_1
  6
BYLAYER
 62
    7
 10
14.09017152199397
 20
31.6937431465028
 11
14.0235686486833
 21
31.65368202446268
  0
LINE
  5
1F4
  8
CAPA_1
  6
BYLAYER
 62
    7
 10
14.0235686486833
 20
31.65368202446268
 11
13.95516684785264
 21
31.61718199969469
  0
LINE
  5
1F5
  8
CAPA_1
  6
BYLAYER
 62
    7
 10
13.95516684785264
 20
31.61718199969469
 11
13.88515030981082
 21
31.58431642792728
  0
LINE
  5
1F6
  8
CAPA_1
  6
BYLAYER
 62
    7
 10
13.88515030981082
 20
31.58431642792728
 11
13.81369174647407
 21
31.55515003588119
  0
LINE
  5
1F7
  8
CAPA_1
  6
BYLAYER
 62
    7
 10
13.81369174647407
 20
31.55515003588119
 11
13.74096386975858
 21
31.52974755027716
  0
LINE
  5
1F8
  8
CAPA_1
  6
BYLAYER
 62
    7
 10
13.74096386975858
 20
31.52974755027716
 11
13.66713939158056
 21
31.50817369783593
  0
LINE
  5
1F9
  8
CAPA_1
  6
BYLAYER
 62
    7
 10
13.66713939158056
 20
31.50817369783593
 11
13.59239102385621
 21
31.49049320527826
  0
LINE
  5
1FA
  8
CAPA_1
  6
BYLAYER
 62
    7
 10
13.59239102385621
 20
31.49049320527826
 11
13.51689147850173
 21
31.47677079932487
  0
LINE
  5
1FB
  8
CAPA_1
  6
BYLAYER
 62
    7
 10
13.51689147850173
 20
31.47677079932487
 11
13.44081346743334
 21
31.46707120669652
  0
LINE
  5
1FC
  8
CAPA_1
  6
BYLAYER
 62
    7
 10
13.44081346743334
 20
31.46707120669652
 11
13.36432970256723
 21
31.46145915411395
  0
LINE
  5
1FD
  8
CAPA_1
  6
BYLAYER
 62
    7
 10
13.36432970256723
 20
31.46145915411395
 11
13.28761302371972
 21
31.45999903672858
  0
LINE
  5
1FE
  8
CAPA_1
  6
BYLAYER
 62
    7
 10
13.28761302371972
 20
31.45999903672858
 11
13.21085174661886
 21
31.46271512980585
  0
LINE
  5
1FF
  8
CAPA_1
  6
BYLAYER
 62
    7
 10
13.21085174661886
 20
31.46271512980585
 11
13.1342642435156
 21
31.46955378982429
  0
LINE
  5
200
  8
CAPA_1
  6
BYLAYER
 62
    7
 10
13.1342642435156
 20
31.46955378982429
 11
13.05807233996347
 21
31.48045242089114
  0
LINE
  5
201
  8
CAPA_1
  6
BYLAYER
 62
    7
 10
13.05807233996347
 20
31.48045242089114
 11
12.98249786151603
 21
31.4953484271137
  0
LINE
  5
202
  8
CAPA_1
  6
BYLAYER
 62
    7
 10
12.98249786151603
 20
31.4953484271137
 11
12.90776263372685
 21
31.51417921259922
  0
LINE
  5
203
  8
CAPA_1
  6
BYLAYER
 62
    7
 10
12.90776263372685
 20
31.51417921259922
 11
12.83408848214946
 21
31.53688218145498
  0
LINE
  5
204
  8
CAPA_1
  6
BYLAYER
 62
    7
 10
12.83408848214946
 20
31.53688218145498
 11
12.76169723233743
 21
31.56339473778825
  0
LINE
  5
205
  8
CAPA_1
  6
BYLAYER
 62
    7
 10
12.76169723233743
 20
31.56339473778825
 11
12.69081070984429
 21
31.59365428570628
  0
LINE
  5
206
  8
CAPA_1
  6
BYLAYER
 62
    7
 10
12.69081070984429
 20
31.59365428570628
 11
12.62165074022362
 21
31.62759822931635
  0
LINE
  5
207
  8
CAPA_1
  6
BYLAYER
 62
    7
 10
12.62165074022362
 20
31.62759822931635
 11
12.55443868535442
 21
31.665163446013
  0
LINE
  5
208
  8
CAPA_1
  6
BYLAYER
 62
    7
 10
12.55443868535442
 20
31.665163446013
 11
12.48936808664296
 21
31.70625521042812
  0
LINE
  5
209
  8
CAPA_1
  6
BYLAYER
 62
    7
 10
12.48936808664296
 20
31.70625521042812
 11
12.42658936376281
 21
31.75072981291133
  0
LINE
  5
20A
  8
CAPA_1
  6
BYLAYER
 62
    7
 10
12.42658936376281
 20
31.75072981291133
 11
12.36624922699114
 21
31.7984393301106
  0
LINE
  5
20B
  8
CAPA_1
  6
BYLAYER
 62
    7
 10
12.36624922699114
 20
31.7984393301106
 11
12.30849438660516
 21
31.84923583867388
  0
LINE
  5
20C
  8
CAPA_1
  6
BYLAYER
 62
    7
 10
12.30849438660516
 20
31.84923583867388
 11
12.25347155288205
 21
31.90297141524915
  0
LINE
  5
20D
  8
CAPA_1
  6
BYLAYER
 62
    7
 10
12.25347155288205
 20
31.90297141524915
 11
12.20132743609901
 21
31.95949813648435
  0
LINE
  5
20E
  8
CAPA_1
  6
BYLAYER
 62
    7
 10
12.20132743609901
 20
31.95949813648435
 11
12.15220874653322
 21
32.01866807902746
  0
LINE
  5
20F
  8
CAPA_1
  6
BYLAYER
 62
    7
 10
12.15220874653322
 20
32.01866807902746
 11
12.10626219446187
 21
32.08033331952643
  0
LINE
  5
210
  8
CAPA_1
  6
BYLAYER
 62
    7
 10
12.10626219446187
 20
32.08033331952643
 11
12.06363449016215
 21
32.14434593462921
  0
LINE
  5
211
  8
CAPA_1
  6
BYLAYER
 62
    7
 10
12.06363449016215
 20
32.14434593462921
 11
12.02447136927524
 21
32.21055724309289
  0
LINE
  5
212
  8
CAPA_1
  6
BYLAYER
 62
    7
 10
12.02447136927524
 20
32.21055724309289
 11
11.98888415889213
 21
32.27879180709427
  0
LINE
  5
213
  8
CAPA_1
  6
BYLAYER
 62
    7
 10
11.98888415889213
 20
32.27879180709427
 11
11.95694140348092
 21
32.34884092043134
  0
LINE
  5
214
  8
CAPA_1
  6
BYLAYER
 62
    7
 10
11.95694140348092
 20
32.34884092043134
 11
11.92870897310847
 21
32.4204937972495
  0
LINE
  5
215
  8
CAPA_1
  6
BYLAYER
 62
    7
 10
11.92870897310847
 20
32.4204937972495
 11
11.90425273784165
 21
32.49353965169409
  0
LINE
  5
216
  8
CAPA_1
  6
BYLAYER
 62
    7
 10
11.90425273784165
 20
32.49353965169409
 11
11.88363856774732
 21
32.5677676979105
  0
LINE
  5
217
  8
CAPA_1
  6
BYLAYER
 62
    7
 10
11.88363856774732
 20
32.5677676979105
 11
11.86693233289233
 21
32.6429671500441
  0
LINE
  5
218
  8
CAPA_1
  6
BYLAYER
 62
    7
 10
11.86693233289233
 20
32.6429671500441
 11
11.85419990334354
 21
32.71892722224025
  0
LINE
  5
219
  8
CAPA_1
  6
BYLAYER
 62
    7
 10
11.85419990334354
 20
32.71892722224025
 11
11.84550714916782
 21
32.79543712864434
  0
LINE
  5
21A
  8
CAPA_1
  6
BYLAYER
 62
    7
 10
11.84550714916782
 20
32.79543712864434
 11
11.84091994043203
 21
32.87228608340172
  0
LINE
  5
21B
  8
CAPA_1
  6
BYLAYER
 62
    7
 10
11.84091994043203
 20
32.87228608340172
 11
11.84050145044859
 21
32.94926328589597
  0
LINE
  5
21C
  8
CAPA_1
  6
BYLAYER
 62
    7
 10
11.84050145044859
 20
32.94926328589597
 11
11.84425282717803
 21
33.02615759598896
  0
LINE
  5
21D
  8
CAPA_1
  6
BYLAYER
 62
    7
 10
11.84425282717803
 20
33.02615759598896
 11
11.85211319322895
 21
33.10275753402093
  0
LINE
  5
21E
  8
CAPA_1
  6
BYLAYER
 62
    7
 10
11.85211319322895
 20
33.10275753402093
 11
11.86401897445552
 21
33.17885160557025
  0
LINE
  5
21F
  8
CAPA_1
  6
BYLAYER
 62
    7
 10
11.86401897445552
 20
33.17885160557025
 11
11.87990659671194
 21
33.25422831621535
  0
LINE
  5
220
  8
CAPA_1
  6
BYLAYER
 62
    7
 10
11.87990659671194
 20
33.25422831621535
 11
11.89971248585237
 21
33.32867617153465
  0
LINE
  5
221
  8
CAPA_1
  6
BYLAYER
 62
    7
 10
11.89971248585237
 20
33.32867617153465
 11
11.923373067731
 21
33.40198367710653
  0
LINE
  5
222
  8
CAPA_1
  6
BYLAYER
 62
    7
 10
11.923373067731
 20
33.40198367710653
 11
11.95082476820199
 21
33.4739393385094
  0
LINE
  5
223
  8
CAPA_1
  6
BYLAYER
 62
    7
 10
11.95082476820199
 20
33.4739393385094
 11
11.98200401311953
 21
33.54433166132166
  0
LINE
  5
224
  8
CAPA_1
  6
BYLAYER
 62
    7
 10
11.98200401311953
 20
33.54433166132166
 11
12.0168472283378
 21
33.61294915112174
  0
LINE
  5
225
  8
CAPA_1
  6
BYLAYER
 62
    7
 10
12.0168472283378
 20
33.61294915112174
 11
12.05528814281837
 21
33.67958236423772
  0
LINE
  5
226
  8
CAPA_1
  6
BYLAYER
 62
    7
 10
12.05528814281837
 20
33.67958236423772
 11
12.09721734310392
 21
33.74405466301428
  0
LINE
  5
227
  8
CAPA_1
  6
BYLAYER
 62
    7
 10
12.09721734310392
 20
33.74405466301428
 11
12.14249071781574
 21
33.80621579451464
  0
LINE
  5
228
  8
CAPA_1
  6
BYLAYER
 62
    7
 10
12.14249071781574
 20
33.80621579451464
 11
12.19096317274255
 21
33.86591625315978
  0
LINE
  5
229
  8
CAPA_1
  6
BYLAYER
 62
    7
 10
12.19096317274255
 20
33.86591625315978
 11
12.24248961367305
 21
33.92300653337074
  0
LINE
  5
22A
  8
CAPA_1
  6
BYLAYER
 62
    7
 10
12.24248961367305
 20
33.92300653337074
 11
12.29692494639595
 21
33.97733712956848
  0
LINE
  5
22B
  8
CAPA_1
  6
BYLAYER
 62
    7
 10
12.29692494639595
 20
33.97733712956848
 11
12.35412407669998
 21
34.02875853617402
  0
LINE
  5
22C
  8
CAPA_1
  6
BYLAYER
 62
    7
 10
12.35412407669998
 20
34.02875853617402
 11
12.41394191037383
 21
34.07712124760838
  0
LINE
  5
22D
  8
CAPA_1
  6
BYLAYER
 62
    7
 10
12.41394191037383
 20
34.07712124760838
 11
12.47623335320623
 21
34.12227575829253
  0
LINE
  5
22E
  8
CAPA_1
  6
BYLAYER
 62
    7
 10
12.47623335320623
 20
34.12227575829253
 11
12.54085331098588
 21
34.1640725626475
  0
LINE
  5
22F
  8
CAPA_1
  6
BYLAYER
 62
    7
 10
12.54085331098588
 20
34.1640725626475
 11
12.60765293458144
 21
34.20236632788033
  0
LINE
  5
230
  8
CAPA_1
  6
BYLAYER
 62
    7
 10
12.60765293458144
 20
34.20236632788033
 11
12.67643972391586
 21
34.23706022983617
  0
LINE
  5
231
  8
CAPA_1
  6
BYLAYER
 62
    7
 10
12.67643972391586
 20
34.23706022983617
 11
12.74699301701164
 21
34.26808874025566
  0
LINE
  5
232
  8
CAPA_1
  6
BYLAYER
 62
    7
 10
12.74699301701164
 20
34.26808874025566
 11
12.81909168252629
 21
34.29538685247772
  0
LINE
  5
233
  8
CAPA_1
  6
BYLAYER
 62
    7
 10
12.81909168252629
 20
34.29538685247772
 11
12.8925145891173
 21
34.31888955984125
  0
LINE
  5
234
  8
CAPA_1
  6
BYLAYER
 62
    7
 10
12.8925145891173
 20
34.31888955984125
 11
12.96704060544217
 21
34.33853185568513
  0
LINE
  5
235
  8
CAPA_1
  6
BYLAYER
 62
    7
 10
12.96704060544217
 20
34.33853185568513
 11
13.04244860015839
 21
34.3542487333483
  0
LINE
  5
236
  8
CAPA_1
  6
BYLAYER
 62
    7
 10
13.04244860015839
 20
34.3542487333483
 11
13.11851744192347
 21
34.36597518616968
  0
LINE
  5
237
  8
CAPA_1
  6
BYLAYER
 62
    7
 10
13.11851744192347
 20
34.36597518616968
 11
13.1950259993949
 21
34.37364620748814
  0
LINE
  5
238
  8
CAPA_1
  6
BYLAYER
 62
    7
 10
13.1950259993949
 20
34.37364620748814
 11
13.27175314123018
 21
34.3771967906426
  0
LINE
  5
239
  8
CAPA_1
  6
BYLAYER
 62
    7
 10
13.27175314123018
 20
34.3771967906426
 11
13.34848109191021
 21
34.37657091861896
  0
LINE
  5
23A
  8
CAPA_1
  6
BYLAYER
 62
    7
 10
13.34848109191021
 20
34.37657091861896
 11
13.4250212840084
 21
34.3717908176267
  0
LINE
  5
23B
  8
CAPA_1
  6
BYLAYER
 62
    7
 10
13.4250212840084
 20
34.3717908176267
 11
13.5012001891586
 21
34.36291900081179
  0
LINE
  5
23C
  8
CAPA_1
  6
BYLAYER
 62
    7
 10
13.5012001891586
 20
34.36291900081179
 11
13.57684440328439
 21
34.35001831427005
  0
LINE
  5
23D
  8
CAPA_1
  6
BYLAYER
 62
    7
 10
13.57684440328439
 20
34.35001831427005
 11
13.65178052230936
 21
34.3331516040973
  0
LINE
  5
23E
  8
CAPA_1
  6
BYLAYER
 62
    7
 10
13.65178052230936
 20
34.3331516040973
 11
13.7258351421571
 21
34.31238171638937
  0
LINE
  5
23F
  8
CAPA_1
  6
BYLAYER
 62
    7
 10
13.7258351421571
 20
34.31238171638937
 11
13.7988348587512
 21
34.2877714972421
  0
LINE
  5
240
  8
CAPA_1
  6
BYLAYER
 62
    7
 10
13.7988348587512
 20
34.2877714972421
 11
13.87060626801525
 21
34.25938379275131
  0
LINE
  5
241
  8
CAPA_1
  6
BYLAYER
 62
    7
 10
13.87060626801525
 20
34.25938379275131
 11
13.94097596587284
 21
34.22728144901283
  0
LINE
  5
242
  8
CAPA_1
  6
BYLAYER
 62
    7
 10
13.94097596587284
 20
34.22728144901283
 11
14.00977054824756
 21
34.19152731212248
  0
LINE
  5
243
  8
CAPA_1
  6
BYLAYER
 62
    7
 10
14.00977054824756
 20
34.19152731212248
 11
14.07680503950407
 21
34.15219273172582
  0
LINE
  5
244
  8
CAPA_1
  6
BYLAYER
 62
    7
 10
14.07680503950407
 20
34.15219273172582
 11
14.14181753628331
 21
34.10940558906687
  0
LINE
  5
245
  8
CAPA_1
  6
BYLAYER
 62
    7
 10
14.14181753628331
 20
34.10940558906687
 11
14.2045147531584
 21
34.06331682701653
  0
LINE
  5
246
  8
CAPA_1
  6
BYLAYER
 62
    7
 10
14.2045147531584
 20
34.06331682701653
 11
14.26460331212998
 21
34.01407745647406
  0
LINE
  5
247
  8
CAPA_1
  6
BYLAYER
 62
    7
 10
14.26460331212998
 20
34.01407745647406
 11
14.32178983519873
 21
33.9618384883387
  0
LINE
  5
248
  8
CAPA_1
  6
BYLAYER
 62
    7
 10
14.32178983519873
 20
33.9618384883387
 11
14.37578094436528
 21
33.90675093350975
  0
LINE
  5
249
  8
CAPA_1
  6
BYLAYER
 62
    7
 10
14.37578094436528
 20
33.90675093350975
 11
14.4262832616303
 21
33.84896580288647
  0
LINE
  5
24A
  8
CAPA_1
  6
BYLAYER
 62
    7
 10
14.4262832616303
 20
33.84896580288647
 11
14.47300340899443
 21
33.78863410736813
  0
LINE
  5
24B
  8
CAPA_1
  6
BYLAYER
 62
    7
 10
14.47300340899443
 20
33.78863410736813
 11
14.51564800845834
 21
33.72590685785399
  0
LINE
  5
24C
  8
CAPA_1
  6
BYLAYER
 62
    7
 10
14.51564800845834
 20
33.72590685785399
 11
14.55392368202268
 21
33.66093506524332
  0
LINE
  5
24D
  8
CAPA_1
  6
BYLAYER
 62
    7
 10
14.55392368202268
 20
33.66093506524332
 11
14.58763587181209
 21
33.5938742854176
  0
LINE
  5
24E
  8
CAPA_1
  6
BYLAYER
 62
    7
 10
14.58763587181209
 20
33.5938742854176
 11
14.6170980786353
 21
33.52490344113524
  0
LINE
  5
24F
  8
CAPA_1
  6
BYLAYER
 62
    7
 10
14.6170980786353
 20
33.52490344113524
 11
14.64278662263382
 21
33.45420894361899
  0
LINE
  5
250
  8
CAPA_1
  6
BYLAYER
 62
    7
 10
14.64278662263382
 20
33.45420894361899
 11
14.66517789819417
 21
33.38197720750625
  0
LINE
  5
251
  8
CAPA_1
  6
BYLAYER
 62
    7
 10
14.66517789819417
 20
33.38197720750625
 11
14.68474829970287
 21
33.30839464743447
  0
LINE
  5
252
  8
CAPA_1
  6
BYLAYER
 62
    7
 10
14.68474829970287
 20
33.30839464743447
 11
14.70197422154645
 21
33.23364767804109
  0
LINE
  5
253
  8
CAPA_1
  6
BYLAYER
 62
    7
 10
14.70197422154645
 20
33.23364767804109
 11
14.71733205811143
 21
33.15792271396352
  0
LINE
  5
254
  8
CAPA_1
  6
BYLAYER
 62
    7
 10
14.71733205811143
 20
33.15792271396352
 11
14.73129820378433
 21
33.08140616983918
  0
LINE
  5
255
  8
CAPA_1
  6
BYLAYER
 62
    7
 10
14.73129820378433
 20
33.08140616983918
 11
14.74434905295168
 21
33.00428446030555
  0
LINE
  5
256
  8
CAPA_1
  6
BYLAYER
 62
    7
 10
14.74434905295168
 20
33.00428446030555
 11
14.756961
 21
32.926744
  0
LINE
  5
257
  8
CAPA_1
  6
BYLAYER
 62
    7
 10
-11.840872
 20
-28.615413
 11
-11.85263997105081
 21
-28.69308632872448
  0
LINE
  5
258
  8
CAPA_1
  6
BYLAYER
 62
    7
 10
-11.85263997105081
 20
-28.69308632872448
 11
-11.86485132352258
 21
-28.77034570027101
  0
LINE
  5
259
  8
CAPA_1
  6
BYLAYER
 62
    7
 10
-11.86485132352258
 20
-28.77034570027101
 11
-11.8779844600919
 21
-28.84700989017832
  0
LINE
  5
25A
  8
CAPA_1
  6
BYLAYER
 62
    7
 10
-11.8779844600919
 20
-28.84700989017832
 11
-11.89251778343527
 21
-28.92289767398507
  0
LINE
  5
25B
  8
CAPA_1
  6
BYLAYER
 62
    7
 10
-11.89251778343527
 20
-28.92289767398507
 11
-11.90892969622926
 21
-28.99782782722995
  0
LINE
  5
25C
  8
CAPA_1
  6
BYLAYER
 62
    7
 10
-11.90892969622926
 20
-28.99782782722995
 11
-11.9276986011504
 21
-29.07161912545167
  0
LINE
  5
25D
  8
CAPA_1
  6
BYLAYER
 62
    7
 10
-11.9276986011504
 20
-29.07161912545167
 11
-11.94930290087523
 21
-29.14409034418889
  0
LINE
  5
25E
  8
CAPA_1
  6
BYLAYER
 62
    7
 10
-11.94930290087523
 20
-29.14409034418889
 11
-11.9742209980803
 21
-29.21506025898032
  0
LINE
  5
25F
  8
CAPA_1
  6
BYLAYER
 62
    7
 10
-11.9742209980803
 20
-29.21506025898032
 11
-12.00293129544215
 21
-29.28434764536462
  0
LINE
  5
260
  8
CAPA_1
  6
BYLAYER
 62
    7
 10
-12.00293129544215
 20
-29.28434764536462
 11
-12.03591212135848
 21
-29.35177128148779
  0
LINE
  5
261
  8
CAPA_1
  6
BYLAYER
 62
    7
 10
-12.03591212135848
 20
-29.35177128148779
 11
-12.07347891071664
 21
-29.41715566324167
  0
LINE
  5
262
  8
CAPA_1
  6
BYLAYER
 62
    7
 10
-12.07347891071664
 20
-29.41715566324167
 11
-12.11543880825746
 21
-29.48034312807555
  0
LINE
  5
263
  8
CAPA_1
  6
BYLAYER
 62
    7
 10
-12.11543880825746
 20
-29.48034312807555
 11
-12.16150009357713
 21
-29.54117948371677
  0
LINE
  5
264
  8
CAPA_1
  6
BYLAYER
 62
    7
 10
-12.16150009357713
 20
-29.54117948371677
 11
-12.2113710462718
 21
-29.59951053789267
  0
LINE
  5
265
  8
CAPA_1
  6
BYLAYER
 62
    7
 10
-12.2113710462718
 20
-29.59951053789267
 11
-12.26475994593764
 21
-29.65518209833058
  0
LINE
  5
266
  8
CAPA_1
  6
BYLAYER
 62
    7
 10
-12.26475994593764
 20
-29.65518209833058
 11
-12.32137507217084
 21
-29.70803997275787
  0
LINE
  5
267
  8
CAPA_1
  6
BYLAYER
 62
    7
 10
-12.32137507217084
 20
-29.70803997275787
 11
-12.38092470456754
 21
-29.75792996890185
  0
LINE
  5
268
  8
CAPA_1
  6
BYLAYER
 62
    7
 10
-12.38092470456754
 20
-29.75792996890185
 11
-12.44311712272393
 21
-29.80469789448988
  0
LINE
  5
269
  8
CAPA_1
  6
BYLAYER
 62
    7
 10
-12.44311712272393
 20
-29.80469789448988
 11
-12.50766060623617
 21
-29.8481895572493
  0
LINE
  5
26A
  8
CAPA_1
  6
BYLAYER
 62
    7
 10
-12.50766060623617
 20
-29.8481895572493
 11
-12.57426352652638
 21
-29.88825083393951
  0
LINE
  5
26B
  8
CAPA_1
  6
BYLAYER
 62
    7
 10
-12.57426352652638
 20
-29.88825083393951
 11
-12.6426653840152
 21
-29.92475100318882
  0
LINE
  5
26C
  8
CAPA_1
  6
BYLAYER
 62
    7
 10
-12.6426653840152
 20
-29.92475100318882
 11
-12.71268198649129
 21
-29.95761670926878
  0
LINE
  5
26D
  8
CAPA_1
  6
BYLAYER
 62
    7
 10
-12.71268198649129
 20
-29.95761670926878
 11
-12.78414061998759
 21
-29.98678322545865
  0
LINE
  5
26E
  8
CAPA_1
  6
BYLAYER
 62
    7
 10
-12.78414061998759
 20
-29.98678322545865
 11
-12.85686857053707
 21
-30.01218582503768
  0
LINE
  5
26F
  8
CAPA_1
  6
BYLAYER
 62
    7
 10
-12.85686857053707
 20
-30.01218582503768
 11
-12.93069312417266
 21
-30.03375978128512
  0
LINE
  5
270
  8
CAPA_1
  6
BYLAYER
 62
    7
 10
-12.93069312417266
 20
-30.03375978128512
 11
-13.00544156692732
 21
-30.05144036748026
  0
LINE
  5
271
  8
CAPA_1
  6
BYLAYER
 62
    7
 10
-13.00544156692732
 20
-30.05144036748026
 11
-13.080941184834
 21
-30.06516285690233
  0
LINE
  5
272
  8
CAPA_1
  6
BYLAYER
 62
    7
 10
-13.080941184834
 20
-30.06516285690233
 11
-13.15701926392564
 21
-30.07486252283058
  0
LINE
  5
273
  8
CAPA_1
  6
BYLAYER
 62
    7
 10
-13.15701926392564
 20
-30.07486252283058
 11
-13.23350309023521
 21
-30.0804746385443
  0
LINE
  5
274
  8
CAPA_1
  6
BYLAYER
 62
    7
 10
-13.23350309023521
 20
-30.0804746385443
 11
-13.31021982190355
 21
-30.08193480890003
  0
LINE
  5
275
  8
CAPA_1
  6
BYLAYER
 62
    7
 10
-13.31021982190355
 20
-30.08193480890003
 11
-13.38698114212912
 21
-30.07921875960973
  0
LINE
  5
276
  8
CAPA_1
  6
BYLAYER
 62
    7
 10
-13.38698114212912
 20
-30.07921875960973
 11
-13.46356867947011
 21
-30.07238013705482
  0
LINE
  5
277
  8
CAPA_1
  6
BYLAYER
 62
    7
 10
-13.46356867947011
 20
-30.07238013705482
 11
-13.53976060939839
 21
-30.06148154020432
  0
LINE
  5
278
  8
CAPA_1
  6
BYLAYER
 62
    7
 10
-13.53976060939839
 20
-30.06148154020432
 11
-13.61533510738581
 21
-30.04658556802721
  0
LINE
  5
279
  8
CAPA_1
  6
BYLAYER
 62
    7
 10
-13.61533510738581
 20
-30.04658556802721
 11
-13.69007034890427
 21
-30.0277548194925
  0
LINE
  5
27A
  8
CAPA_1
  6
BYLAYER
 62
    7
 10
-13.69007034890427
 20
-30.0277548194925
 11
-13.76374450942562
 21
-30.00505189356918
  0
LINE
  5
27B
  8
CAPA_1
  6
BYLAYER
 62
    7
 10
-13.76374450942562
 20
-30.00505189356918
 11
-13.83613576442174
 21
-29.97853938922628
  0
LINE
  5
27C
  8
CAPA_1
  6
BYLAYER
 62
    7
 10
-13.83613576442174
 20
-29.97853938922628
 11
-13.90702228936449
 21
-29.94827990543276
  0
LINE
  5
27D
  8
CAPA_1
  6
BYLAYER
 62
    7
 10
-13.90702228936449
 20
-29.94827990543276
 11
-13.97618225972574
 21
-29.91433604115764
  0
LINE
  5
27E
  8
CAPA_1
  6
BYLAYER
 62
    7
 10
-13.97618225972574
 20
-29.91433604115764
 11
-14.04339431465191
 21
-29.87677092203831
  0
LINE
  5
27F
  8
CAPA_1
  6
BYLAYER
 62
    7
 10
-14.04339431465191
 20
-29.87677092203831
 11
-14.10846491376214
 21
-29.8356792738164
  0
LINE
  5
280
  8
CAPA_1
  6
BYLAYER
 62
    7
 10
-14.10846491376214
 20
-29.8356792738164
 11
-14.17124363840831
 21
-29.791204802395
  0
LINE
  5
281
  8
CAPA_1
  6
BYLAYER
 62
    7
 10
-14.17124363840831
 20
-29.791204802395
 11
-14.23158377933863
 21
-29.74349542702449
  0
LINE
  5
282
  8
CAPA_1
  6
BYLAYER
 62
    7
 10
-14.23158377933863
 20
-29.74349542702449
 11
-14.28933862730134
 21
-29.6926990669552
  0
LINE
  5
283
  8
CAPA_1
  6
BYLAYER
 62
    7
 10
-14.28933862730134
 20
-29.6926990669552
 11
-14.34436147304468
 21
-29.6389636414375
  0
LINE
  5
284
  8
CAPA_1
  6
BYLAYER
 62
    7
 10
-14.34436147304468
 20
-29.6389636414375
 11
-14.39650560731688
 21
-29.58243706972171
  0
LINE
  5
285
  8
CAPA_1
  6
BYLAYER
 62
    7
 10
-14.39650560731688
 20
-29.58243706972171
 11
-14.44562432086616
 21
-29.5232672710582
  0
LINE
  5
286
  8
CAPA_1
  6
BYLAYER
 62
    7
 10
-14.44562432086616
 20
-29.5232672710582
 11
-14.49157090444077
 21
-29.46160216469731
  0
LINE
  5
287
  8
CAPA_1
  6
BYLAYER
 62
    7
 10
-14.49157090444077
 20
-29.46160216469731
 11
-14.53419864878893
 21
-29.39758966988941
  0
LINE
  5
288
  8
CAPA_1
  6
BYLAYER
 62
    7
 10
-14.53419864878893
 20
-29.39758966988941
 11
-14.57336181928253
 21
-29.33137846383753
  0
LINE
  5
289
  8
CAPA_1
  6
BYLAYER
 62
    7
 10
-14.57336181928253
 20
-29.33137846383753
 11
-14.60894908940719
 21
-29.26314398250729
  0
LINE
  5
28A
  8
CAPA_1
  6
BYLAYER
 62
    7
 10
-14.60894908940719
 20
-29.26314398250729
 11
-14.64089191472872
 21
-29.19309493295647
  0
LINE
  5
28B
  8
CAPA_1
  6
BYLAYER
 62
    7
 10
-14.64089191472872
 20
-29.19309493295647
 11
-14.66912442518025
 21
-29.12144210206515
  0
LINE
  5
28C
  8
CAPA_1
  6
BYLAYER
 62
    7
 10
-14.66912442518025
 20
-29.12144210206515
 11
-14.69358075069494
 21
-29.04839627671336
  0
LINE
  5
28D
  8
CAPA_1
  6
BYLAYER
 62
    7
 10
-14.69358075069494
 20
-29.04839627671336
 11
-14.71419502120591
 21
-28.97416824378115
  0
LINE
  5
28E
  8
CAPA_1
  6
BYLAYER
 62
    7
 10
-14.71419502120591
 20
-28.97416824378115
 11
-14.73090136664631
 21
-28.89896879014858
  0
LINE
  5
28F
  8
CAPA_1
  6
BYLAYER
 62
    7
 10
-14.73090136664631
 20
-28.89896879014858
 11
-14.74363391694928
 21
-28.82300870269571
  0
LINE
  5
290
  8
CAPA_1
  6
BYLAYER
 62
    7
 10
-14.74363391694928
 20
-28.82300870269571
 11
-14.75232680204796
 21
-28.74649876830258
  0
LINE
  5
291
  8
CAPA_1
  6
BYLAYER
 62
    7
 10
-14.75232680204796
 20
-28.74649876830258
 11
-14.75691415187548
 21
-28.66964977384923
  0
LINE
  5
292
  8
CAPA_1
  6
BYLAYER
 62
    7
 10
-14.75691415187548
 20
-28.66964977384923
 11
-14.75733279305534
 21
-28.59267252093482
  0
LINE
  5
293
  8
CAPA_1
  6
BYLAYER
 62
    7
 10
-14.75733279305534
 20
-28.59267252093482
 11
-14.75358157608886
 21
-28.51577814969745
  0
LINE
  5
294
  8
CAPA_1
  6
BYLAYER
 62
    7
 10
-14.75358157608886
 20
-28.51577814969745
 11
-14.74572137535529
 21
-28.43917813881421
  0
LINE
  5
295
  8
CAPA_1
  6
BYLAYER
 62
    7
 10
-14.74572137535529
 20
-28.43917813881421
 11
-14.73381576192415
 21
-28.36308398168126
  0
LINE
  5
296
  8
CAPA_1
  6
BYLAYER
 62
    7
 10
-14.73381576192415
 20
-28.36308398168126
 11
-14.71792830686501
 21
-28.28770717169478
  0
LINE
  5
297
  8
CAPA_1
  6
BYLAYER
 62
    7
 10
-14.71792830686501
 20
-28.28770717169478
 11
-14.69812258124743
 21
-28.21325920225095
  0
LINE
  5
298
  8
CAPA_1
  6
BYLAYER
 62
    7
 10
-14.69812258124743
 20
-28.21325920225095
 11
-14.67446215614095
 21
-28.13995156674593
  0
LINE
  5
299
  8
CAPA_1
  6
BYLAYER
 62
    7
 10
-14.67446215614095
 20
-28.13995156674593
 11
-14.64701060261515
 21
-28.0679957585759
  0
LINE
  5
29A
  8
CAPA_1
  6
BYLAYER
 62
    7
 10
-14.64701060261515
 20
-28.0679957585759
 11
-14.61583149173956
 21
-27.99760327113703
  0
LINE
  5
29B
  8
CAPA_1
  6
BYLAYER
 62
    7
 10
-14.61583149173956
 20
-27.99760327113703
 11
-14.58098839458374
 21
-27.9289855978255
  0
LINE
  5
29C
  8
CAPA_1
  6
BYLAYER
 62
    7
 10
-14.58098839458374
 20
-27.9289855978255
 11
-14.54254757921162
 21
-27.86235218145736
  0
LINE
  5
29D
  8
CAPA_1
  6
BYLAYER
 62
    7
 10
-14.54254757921162
 20
-27.86235218145736
 11
-14.50061845773406
 21
-27.79787966154559
  0
LINE
  5
29E
  8
CAPA_1
  6
BYLAYER
 62
    7
 10
-14.50061845773406
 20
-27.79787966154559
 11
-14.45534514149269
 21
-27.73571829506682
  0
LINE
  5
29F
  8
CAPA_1
  6
BYLAYER
 62
    7
 10
-14.45534514149269
 20
-27.73571829506682
 11
-14.40687272469878
 21
-27.67601759170174
  0
LINE
  5
2A0
  8
CAPA_1
  6
BYLAYER
 62
    7
 10
-14.40687272469878
 20
-27.67601759170174
 11
-14.35534630156364
 21
-27.61892706113104
  0
LINE
  5
2A1
  8
CAPA_1
  6
BYLAYER
 62
    7
 10
-14.35534630156364
 20
-27.61892706113104
 11
-14.30091096629854
 21
-27.56459621303539
  0
LINE
  5
2A2
  8
CAPA_1
  6
BYLAYER
 62
    7
 10
-14.30091096629854
 20
-27.56459621303539
 11
-14.24371181311477
 21
-27.51317455709551
  0
LINE
  5
2A3
  8
CAPA_1
  6
BYLAYER
 62
    7
 10
-14.24371181311477
 20
-27.51317455709551
 11
-14.18389393622363
 21
-27.46481160299207
  0
LINE
  5
2A4
  8
CAPA_1
  6
BYLAYER
 62
    7
 10
-14.18389393622363
 20
-27.46481160299207
 11
-14.1216024298364
 21
-27.41965686040575
  0
LINE
  5
2A5
  8
CAPA_1
  6
BYLAYER
 62
    7
 10
-14.1216024298364
 20
-27.41965686040575
 11
-14.05698238816437
 21
-27.37785983901728
  0
LINE
  5
2A6
  8
CAPA_1
  6
BYLAYER
 62
    7
 10
-14.05698238816437
 20
-27.37785983901728
 11
-13.9901826604908
 21
-27.33956587546804
  0
LINE
  5
2A7
  8
CAPA_1
  6
BYLAYER
 62
    7
 10
-13.9901826604908
 20
-27.33956587546804
 11
-13.92139574881065
 21
-27.30487179481808
  0
LINE
  5
2A8
  8
CAPA_1
  6
BYLAYER
 62
    7
 10
-13.92139574881065
 20
-27.30487179481808
 11
-13.85084231815871
 21
-27.27384312433298
  0
LINE
  5
2A9
  8
CAPA_1
  6
BYLAYER
 62
    7
 10
-13.85084231815871
 20
-27.27384312433298
 11
-13.77874350295374
 21
-27.24654486964841
  0
LINE
  5
2AA
  8
CAPA_1
  6
BYLAYER
 62
    7
 10
-13.77874350295374
 20
-27.24654486964841
 11
-13.7053204376145
 21
-27.22304203640003
  0
LINE
  5
2AB
  8
CAPA_1
  6
BYLAYER
 62
    7
 10
-13.7053204376145
 20
-27.22304203640003
 11
-13.63079425655978
 21
-27.20339963022352
  0
LINE
  5
2AC
  8
CAPA_1
  6
BYLAYER
 62
    7
 10
-13.63079425655978
 20
-27.20339963022352
 11
-13.55538609420833
 21
-27.18768265675455
  0
LINE
  5
2AD
  8
CAPA_1
  6
BYLAYER
 62
    7
 10
-13.55538609420833
 20
-27.18768265675455
 11
-13.47931708497893
 21
-27.17595612162878
  0
LINE
  5
2AE
  8
CAPA_1
  6
BYLAYER
 62
    7
 10
-13.47931708497893
 20
-27.17595612162878
 11
-13.40280836329036
 21
-27.16828503048189
  0
LINE
  5
2AF
  8
CAPA_1
  6
BYLAYER
 62
    7
 10
-13.40280836329036
 20
-27.16828503048189
 11
-13.32608106356137
 21
-27.16473438894955
  0
LINE
  5
2B0
  8
CAPA_1
  6
BYLAYER
 62
    7
 10
-13.32608106356137
 20
-27.16473438894955
 11
-13.24935296424315
 21
-27.16536021302046
  0
LINE
  5
2B1
  8
CAPA_1
  6
BYLAYER
 62
    7
 10
-13.24935296424315
 20
-27.16536021302046
 11
-13.17281263443925
 21
-27.17014027545966
  0
LINE
  5
2B2
  8
CAPA_1
  6
BYLAYER
 62
    7
 10
-13.17281263443925
 20
-27.17014027545966
 11
-13.09663360354662
 21
-27.17901206209582
  0
LINE
  5
2B3
  8
CAPA_1
  6
BYLAYER
 62
    7
 10
-13.09663360354662
 20
-27.17901206209582
 11
-13.02098927666708
 21
-27.19191272580767
  0
LINE
  5
2B4
  8
CAPA_1
  6
BYLAYER
 62
    7
 10
-13.02098927666708
 20
-27.19191272580767
 11
-12.94605305890247
 21
-27.20877941947397
  0
LINE
  5
2B5
  8
CAPA_1
  6
BYLAYER
 62
    7
 10
-12.94605305890247
 20
-27.20877941947397
 11
-12.87199835535461
 21
-27.22954929597345
  0
LINE
  5
2B6
  8
CAPA_1
  6
BYLAYER
 62
    7
 10
-12.87199835535461
 20
-27.22954929597345
 11
-12.79899857112535
 21
-27.25415950818488
  0
LINE
  5
2B7
  8
CAPA_1
  6
BYLAYER
 62
    7
 10
-12.79899857112535
 20
-27.25415950818488
 11
-12.72722711131651
 21
-27.282547208987
  0
LINE
  5
2B8
  8
CAPA_1
  6
BYLAYER
 62
    7
 10
-12.72722711131651
 20
-27.282547208987
 11
-12.65685738102993
 21
-27.31464955125856
  0
LINE
  5
2B9
  8
CAPA_1
  6
BYLAYER
 62
    7
 10
-12.65685738102993
 20
-27.31464955125856
 11
-12.58806278536744
 21
-27.35040368787831
  0
LINE
  5
2BA
  8
CAPA_1
  6
BYLAYER
 62
    7
 10
-12.58806278536744
 20
-27.35040368787831
 11
-12.5210283005942
 21
-27.38973826827419
  0
LINE
  5
2BB
  8
CAPA_1
  6
BYLAYER
 62
    7
 10
-12.5210283005942
 20
-27.38973826827419
 11
-12.45601582806906
 21
-27.43252541093313
  0
LINE
  5
2BC
  8
CAPA_1
  6
BYLAYER
 62
    7
 10
-12.45601582806906
 20
-27.43252541093313
 11
-12.39331865014579
 21
-27.47861417298347
  0
LINE
  5
2BD
  8
CAPA_1
  6
BYLAYER
 62
    7
 10
-12.39331865014579
 20
-27.47861417298347
 11
-12.33323014174747
 21
-27.52785354352596
  0
LINE
  5
2BE
  8
CAPA_1
  6
BYLAYER
 62
    7
 10
-12.33323014174747
 20
-27.52785354352596
 11
-12.27604367779718
 21
-27.58009251166131
  0
LINE
  5
2BF
  8
CAPA_1
  6
BYLAYER
 62
    7
 10
-12.27604367779718
 20
-27.58009251166131
 11
-12.222052633218
 21
-27.63518006649025
  0
LINE
  5
2C0
  8
CAPA_1
  6
BYLAYER
 62
    7
 10
-12.222052633218
 20
-27.63518006649025
 11
-12.17155038293302
 21
-27.69296519711354
  0
LINE
  5
2C1
  8
CAPA_1
  6
BYLAYER
 62
    7
 10
-12.17155038293302
 20
-27.69296519711354
 11
-12.12483030186529
 21
-27.75329689263188
  0
LINE
  5
2C2
  8
CAPA_1
  6
BYLAYER
 62
    7
 10
-12.12483030186529
 20
-27.75329689263188
 11
-12.08218576493792
 21
-27.81602414214602
  0
LINE
  5
2C3
  8
CAPA_1
  6
BYLAYER
 62
    7
 10
-12.08218576493792
 20
-27.81602414214602
 11
-12.04391014707396
 21
-27.88099593475669
  0
LINE
  5
2C4
  8
CAPA_1
  6
BYLAYER
 62
    7
 10
-12.04391014707396
 20
-27.88099593475669
 11
-12.01019800359907
 21
-27.94805671458241
  0
LINE
  5
2C5
  8
CAPA_1
  6
BYLAYER
 62
    7
 10
-12.01019800359907
 20
-27.94805671458241
 11
-11.98073583386198
 21
-28.01702755886475
  0
LINE
  5
2C6
  8
CAPA_1
  6
BYLAYER
 62
    7
 10
-11.98073583386198
 20
-28.01702755886475
 11
-11.95504731874619
 21
-28.08772205638102
  0
LINE
  5
2C7
  8
CAPA_1
  6
BYLAYER
 62
    7
 10
-11.95504731874619
 20
-28.08772205638102
 11
-11.93265606489062
 21
-28.15995379249375
  0
LINE
  5
2C8
  8
CAPA_1
  6
BYLAYER
 62
    7
 10
-11.93265606489062
 20
-28.15995379249375
 11
-11.91308567893416
 21
-28.23353635256553
  0
LINE
  5
2C9
  8
CAPA_1
  6
BYLAYER
 62
    7
 10
-11.91308567893416
 20
-28.23353635256553
 11
-11.89585976751571
 21
-28.30828332195892
  0
LINE
  5
2CA
  8
CAPA_1
  6
BYLAYER
 62
    7
 10
-11.89585976751571
 20
-28.30828332195892
 11
-11.88050193727417
 21
-28.38400828603649
  0
LINE
  5
2CB
  8
CAPA_1
  6
BYLAYER
 62
    7
 10
-11.88050193727417
 20
-28.38400828603649
 11
-11.86653579484844
 21
-28.46052483016081
  0
LINE
  5
2CC
  8
CAPA_1
  6
BYLAYER
 62
    7
 10
-11.86653579484844
 20
-28.46052483016081
 11
-11.85348494687742
 21
-28.53764653969446
  0
LINE
  5
2CD
  8
CAPA_1
  6
BYLAYER
 62
    7
 10
-11.85348494687742
 20
-28.53764653969446
 11
-11.840873
 21
-28.615187
  0
ENDSEC
  0
EOF
